<svg xmlns="http://www.w3.org/2000/svg" xmlns:xlink="http://www.w3.org/1999/xlink" width="126" zoomAndPan="magnify" viewBox="0 0 94.5 112.499997" height="150" preserveAspectRatio="xMidYMid meet" version="1.0"><defs><clipPath id="1b5b5d89e1"><path d="M 92 82 L 93.863281 82 L 93.863281 84 L 92 84 Z M 92 82 " clip-rule="nonzero"/></clipPath><clipPath id="4300f0981c"><path d="M 88 80 L 93.863281 80 L 93.863281 85 L 88 85 Z M 88 80 " clip-rule="nonzero"/></clipPath><clipPath id="1f5bd7d2c5"><path d="M 83 73 L 93.863281 73 L 93.863281 92 L 83 92 Z M 83 73 " clip-rule="nonzero"/></clipPath><clipPath id="151fad184d"><path d="M 82 74 L 93.863281 74 L 93.863281 93 L 82 93 Z M 82 74 " clip-rule="nonzero"/></clipPath><clipPath id="537a5262e3"><path d="M 13.289062 0.046875 L 41 0.046875 L 41 18 L 13.289062 18 Z M 13.289062 0.046875 " clip-rule="nonzero"/></clipPath><clipPath id="df9c5c96ac"><path d="M 13.289062 7 L 32 7 L 32 27 L 13.289062 27 Z M 13.289062 7 " clip-rule="nonzero"/></clipPath><clipPath id="e681ae1924"><path d="M 30 0.046875 L 49 0.046875 L 49 22 L 30 22 Z M 30 0.046875 " clip-rule="nonzero"/></clipPath><clipPath id="e66bdf6d71"><path d="M 30 103 L 37 103 L 37 111.957031 L 30 111.957031 Z M 30 103 " clip-rule="nonzero"/></clipPath><clipPath id="41e3b14925"><path d="M 31.019531 109.699219 L 36.753906 109.699219 L 36.753906 111.953125 L 31.019531 111.953125 Z M 31.019531 109.699219 " clip-rule="nonzero"/></clipPath><clipPath id="536747c4c7"><path d="M 26 0.046875 L 44 0.046875 L 44 21 L 26 21 Z M 26 0.046875 " clip-rule="nonzero"/></clipPath><clipPath id="47852ab08d"><path d="M 23 0.046875 L 42 0.046875 L 42 17 L 23 17 Z M 23 0.046875 " clip-rule="nonzero"/></clipPath><clipPath id="596327c9f4"><path d="M 27 0.046875 L 46 0.046875 L 46 18 L 27 18 Z M 27 0.046875 " clip-rule="nonzero"/></clipPath><clipPath id="f26cc90faa"><path d="M 17.6875 32.109375 L 39.285156 32.109375 L 39.285156 111.953125 L 17.6875 111.953125 Z M 17.6875 32.109375 " clip-rule="nonzero"/></clipPath><clipPath id="bc71347604"><path d="M 13.289062 53 L 30 53 L 30 73 L 13.289062 73 Z M 13.289062 53 " clip-rule="nonzero"/></clipPath><clipPath id="6089a6af40"><path d="M 13.289062 53 L 28 53 L 28 73 L 13.289062 73 Z M 13.289062 53 " clip-rule="nonzero"/></clipPath><clipPath id="d1bcaeb614"><path d="M 13.289062 12 L 35 12 L 35 43 L 13.289062 43 Z M 13.289062 12 " clip-rule="nonzero"/></clipPath></defs><path fill="#edba68" d="M 51.855469 58.136719 C 51.777344 58.023438 51.777344 57.867188 51.792969 57.804688 C 51.808594 57.742188 52.972656 58.070312 52.972656 58.070312 C 52.972656 58.070312 52.09375 58.261719 51.855469 58.136719 " fill-opacity="1" fill-rule="evenodd"/><path fill="#f2d291" d="M 55.5 60.597656 C 55.355469 60.214844 54.703125 58.101562 54.652344 58.027344 C 54.605469 57.949219 53.53125 57.136719 53.53125 57.136719 L 51.886719 56.988281 C 51.886719 56.988281 52.226562 57.351562 52.382812 57.421875 C 52.542969 57.496094 53.050781 57.511719 53.050781 57.511719 L 53.550781 57.984375 L 52.914062 57.886719 C 52.914062 57.886719 51.078125 57.792969 50.996094 57.765625 C 50.910156 57.734375 51.164062 58.117188 51.390625 58.210938 C 51.621094 58.304688 52.363281 58.433594 52.363281 58.433594 C 52.363281 58.433594 51.351562 58.464844 51.230469 58.476562 C 51.21875 58.566406 51.335938 58.730469 51.484375 58.796875 L 51.40625 58.816406 C 51.40625 58.816406 51.53125 59.113281 51.816406 59.292969 C 52.105469 59.472656 52.335938 59.476562 52.335938 59.476562 C 52.335938 59.476562 52.796875 59.957031 52.886719 60.027344 C 52.972656 60.097656 53.292969 60.574219 53.414062 60.777344 C 53.539062 60.984375 54.074219 61.617188 54.230469 61.667969 C 54.386719 61.722656 54.734375 61.714844 54.734375 61.714844 L 55.5 60.597656 " fill-opacity="1" fill-rule="evenodd"/><path stroke-linecap="butt" transform="matrix(0.013331, 0, 0, -0.0133542, 13.822805, 111.953926)" fill="none" stroke-linejoin="miter" d="M 2973.962195 4001.328483 C 2973.962195 4001.328483 2950.520625 4006.593695 2926.493017 4007.471231 C 2902.172388 4008.348766 2880.781956 4005.131136 2880.781956 4005.131136 " stroke="#2f2e6b" stroke-width="19.035" stroke-opacity="1" stroke-miterlimit="22.926001"/><path stroke-linecap="butt" transform="matrix(0.013331, 0, 0, -0.0133542, 13.822805, 111.953926)" fill="none" stroke-linejoin="miter" d="M 2825.694268 3979.975124 C 2846.498661 3973.832377 2889.865564 3966.519583 2900.414271 3963.594465 C 2910.669957 3960.376835 2955.794979 3928.493052 2955.794979 3928.493052 " stroke="#2f2e6b" stroke-width="19.035" stroke-opacity="1" stroke-miterlimit="22.926001"/><g clip-path="url(#1b5b5d89e1)"><path fill="#edba68" d="M 92.703125 83.371094 C 92.832031 83.417969 92.984375 83.378906 93.039062 83.347656 C 93.09375 83.316406 92.5 82.269531 92.5 82.269531 C 92.5 82.269531 92.523438 83.171875 92.703125 83.371094 " fill-opacity="1" fill-rule="evenodd"/></g><g clip-path="url(#4300f0981c)"><path fill="#f2d291" d="M 89.4375 80.421875 C 89.84375 80.46875 92.050781 80.59375 92.132812 80.621094 C 92.21875 80.652344 93.265625 81.5 93.265625 81.5 L 93.808594 83.058594 C 93.808594 83.058594 93.375 82.820312 93.265625 82.683594 C 93.15625 82.546875 93.019531 82.054688 93.019531 82.054688 L 92.4375 81.683594 L 92.691406 82.28125 C 92.691406 82.28125 93.222656 84.042969 93.273438 84.117188 C 93.324219 84.191406 92.890625 84.039062 92.742188 83.839844 C 92.597656 83.636719 92.292969 82.949219 92.292969 82.949219 C 92.292969 82.949219 92.507812 83.941406 92.523438 84.058594 C 92.4375 84.089844 92.253906 84.019531 92.15625 83.890625 L 92.152344 83.96875 C 92.152344 83.96875 91.835938 83.921875 91.589844 83.683594 C 91.347656 83.449219 91.289062 83.226562 91.289062 83.226562 C 91.289062 83.226562 90.710938 82.894531 90.625 82.824219 C 90.535156 82.757812 89.996094 82.558594 89.765625 82.492188 C 89.539062 82.421875 88.796875 82.050781 88.707031 81.914062 C 88.617188 81.777344 88.542969 81.4375 88.542969 81.4375 L 89.4375 80.421875 " fill-opacity="1" fill-rule="evenodd"/></g><g clip-path="url(#1f5bd7d2c5)"><path stroke-linecap="butt" transform="matrix(0.013331, 0, 0, -0.0133542, 13.822805, 111.953926)" fill="none" stroke-linejoin="miter" d="M 5859.912422 2250.938046 C 5859.912422 2250.938046 5870.754148 2229.584687 5877.493599 2206.183745 C 5884.233051 2183.075315 5885.991168 2161.429444 5885.991168 2161.429444 " stroke="#2f2e6b" stroke-width="19.035" stroke-opacity="1" stroke-miterlimit="22.926001"/></g><g clip-path="url(#151fad184d)"><path stroke-linecap="butt" transform="matrix(0.013331, 0, 0, -0.0133542, 13.822805, 111.953926)" fill="none" stroke-linejoin="miter" d="M 5875.149443 2102.049555 C 5864.014697 2120.770308 5846.726539 2161.136933 5841.159167 2170.497309 C 5835.591794 2179.857686 5793.689988 2215.544122 5793.689988 2215.544122 " stroke="#2f2e6b" stroke-width="19.035" stroke-opacity="1" stroke-miterlimit="22.926001"/></g><path fill="#f2d291" d="M 79.601562 77.90625 C 82.816406 81.175781 89.585938 82.351562 89.585938 82.351562 L 89.859375 80.71875 C 89.859375 80.71875 84.226562 77.1875 82.617188 76.222656 L 79.601562 77.90625 " fill-opacity="1" fill-rule="evenodd"/><path fill="#f2d291" d="M 75.851562 67.621094 C 74.800781 69.683594 78.542969 76.417969 79.601562 77.90625 L 83.347656 76.632812 C 82.507812 74.957031 80.382812 69.003906 80.035156 68.320312 C 79.4375 67.152344 76.511719 66.332031 75.851562 67.621094 " fill-opacity="1" fill-rule="evenodd"/><path fill="#ffffff" d="M 76.464844 66.539062 C 74.757812 67.414062 75.050781 70.042969 77.8125 74.570312 L 82.21875 71.929688 C 80.898438 69.300781 79.285156 65.09375 76.464844 66.539062 " fill-opacity="1" fill-rule="evenodd"/><path stroke-linecap="butt" transform="matrix(0.013331, 0, 0, -0.0133542, 13.822805, 111.953926)" fill="none" stroke-linejoin="miter" d="M 4698.968692 3400.801818 C 4570.919118 3335.279181 4592.89559 3138.418759 4800.06046 2799.397617 L 5130.586591 2997.135574 C 5031.545959 3193.995996 4910.528857 3509.031173 4698.968692 3400.801818 Z M 4698.968692 3400.801818 " stroke="#2f2e6b" stroke-width="19.035" stroke-opacity="1" stroke-miterlimit="22.926001"/><path fill="#8fb2ee" d="M 73.066406 94.164062 C 73.542969 98.222656 74.207031 102.15625 74.96875 106.148438 C 76.125 106.054688 77.449219 105.949219 78.605469 105.859375 C 78.777344 101.644531 78.960938 97.5625 79.035156 93.226562 L 79.042969 93.226562 L 79.039062 93.160156 L 79.039062 93.144531 L 79.035156 93.144531 C 78.496094 87.921875 77.75 82.339844 76.503906 75.742188 L 70.382812 76.980469 C 70.863281 83.28125 71.804688 88.863281 73.050781 94.167969 L 73.066406 94.164062 " fill-opacity="1" fill-rule="evenodd"/><path fill="#2f2e6b" d="M 73.066406 94.164062 C 73.542969 98.222656 74.207031 102.15625 74.96875 106.148438 L 75.605469 106.097656 C 75.332031 102.96875 74.65625 95.25 74.511719 93.671875 C 74.332031 91.683594 72.460938 86.375 72.460938 86.375 L 71.476562 86.230469 C 71.917969 88.976562 72.445312 91.601562 73.050781 94.167969 L 73.066406 94.164062 " fill-opacity="1" fill-rule="evenodd"/><path fill="#8fb2ee" d="M 74.101562 78.375 C 73.027344 84.320312 71.757812 90.378906 70.1875 95.886719 L 65.109375 94.152344 C 64.9375 89.558594 64.957031 85.898438 65.71875 81.898438 C 66.039062 80.210938 67.644531 78.3125 67.96875 76.542969 L 74.101562 78.375 " fill-opacity="1" fill-rule="evenodd"/><path fill="#8fb2ee" d="M 70.1875 95.886719 C 66.203125 99.398438 64.515625 100.558594 61.058594 103.222656 L 58.546875 100.859375 C 61.5625 96.382812 63.6875 94.417969 66.960938 91.589844 L 70.1875 95.886719 " fill-opacity="1" fill-rule="evenodd"/><path fill="#f2d291" d="M 55.871094 103.503906 L 57.710938 105.652344 L 61.039062 103.046875 L 59.195312 100.898438 L 55.871094 103.503906 " fill-opacity="1" fill-rule="evenodd"/><path fill="#2f2e6b" d="M 55.28125 103.964844 L 59.195312 108.527344 C 59.195312 108.527344 59.984375 108.15625 59.976562 107.710938 C 59.964844 106.59375 59.402344 105.820312 59.125 104.980469 C 59.046875 104.746094 58.90625 104.605469 58.449219 104.445312 L 57.363281 104.0625 L 56.472656 103.03125 L 55.28125 103.964844 " fill-opacity="1" fill-rule="evenodd"/><path fill="#2f2e6b" d="M 59.089844 99.980469 L 62.015625 102.679688 L 60.378906 103.925781 L 57.539062 101.402344 L 59.089844 99.980469 " fill-opacity="1" fill-rule="evenodd"/><path fill="#2f2e6b" d="M 59.125 104.980469 L 59.800781 104.1875 C 59.800781 104.1875 59.089844 103.613281 58.710938 103.773438 C 58.332031 103.929688 58.078125 104.792969 58.078125 104.792969 L 59.125 104.980469 " fill-opacity="1" fill-rule="evenodd"/><path fill="#f66f82" d="M 78.203125 83.960938 C 73.011719 85.84375 69.898438 82.429688 65.203125 82.542969 L 65.988281 66.125 C 67.511719 65.207031 69.589844 64.378906 71.472656 64.40625 C 72.1875 64.417969 72.9375 64.386719 73.683594 64.546875 C 75.792969 64.996094 77.035156 65.445312 77.816406 66.027344 C 79.5 67.28125 79.015625 69.582031 78.96875 71.214844 C 78.820312 76.539062 78.273438 81.496094 78.203125 83.960938 " fill-opacity="1" fill-rule="evenodd"/><path fill="#f2d291" d="M 75.347656 66.292969 C 74.976562 68.539062 71.535156 67.464844 70.769531 65.308594 L 71.015625 60.050781 L 75.199219 60.941406 C 75.25 62.726562 75.296875 64.507812 75.347656 66.292969 " fill-opacity="1" fill-rule="evenodd"/><path fill="#f2d291" d="M 72.835938 52.757812 C 71.835938 52.9375 68.832031 53.511719 69.386719 57.445312 C 69.941406 61.375 70.738281 62.566406 71.304688 63.078125 C 72.027344 63.734375 73.136719 64.410156 75.621094 64.355469 C 77.03125 64.054688 77.710938 63.015625 78.03125 62.109375 C 78.28125 61.390625 78.78125 59.976562 78.125 56.0625 C 77.464844 52.148438 73.84375 52.625 72.835938 52.757812 " fill-opacity="1" fill-rule="evenodd"/><path fill="#2f2e6b" d="M 69.460938 59.839844 C 66.957031 59.539062 66.347656 54.867188 68.726562 54.34375 C 68.695312 52.519531 70.140625 51.726562 71.761719 51.851562 C 73.085938 51.957031 74.734375 51.238281 75.726562 50.976562 C 77.535156 50.496094 79.257812 52 78.019531 53.097656 C 78.289062 53.015625 79.5625 53.171875 79.574219 54.082031 C 79.589844 55.488281 77.804688 55.605469 76.371094 55.746094 C 73.9375 55.976562 72.503906 55.550781 71.515625 56.085938 C 70.402344 56.691406 70.179688 57.273438 69.902344 58.082031 C 69.628906 58.886719 69.515625 59.835938 69.460938 59.839844 " fill-opacity="1" fill-rule="evenodd"/><path fill="#f2d291" d="M 70.097656 58.6875 C 69.90625 58.429688 69.6875 58.234375 69.3125 58.210938 C 68.9375 58.191406 68.304688 58.480469 68.46875 59.511719 C 68.628906 60.542969 69.625 61.296875 70.148438 61.089844 C 70.671875 60.882812 70.097656 58.6875 70.097656 58.6875 " fill-opacity="1" fill-rule="evenodd"/><path stroke-linecap="butt" transform="matrix(0.013331, 0, 0, -0.0133542, 13.822805, 111.953926)" fill="none" stroke-linejoin="miter" d="M 4197.026085 3946.33627 C 4195.560987 3955.989159 4151.022004 3994.893224 4123.77118 3959.4993 " stroke="#2f2e6b" stroke-width="14.277" stroke-opacity="1" stroke-miterlimit="22.926001"/><path stroke-linecap="butt" transform="matrix(0.013331, 0, 0, -0.0133542, 13.822805, 111.953926)" fill="none" stroke-linejoin="miter" d="M 4626.885866 4045.497761 C 4629.230023 3986.702895 4681.094495 3956.866694 4682.266574 3935.220823 C 4684.317711 3905.677134 4638.60665 3901.581969 4638.60665 3901.581969 " stroke="#2f2e6b" stroke-width="19.035" stroke-opacity="1" stroke-miterlimit="22.926001"/><path stroke-linecap="butt" transform="matrix(0.013331, 0, 0, -0.0133542, 13.822805, 111.953926)" fill="none" stroke-linejoin="miter" d="M 4591.430492 3804.468062 C 4662.634259 3794.522661 4706.001163 3807.685691 4734.424066 3841.617056 " stroke="#2f2e6b" stroke-width="19.035" stroke-opacity="1" stroke-miterlimit="22.926001"/><path stroke-linecap="butt" transform="matrix(0.013331, 0, 0, -0.0133542, 13.822805, 111.953926)" fill="none" stroke-linejoin="miter" d="M 4405.070014 4098.442391 C 4419.134956 4111.020397 4468.069232 4127.693568 4499.422331 4132.081245 " stroke="#2f2e6b" stroke-width="19.035" stroke-opacity="1" stroke-miterlimit="22.926001"/><path stroke-linecap="butt" transform="matrix(0.013331, 0, 0, -0.0133542, 13.822805, 111.953926)" fill="none" stroke-linejoin="miter" d="M 4231.30938 3796.570244 C 4259.439263 3717.884577 4288.448206 3681.028094 4311.889775 3659.967247 C 4366.098405 3610.825269 4449.315977 3560.220733 4635.676454 3564.315898 " stroke="#2f2e6b" stroke-width="19.035" stroke-opacity="1" stroke-miterlimit="22.926001"/><path stroke-linecap="butt" transform="matrix(0.013331, 0, 0, -0.0133542, 13.822805, 111.953926)" fill="none" stroke-linejoin="miter" d="M 4780.721166 4150.509486 C 4762.553949 4156.359722 4711.275516 4151.09451 4680.801476 4142.319157 " stroke="#2f2e6b" stroke-width="19.035" stroke-opacity="1" stroke-miterlimit="22.926001"/><path fill="#2f2e6b" d="M 73.527344 58.3125 C 73.285156 58.351562 73.171875 58.621094 73.277344 58.917969 C 73.378906 59.210938 73.660156 59.417969 73.902344 59.375 C 74.144531 59.335938 74.257812 59.066406 74.152344 58.773438 C 74.050781 58.480469 73.769531 58.273438 73.527344 58.3125 " fill-opacity="1" fill-rule="evenodd"/><path stroke-linecap="butt" transform="matrix(0.013331, 0, 0, -0.0133542, 13.822805, 111.953926)" fill="none" stroke-linejoin="miter" d="M 4649.741396 3743.333101 C 4649.741396 3743.333101 4680.801476 3752.693478 4703.363986 3755.033572 " stroke="#2f2e6b" stroke-width="19.035" stroke-opacity="1" stroke-miterlimit="22.926001"/><path fill="#2f2e6b" d="M 77.09375 57.691406 C 76.851562 57.734375 76.738281 58.003906 76.839844 58.296875 C 76.945312 58.589844 77.222656 58.796875 77.464844 58.757812 C 77.707031 58.71875 77.820312 58.445312 77.71875 58.152344 C 77.613281 57.859375 77.335938 57.652344 77.09375 57.691406 " fill-opacity="1" fill-rule="evenodd"/><path stroke-linecap="butt" transform="matrix(0.013331, 0, 0, -0.0133542, 13.822805, 111.953926)" fill="none" stroke-linejoin="miter" d="M 4131.975729 4298.520443 C 4088.315806 4329.819202 4081.283335 4445.361352 4181.203025 4489.823141 " stroke="#2f2e6b" stroke-width="19.035" stroke-opacity="1" stroke-miterlimit="22.926001"/><path stroke-linecap="butt" transform="matrix(0.013331, 0, 0, -0.0133542, 13.822805, 111.953926)" fill="none" stroke-linejoin="miter" d="M 4056.962707 4450.04154 C 4056.962707 4450.04154 4057.255726 4326.016549 4125.236278 4310.805937 " stroke="#2f2e6b" stroke-width="19.035" stroke-opacity="1" stroke-miterlimit="22.926001"/><path stroke-linecap="butt" transform="matrix(0.013331, 0, 0, -0.0133542, 13.822805, 111.953926)" fill="none" stroke-linejoin="miter" d="M 3973.452115 1189.997853 C 3942.099016 1260.49319 3835.146855 1343.566533 3879.099798 1401.191352 C 3923.052741 1458.816171 3990.154234 1280.969014 4045.827961 1284.771667 C 4101.501689 1288.866832 4018.577137 1368.137522 4004.805215 1409.966705 " stroke="#2f2e6b" stroke-width="19.035" stroke-opacity="1" stroke-miterlimit="22.926001"/><path fill="#f66f82" d="M 72.828125 59.921875 C 73.308594 60.125 73.601562 60.523438 73.480469 60.808594 C 73.359375 61.09375 72.871094 61.15625 72.390625 60.953125 C 71.910156 60.75 71.617188 60.351562 71.734375 60.066406 C 71.855469 59.78125 72.34375 59.71875 72.828125 59.921875 " fill-opacity="1" fill-rule="evenodd"/><path fill="#f2d291" d="M 57.457031 70.078125 C 54.101562 66.949219 53.664062 60.675781 53.664062 60.675781 L 55.285156 60.351562 C 55.285156 60.351562 58.839844 65.515625 59.84375 67.101562 L 57.457031 70.078125 " fill-opacity="1" fill-rule="evenodd"/><path fill="#f2d291" d="M 69.925781 67.535156 C 68.953125 69.636719 60.6875 70.617188 57.457031 70.078125 L 58.480469 66.910156 C 60.320312 66.535156 66.046875 64.816406 66.796875 64.667969 C 68.082031 64.421875 70.535156 66.222656 69.925781 67.535156 " fill-opacity="1" fill-rule="evenodd"/><path fill="#ffffff" d="M 70.398438 66.382812 C 70.765625 68.269531 68.515625 69.660156 63.257812 70.273438 L 62.613281 65.175781 C 65.496094 64.59375 69.796875 63.269531 70.398438 66.382812 " fill-opacity="1" fill-rule="evenodd"/><path stroke-linecap="butt" transform="matrix(0.013331, 0, 0, -0.0133542, 13.822805, 111.953926)" fill="none" stroke-linejoin="miter" d="M 4243.909224 3412.502289 C 4271.453068 3271.219103 4102.673767 3167.084913 3708.26936 3121.160565 L 3659.921123 3502.888426 C 3876.169602 3546.47268 4198.784202 3645.63417 4243.909224 3412.502289 Z M 4243.909224 3412.502289 " stroke="#2f2e6b" stroke-width="19.035" stroke-opacity="1" stroke-miterlimit="22.926001"/><path fill="#f2d291" d="M 75.976562 110.132812 L 78.773438 109.738281 L 78.382812 105.527344 L 75.582031 105.921875 L 75.976562 110.132812 " fill-opacity="1" fill-rule="evenodd"/><path fill="#2f2e6b" d="M 76.046875 110.878906 L 81.992188 110.035156 C 81.992188 110.035156 82.105469 109.171875 81.730469 108.9375 C 80.78125 108.34375 79.828125 108.402344 78.976562 108.183594 C 78.734375 108.121094 78.542969 108.164062 78.160156 108.464844 L 77.25 109.175781 L 75.90625 109.367188 L 76.046875 110.878906 " fill-opacity="1" fill-rule="evenodd"/><path fill="#2f2e6b" d="M 74.75 105.515625 L 78.601562 104.503906 L 78.761719 106.558594 L 75.113281 107.589844 L 74.75 105.515625 " fill-opacity="1" fill-rule="evenodd"/><path fill="#2f2e6b" d="M 78.976562 108.183594 L 78.671875 107.1875 C 78.671875 107.1875 77.804688 107.476562 77.734375 107.882812 C 77.664062 108.285156 78.25 108.964844 78.25 108.964844 L 78.976562 108.183594 " fill-opacity="1" fill-rule="evenodd"/><path stroke-linecap="butt" transform="matrix(0.013331, 0, 0, -0.0133542, 13.822805, 111.953926)" fill="none" stroke-linejoin="miter" d="M 3852.141993 1950.528458 C 3852.141993 1950.528458 4057.548746 1976.269493 4161.86373 2168.742239 " stroke="#2f2e6b" stroke-width="19.035" stroke-opacity="1" stroke-miterlimit="22.926001"/><path stroke-linecap="butt" transform="matrix(0.013331, 0, 0, -0.0133542, 13.822805, 111.953926)" fill="none" stroke-linejoin="miter" d="M 4010.665607 1025.89875 C 4127.873455 1107.217022 4281.708755 1120.672564 4403.311896 1947.018316 " stroke="#2f2e6b" stroke-width="19.035" stroke-opacity="1" stroke-miterlimit="22.926001"/><path fill="#f2d291" d="M 23.308594 104.484375 L 23.496094 105.929688 L 28.207031 108.363281 L 28.496094 107.5 L 26.289062 104.664062 L 28.363281 99.914062 L 25.605469 98.515625 L 23.308594 104.484375 " fill-opacity="1" fill-rule="evenodd"/><path fill="#2f2e6b" d="M 22.519531 106.105469 L 29.984375 109.753906 C 29.984375 109.753906 30.296875 109.453125 29.957031 109.082031 L 28.496094 107.5 C 28.042969 107.863281 24.195312 105.984375 23.792969 105.304688 L 23.308594 104.484375 L 22.519531 106.105469 " fill-opacity="1" fill-rule="evenodd"/><g clip-path="url(#537a5262e3)"><path fill="#4247ca" d="M 36.175781 2.648438 C 35.34375 0.6875 31.4375 0.0507812 29.703125 0.710938 C 26.140625 2.070312 26.46875 4.59375 24.179688 5.71875 C 23.101562 6.246094 21.941406 5.644531 20.246094 6.664062 C 18.972656 7.429688 19.457031 9 18.449219 10.019531 C 17.65625 10.816406 16.125 9.789062 14.382812 12.078125 C 13.507812 13.230469 13.347656 16.0625 16.238281 17.242188 C 18.613281 18.214844 21.554688 16.382812 22.167969 16.140625 C 24.707031 15.132812 27.96875 18.632812 31.503906 13.96875 C 32.230469 13.253906 32.726562 14.273438 32.726562 14.273438 C 42.148438 14.011719 42 2.355469 36.175781 2.648438 " fill-opacity="1" fill-rule="evenodd"/></g><g clip-path="url(#df9c5c96ac)"><path stroke-linecap="butt" transform="matrix(0.013331, 0, 0, -0.0133542, 13.822805, 111.953926)" fill="none" stroke-linejoin="miter" d="M 165.955186 7043.743412 C 536.331985 6926.738704 594.05685 7221.298057 729.724933 7212.230193 " stroke="#4247ca" stroke-width="19.035" stroke-opacity="1" stroke-miterlimit="22.926001"/></g><g clip-path="url(#e681ae1924)"><path stroke-linecap="butt" transform="matrix(0.013331, 0, 0, -0.0133542, 13.822805, 111.953926)" fill="none" stroke-linejoin="miter" d="M 1924.951959 7929.469055 C 2052.708513 7799.593828 2051.536434 7540.135888 1893.59886 7414.94085 " stroke="#4247ca" stroke-width="19.035" stroke-opacity="1" stroke-miterlimit="22.926001"/></g><path fill="#f2d291" d="M 36.105469 20.949219 C 35.023438 24.144531 39.390625 32.734375 41.914062 38.867188 C 44.4375 44.996094 50.382812 56.238281 50.382812 56.238281 C 51.0625 56.296875 51.742188 56.355469 52.421875 56.414062 C 51.558594 52.480469 47.363281 40.789062 46.324219 38.226562 C 45.285156 35.667969 41.929688 26.957031 41.929688 26.957031 C 41.929688 26.957031 39.632812 23.453125 36.105469 20.949219 " fill-opacity="1" fill-rule="evenodd"/><path fill="#ffffff" d="M 39.574219 20.160156 C 41.730469 21.539062 43.261719 27.492188 44.738281 32.976562 L 39.6875 34.152344 C 38.816406 31.378906 37.40625 28.878906 37.40625 28.878906 C 37.40625 28.878906 38.382812 24.324219 39.574219 20.160156 " fill-opacity="1" fill-rule="evenodd"/><path stroke-linecap="butt" transform="matrix(0.013331, 0, 0, -0.0133542, 13.822805, 111.953926)" fill="none" stroke-linejoin="miter" d="M 1931.69141 6873.794074 C 2093.43824 6770.537418 2208.301931 6324.74948 2319.063347 5914.062953 L 1940.188979 5826.01691 C 1874.845604 6033.700268 1769.065522 6220.907801 1769.065522 6220.907801 C 1769.065522 6220.907801 1842.320427 6561.976526 1931.69141 6873.794074 Z M 1931.69141 6873.794074 " stroke="#2f2e6b" stroke-width="19.035" stroke-opacity="1" stroke-miterlimit="22.926001"/><g clip-path="url(#e66bdf6d71)"><path fill="#f2d291" d="M 31.023438 109.738281 L 30.34375 103.558594 L 33.464844 103.496094 L 33.917969 108.78125 C 34.011719 109.015625 34.523438 109.5625 34.941406 109.980469 C 35.199219 110.234375 35.421875 110.441406 35.488281 110.492188 C 36.214844 111.070312 36.617188 111.027344 36.679688 111.769531 L 32.402344 111.28125 L 31.023438 109.738281 " fill-opacity="1" fill-rule="evenodd"/></g><g clip-path="url(#41e3b14925)"><path fill="#2f2e6b" d="M 36.679688 111.769531 L 31.191406 111.769531 L 31.207031 111.953125 L 36.691406 111.953125 Z M 36.679688 111.769531 C 36.617188 111.027344 36.214844 111.070312 35.488281 110.492188 C 35.421875 110.441406 35.199219 110.234375 34.941406 109.980469 C 34.523438 109.5625 35.371094 110.839844 35.277344 110.605469 L 33.214844 110.605469 L 31.023438 109.738281 L 31.191406 111.769531 L 36.679688 111.769531 " fill-opacity="1" fill-rule="evenodd"/></g><path fill="#ffffff" d="M 32.179688 40.484375 C 34.289062 40.484375 36.433594 40.484375 38.542969 40.484375 C 38.007812 37.246094 37.828125 33.539062 37.9375 30.207031 C 38.660156 29.078125 39.378906 28.523438 39.648438 27.527344 C 39.941406 26.445312 39.59375 24.601562 39.386719 23.925781 C 39.566406 23.039062 39.796875 21.378906 39.910156 20.46875 C 38.246094 18.835938 35.277344 17.453125 32.179688 17.453125 C 29.085938 17.453125 26.113281 18.835938 24.453125 20.46875 C 24.894531 24.101562 26.054688 27.46875 26.496094 31.101562 C 26.601562 34.433594 26.6875 37.246094 26.152344 40.484375 C 28.257812 40.484375 30.070312 40.484375 32.179688 40.484375 " fill-opacity="1" fill-rule="evenodd"/><path stroke-linecap="butt" transform="matrix(0.013331, 0, 0, -0.0133542, 13.822805, 111.953926)" fill="none" stroke-linejoin="miter" d="M 1377.005272 5351.85533 C 1535.235866 5351.85533 1696.103637 5351.85533 1854.334231 5351.85533 C 1814.190543 5594.347588 1800.711641 5871.941258 1808.91619 6121.453799 C 1863.124819 6205.989701 1917.040429 6247.526372 1937.258783 6322.116874 C 1959.235254 6403.142634 1933.156508 6541.20819 1917.626469 6591.812726 C 1931.105371 6658.212898 1948.393529 6782.530401 1956.891098 6850.685644 C 1832.06474 6972.955564 1609.369829 7076.504731 1377.005272 7076.504731 C 1144.933733 7076.504731 921.945803 6972.955564 797.412465 6850.685644 C 830.523682 6578.649697 917.550509 6326.50455 950.661726 6054.468603 C 958.573256 5804.956063 965.019687 5594.347588 924.875999 5351.85533 C 1082.813574 5351.85533 1218.774677 5351.85533 1377.005272 5351.85533 Z M 1377.005272 5351.85533 " stroke="#2f2e6b" stroke-width="19.035" stroke-opacity="1" stroke-miterlimit="22.926001"/><path fill="#f2d291" d="M 29.902344 17.917969 C 29.902344 19.523438 33.535156 25.761719 34.636719 25.511719 C 35.734375 25.261719 34.457031 19.023438 34.457031 17.917969 C 34.457031 16.277344 34.457031 15.175781 34.457031 13.53125 C 32.941406 13.53125 31.421875 11.011719 29.902344 11.011719 C 29.902344 12.65625 29.902344 16.277344 29.902344 17.917969 " fill-opacity="1" fill-rule="evenodd"/><path fill="#f2d291" d="M 33.320312 4.039062 C 34.425781 4.121094 37.753906 4.398438 37.609375 8.296875 C 37.464844 12.195312 36.816406 13.460938 36.460938 14.160156 C 36.050781 14.960938 35.328125 16.007812 34.148438 15.960938 C 31.609375 15.863281 30.675781 14.726562 30.042969 13.945312 C 29.546875 13.335938 28.789062 11.863281 29.046875 7.972656 C 29.308594 4.078125 32.210938 4.003906 33.320312 4.039062 " fill-opacity="1" fill-rule="evenodd"/><path fill="#4247ca" d="M 36.074219 5.441406 C 36.984375 5.410156 37.8125 7.730469 37.507812 9.796875 C 38.425781 6.359375 37.328125 3.664062 33.445312 3.414062 C 29.5625 3.160156 28.390625 6.539062 28.863281 9.566406 C 29.832031 7.96875 31.097656 8.3125 32.15625 8.003906 C 35.085938 7.144531 34.6875 5.320312 36.074219 5.441406 " fill-opacity="1" fill-rule="evenodd"/><path fill="#f66f82" d="M 31.730469 10.878906 C 32.222656 11.058594 32.539062 11.4375 32.433594 11.726562 C 32.328125 12.019531 31.847656 12.109375 31.351562 11.933594 C 30.859375 11.757812 30.546875 11.378906 30.648438 11.085938 C 30.753906 10.796875 31.238281 10.703125 31.730469 10.878906 " fill-opacity="1" fill-rule="evenodd"/><path fill="#2f2e6b" d="M 36.539062 9.726562 C 36.332031 9.71875 36.144531 9.917969 36.121094 10.175781 C 36.097656 10.429688 36.25 10.648438 36.460938 10.65625 C 36.667969 10.664062 36.855469 10.464844 36.878906 10.207031 C 36.902344 9.953125 36.75 9.734375 36.539062 9.726562 " fill-opacity="1" fill-rule="evenodd"/><path fill="#2f2e6b" d="M 32.9375 9.539062 C 33.148438 9.550781 33.3125 9.769531 33.308594 10.027344 C 33.304688 10.285156 33.132812 10.484375 32.921875 10.472656 C 32.714844 10.460938 32.546875 10.242188 32.550781 9.984375 C 32.554688 9.726562 32.730469 9.527344 32.9375 9.539062 " fill-opacity="1" fill-rule="evenodd"/><g clip-path="url(#536747c4c7)"><path stroke-linecap="butt" transform="matrix(0.013331, 0, 0, -0.0133542, 13.822805, 111.953926)" fill="none" stroke-linejoin="miter" d="M 1639.257831 7724.710815 C 1568.933122 7660.358226 1597.356025 7520.537599 1604.974535 7490.99391 C 1612.593045 7461.450221 1570.1052 7468.177992 1570.1052 7468.177992 " stroke="#2f2e6b" stroke-width="19.035" stroke-opacity="1" stroke-miterlimit="22.926001"/></g><path stroke-linecap="butt" transform="matrix(0.013331, 0, 0, -0.0133542, 13.822805, 111.953926)" fill="none" stroke-linejoin="miter" d="M 1643.067086 7395.342561 C 1643.067086 7395.342561 1585.63524 7356.731007 1494.506139 7404.702938 " stroke="#2f2e6b" stroke-width="19.035" stroke-opacity="1" stroke-miterlimit="22.926001"/><path stroke-linecap="butt" transform="matrix(0.013331, 0, 0, -0.0133542, 13.822805, 111.953926)" fill="none" stroke-linejoin="miter" d="M 1586.514299 7340.935372 C 1586.514299 7340.935372 1565.123867 7326.602295 1531.426611 7344.445513 " stroke="#2f2e6b" stroke-width="19.035" stroke-opacity="1" stroke-miterlimit="22.926001"/><g clip-path="url(#47852ab08d)"><path stroke-linecap="butt" transform="matrix(0.013331, 0, 0, -0.0133542, 13.822805, 111.953926)" fill="none" stroke-linejoin="miter" d="M 1481.320256 7739.628915 C 1481.320256 7739.628915 1444.985823 7770.05014 1379.349429 7744.016592 " stroke="#2f2e6b" stroke-width="19.035" stroke-opacity="1" stroke-miterlimit="22.926001"/></g><g clip-path="url(#596327c9f4)"><path stroke-linecap="butt" transform="matrix(0.013331, 0, 0, -0.0133542, 13.822805, 111.953926)" fill="none" stroke-linejoin="miter" d="M 1656.252968 7730.561051 C 1656.252968 7730.561051 1695.517597 7756.88711 1758.223796 7724.125792 " stroke="#2f2e6b" stroke-width="19.035" stroke-opacity="1" stroke-miterlimit="22.926001"/></g><path stroke-linecap="butt" transform="matrix(0.013331, 0, 0, -0.0133542, 13.822805, 111.953926)" fill="none" stroke-linejoin="miter" d="M 1470.47853 7187.659204 C 1383.451703 7198.189628 1273.569346 7246.746581 1192.695931 7382.472043 " stroke="#2f2e6b" stroke-width="19.035" stroke-opacity="1" stroke-miterlimit="22.926001"/><path fill="#f66f82" d="M 41.773438 75.722656 L 34.582031 75.746094 L 33.324219 57.617188 L 32.367188 40.503906 C 34.515625 40.496094 36.660156 40.488281 38.804688 40.484375 C 41.753906 51.871094 42.070312 66.253906 41.773438 75.722656 " fill-opacity="1" fill-rule="evenodd"/><path fill="#f66f82" d="M 41.773438 75.722656 L 28.519531 100.828125 L 24.667969 98.945312 L 35.5625 72.183594 L 41.773438 75.722656 " fill-opacity="1" fill-rule="evenodd"/><path fill="#f66f82" d="M 22.675781 54.222656 L 29.910156 104.574219 L 34.195312 104.574219 L 33.640625 57.601562 L 34.824219 40.484375 L 25.9375 40.484375 C 24.019531 43.707031 22.453125 49.132812 22.675781 54.222656 " fill-opacity="1" fill-rule="evenodd"/><g clip-path="url(#f26cc90faa)"><path stroke-linecap="butt" transform="matrix(0.013331, 0, 0, -0.0133542, 13.822805, 111.953926)" fill="none" stroke-linejoin="miter" d="M 1079.004184 5354.487936 C 907.294709 5102.927813 872.718398 4508.251382 939.233843 3845.127198 C 1005.456269 3181.710501 1290.564322 551.444657 1290.564322 551.444657 " stroke="#ffffff" stroke-width="19.035" stroke-opacity="1" stroke-miterlimit="22.926001"/></g><path fill="#2f2e6b" d="M 38.808594 40.484375 L 25.933594 40.484375 L 26.179688 39.457031 L 38.492188 39.457031 L 38.808594 40.484375 " fill-opacity="1" fill-rule="evenodd"/><path stroke-linecap="butt" transform="matrix(0.013331, 0, 0, -0.0133542, 13.822805, 111.953926)" fill="none" stroke-linejoin="miter" d="M 1190.644794 6062.073909 C 1190.644794 6062.073909 1404.256096 6125.548964 1693.17344 6148.657394 " stroke="#2f2e6b" stroke-width="19.035" stroke-opacity="1" stroke-miterlimit="22.926001"/><path fill="#f2d291" d="M 24.742188 20.464844 C 22.164062 22.632812 21.441406 32.246094 20.425781 38.800781 C 19.40625 45.351562 18.664062 58.054688 18.664062 58.054688 C 19.214844 58.457031 19.765625 58.859375 20.316406 59.265625 C 21.617188 55.453125 24.085938 43.277344 24.527344 40.546875 C 24.964844 37.820312 26.609375 28.628906 26.609375 28.628906 C 26.609375 28.628906 26.460938 24.441406 24.742188 20.464844 " fill-opacity="1" fill-rule="evenodd"/><path fill="#f2d291" d="M 20.691406 58.117188 C 20.808594 58.699219 21.246094 59.886719 21.300781 60.359375 C 21.316406 60.511719 21.304688 60.8125 21.296875 61.546875 C 21.339844 62.292969 21.492188 63.054688 21.492188 63.054688 C 21.492188 63.054688 21.179688 63.066406 21.03125 62.820312 C 20.878906 62.570312 20.644531 62.058594 20.628906 61.734375 C 20.613281 61.410156 20.632812 60.902344 20.601562 60.785156 C 20.402344 61.1875 20.25 61.605469 20.25 61.605469 C 20.289062 62.066406 20.394531 62.648438 20.433594 62.988281 C 20.566406 63.175781 20.816406 63.691406 20.816406 63.691406 C 20.878906 63.699219 21.183594 64.070312 21.214844 64.230469 C 21.015625 64.332031 20.824219 64.34375 20.824219 64.34375 C 20.863281 64.402344 20.875 64.472656 20.855469 64.527344 L 20.246094 64.417969 L 19.742188 64.070312 L 19.484375 64.035156 L 18.554688 63.148438 L 18.136719 62.65625 L 18.132812 61.140625 C 18.132812 61.140625 18.589844 58.949219 18.617188 58.621094 C 18.625 58.539062 18.652344 58.285156 18.683594 57.9375 L 20.691406 58.117188 " fill-opacity="1" fill-rule="evenodd"/><g clip-path="url(#bc71347604)"><path stroke-linecap="butt" transform="matrix(0.013331, 0, 0, -0.0133542, 13.822805, 111.953926)" fill="none" stroke-linejoin="miter" d="M 525.197239 3565.193433 L 503.806807 3573.383763 L 441.393628 3651.191894 L 430.844922 3753.571013 " stroke="#2f2e6b" stroke-width="19.035" stroke-opacity="1" stroke-miterlimit="22.926001"/></g><g clip-path="url(#6089a6af40)"><path stroke-linecap="butt" transform="matrix(0.013331, 0, 0, -0.0133542, 13.822805, 111.953926)" fill="none" stroke-linejoin="miter" d="M 437.291354 3584.206698 L 393.92445 3642.709052 L 382.789704 3735.142772 " stroke="#2f2e6b" stroke-width="19.035" stroke-opacity="1" stroke-miterlimit="22.926001"/></g><path fill="#ffffff" d="M 24.65625 20.28125 C 22.726562 21.957031 21.605469 27.898438 20.941406 33.542969 L 26.109375 33.96875 C 26.566406 31.097656 26.660156 28.410156 26.660156 28.410156 C 26.660156 28.410156 26.441406 24.226562 24.65625 20.28125 " fill-opacity="1" fill-rule="evenodd"/><g clip-path="url(#d1bcaeb614)"><path stroke-linecap="butt" transform="matrix(0.013331, 0, 0, -0.0133542, 13.822805, 111.953926)" fill="none" stroke-linejoin="miter" d="M 812.649485 6864.726209 C 667.897794 6739.238659 583.801163 6294.328255 533.987828 5871.648746 L 921.652784 5839.764963 C 955.936079 6054.761115 962.96855 6256.009213 962.96855 6256.009213 C 962.96855 6256.009213 946.559451 6569.28932 812.649485 6864.726209 Z M 812.649485 6864.726209 " stroke="#2f2e6b" stroke-width="19.035" stroke-opacity="1" stroke-miterlimit="22.926001"/></g><path fill="#f2d291" d="M 29.492188 9.863281 C 29.40625 9.597656 29.292969 9.414062 28.972656 9.328125 C 28.65625 9.242188 28.066406 9.378906 28.019531 10.289062 C 27.972656 11.199219 28.691406 12.023438 29.175781 11.941406 C 29.664062 11.855469 29.523438 10.109375 29.492188 9.863281 " fill-opacity="1" fill-rule="evenodd"/><path fill="#f66f82" d="M 28.859375 11.753906 C 29.015625 11.765625 29.132812 11.898438 29.125 12.054688 C 29.117188 12.210938 28.984375 12.328125 28.828125 12.320312 C 28.671875 12.3125 28.554688 12.179688 28.5625 12.023438 C 28.570312 11.867188 28.703125 11.746094 28.859375 11.753906 " fill-opacity="1" fill-rule="evenodd"/><path stroke-linecap="butt" transform="matrix(0.013331, 0, 0, -0.0133542, 13.822805, 111.953926)" fill="none" stroke-linejoin="miter" d="M 1151.087145 7612.093783 C 1151.673185 7620.576625 1120.613105 7661.820784 1090.725104 7636.37226 " stroke="#2f2e6b" stroke-width="14.277" stroke-opacity="1" stroke-miterlimit="22.926001"/><path fill="#f2d291" d="M 50.085938 55.929688 C 50.402344 56.429688 50.902344 57.59375 51.1875 57.972656 C 51.28125 58.097656 51.496094 58.304688 52.007812 58.832031 C 52.488281 59.398438 52.902344 60.058594 52.902344 60.058594 C 52.902344 60.058594 53.136719 59.855469 53.074219 59.570312 C 53.015625 59.285156 52.832031 58.753906 52.617188 58.507812 C 52.40625 58.261719 52.046875 57.902344 51.988281 57.800781 C 52.40625 57.953125 52.804688 58.152344 52.804688 58.152344 C 53.09375 58.511719 53.417969 59.007812 53.625 59.28125 C 53.65625 59.511719 53.832031 60.054688 53.832031 60.054688 C 53.789062 60.101562 53.824219 60.582031 53.914062 60.71875 C 54.125 60.65625 54.273438 60.53125 54.273438 60.53125 C 54.285156 60.601562 54.328125 60.660156 54.378906 60.6875 L 54.742188 60.1875 L 54.871094 59.585938 L 55.035156 59.382812 L 55.09375 58.101562 L 55.058594 57.453125 L 54.019531 56.355469 C 54.019531 56.355469 52.183594 55.082031 51.9375 54.863281 C 51.875 54.808594 51.679688 54.640625 51.417969 54.414062 L 50.085938 55.929688 " fill-opacity="1" fill-rule="evenodd"/><path stroke-linecap="butt" transform="matrix(0.013331, 0, 0, -0.0133542, 13.822805, 111.953926)" fill="none" stroke-linejoin="miter" d="M 3034.324237 3850.684921 L 3043.993884 3871.160745 L 3035.789335 3970.907259 L 2973.083136 4052.225531 " stroke="#2f2e6b" stroke-width="19.035" stroke-opacity="1" stroke-miterlimit="22.926001"/><path stroke-linecap="butt" transform="matrix(0.013331, 0, 0, -0.0133542, 13.822805, 111.953926)" fill="none" stroke-linejoin="miter" d="M 3084.723611 3924.690399 L 3076.226042 3997.233319 L 3020.552314 4071.82382 " stroke="#2f2e6b" stroke-width="19.035" stroke-opacity="1" stroke-miterlimit="22.926001"/><path stroke-linecap="butt" transform="matrix(0.013331, 0, 0, -0.0133542, 13.822805, 111.953926)" fill="none" stroke-linejoin="miter" d="M 1526.152258 742.747356 C 1518.826767 1349.416768 1499.194453 2711.351574 1490.696884 3390.271394 C 1482.199315 4068.898702 1509.15712 4407.04231 1518.826767 4537.502559 " stroke="#2f2e6b" stroke-width="19.035" stroke-opacity="1" stroke-miterlimit="22.926001"/><path stroke-linecap="butt" transform="matrix(0.013331, 0, 0, -0.0133542, 13.822805, 111.953926)" fill="none" stroke-linejoin="miter" d="M 1541.682297 2736.215074 C 1628.709124 2794.132405 1773.460816 2852.049735 1865.175957 2852.049735 C 1956.891098 2852.049735 1928.175175 3025.801727 1821.809053 2987.190174 C 1715.442932 2948.57862 1532.01265 2856.729924 1628.709124 2982.509985 " stroke="#2f2e6b" stroke-width="19.035" stroke-opacity="1" stroke-miterlimit="22.926001"/></svg>