<svg xmlns="http://www.w3.org/2000/svg" xmlns:xlink="http://www.w3.org/1999/xlink" width="126" zoomAndPan="magnify" viewBox="0 0 94.5 112.499997" height="150" preserveAspectRatio="xMidYMid meet" version="1.0"><defs><clipPath id="d63115ada4"><path d="M 21 91 L 64 91 L 64 111.847656 L 21 111.847656 Z M 21 91 " clip-rule="nonzero"/></clipPath><clipPath id="f07473dd0b"><path d="M 13.539062 18 L 80.542969 18 L 80.542969 104 L 13.539062 104 Z M 13.539062 18 " clip-rule="nonzero"/></clipPath></defs><g clip-path="url(#d63115ada4)"><path fill="#d5b2a5" d="M 22.46875 91.507812 L 21.554688 109.796875 C 34.746094 112.453125 49.3125 112.5625 63.621094 109.90625 L 61.539062 92.203125 L 22.46875 91.507812 " fill-opacity="1" fill-rule="evenodd"/></g><path fill="#582d2a" d="M 42.5 5.285156 C 36.515625 1.03125 30.320312 5.792969 27.445312 11.46875 C 24.410156 17.453125 24.667969 22.953125 24.074219 29.996094 C 23.519531 36.4375 14.582031 43.207031 20.558594 51.644531 C 25.199219 58.207031 53.730469 63.230469 61.300781 49.832031 C 64.53125 44.09375 60.976562 35.851562 60.378906 30.871094 C 59.53125 23.691406 60.683594 14.765625 56.613281 9.136719 C 49.988281 -0.0195312 42.5 5.285156 42.5 5.285156 " fill-opacity="1" fill-rule="evenodd"/><g clip-path="url(#f07473dd0b)"><path fill="#f2e8d5" d="M 36.1875 41.125 C 34.539062 41.132812 22.859375 44.8125 20.015625 48.457031 C 15.113281 54.726562 12.878906 76.617188 13.714844 88.515625 C 14.375 98.027344 21.988281 103.679688 21.988281 103.679688 L 22.910156 93.4375 C 36.71875 94.730469 50.527344 95.035156 64.304688 93.808594 L 62.179688 59.878906 C 62.179688 59.878906 78.675781 58.988281 80.445312 50.582031 C 81.898438 43.597656 67.308594 18.484375 67.308594 18.484375 L 59.085938 26.761719 L 66.441406 44.898438 C 66.441406 44.898438 62.253906 44.203125 59.707031 43.390625 C 56.992188 42.523438 50.765625 41.125 50.765625 41.125 L 36.1875 41.125 " fill-opacity="1" fill-rule="evenodd"/></g><path fill="#582d2a" d="M 67.320312 44.476562 C 67.582031 44.300781 67.839844 44.160156 68.101562 44.042969 C 68.273438 43.964844 68.449219 43.898438 68.621094 43.847656 C 68.902344 43.769531 69.1875 43.726562 69.5 43.769531 C 69.695312 43.800781 69.871094 43.683594 69.902344 43.488281 C 69.945312 43.304688 69.816406 43.121094 69.621094 43.085938 C 69.097656 42.976562 68.601562 43.023438 68.132812 43.207031 C 67.949219 43.28125 67.777344 43.367188 67.613281 43.476562 C 67.386719 43.628906 67.167969 43.800781 66.953125 43.996094 C 66.820312 44.105469 66.800781 44.289062 66.90625 44.421875 C 67.003906 44.550781 67.191406 44.574219 67.320312 44.476562 " fill-opacity="1" fill-rule="evenodd"/><path fill="#582d2a" d="M 63.503906 44.769531 C 63.503906 44.769531 64.109375 44.898438 64.914062 45.070312 C 65.347656 45.167969 65.835938 45.265625 66.320312 45.363281 C 67.730469 45.636719 69.152344 45.851562 69.152344 45.851562 C 69.347656 45.886719 69.523438 45.753906 69.554688 45.570312 C 69.597656 45.375 69.46875 45.203125 69.285156 45.160156 C 69.285156 45.160156 67.875 44.867188 66.464844 44.605469 C 65.964844 44.53125 65.476562 44.453125 65.042969 44.378906 C 64.230469 44.257812 63.609375 44.171875 63.609375 44.171875 C 63.457031 44.140625 63.296875 44.246094 63.261719 44.410156 C 63.242188 44.574219 63.351562 44.734375 63.503906 44.769531 " fill-opacity="1" fill-rule="evenodd"/><path fill="#582d2a" d="M 61.300781 54.53125 C 61.300781 54.53125 61.410156 56.332031 61.570312 58.75 C 61.65625 60.03125 61.746094 61.496094 61.851562 62.957031 C 62.167969 67.179688 62.527344 71.386719 62.527344 71.386719 C 62.535156 71.570312 62.710938 71.722656 62.894531 71.703125 C 63.089844 71.691406 63.230469 71.527344 63.21875 71.332031 C 63.21875 71.332031 62.9375 67.113281 62.613281 62.90625 C 62.503906 61.441406 62.375 59.976562 62.265625 58.695312 C 62.058594 56.277344 61.898438 54.488281 61.898438 54.488281 C 61.886719 54.324219 61.746094 54.195312 61.570312 54.203125 C 61.410156 54.214844 61.289062 54.367188 61.300781 54.53125 " fill-opacity="1" fill-rule="evenodd"/><path fill="#582d2a" d="M 34.324219 78.265625 C 35.917969 78.558594 37.46875 78.71875 38.988281 78.71875 C 40.59375 78.707031 42.15625 78.511719 43.652344 78.078125 C 46.4375 77.253906 49.019531 75.59375 51.300781 72.785156 C 51.386719 72.675781 51.363281 72.515625 51.265625 72.429688 C 51.148438 72.339844 50.984375 72.351562 50.898438 72.460938 C 48.683594 75.160156 46.191406 76.746094 43.488281 77.539062 C 42.046875 77.972656 40.539062 78.175781 38.988281 78.199219 C 37.492188 78.230469 35.960938 78.089844 34.398438 77.832031 C 34.28125 77.808594 34.171875 77.894531 34.148438 78.015625 C 34.128906 78.132812 34.203125 78.242188 34.324219 78.265625 " fill-opacity="1" fill-rule="evenodd"/><path fill="#582d2a" d="M 22.726562 63.285156 C 22.726562 63.285156 22.707031 69.878906 22.457031 76.605469 C 22.390625 78.546875 22.304688 80.5 22.207031 82.300781 C 21.980469 86.042969 21.675781 89.15625 21.175781 90.226562 C 20.894531 90.835938 21.003906 91.453125 21.296875 92.007812 C 21.816406 92.984375 22.945312 93.730469 22.945312 93.730469 C 23 93.765625 23.0625 93.785156 23.117188 93.796875 L 28.78125 94.46875 C 28.988281 94.503906 29.179688 94.351562 29.214844 94.132812 C 29.234375 93.925781 29.085938 93.730469 28.878906 93.710938 L 23.324219 93.003906 C 23.085938 92.84375 22.378906 92.300781 22.023438 91.628906 C 21.847656 91.292969 21.761719 90.933594 21.9375 90.574219 C 22.445312 89.46875 22.824219 86.238281 23.054688 82.351562 C 23.152344 80.542969 23.226562 78.578125 23.28125 76.625 C 23.464844 69.890625 23.390625 63.273438 23.390625 63.273438 C 23.390625 63.089844 23.238281 62.949219 23.054688 62.949219 C 22.867188 62.949219 22.726562 63.101562 22.726562 63.285156 " fill-opacity="1" fill-rule="evenodd"/><path fill="#fcbfa3" d="M 47.902344 29.539062 L 37.980469 29.539062 L 37.859375 40.460938 L 35.453125 41.125 C 37.75 48.640625 49.890625 48.011719 51.742188 41.132812 L 48.5 40.441406 L 47.902344 29.539062 " fill-opacity="1" fill-rule="evenodd"/><path fill="#f7907f" d="M 37.738281 39.3125 C 43.976562 39.191406 47.363281 37.292969 48.609375 33.996094 L 37.75 33.292969 L 37.738281 39.3125 " fill-opacity="1" fill-rule="evenodd"/><path fill="#fcbfa3" d="M 43.140625 8.800781 C 34.964844 8.429688 31.949219 16.597656 31.675781 23.777344 C 31.394531 31.035156 34.191406 36.6875 42.402344 37.097656 C 49.714844 37.457031 53.511719 31.554688 53.902344 25.449219 C 54.410156 17.421875 52.578125 9.222656 43.140625 8.800781 " fill-opacity="1" fill-rule="evenodd"/><path fill="#582d2a" d="M 30.570312 21.035156 C 33.542969 11.433594 39.574219 11.273438 39.574219 11.273438 C 41.144531 15.015625 47.328125 18.691406 54.53125 17.953125 L 58.597656 23.203125 L 53.109375 7.648438 L 41.960938 7.398438 L 32.078125 10.242188 L 30.570312 21.035156 " fill-opacity="1" fill-rule="evenodd"/><path fill="#582d2a" d="M 48.132812 20.816406 C 48.792969 20.859375 49.292969 21.46875 49.238281 22.164062 C 49.195312 22.855469 48.609375 23.386719 47.945312 23.335938 C 47.285156 23.289062 46.785156 22.683594 46.828125 21.988281 C 46.882812 21.292969 47.46875 20.761719 48.132812 20.816406 " fill-opacity="1" fill-rule="evenodd"/><path fill="#f7907f" d="M 49.433594 25.058594 C 50.789062 25.15625 51.839844 25.980469 51.777344 26.902344 C 51.710938 27.824219 50.550781 28.488281 49.195312 28.390625 C 47.828125 28.28125 46.777344 27.457031 46.839844 26.542969 C 46.917969 25.621094 48.078125 24.960938 49.433594 25.058594 " fill-opacity="1" fill-rule="evenodd"/><path fill="#f7907f" d="M 35.894531 24.0625 C 37.261719 24.167969 38.316406 24.992188 38.238281 25.90625 C 38.175781 26.828125 37.011719 27.488281 35.65625 27.390625 C 34.289062 27.292969 33.25 26.46875 33.3125 25.546875 C 33.378906 24.625 34.539062 23.964844 35.894531 24.0625 " fill-opacity="1" fill-rule="evenodd"/><path fill="#582d2a" d="M 38.25 20.320312 C 38.910156 20.363281 39.410156 20.96875 39.367188 21.664062 C 39.3125 22.359375 38.726562 22.890625 38.066406 22.835938 C 37.402344 22.792969 36.90625 22.183594 36.960938 21.488281 C 37.003906 20.796875 37.589844 20.265625 38.25 20.320312 " fill-opacity="1" fill-rule="evenodd"/><path fill="#582d2a" d="M 47.058594 18.800781 C 47.328125 18.691406 47.609375 18.648438 47.894531 18.625 C 48.175781 18.59375 48.457031 18.617188 48.726562 18.636719 C 49.074219 18.667969 49.421875 18.714844 49.757812 18.820312 C 49.996094 18.886719 50.226562 18.960938 50.441406 19.058594 C 50.648438 19.179688 50.910156 19.105469 51.015625 18.898438 C 51.136719 18.691406 51.058594 18.429688 50.855469 18.324219 C 50.429688 18.039062 49.976562 17.8125 49.5 17.660156 C 49.28125 17.597656 49.0625 17.542969 48.847656 17.519531 C 48.621094 17.5 48.390625 17.5 48.164062 17.519531 C 47.65625 17.585938 47.15625 17.738281 46.679688 18.019531 C 46.460938 18.128906 46.375 18.386719 46.472656 18.605469 C 46.582031 18.8125 46.839844 18.910156 47.058594 18.800781 " fill-opacity="1" fill-rule="evenodd"/><path fill="#582d2a" d="M 40.222656 16.621094 C 39.800781 16.273438 39.324219 16.035156 38.835938 15.902344 C 38.609375 15.847656 38.390625 15.816406 38.164062 15.804688 C 37.933594 15.796875 37.71875 15.804688 37.492188 15.847656 C 36.992188 15.925781 36.515625 16.089844 36.046875 16.304688 C 35.832031 16.382812 35.722656 16.628906 35.808594 16.847656 C 35.886719 17.0625 36.132812 17.171875 36.351562 17.097656 C 36.589844 17.03125 36.828125 16.988281 37.066406 16.957031 C 37.414062 16.902344 37.761719 16.902344 38.109375 16.921875 C 38.390625 16.933594 38.660156 16.957031 38.945312 17.03125 C 39.203125 17.109375 39.488281 17.183594 39.746094 17.335938 C 39.941406 17.464844 40.214844 17.410156 40.34375 17.214844 C 40.472656 17.019531 40.429688 16.75 40.222656 16.621094 " fill-opacity="1" fill-rule="evenodd"/><path fill="#f7907f" d="M 40.375 30.503906 C 40.527344 30.222656 40.800781 29.941406 41.15625 29.679688 C 41.601562 29.363281 42.164062 29.09375 42.785156 28.929688 C 43.683594 28.683594 44.714844 28.660156 45.636719 29.160156 C 45.789062 29.246094 45.984375 29.191406 46.058594 29.039062 C 46.148438 28.886719 46.09375 28.703125 45.941406 28.617188 C 44.867188 28.007812 43.664062 27.976562 42.597656 28.269531 C 42.023438 28.433594 41.503906 28.691406 41.070312 28.996094 C 40.496094 29.386719 40.082031 29.84375 39.898438 30.277344 C 39.832031 30.40625 39.886719 30.570312 40.019531 30.632812 C 40.148438 30.699219 40.3125 30.644531 40.375 30.503906 " fill-opacity="1" fill-rule="evenodd"/><path fill="#f7907f" d="M 43.847656 19.6875 C 43.585938 22.042969 43.933594 23.867188 44.042969 25.089844 C 44.097656 25.753906 44.085938 26.25 43.921875 26.578125 C 43.695312 27.054688 43.183594 27.28125 42.113281 27.121094 C 41.96875 27.097656 41.882812 26.96875 41.90625 26.828125 C 41.917969 26.695312 42.046875 26.597656 42.1875 26.621094 C 42.589844 26.675781 42.882812 26.6875 43.109375 26.632812 C 43.28125 26.589844 43.402344 26.5 43.46875 26.359375 C 43.597656 26.089844 43.574219 25.675781 43.53125 25.144531 C 43.425781 23.898438 43.078125 22.03125 43.347656 19.636719 C 43.359375 19.496094 43.488281 19.386719 43.628906 19.40625 C 43.761719 19.417969 43.867188 19.546875 43.847656 19.6875 " fill-opacity="1" fill-rule="evenodd"/><path fill="#fcbfa3" d="M 62.40625 24.386719 L 66.5625 20.230469 C 66.5625 20.230469 63.253906 8.886719 59.988281 7.195312 C 57.320312 5.816406 50.757812 8.460938 50.757812 8.460938 C 50.441406 9.699219 55.140625 9.40625 56.40625 10.199219 C 56.40625 10.199219 54.28125 10.730469 53.988281 12.390625 C 53.78125 13.507812 55.289062 16.078125 55.941406 17 C 56.363281 17.597656 57.90625 17.933594 57.90625 17.933594 C 58.621094 19.90625 59.585938 20.828125 60.789062 20.699219 L 62.40625 24.386719 " fill-opacity="1" fill-rule="evenodd"/><path fill="#f7907f" d="M 57.882812 17.964844 C 58.730469 18.09375 59.097656 17.703125 59.207031 17.183594 C 59.273438 16.921875 59.226562 16.597656 59.121094 16.273438 C 59 15.882812 58.761719 15.492188 58.492188 15.1875 C 58.382812 15.058594 58.1875 15.035156 58.058594 15.144531 C 57.925781 15.265625 57.90625 15.460938 58.011719 15.589844 C 58.21875 15.847656 58.382812 16.175781 58.480469 16.480469 C 58.542969 16.695312 58.578125 16.890625 58.554688 17.0625 C 58.511719 17.304688 58.328125 17.445312 57.9375 17.433594 C 57.785156 17.410156 57.65625 17.519531 57.644531 17.671875 C 57.621094 17.8125 57.730469 17.941406 57.882812 17.964844 " fill-opacity="1" fill-rule="evenodd"/><path fill="#f7907f" d="M 54.261719 13.410156 C 54.703125 13.082031 55.148438 12.789062 55.605469 12.550781 C 55.910156 12.398438 56.210938 12.269531 56.539062 12.171875 C 57.046875 12.03125 57.589844 11.988281 58.1875 12.117188 C 58.347656 12.152344 58.523438 12.042969 58.554688 11.878906 C 58.597656 11.707031 58.492188 11.542969 58.328125 11.511719 C 57.425781 11.292969 56.625 11.378906 55.898438 11.671875 C 55.53125 11.824219 55.183594 12.03125 54.847656 12.257812 C 54.53125 12.476562 54.226562 12.726562 53.933594 12.984375 C 53.816406 13.082031 53.792969 13.246094 53.890625 13.367188 C 53.976562 13.472656 54.152344 13.496094 54.261719 13.410156 " fill-opacity="1" fill-rule="evenodd"/><path fill="#f7907f" d="M 55.074219 15.132812 C 55.507812 14.808594 55.953125 14.515625 56.40625 14.289062 C 56.710938 14.125 57.027344 13.996094 57.351562 13.90625 C 57.851562 13.765625 58.394531 13.722656 58.988281 13.84375 C 59.164062 13.886719 59.324219 13.777344 59.371094 13.605469 C 59.402344 13.441406 59.292969 13.277344 59.128906 13.234375 C 58.230469 13.019531 57.4375 13.105469 56.699219 13.410156 C 56.332031 13.550781 55.984375 13.757812 55.648438 13.996094 C 55.34375 14.210938 55.042969 14.460938 54.738281 14.722656 C 54.617188 14.808594 54.605469 14.980469 54.695312 15.089844 C 54.792969 15.210938 54.953125 15.230469 55.074219 15.132812 " fill-opacity="1" fill-rule="evenodd"/><path fill="#f7907f" d="M 55.875 16.867188 C 56.320312 16.542969 56.765625 16.25 57.222656 16.011719 C 57.523438 15.859375 57.839844 15.730469 58.15625 15.632812 C 58.664062 15.503906 59.195312 15.449219 59.804688 15.578125 C 59.964844 15.609375 60.140625 15.511719 60.171875 15.339844 C 60.214844 15.175781 60.105469 15.003906 59.945312 14.972656 C 59.042969 14.753906 58.242188 14.839844 57.515625 15.132812 C 57.144531 15.285156 56.796875 15.492188 56.460938 15.71875 C 56.148438 15.9375 55.84375 16.1875 55.550781 16.445312 C 55.433594 16.542969 55.410156 16.707031 55.507812 16.824219 C 55.59375 16.933594 55.769531 16.957031 55.875 16.867188 " fill-opacity="1" fill-rule="evenodd"/><path fill="#f7907f" d="M 62.070312 22.898438 L 61.050781 20.578125 C 61.007812 20.492188 60.921875 20.425781 60.832031 20.417969 C 60.148438 20.328125 59.609375 20.035156 59.175781 19.527344 C 58.792969 19.082031 58.5 18.484375 58.304688 17.738281 C 58.285156 17.640625 58.207031 17.5625 58.109375 17.53125 C 58.109375 17.53125 57.449219 17.324219 56.851562 17.019531 C 56.582031 16.890625 56.320312 16.726562 56.167969 16.566406 C 55.734375 16.097656 55.238281 15.328125 54.878906 14.503906 C 54.542969 13.722656 54.316406 12.886719 54.421875 12.203125 C 54.464844 11.878906 54.75 11.566406 55.0625 11.261719 C 55.746094 10.632812 56.679688 10.144531 56.679688 10.144531 C 56.789062 10.078125 56.863281 9.960938 56.851562 9.839844 C 56.851562 9.710938 56.777344 9.589844 56.65625 9.546875 C 55.941406 9.234375 55.160156 9.167969 54.410156 9.167969 C 53.652344 9.179688 52.925781 9.253906 52.296875 9.179688 C 51.894531 9.125 51.539062 9.003906 51.277344 8.722656 C 53.066406 7.929688 54.824219 7.269531 56.453125 7.085938 C 57.765625 6.933594 58.988281 7.105469 60.03125 7.8125 C 61.007812 8.484375 61.984375 9.992188 62.851562 11.664062 C 64.476562 14.796875 65.691406 18.484375 65.691406 18.484375 C 65.738281 18.648438 65.921875 18.734375 66.082031 18.679688 C 66.246094 18.625 66.332031 18.453125 66.277344 18.289062 C 66.277344 18.289062 65.074219 14.546875 63.425781 11.359375 C 62.515625 9.578125 61.453125 7.984375 60.410156 7.269531 C 59.238281 6.457031 57.863281 6.238281 56.363281 6.414062 C 54.574219 6.609375 52.601562 7.378906 50.617188 8.265625 C 50.527344 8.3125 50.453125 8.375 50.429688 8.472656 C 50.398438 8.558594 50.410156 8.65625 50.453125 8.746094 C 50.722656 9.234375 51.09375 9.527344 51.539062 9.6875 C 52.125 9.917969 52.851562 9.894531 53.621094 9.863281 C 54.304688 9.839844 55.03125 9.796875 55.722656 9.949219 C 55.386719 10.164062 54.964844 10.457031 54.617188 10.785156 C 54.183594 11.195312 53.835938 11.671875 53.78125 12.117188 C 53.695312 12.757812 53.835938 13.515625 54.109375 14.265625 C 54.5 15.339844 55.171875 16.390625 55.722656 16.976562 C 55.917969 17.183594 56.246094 17.390625 56.582031 17.5625 C 57.035156 17.792969 57.535156 17.964844 57.785156 18.039062 C 58.011719 18.820312 58.328125 19.441406 58.730469 19.90625 C 59.226562 20.46875 59.855469 20.816406 60.605469 20.949219 L 61.59375 23.117188 C 61.648438 23.246094 61.808594 23.3125 61.941406 23.246094 C 62.082031 23.183594 62.136719 23.03125 62.070312 22.898438 " fill-opacity="1" fill-rule="evenodd"/></svg>