<svg xmlns="http://www.w3.org/2000/svg" xmlns:xlink="http://www.w3.org/1999/xlink" width="126" zoomAndPan="magnify" viewBox="0 0 94.5 112.499997" height="150" preserveAspectRatio="xMidYMid meet" version="1.0"><defs><clipPath id="4f5e270625"><path d="M 0 51 L 94 51 L 94 96.210938 L 0 96.210938 Z M 0 51 " clip-rule="nonzero"/></clipPath><clipPath id="27fcc1e1c6"><path d="M 19 56 L 74 56 L 74 96.210938 L 19 96.210938 Z M 19 56 " clip-rule="nonzero"/></clipPath></defs><path fill="#65403d" d="M 45.832031 19.015625 C 38.75 17.210938 30.359375 24.265625 30.546875 38.003906 C 30.609375 42.472656 26.878906 45.816406 28.398438 48.882812 C 34.28125 60.78125 69.222656 56.914062 69.894531 48.246094 C 70.238281 43.800781 66.816406 44.078125 66.765625 35.804688 C 66.679688 20.730469 54.253906 15.640625 45.832031 19.015625 Z M 45.832031 19.015625 " fill-opacity="1" fill-rule="evenodd"/><path fill="#ffcebe" d="M 53.617188 45.34375 L 43.558594 45.34375 L 43.558594 58.6875 L 43.636719 68.828125 L 48.886719 68.769531 L 53.550781 69.027344 L 53.617188 58.6875 Z M 53.617188 45.34375 " fill-opacity="1" fill-rule="evenodd"/><path fill="#65403d" d="M 53.683594 54.207031 L 53.703125 48.484375 C 50.894531 47.914062 45.148438 47.015625 43.984375 51.058594 C 46.882812 53.835938 50.054688 53.980469 53.683594 54.207031 Z M 53.683594 54.207031 " fill-opacity="1" fill-rule="evenodd"/><g clip-path="url(#4f5e270625)"><path fill="#ffcebe" d="M 48.558594 57.714844 L 53.695312 57.757812 C 53.695312 57.757812 63.304688 54.332031 67.394531 58.882812 C 69.707031 61.460938 73.921875 76.914062 73.921875 76.914062 L 80.800781 60.621094 C 80.800781 60.621094 80.730469 57.972656 81.605469 57.183594 C 82.726562 56.167969 86.207031 56.644531 88.066406 55.535156 C 89.929688 54.425781 92.511719 51.105469 93.203125 51.273438 C 93.984375 51.464844 93.292969 54.78125 91.960938 57.550781 C 90.496094 60.605469 86.09375 62.09375 86.09375 62.09375 C 86.09375 62.09375 82.855469 86.300781 77.691406 90.191406 C 72.902344 93.796875 65.90625 84.5 65.90625 84.5 L 64.644531 95.953125 L 33.554688 96.214844 L 31.898438 82.3125 C 31.898438 82.3125 25.347656 94.34375 19.480469 93.050781 C 9.277344 90.796875 7.410156 62.441406 7.410156 62.441406 C 7.410156 62.441406 4.015625 61.203125 2.820312 59.722656 C 0.40625 56.734375 0.015625 52.140625 0.675781 51.839844 C 2.226562 51.132812 3.558594 55.230469 5.359375 56.179688 C 7.160156 57.125 10.21875 56.703125 11.480469 57.523438 C 12.554688 58.21875 12.921875 61.085938 12.921875 61.085938 L 19.589844 79.308594 C 19.589844 79.308594 24.972656 64.816406 30.300781 58.882812 C 34.390625 54.332031 43.421875 57.757812 43.421875 57.757812 Z M 48.558594 57.714844 " fill-opacity="1" fill-rule="evenodd"/></g><g clip-path="url(#27fcc1e1c6)"><path fill="#eea48b" d="M 53.695312 57.757812 C 53.695312 57.757812 63.304688 54.332031 67.394531 58.882812 C 68.429688 60.039062 69.851562 63.789062 71.101562 67.570312 L 73.921875 76.914062 C 73.921875 76.914062 68.265625 87.148438 68.265625 87.148438 C 66.84375 85.746094 65.90625 84.5 65.90625 84.5 L 64.644531 95.953125 L 33.554688 96.214844 L 31.898438 82.3125 C 31.898438 82.3125 30.445312 84.980469 28.296875 87.667969 L 19.589844 79.308594 C 19.589844 79.308594 24.972656 64.816406 30.300781 58.882812 C 34.390625 54.332031 43.421875 57.757812 43.421875 57.757812 C 43.421875 57.757812 43.085938 62.386719 48.550781 62.40625 C 53.429688 62.425781 53.695312 57.757812 53.695312 57.757812 Z M 53.695312 57.757812 " fill-opacity="1" fill-rule="evenodd"/></g><path fill="#ffcebe" d="M 64.964844 39.351562 C 64.964844 39.777344 64.882812 40.183594 64.71875 40.570312 C 64.558594 40.960938 64.328125 41.308594 64.027344 41.605469 C 63.730469 41.902344 63.386719 42.132812 62.992188 42.296875 C 62.601562 42.457031 62.195312 42.539062 61.773438 42.539062 C 61.351562 42.539062 60.941406 42.457031 60.550781 42.296875 C 60.160156 42.132812 59.816406 41.902344 59.515625 41.605469 C 59.21875 41.308594 58.988281 40.960938 58.824219 40.570312 C 58.664062 40.183594 58.582031 39.777344 58.582031 39.351562 C 58.582031 38.929688 58.664062 38.523438 58.824219 38.132812 C 58.988281 37.742188 59.21875 37.398438 59.515625 37.101562 C 59.816406 36.800781 60.160156 36.574219 60.550781 36.410156 C 60.941406 36.25 61.351562 36.167969 61.773438 36.167969 C 62.195312 36.167969 62.601562 36.25 62.992188 36.410156 C 63.386719 36.570312 63.730469 36.800781 64.027344 37.101562 C 64.328125 37.398438 64.558594 37.742188 64.71875 38.132812 C 64.882812 38.523438 64.964844 38.929688 64.964844 39.351562 Z M 64.964844 39.351562 " fill-opacity="1" fill-rule="nonzero"/><path fill="#ffcebe" d="M 38.890625 39.351562 C 38.890625 39.777344 38.808594 40.183594 38.648438 40.570312 C 38.488281 40.960938 38.257812 41.308594 37.957031 41.605469 C 37.65625 41.902344 37.3125 42.132812 36.921875 42.296875 C 36.53125 42.457031 36.125 42.539062 35.699219 42.539062 C 35.277344 42.539062 34.871094 42.457031 34.480469 42.296875 C 34.089844 42.132812 33.742188 41.902344 33.445312 41.605469 C 33.144531 41.308594 32.914062 40.960938 32.753906 40.570312 C 32.589844 40.183594 32.511719 39.777344 32.511719 39.351562 C 32.511719 38.929688 32.589844 38.523438 32.753906 38.132812 C 32.914062 37.742188 33.144531 37.398438 33.445312 37.101562 C 33.742188 36.800781 34.089844 36.574219 34.480469 36.410156 C 34.871094 36.25 35.277344 36.167969 35.699219 36.167969 C 36.125 36.167969 36.53125 36.25 36.921875 36.410156 C 37.3125 36.570312 37.65625 36.800781 37.957031 37.101562 C 38.257812 37.398438 38.488281 37.742188 38.648438 38.132812 C 38.808594 38.523438 38.890625 38.929688 38.890625 39.351562 Z M 38.890625 39.351562 " fill-opacity="1" fill-rule="nonzero"/><path fill="#ffcebe" d="M 48.175781 21.683594 C 55.15625 21.683594 61.238281 28.460938 61.238281 36.964844 C 61.238281 45.46875 56.671875 52.539062 48.589844 52.371094 C 40.972656 52.210938 35.941406 45.46875 35.941406 36.964844 C 35.941406 28.460938 41.195312 21.683594 48.175781 21.683594 Z M 48.175781 21.683594 " fill-opacity="1" fill-rule="evenodd"/><path fill="#65403d" d="M 51.398438 33.738281 C 52.097656 33.214844 52.789062 32.957031 53.476562 32.964844 C 54.175781 32.976562 54.867188 33.257812 55.550781 33.777344 C 55.683594 33.875 55.871094 33.851562 55.972656 33.71875 C 56.070312 33.585938 56.046875 33.398438 55.914062 33.300781 C 55.113281 32.691406 54.300781 32.375 53.484375 32.367188 C 52.675781 32.359375 51.859375 32.644531 51.035156 33.265625 C 50.902344 33.363281 50.875 33.550781 50.976562 33.683594 C 51.074219 33.816406 51.265625 33.84375 51.398438 33.738281 Z M 51.398438 33.738281 " fill-opacity="1" fill-rule="evenodd"/><path fill="#65403d" d="M 46.140625 33.265625 C 45.316406 32.644531 44.5 32.359375 43.691406 32.367188 C 42.875 32.375 42.0625 32.691406 41.261719 33.300781 C 41.128906 33.398438 41.105469 33.585938 41.203125 33.71875 C 41.304688 33.851562 41.492188 33.875 41.625 33.777344 C 42.308594 33.257812 43 32.976562 43.699219 32.964844 C 44.386719 32.957031 45.078125 33.214844 45.777344 33.738281 C 45.910156 33.84375 46.101562 33.816406 46.199219 33.683594 C 46.300781 33.550781 46.273438 33.363281 46.140625 33.265625 Z M 46.140625 33.265625 " fill-opacity="1" fill-rule="evenodd"/><path fill="#65403d" d="M 47.242188 44.105469 C 47.34375 43.765625 47.757812 43.492188 48.257812 43.324219 C 49.042969 43.058594 50.0625 43.050781 50.617188 43.546875 C 50.691406 43.609375 50.800781 43.605469 50.867188 43.53125 C 50.929688 43.460938 50.925781 43.351562 50.851562 43.285156 C 50.214844 42.714844 49.046875 42.6875 48.144531 42.992188 C 47.519531 43.203125 47.035156 43.578125 46.90625 44.007812 C 46.878906 44.097656 46.929688 44.195312 47.023438 44.222656 C 47.117188 44.253906 47.214844 44.199219 47.242188 44.105469 Z M 47.242188 44.105469 " fill-opacity="1" fill-rule="evenodd"/><path fill="#65403d" d="M 47.746094 38.707031 L 47.714844 41.167969 C 47.714844 41.257812 47.78125 41.324219 47.867188 41.328125 L 49.300781 41.363281 C 49.386719 41.363281 49.457031 41.296875 49.460938 41.210938 C 49.460938 41.121094 49.394531 41.054688 49.308594 41.050781 L 48.027344 41.019531 C 48.027344 41.019531 48.058594 38.710938 48.058594 38.710938 C 48.058594 38.625 47.992188 38.554688 47.90625 38.554688 C 47.820312 38.554688 47.75 38.621094 47.746094 38.707031 Z M 47.746094 38.707031 " fill-opacity="1" fill-rule="evenodd"/><path fill="#65403d" d="M 45.027344 37.316406 C 45.027344 37.496094 44.992188 37.664062 44.925781 37.828125 C 44.859375 37.992188 44.761719 38.132812 44.636719 38.257812 C 44.511719 38.382812 44.367188 38.480469 44.203125 38.546875 C 44.042969 38.617188 43.871094 38.648438 43.695312 38.648438 C 43.515625 38.648438 43.347656 38.617188 43.183594 38.546875 C 43.019531 38.480469 42.875 38.382812 42.75 38.257812 C 42.625 38.132812 42.53125 37.992188 42.460938 37.828125 C 42.394531 37.664062 42.359375 37.496094 42.359375 37.316406 C 42.359375 37.140625 42.394531 36.972656 42.460938 36.808594 C 42.53125 36.644531 42.625 36.5 42.75 36.375 C 42.875 36.253906 43.019531 36.15625 43.183594 36.089844 C 43.347656 36.019531 43.515625 35.988281 43.695312 35.988281 C 43.871094 35.988281 44.042969 36.019531 44.203125 36.089844 C 44.367188 36.15625 44.511719 36.253906 44.636719 36.375 C 44.761719 36.5 44.859375 36.644531 44.925781 36.808594 C 44.992188 36.972656 45.027344 37.140625 45.027344 37.316406 Z M 45.027344 37.316406 " fill-opacity="1" fill-rule="nonzero"/><path fill="#65403d" d="M 54.808594 37.316406 C 54.808594 37.496094 54.773438 37.664062 54.707031 37.828125 C 54.636719 37.992188 54.542969 38.132812 54.417969 38.257812 C 54.292969 38.382812 54.148438 38.480469 53.984375 38.546875 C 53.820312 38.617188 53.652344 38.648438 53.472656 38.648438 C 53.296875 38.648438 53.128906 38.617188 52.964844 38.546875 C 52.800781 38.480469 52.65625 38.382812 52.53125 38.257812 C 52.40625 38.132812 52.308594 37.992188 52.242188 37.828125 C 52.175781 37.664062 52.140625 37.496094 52.140625 37.316406 C 52.140625 37.140625 52.175781 36.972656 52.242188 36.808594 C 52.308594 36.644531 52.40625 36.5 52.53125 36.375 C 52.65625 36.253906 52.800781 36.15625 52.964844 36.089844 C 53.128906 36.019531 53.296875 35.988281 53.472656 35.988281 C 53.652344 35.988281 53.820312 36.019531 53.984375 36.089844 C 54.148438 36.15625 54.292969 36.253906 54.417969 36.375 C 54.542969 36.5 54.636719 36.644531 54.707031 36.808594 C 54.773438 36.972656 54.808594 37.140625 54.808594 37.316406 Z M 54.808594 37.316406 " fill-opacity="1" fill-rule="nonzero"/><path fill="#65403d" d="M 35.796875 38.457031 C 36.128906 38.464844 36.273438 34.683594 36.273438 34.683594 C 40.097656 31.785156 41.546875 30.007812 40.804688 25.925781 C 44.640625 29.785156 51.042969 30.289062 58 28.285156 C 57.644531 30.496094 58.503906 32.882812 60.425781 33.585938 C 60.425781 33.585938 60.441406 37.59375 61.242188 37.929688 C 62.265625 38.359375 62.945312 35.371094 62.855469 33.921875 C 62.621094 30.09375 60.238281 25.148438 59.390625 22.191406 C 59.390625 22.191406 45.257812 16.386719 41.675781 21.457031 L 34.25 27.679688 C 34.25 27.679688 33.996094 38.410156 35.796875 38.457031 Z M 35.796875 38.457031 " fill-opacity="1" fill-rule="evenodd"/><path fill="#65403d" d="M 78.0625 38.644531 C 78.0625 38.644531 78.640625 37.910156 79.410156 37.476562 C 79.792969 37.261719 80.234375 37.09375 80.660156 37.308594 C 80.960938 37.457031 81.230469 37.773438 81.484375 38.28125 C 81.734375 38.773438 81.832031 39.136719 81.785156 39.4375 C 81.707031 39.882812 81.324219 40.132812 80.929688 40.441406 C 79.871094 41.273438 78.613281 42.203125 78.613281 44.46875 C 78.613281 44.871094 78.941406 45.199219 79.34375 45.199219 C 79.75 45.199219 80.078125 44.871094 80.078125 44.46875 C 80.078125 43.332031 80.550781 42.691406 81.089844 42.203125 C 81.539062 41.792969 82.027344 41.472656 82.402344 41.117188 C 82.832031 40.707031 83.132812 40.253906 83.230469 39.679688 C 83.320312 39.148438 83.234375 38.488281 82.796875 37.625 C 82.355469 36.75 81.835938 36.257812 81.320312 36 C 80.433594 35.550781 79.492188 35.746094 78.6875 36.203125 C 77.675781 36.773438 76.910156 37.738281 76.910156 37.738281 C 76.660156 38.054688 76.714844 38.515625 77.03125 38.769531 C 77.351562 39.019531 77.8125 38.964844 78.0625 38.644531 Z M 78.0625 38.644531 " fill-opacity="1" fill-rule="evenodd"/><path fill="#65403d" d="M 18.820312 39.378906 C 18.820312 39.378906 19.160156 38.691406 19.699219 38.210938 C 19.96875 37.972656 20.292969 37.765625 20.667969 37.863281 C 20.9375 37.933594 21.207031 38.140625 21.5 38.5 C 21.78125 38.851562 21.921875 39.125 21.933594 39.375 C 21.953125 39.742188 21.683594 40.011719 21.425781 40.324219 C 20.71875 41.167969 19.871094 42.128906 20.257812 43.941406 C 20.328125 44.265625 20.648438 44.472656 20.972656 44.402344 C 21.296875 44.332031 21.503906 44.011719 21.433594 43.691406 C 21.238281 42.78125 21.507812 42.1875 21.855469 41.703125 C 22.144531 41.300781 22.476562 40.960938 22.71875 40.613281 C 22.992188 40.210938 23.15625 39.796875 23.132812 39.320312 C 23.113281 38.882812 22.933594 38.367188 22.433594 37.75 C 21.933594 37.128906 21.433594 36.820312 20.972656 36.703125 C 20.1875 36.496094 19.46875 36.8125 18.902344 37.316406 C 18.191406 37.945312 17.742188 38.847656 17.742188 38.847656 C 17.597656 39.144531 17.71875 39.503906 18.019531 39.652344 C 18.316406 39.796875 18.675781 39.675781 18.820312 39.378906 Z M 18.820312 39.378906 " fill-opacity="1" fill-rule="evenodd"/><path fill="#65403d" d="M 80.117188 47.121094 C 80.117188 47.367188 80.027344 47.578125 79.855469 47.753906 C 79.679688 47.925781 79.46875 48.015625 79.21875 48.015625 C 78.972656 48.015625 78.761719 47.925781 78.585938 47.753906 C 78.410156 47.578125 78.324219 47.367188 78.324219 47.121094 C 78.324219 46.875 78.410156 46.664062 78.585938 46.488281 C 78.761719 46.3125 78.972656 46.226562 79.21875 46.226562 C 79.46875 46.226562 79.679688 46.3125 79.855469 46.488281 C 80.027344 46.664062 80.117188 46.875 80.117188 47.121094 Z M 80.117188 47.121094 " fill-opacity="1" fill-rule="nonzero"/><path fill="#65403d" d="M 21.933594 45.820312 C 21.976562 46.019531 21.941406 46.203125 21.832031 46.371094 C 21.722656 46.542969 21.570312 46.648438 21.371094 46.691406 C 21.171875 46.734375 20.988281 46.699219 20.820312 46.589844 C 20.648438 46.480469 20.542969 46.324219 20.5 46.128906 C 20.457031 45.929688 20.492188 45.746094 20.601562 45.578125 C 20.710938 45.40625 20.867188 45.300781 21.0625 45.257812 C 21.261719 45.21875 21.445312 45.25 21.617188 45.359375 C 21.785156 45.472656 21.890625 45.625 21.933594 45.820312 Z M 21.933594 45.820312 " fill-opacity="1" fill-rule="nonzero"/></svg>