<svg xmlns="http://www.w3.org/2000/svg" xmlns:xlink="http://www.w3.org/1999/xlink" width="126" zoomAndPan="magnify" viewBox="0 0 94.5 112.499997" height="150" preserveAspectRatio="xMidYMid meet" version="1.0"><defs><clipPath id="e7d7ac8dd9"><path d="M 36 89.253906 L 81 89.253906 L 81 111.34375 L 36 111.34375 Z M 36 89.253906 " clip-rule="nonzero"/></clipPath><clipPath id="ba25ecfbc9"><path d="M 8.8125 42 L 93.808594 42 L 93.808594 96 L 8.8125 96 Z M 8.8125 42 " clip-rule="nonzero"/></clipPath></defs><g clip-path="url(#e7d7ac8dd9)"><path fill="#4c4978" d="M 39.699219 89.601562 L 36.300781 109.578125 C 49.777344 111.929688 65.621094 111.921875 80.246094 109.578125 L 75.25 90.011719 L 39.699219 89.601562 " fill-opacity="1" fill-rule="evenodd"/></g><path fill="#fcbfa3" d="M 11.785156 47.519531 L 11.445312 40.519531 C 11.445312 40.519531 10.25 40.179688 10.015625 39.714844 C 9.476562 38.671875 9.351562 37.203125 9.4375 35.902344 C 9.523438 34.671875 10.972656 34.679688 10.972656 34.679688 C 11.464844 34.007812 12.105469 33.6875 13.003906 33.96875 C 13.414062 33.289062 13.925781 32.726562 14.9375 32.746094 C 14.9375 32.746094 14.425781 28.652344 14.605469 27.769531 C 14.710938 27.285156 15.875 26.992188 16.054688 27.449219 C 16.667969 29.011719 17.8125 33.96875 18.296875 37.128906 C 18.75 40.1875 18.902344 46.398438 18.902344 46.398438 L 11.785156 47.519531 " fill-opacity="1" fill-rule="evenodd"/><path fill="#f7907f" d="M 15.105469 33.96875 C 15.097656 34.207031 15.089844 34.445312 15.105469 34.671875 C 15.117188 34.910156 15.144531 35.144531 15.191406 35.375 C 15.21875 35.515625 15.269531 35.648438 15.304688 35.789062 C 15.417969 36.101562 15.5625 36.40625 15.742188 36.679688 C 15.777344 36.746094 15.855469 36.765625 15.910156 36.730469 C 15.976562 36.691406 15.996094 36.613281 15.957031 36.546875 C 15.789062 36.246094 15.675781 35.902344 15.589844 35.5625 C 15.53125 35.355469 15.496094 35.15625 15.457031 34.9375 C 15.410156 34.625 15.371094 34.300781 15.371094 33.96875 C 15.371094 33.894531 15.316406 33.835938 15.238281 33.835938 C 15.171875 33.835938 15.105469 33.894531 15.105469 33.96875 " fill-opacity="1" fill-rule="evenodd"/><path fill="#f7907f" d="M 12.96875 34.777344 C 12.949219 34.957031 12.949219 35.125 12.957031 35.289062 C 12.96875 35.457031 12.996094 35.628906 13.035156 35.789062 C 13.0625 35.894531 13.101562 35.988281 13.136719 36.085938 C 13.234375 36.300781 13.355469 36.511719 13.507812 36.691406 C 13.546875 36.746094 13.628906 36.765625 13.6875 36.71875 C 13.742188 36.679688 13.761719 36.605469 13.714844 36.539062 C 13.601562 36.367188 13.515625 36.167969 13.449219 35.960938 C 13.414062 35.875 13.394531 35.789062 13.367188 35.703125 C 13.328125 35.5625 13.300781 35.410156 13.269531 35.25 C 13.25 35.109375 13.234375 34.957031 13.234375 34.785156 C 13.234375 34.71875 13.1875 34.652344 13.109375 34.652344 C 13.035156 34.652344 12.976562 34.710938 12.96875 34.777344 " fill-opacity="1" fill-rule="evenodd"/><path fill="#f7907f" d="M 11.140625 35.808594 C 11.160156 36.140625 11.1875 36.464844 11.234375 36.765625 C 11.292969 37.097656 11.359375 37.410156 11.445312 37.707031 C 11.511719 37.894531 11.578125 38.074219 11.644531 38.253906 C 11.824219 38.683594 12.039062 39.082031 12.285156 39.441406 C 12.324219 39.496094 12.398438 39.515625 12.457031 39.476562 C 12.523438 39.441406 12.542969 39.363281 12.503906 39.296875 C 12.285156 38.9375 12.105469 38.550781 11.945312 38.132812 C 11.890625 37.960938 11.832031 37.78125 11.773438 37.609375 C 11.691406 37.316406 11.613281 37.023438 11.546875 36.710938 C 11.492188 36.417969 11.433594 36.113281 11.40625 35.789062 C 11.398438 35.714844 11.339844 35.667969 11.265625 35.667969 C 11.1875 35.675781 11.132812 35.742188 11.140625 35.808594 " fill-opacity="1" fill-rule="evenodd"/><path fill="#f7907f" d="M 11.445312 40.652344 C 11.792969 40.671875 12.152344 40.605469 12.398438 40.417969 C 12.589844 40.265625 12.710938 40.058594 12.703125 39.753906 C 12.757812 39.773438 12.816406 39.792969 12.875 39.808594 C 13.148438 39.875 13.402344 39.867188 13.621094 39.800781 C 13.941406 39.707031 14.179688 39.488281 14.265625 39.210938 C 14.292969 39.109375 14.292969 38.957031 14.265625 38.816406 C 14.226562 38.566406 14.140625 38.3125 14.140625 38.3125 C 14.121094 38.246094 14.046875 38.207031 13.980469 38.226562 C 13.914062 38.246094 13.875 38.320312 13.894531 38.386719 C 13.894531 38.386719 13.960938 38.625 13.988281 38.851562 C 14 38.957031 14 39.050781 13.980469 39.117188 C 13.90625 39.34375 13.667969 39.488281 13.375 39.515625 C 13.136719 39.535156 12.855469 39.476562 12.578125 39.328125 C 12.511719 39.289062 12.4375 39.296875 12.390625 39.335938 C 12.332031 39.382812 12.316406 39.449219 12.332031 39.515625 C 12.429688 39.828125 12.363281 40.039062 12.203125 40.171875 C 12.019531 40.332031 11.738281 40.386719 11.453125 40.386719 C 11.378906 40.378906 11.320312 40.445312 11.3125 40.511719 C 11.3125 40.585938 11.367188 40.652344 11.445312 40.652344 " fill-opacity="1" fill-rule="evenodd"/><path fill="#f7907f" d="M 17.910156 38.519531 C 17.910156 38.519531 17.738281 37.886719 17.445312 37.382812 C 17.273438 37.089844 17.046875 36.851562 16.8125 36.777344 C 16.507812 36.691406 15.882812 36.652344 15.230469 36.632812 C 14.121094 36.605469 12.890625 36.652344 12.890625 36.652344 C 12.84375 36.652344 12.808594 36.671875 12.777344 36.710938 C 12.742188 36.738281 12.722656 36.785156 12.730469 36.832031 C 12.757812 37.441406 12.902344 37.894531 13.167969 38.179688 C 13.433594 38.464844 13.828125 38.578125 14.398438 38.445312 C 14.472656 39.042969 14.652344 39.535156 14.925781 39.90625 C 15.269531 40.371094 15.769531 40.652344 16.449219 40.71875 C 16.515625 40.730469 16.582031 40.671875 16.582031 40.605469 C 16.59375 40.53125 16.546875 40.472656 16.480469 40.464844 C 15.882812 40.398438 15.449219 40.152344 15.15625 39.734375 C 14.898438 39.355469 14.738281 38.851562 14.679688 38.238281 C 14.679688 38.1875 14.652344 38.140625 14.613281 38.113281 C 14.578125 38.09375 14.53125 38.085938 14.480469 38.09375 C 13.980469 38.238281 13.628906 38.1875 13.414062 37.953125 C 13.214844 37.742188 13.121094 37.410156 13.082031 36.984375 C 13.460938 36.976562 14.378906 36.945312 15.21875 36.957031 C 15.84375 36.964844 16.441406 36.996094 16.726562 37.070312 C 16.914062 37.117188 17.066406 37.316406 17.199219 37.535156 C 17.484375 38 17.652344 38.585938 17.652344 38.585938 C 17.671875 38.664062 17.746094 38.699219 17.8125 38.683594 C 17.890625 38.664062 17.925781 38.585938 17.910156 38.519531 " fill-opacity="1" fill-rule="evenodd"/><path fill="#582d2a" d="M 57.511719 6.125 C 51.246094 2.703125 44.988281 9.746094 43.273438 15.367188 C 40.550781 24.289062 43.730469 27.902344 44.269531 34.332031 C 44.582031 38.085938 34.90625 43.632812 41.503906 50.855469 C 46.625 56.46875 77.09375 56.820312 83.453125 44.039062 C 86.160156 38.578125 78.039062 30.480469 77.046875 26.007812 C 75.609375 19.53125 76.234375 13.367188 71.746094 8.550781 C 64.457031 0.722656 57.511719 6.125 57.511719 6.125 " fill-opacity="1" fill-rule="evenodd"/><g clip-path="url(#ba25ecfbc9)"><path fill="#d3cee2" d="M 50.722656 42.96875 C 37.285156 43.78125 21.75 60.667969 21.75 60.667969 L 20.53125 42.9375 L 9.417969 45.335938 C 9.417969 45.335938 5.480469 74.832031 17.679688 77.277344 C 25.527344 78.84375 38.125 69.125 38.125 69.125 L 37.613281 89.8125 C 50.402344 92.125 61.042969 92.703125 73.527344 90.417969 L 78.105469 95.519531 C 78.105469 95.519531 90.648438 84.769531 93.46875 77.78125 C 95.757812 72.101562 85.953125 54.15625 77.300781 47.109375 C 73.117188 43.695312 67.921875 43.003906 67.921875 43.003906 Z M 76.175781 81.753906 L 80.550781 76.414062 L 76.28125 70.953125 L 76.175781 81.753906 " fill-opacity="1" fill-rule="evenodd"/></g><path fill="#582d2a" d="M 64.03125 73.921875 C 63.09375 75.285156 62.042969 76.480469 60.910156 77.523438 C 59.726562 78.625 58.449219 79.554688 57.074219 80.359375 C 56.261719 80.84375 55.410156 81.277344 54.53125 81.675781 C 52.542969 82.566406 50.402344 83.242188 48.167969 83.742188 C 48.082031 83.761719 48.027344 83.847656 48.046875 83.933594 C 48.066406 84.019531 48.148438 84.066406 48.234375 84.046875 C 50.507812 83.574219 52.675781 82.929688 54.691406 82.039062 C 55.589844 81.648438 56.449219 81.210938 57.292969 80.71875 C 58.683594 79.902344 59.980469 78.9375 61.175781 77.808594 C 62.320312 76.726562 63.359375 75.503906 64.296875 74.101562 C 64.355469 74.035156 64.335938 73.929688 64.257812 73.882812 C 64.183594 73.828125 64.089844 73.847656 64.03125 73.921875 " fill-opacity="1" fill-rule="evenodd"/><path fill="#582d2a" d="M 75.890625 66.679688 C 75.890625 66.679688 75.863281 67.457031 75.855469 68.488281 C 75.855469 69.039062 75.84375 69.675781 75.855469 70.300781 C 75.855469 70.667969 75.875 71.03125 75.882812 71.382812 C 75.941406 72.765625 75.996094 73.914062 75.996094 73.914062 C 75.996094 74.0625 76.128906 74.1875 76.28125 74.1875 C 76.433594 74.1875 76.554688 74.0625 76.554688 73.914062 C 76.554688 73.914062 76.582031 72.753906 76.59375 71.371094 C 76.59375 71.019531 76.601562 70.660156 76.59375 70.289062 C 76.582031 69.664062 76.5625 69.03125 76.546875 68.480469 C 76.507812 67.445312 76.460938 66.667969 76.460938 66.667969 C 76.460938 66.515625 76.328125 66.394531 76.167969 66.394531 C 76.015625 66.394531 75.882812 66.527344 75.890625 66.679688 " fill-opacity="1" fill-rule="evenodd"/><path fill="#582d2a" d="M 21.476562 60.6875 C 21.476562 60.6875 21.503906 61.320312 21.554688 62.175781 C 21.582031 62.621094 21.609375 63.132812 21.65625 63.652344 C 21.675781 63.949219 21.714844 64.25 21.742188 64.535156 C 21.875 65.664062 21.996094 66.59375 21.996094 66.59375 C 22.007812 66.746094 22.140625 66.847656 22.28125 66.839844 C 22.421875 66.832031 22.539062 66.699219 22.519531 66.554688 C 22.519531 66.554688 22.480469 65.605469 22.414062 64.480469 C 22.394531 64.183594 22.375 63.890625 22.355469 63.585938 C 22.308594 63.074219 22.253906 62.5625 22.207031 62.117188 C 22.101562 61.265625 22.015625 60.640625 22.015625 60.640625 C 22.007812 60.488281 21.875 60.382812 21.734375 60.394531 C 21.582031 60.402344 21.46875 60.535156 21.476562 60.6875 " fill-opacity="1" fill-rule="evenodd"/><path fill="#582d2a" d="M 21.5625 60.855469 C 21.5625 60.855469 21.835938 61.179688 22.234375 61.605469 C 22.441406 61.832031 22.679688 62.089844 22.925781 62.335938 C 23.066406 62.488281 23.21875 62.621094 23.359375 62.761719 C 23.929688 63.285156 24.410156 63.703125 24.410156 63.703125 C 24.515625 63.804688 24.6875 63.804688 24.789062 63.703125 C 24.882812 63.605469 24.882812 63.4375 24.789062 63.332031 C 24.789062 63.332031 24.363281 62.847656 23.84375 62.28125 C 23.710938 62.136719 23.570312 61.984375 23.417969 61.84375 C 23.171875 61.597656 22.914062 61.359375 22.6875 61.152344 C 22.261719 60.753906 21.941406 60.46875 21.941406 60.46875 C 21.835938 60.363281 21.667969 60.363281 21.5625 60.46875 C 21.449219 60.582031 21.449219 60.753906 21.5625 60.855469 " fill-opacity="1" fill-rule="evenodd"/><path fill="#582d2a" d="M 38.503906 72.394531 C 38.503906 72.394531 38.597656 71.210938 38.703125 69.597656 C 38.769531 68.746094 38.835938 67.769531 38.882812 66.800781 C 38.910156 66.234375 38.941406 65.664062 38.960938 65.113281 C 39.054688 62.972656 39.101562 61.1875 39.101562 61.1875 C 39.109375 61.046875 38.996094 60.921875 38.855469 60.914062 C 38.714844 60.90625 38.582031 61.019531 38.570312 61.160156 C 38.570312 61.160156 38.4375 62.933594 38.289062 65.078125 C 38.25 65.625 38.210938 66.195312 38.183594 66.765625 C 38.136719 67.730469 38.089844 68.707031 38.058594 69.5625 C 37.992188 71.171875 37.957031 72.367188 37.957031 72.367188 C 37.945312 72.519531 38.058594 72.640625 38.210938 72.652344 C 38.363281 72.660156 38.496094 72.546875 38.503906 72.394531 " fill-opacity="1" fill-rule="evenodd"/><path fill="#582d2a" d="M 80.585938 76.691406 C 80.585938 76.691406 80.898438 76.671875 81.316406 76.625 C 81.535156 76.59375 81.78125 76.566406 82.027344 76.527344 C 82.175781 76.511719 82.320312 76.472656 82.453125 76.445312 C 82.992188 76.328125 83.4375 76.214844 83.4375 76.214844 C 83.585938 76.1875 83.683594 76.054688 83.652344 75.902344 C 83.632812 75.761719 83.492188 75.667969 83.351562 75.683594 C 83.351562 75.683594 82.894531 75.714844 82.347656 75.78125 C 82.207031 75.800781 82.0625 75.816406 81.910156 75.835938 C 81.664062 75.875 81.417969 75.933594 81.210938 75.980469 C 80.804688 76.0625 80.5 76.148438 80.5 76.148438 C 80.359375 76.167969 80.253906 76.3125 80.273438 76.460938 C 80.304688 76.605469 80.445312 76.710938 80.585938 76.691406 " fill-opacity="1" fill-rule="evenodd"/><path fill="#582d2a" d="M 80.152344 77.4375 C 80.152344 77.4375 80.453125 77.105469 80.851562 76.632812 C 81.070312 76.386719 81.304688 76.101562 81.535156 75.808594 C 81.664062 75.636719 81.796875 75.46875 81.921875 75.296875 C 82.402344 74.632812 82.792969 74.074219 82.792969 74.074219 C 82.878906 73.960938 82.859375 73.796875 82.746094 73.703125 C 82.632812 73.609375 82.460938 73.636719 82.375 73.75 C 82.375 73.75 81.921875 74.253906 81.390625 74.878906 C 81.257812 75.039062 81.117188 75.203125 80.984375 75.371094 C 80.757812 75.667969 80.539062 75.96875 80.339844 76.234375 C 79.980469 76.726562 79.726562 77.105469 79.726562 77.105469 C 79.632812 77.222656 79.648438 77.390625 79.773438 77.488281 C 79.886719 77.582031 80.058594 77.5625 80.152344 77.4375 " fill-opacity="1" fill-rule="evenodd"/><path fill="#fcbfa3" d="M 73.527344 90.3125 L 77.597656 94.695312 C 77.578125 95.226562 73.15625 95.109375 71.1875 95.414062 C 69.164062 95.71875 67.203125 97.726562 66.210938 97.957031 C 65.726562 98.070312 65.09375 97.738281 65.292969 97.09375 C 65.460938 96.5625 67.117188 95.109375 67.117188 95.109375 C 67.117188 95.109375 64.96875 95.851562 64.296875 95.71875 C 64.03125 95.660156 63.898438 95.1875 64.097656 94.910156 C 64.355469 94.582031 66.171875 93.441406 66.171875 93.441406 C 66.171875 93.441406 64.429688 94.316406 63.550781 94.363281 C 63.160156 94.382812 62.898438 93.804688 63.160156 93.507812 C 63.578125 93.074219 65.945312 91.800781 65.945312 91.800781 C 65.945312 91.800781 63.359375 92.617188 62.773438 92.523438 C 62.339844 92.457031 61.976562 91.746094 62.308594 91.433594 C 62.832031 90.910156 65.09375 89.546875 66.378906 89.402344 C 67.65625 89.261719 69.144531 89.933594 70.402344 90.085938 C 71.539062 90.230469 73.527344 90.3125 73.527344 90.3125 " fill-opacity="1" fill-rule="evenodd"/><path fill="#f7907f" d="M 66.019531 91.917969 C 66.019531 91.917969 66.3125 91.726562 66.710938 91.574219 C 66.84375 91.527344 66.996094 91.480469 67.144531 91.453125 C 67.242188 91.433594 67.335938 91.414062 67.441406 91.402344 C 67.554688 91.386719 67.6875 91.386719 67.820312 91.394531 C 68.128906 91.414062 68.414062 91.460938 68.414062 91.460938 C 68.480469 91.480469 68.558594 91.433594 68.566406 91.367188 C 68.585938 91.289062 68.539062 91.222656 68.472656 91.214844 C 68.472656 91.214844 68.167969 91.128906 67.847656 91.089844 C 67.703125 91.074219 67.542969 91.0625 67.410156 91.074219 C 67.183594 91.082031 66.949219 91.140625 66.75 91.214844 C 66.238281 91.402344 65.867188 91.699219 65.867188 91.699219 C 65.800781 91.734375 65.792969 91.820312 65.832031 91.878906 C 65.867188 91.933594 65.964844 91.953125 66.019531 91.917969 " fill-opacity="1" fill-rule="evenodd"/><path fill="#f7907f" d="M 66.019531 93.640625 C 66.019531 93.640625 66.3125 93.460938 66.710938 93.308594 C 66.84375 93.261719 66.996094 93.214844 67.144531 93.1875 C 67.242188 93.15625 67.335938 93.140625 67.441406 93.128906 C 67.554688 93.121094 67.6875 93.121094 67.820312 93.128906 C 68.128906 93.148438 68.414062 93.195312 68.414062 93.195312 C 68.480469 93.207031 68.558594 93.167969 68.566406 93.089844 C 68.585938 93.027344 68.539062 92.960938 68.472656 92.941406 C 68.472656 92.941406 68.167969 92.863281 67.847656 92.816406 C 67.703125 92.796875 67.542969 92.789062 67.410156 92.796875 C 67.183594 92.816406 66.949219 92.875 66.75 92.949219 C 66.238281 93.128906 65.867188 93.421875 65.867188 93.421875 C 65.800781 93.472656 65.792969 93.546875 65.832031 93.613281 C 65.867188 93.671875 65.964844 93.6875 66.019531 93.640625 " fill-opacity="1" fill-rule="evenodd"/><path fill="#f7907f" d="M 66.644531 95.632812 C 66.644531 95.632812 66.890625 95.386719 67.25 95.148438 C 67.363281 95.074219 67.507812 94.996094 67.636719 94.921875 C 67.734375 94.882812 67.820312 94.84375 67.914062 94.816406 C 68.027344 94.769531 68.160156 94.742188 68.28125 94.722656 C 68.585938 94.664062 68.878906 94.65625 68.878906 94.65625 C 68.953125 94.648438 69.011719 94.589844 69.011719 94.523438 C 69.011719 94.449219 68.945312 94.390625 68.878906 94.390625 C 68.878906 94.390625 68.566406 94.382812 68.246094 94.417969 C 68.09375 94.429688 67.941406 94.457031 67.820312 94.496094 C 67.589844 94.5625 67.382812 94.664062 67.203125 94.789062 C 66.75 95.082031 66.445312 95.453125 66.445312 95.453125 C 66.398438 95.507812 66.40625 95.59375 66.457031 95.640625 C 66.511719 95.691406 66.597656 95.679688 66.644531 95.632812 " fill-opacity="1" fill-rule="evenodd"/><path fill="#582d2a" d="M 75.070312 91.574219 L 71.746094 87.28125 C 71.964844 87.035156 72.371094 86.597656 72.871094 86.046875 C 73.269531 85.621094 73.714844 85.117188 74.1875 84.597656 C 76.003906 82.566406 78.097656 80.207031 78.097656 80.207031 C 78.203125 80.09375 78.191406 79.933594 78.078125 79.828125 C 77.972656 79.734375 77.804688 79.742188 77.710938 79.847656 C 77.710938 79.847656 75.542969 82.140625 73.6875 84.132812 C 73.203125 84.652344 72.75 85.148438 72.351562 85.574219 C 71.574219 86.425781 71.035156 87.023438 71.035156 87.023438 C 70.921875 87.15625 70.914062 87.335938 71.019531 87.46875 L 74.632812 91.917969 C 74.738281 92.03125 74.898438 92.050781 75.019531 91.953125 C 75.136719 91.859375 75.152344 91.6875 75.070312 91.574219 " fill-opacity="1" fill-rule="evenodd"/><path fill="#fcbfa3" d="M 64.503906 31.25 L 55.675781 31.683594 C 55.675781 31.683594 54.957031 37.761719 54.054688 39.867188 C 53.242188 41.773438 49.75 42.796875 49.75 42.796875 C 51.234375 50.496094 63.511719 51.035156 68.917969 43.234375 C 68.917969 43.234375 65.113281 41.601562 64.503906 39.859375 C 63.75 37.675781 64.503906 31.25 64.503906 31.25 " fill-opacity="1" fill-rule="evenodd"/><path fill="#f7907f" d="M 54.273438 39.242188 C 59.953125 39.128906 62.714844 37.390625 63.863281 34.378906 L 54.917969 33.835938 L 54.273438 39.242188 " fill-opacity="1" fill-rule="evenodd"/><path fill="#fcbfa3" d="M 54.726562 11.167969 C 47.355469 11.738281 46.34375 16.6875 46.625 23.777344 C 46.949219 31.828125 49.550781 37.242188 56.859375 37.328125 C 62.632812 37.390625 67.542969 32.625 67.601562 26.300781 C 67.65625 18.820312 65.734375 10.324219 54.726562 11.167969 " fill-opacity="1" fill-rule="evenodd"/><path fill="#fcbfa3" d="M 67.496094 21.691406 C 69.21875 21.691406 70.621094 23.046875 70.621094 24.726562 C 70.621094 26.40625 69.21875 27.761719 67.496094 27.761719 C 65.785156 27.761719 64.382812 26.40625 64.382812 24.726562 C 64.382812 23.046875 65.785156 21.691406 67.496094 21.691406 " fill-opacity="1" fill-rule="evenodd"/><path fill="#582d2a" d="M 44.789062 21.21875 C 48.359375 13.566406 52.542969 13.234375 52.542969 13.234375 C 55.097656 16.261719 60.238281 19.804688 66.703125 18.867188 C 66.703125 18.867188 66.144531 24.898438 70.753906 23.371094 L 64.714844 9.566406 L 54.558594 10.089844 L 46.617188 13.019531 L 44.789062 21.21875 " fill-opacity="1" fill-rule="evenodd"/><path fill="#582d2a" d="M 59.746094 21.179688 C 60.332031 21.179688 60.8125 21.683594 60.8125 22.300781 C 60.8125 22.914062 60.332031 23.417969 59.746094 23.417969 C 59.15625 23.417969 58.675781 22.914062 58.675781 22.300781 C 58.675781 21.683594 59.15625 21.179688 59.746094 21.179688 " fill-opacity="1" fill-rule="evenodd"/><path fill="#f7907f" d="M 61.164062 24.847656 C 62.375 24.847656 63.359375 25.503906 63.359375 26.320312 C 63.359375 27.132812 62.375 27.796875 61.164062 27.796875 C 59.960938 27.796875 58.988281 27.132812 58.988281 26.320312 C 58.988281 25.503906 59.960938 24.847656 61.164062 24.847656 " fill-opacity="1" fill-rule="evenodd"/><path fill="#f7907f" d="M 49.164062 24.847656 C 50.375 24.847656 51.347656 25.503906 51.347656 26.320312 C 51.347656 27.132812 50.375 27.796875 49.164062 27.796875 C 47.960938 27.796875 46.976562 27.132812 46.976562 26.320312 C 46.976562 25.503906 47.960938 24.847656 49.164062 24.847656 " fill-opacity="1" fill-rule="evenodd"/><path fill="#582d2a" d="M 51 21.378906 C 51.585938 21.378906 52.070312 21.882812 52.070312 22.5 C 52.070312 23.125 51.585938 23.625 51 23.625 C 50.402344 23.625 49.929688 23.125 49.929688 22.5 C 49.929688 21.882812 50.402344 21.378906 51 21.378906 " fill-opacity="1" fill-rule="evenodd"/><path fill="#582d2a" d="M 58.664062 19.472656 C 58.902344 19.359375 59.148438 19.304688 59.394531 19.257812 C 59.640625 19.21875 59.886719 19.207031 60.132812 19.21875 C 60.445312 19.21875 60.746094 19.246094 61.050781 19.3125 C 61.257812 19.359375 61.46875 19.40625 61.675781 19.484375 C 61.863281 19.570312 62.082031 19.484375 62.167969 19.292969 C 62.253906 19.113281 62.175781 18.886719 61.988281 18.800781 C 61.589844 18.582031 61.175781 18.402344 60.746094 18.296875 C 60.550781 18.261719 60.359375 18.230469 60.160156 18.222656 C 59.960938 18.214844 59.753906 18.230469 59.554688 18.269531 C 59.121094 18.355469 58.683594 18.527344 58.277344 18.808594 C 58.097656 18.914062 58.03125 19.152344 58.144531 19.332031 C 58.25 19.511719 58.476562 19.578125 58.664062 19.472656 " fill-opacity="1" fill-rule="evenodd"/><path fill="#582d2a" d="M 52.457031 18.808594 C 52.058594 18.527344 51.625 18.355469 51.179688 18.269531 C 50.980469 18.230469 50.78125 18.214844 50.582031 18.222656 C 50.382812 18.230469 50.183594 18.261719 49.996094 18.296875 C 49.558594 18.402344 49.144531 18.582031 48.753906 18.800781 C 48.566406 18.886719 48.480469 19.113281 48.574219 19.292969 C 48.660156 19.484375 48.878906 19.570312 49.066406 19.484375 C 49.265625 19.40625 49.476562 19.359375 49.691406 19.3125 C 49.996094 19.246094 50.296875 19.21875 50.609375 19.21875 C 50.855469 19.207031 51.101562 19.21875 51.347656 19.257812 C 51.59375 19.304688 51.839844 19.359375 52.078125 19.472656 C 52.257812 19.578125 52.496094 19.511719 52.597656 19.332031 C 52.703125 19.152344 52.644531 18.914062 52.457031 18.808594 " fill-opacity="1" fill-rule="evenodd"/><path fill="#f7907f" d="M 52.589844 30.074219 C 52.589844 30.074219 52.644531 33.050781 55.171875 32.785156 C 58.882812 32.40625 58.570312 29.230469 58.570312 29.230469 L 52.589844 30.074219 " fill-opacity="1" fill-rule="evenodd"/><path fill="#f7907f" d="M 54.074219 21.09375 C 54.253906 23.191406 53.914062 24.800781 53.792969 25.882812 C 53.726562 26.460938 53.726562 26.90625 53.855469 27.199219 C 54.046875 27.628906 54.492188 27.84375 55.449219 27.722656 C 55.570312 27.703125 55.664062 27.589844 55.644531 27.464844 C 55.628906 27.34375 55.515625 27.257812 55.390625 27.277344 C 55.039062 27.316406 54.777344 27.316406 54.578125 27.265625 C 54.425781 27.21875 54.332031 27.132812 54.273438 27.011719 C 54.160156 26.773438 54.179688 26.40625 54.234375 25.929688 C 54.359375 24.832031 54.710938 23.191406 54.53125 21.058594 C 54.519531 20.933594 54.40625 20.839844 54.285156 20.847656 C 54.160156 20.859375 54.066406 20.972656 54.074219 21.09375 " fill-opacity="1" fill-rule="evenodd"/></svg>