<svg xmlns="http://www.w3.org/2000/svg" xmlns:xlink="http://www.w3.org/1999/xlink" width="126" zoomAndPan="magnify" viewBox="0 0 94.5 112.499997" height="150" preserveAspectRatio="xMidYMid meet" version="1.0"><defs><clipPath id="2a52e9d94f"><path d="M 50 92.066406 L 91 92.066406 L 91 111.820312 L 50 111.820312 Z M 50 92.066406 " clip-rule="nonzero"/></clipPath><clipPath id="03b2bdf434"><path d="M 20 0.046875 L 38 0.046875 L 38 16 L 20 16 Z M 20 0.046875 " clip-rule="nonzero"/></clipPath><clipPath id="65a0da1cb7"><path d="M 53.246094 16 L 93.707031 16 L 93.707031 62 L 53.246094 62 Z M 53.246094 16 " clip-rule="nonzero"/></clipPath></defs><g clip-path="url(#2a52e9d94f)"><path fill="#e4cec1" d="M 53.855469 92.253906 L 50.785156 110.234375 C 62.953125 112.359375 77.253906 112.351562 90.453125 110.234375 L 85.949219 92.621094 L 53.855469 92.253906 " fill-opacity="1" fill-rule="evenodd"/></g><g clip-path="url(#03b2bdf434)"><path fill="#fcbfa3" d="M 30.871094 15.328125 C 30.871094 15.328125 30.199219 11.65625 28.78125 10.671875 C 27.300781 9.648438 23.175781 10.09375 22.011719 9.171875 C 19.707031 7.34375 20.277344 5.082031 21.558594 4.320312 C 24.882812 2.347656 31.785156 4.109375 31.785156 4.109375 C 31.785156 4.109375 31.445312 2 31.394531 1.359375 C 31.316406 0.488281 32.597656 -0.015625 33.035156 0.4375 C 35.640625 3.1875 37.707031 13.988281 37.707031 13.988281 L 30.871094 15.328125 " fill-opacity="1" fill-rule="evenodd"/></g><path fill="#fcbfa3" d="M 37.964844 76.347656 C 36.972656 76.296875 31.136719 75.28125 26.703125 72.597656 C 25.292969 71.738281 25.421875 70.132812 26.292969 69.320312 C 27.738281 67.964844 33.734375 68.902344 33.734375 68.902344 C 33.734375 68.902344 32.691406 68.058594 32.324219 67.714844 C 31.796875 67.238281 32.007812 66.085938 32.792969 66.015625 C 34.640625 65.863281 41.902344 69.371094 41.902344 69.371094 L 37.964844 76.347656 " fill-opacity="1" fill-rule="evenodd"/><path fill="#f7907f" d="M 26.601562 69.550781 C 27.335938 69.738281 28.078125 69.925781 28.820312 70.0625 C 29.328125 70.15625 29.832031 70.226562 30.351562 70.25 C 31.179688 70.300781 32.035156 70.257812 32.90625 70.105469 C 32.992188 70.089844 33.042969 70.011719 33.035156 69.925781 C 33.015625 69.851562 32.941406 69.789062 32.855469 69.796875 C 32.007812 69.925781 31.179688 69.917969 30.378906 69.859375 C 29.871094 69.816406 29.386719 69.757812 28.890625 69.671875 C 28.148438 69.550781 27.414062 69.40625 26.667969 69.253906 C 26.582031 69.226562 26.5 69.277344 26.480469 69.363281 C 26.464844 69.449219 26.515625 69.535156 26.601562 69.550781 " fill-opacity="1" fill-rule="evenodd"/><path fill="#f7907f" d="M 26.234375 70.839844 C 26.96875 71.027344 27.710938 71.214844 28.464844 71.351562 C 28.957031 71.4375 29.464844 71.507812 29.984375 71.539062 C 30.8125 71.589844 31.667969 71.546875 32.539062 71.386719 C 32.625 71.378906 32.675781 71.292969 32.65625 71.214844 C 32.648438 71.128906 32.574219 71.070312 32.488281 71.085938 C 31.632812 71.214844 30.8125 71.207031 30.007812 71.140625 C 29.503906 71.097656 29.019531 71.035156 28.523438 70.960938 C 27.78125 70.839844 27.046875 70.695312 26.300781 70.53125 C 26.214844 70.515625 26.132812 70.566406 26.113281 70.652344 C 26.097656 70.738281 26.148438 70.824219 26.234375 70.839844 " fill-opacity="1" fill-rule="evenodd"/><path fill="#f7907f" d="M 26.414062 72.214844 C 27.15625 72.402344 27.890625 72.589844 28.644531 72.726562 C 29.148438 72.8125 29.652344 72.878906 30.164062 72.914062 C 31 72.964844 31.847656 72.921875 32.71875 72.769531 C 32.804688 72.753906 32.863281 72.675781 32.847656 72.589844 C 32.835938 72.503906 32.753906 72.445312 32.675781 72.460938 C 31.820312 72.589844 31 72.582031 30.1875 72.523438 C 29.695312 72.480469 29.199219 72.410156 28.710938 72.335938 C 27.96875 72.214844 27.226562 72.070312 26.488281 71.90625 C 26.40625 71.890625 26.320312 71.941406 26.300781 72.027344 C 26.277344 72.113281 26.335938 72.199219 26.414062 72.214844 " fill-opacity="1" fill-rule="evenodd"/><path fill="#f7907f" d="M 21.253906 5.507812 C 21.9375 5.371094 22.628906 5.261719 23.3125 5.191406 C 23.773438 5.140625 24.226562 5.105469 24.6875 5.105469 C 25.449219 5.089844 26.199219 5.140625 26.96875 5.320312 C 27.046875 5.335938 27.128906 5.285156 27.148438 5.210938 C 27.171875 5.125 27.121094 5.039062 27.035156 5.023438 C 26.351562 4.832031 25.667969 4.738281 24.984375 4.714844 C 24.6875 4.707031 24.386719 4.707031 24.089844 4.722656 C 23.601562 4.75 23.117188 4.808594 22.628906 4.894531 C 22.140625 4.980469 21.664062 5.082031 21.183594 5.199219 C 21.097656 5.21875 21.046875 5.304688 21.066406 5.390625 C 21.082031 5.472656 21.167969 5.523438 21.253906 5.507812 " fill-opacity="1" fill-rule="evenodd"/><path fill="#f7907f" d="M 21.160156 6.976562 C 21.851562 6.839844 22.535156 6.730469 23.21875 6.660156 C 23.679688 6.609375 24.140625 6.574219 24.59375 6.574219 C 25.355469 6.558594 26.113281 6.609375 26.875 6.789062 C 26.960938 6.804688 27.035156 6.753906 27.0625 6.679688 C 27.078125 6.59375 27.027344 6.507812 26.953125 6.488281 C 26.269531 6.300781 25.574219 6.207031 24.890625 6.183594 C 24.59375 6.164062 24.292969 6.175781 24.003906 6.191406 C 23.507812 6.21875 23.019531 6.277344 22.535156 6.363281 C 22.046875 6.4375 21.570312 6.550781 21.089844 6.667969 C 21.003906 6.6875 20.953125 6.773438 20.972656 6.855469 C 20.988281 6.941406 21.074219 6.992188 21.160156 6.976562 " fill-opacity="1" fill-rule="evenodd"/><path fill="#f7907f" d="M 21.621094 8.257812 C 22.304688 8.121094 22.996094 8.019531 23.679688 7.941406 C 24.140625 7.890625 24.59375 7.863281 25.054688 7.855469 C 25.816406 7.847656 26.566406 7.898438 27.335938 8.070312 C 27.414062 8.085938 27.496094 8.042969 27.515625 7.957031 C 27.539062 7.875 27.488281 7.796875 27.402344 7.769531 C 26.71875 7.589844 26.039062 7.488281 25.355469 7.464844 C 25.054688 7.453125 24.753906 7.453125 24.457031 7.472656 C 23.96875 7.496094 23.484375 7.566406 22.996094 7.644531 C 22.507812 7.726562 22.03125 7.839844 21.550781 7.949219 C 21.464844 7.96875 21.414062 8.050781 21.433594 8.136719 C 21.449219 8.222656 21.535156 8.28125 21.621094 8.257812 " fill-opacity="1" fill-rule="evenodd"/><g clip-path="url(#65a0da1cb7)"><path fill="#582d2a" d="M 69.796875 18.007812 C 64.140625 14.933594 58.492188 21.269531 56.9375 26.339844 C 54.484375 34.375 57.355469 37.628906 57.835938 43.40625 C 58.117188 46.796875 49.394531 51.792969 55.347656 58.296875 C 59.972656 63.351562 87.464844 63.660156 93.203125 52.160156 C 95.65625 47.242188 88.324219 39.949219 87.429688 35.921875 C 86.128906 30.089844 86.683594 24.53125 82.644531 20.195312 C 76.066406 13.148438 69.796875 18.007812 69.796875 18.007812 " fill-opacity="1" fill-rule="evenodd"/></g><path fill="#94b1cc" d="M 57.910156 49.957031 C 52.265625 47.660156 48.804688 43.535156 45.652344 37.03125 C 42.199219 29.902344 39.449219 10.410156 39.449219 10.410156 L 27.746094 13.59375 C 27.746094 13.59375 29.609375 30.292969 30.941406 38.34375 C 32.742188 49.273438 50.984375 65.332031 50.984375 65.332031 C 50.503906 67.691406 50.539062 70.695312 50.785156 73 L 41.800781 67.835938 L 37.535156 76.9375 C 41.066406 81.5625 46.414062 86.105469 51.207031 89.246094 L 51.890625 95.464844 C 63.34375 98.84375 74.828125 99.800781 86.589844 96.839844 C 86.589844 96.839844 92.5625 63.949219 89.042969 57.042969 C 87.054688 53.125 79.527344 50.777344 79.527344 50.777344 C 79.527344 50.777344 63.558594 52.246094 57.910156 49.957031 " fill-opacity="1" fill-rule="evenodd"/><path fill="#582d2a" d="M 50.964844 70.6875 C 50.984375 69.746094 51.027344 68.808594 51.121094 67.859375 C 51.171875 67.246094 51.25 66.632812 51.359375 66 C 51.523438 65.027344 51.753906 64.027344 52.128906 62.984375 C 52.1875 62.847656 52.121094 62.695312 51.984375 62.644531 C 51.847656 62.59375 51.691406 62.652344 51.640625 62.789062 C 51.25 63.710938 50.964844 64.609375 50.761719 65.476562 C 50.675781 65.878906 50.597656 66.28125 50.546875 66.671875 C 50.453125 67.355469 50.417969 68.023438 50.402344 68.6875 C 50.386719 69.363281 50.402344 70.027344 50.417969 70.6875 C 50.417969 70.839844 50.546875 70.960938 50.691406 70.960938 C 50.847656 70.960938 50.964844 70.832031 50.964844 70.6875 " fill-opacity="1" fill-rule="evenodd"/><path fill="#582d2a" d="M 41.628906 68.132812 C 41.628906 68.132812 49.324219 72.539062 56.007812 76.320312 C 57.722656 77.285156 59.382812 78.21875 60.816406 79.019531 C 63.644531 80.597656 65.636719 81.699219 65.636719 81.699219 C 65.8125 81.792969 66.035156 81.75 66.164062 81.605469 L 74.179688 72 C 74.296875 71.863281 74.28125 71.652344 74.144531 71.53125 C 74 71.414062 73.785156 71.429688 73.664062 71.566406 L 65.746094 80.796875 C 65.097656 80.417969 63.421875 79.472656 61.253906 78.242188 C 59.816406 77.441406 58.167969 76.507812 56.441406 75.542969 C 49.734375 71.804688 41.96875 67.535156 41.96875 67.535156 C 41.800781 67.441406 41.59375 67.5 41.5 67.664062 C 41.40625 67.835938 41.464844 68.039062 41.628906 68.132812 " fill-opacity="1" fill-rule="evenodd"/><path fill="#582d2a" d="M 37.417969 77.429688 C 41.96875 82.441406 46.796875 86.890625 52.214844 90.109375 C 55.03125 91.792969 58.007812 93.148438 61.183594 94.082031 C 64.226562 94.96875 67.445312 95.472656 70.890625 95.515625 C 70.949219 95.515625 71.007812 95.507812 71.070312 95.480469 C 74.015625 94.121094 76.535156 92.382812 78.714844 90.324219 C 80.953125 88.222656 82.839844 85.796875 84.488281 83.160156 C 84.59375 83.007812 84.542969 82.800781 84.386719 82.699219 C 84.226562 82.597656 84.019531 82.648438 83.917969 82.800781 C 82.277344 85.371094 80.40625 87.726562 78.195312 89.769531 C 76.074219 91.722656 73.648438 93.390625 70.804688 94.667969 C 67.488281 94.601562 64.371094 94.089844 61.433594 93.226562 C 58.332031 92.3125 55.417969 91 52.648438 89.367188 C 47.285156 86.21875 42.464844 81.878906 37.921875 76.960938 C 37.792969 76.816406 37.570312 76.808594 37.433594 76.9375 C 37.296875 77.074219 37.28125 77.285156 37.417969 77.429688 " fill-opacity="1" fill-rule="evenodd"/><path fill="#fcbfa3" d="M 76.109375 40.640625 L 68.128906 41.027344 C 68.128906 41.027344 67.480469 46.507812 66.667969 48.402344 C 65.933594 50.117188 62.78125 51.039062 62.78125 51.039062 C 64.132812 57.972656 75.203125 58.453125 80.089844 51.425781 C 80.089844 51.425781 76.65625 49.964844 76.109375 48.386719 C 75.425781 46.429688 76.109375 40.640625 76.109375 40.640625 " fill-opacity="1" fill-rule="evenodd"/><path fill="#f7907f" d="M 66.863281 47.832031 C 72 47.738281 74.484375 46.175781 75.519531 43.460938 L 67.445312 42.972656 L 66.863281 47.832031 " fill-opacity="1" fill-rule="evenodd"/><path fill="#fcbfa3" d="M 67.285156 22.558594 C 60.628906 23.070312 59.714844 27.519531 59.960938 33.914062 C 60.253906 41.152344 62.609375 46.039062 69.207031 46.113281 C 74.417969 46.175781 78.851562 41.871094 78.902344 36.175781 C 78.953125 29.449219 77.21875 21.789062 67.285156 22.558594 " fill-opacity="1" fill-rule="evenodd"/><path fill="#fcbfa3" d="M 78.808594 32.035156 C 80.363281 32.035156 81.621094 33.257812 81.621094 34.765625 C 81.621094 36.269531 80.363281 37.5 78.808594 37.5 C 77.253906 37.5 75.996094 36.269531 75.996094 34.765625 C 75.996094 33.257812 77.253906 32.035156 78.808594 32.035156 " fill-opacity="1" fill-rule="evenodd"/><path fill="#582d2a" d="M 58.3125 31.609375 C 61.535156 24.71875 65.308594 24.410156 65.308594 24.410156 C 67.609375 27.144531 72.257812 30.328125 78.089844 29.484375 C 78.089844 29.484375 77.585938 34.921875 81.738281 33.546875 L 76.296875 21.105469 L 67.128906 21.585938 L 59.960938 24.222656 L 58.3125 31.609375 " fill-opacity="1" fill-rule="evenodd"/><path fill="#582d2a" d="M 71.855469 31.890625 C 72.382812 31.890625 72.8125 32.34375 72.8125 32.90625 C 72.8125 33.460938 72.382812 33.914062 71.855469 33.914062 C 71.316406 33.914062 70.890625 33.460938 70.890625 32.90625 C 70.890625 32.34375 71.316406 31.890625 71.855469 31.890625 " fill-opacity="1" fill-rule="evenodd"/><path fill="#f7907f" d="M 73.136719 35.195312 C 74.230469 35.195312 75.109375 35.792969 75.109375 36.527344 C 75.109375 37.261719 74.230469 37.859375 73.136719 37.859375 C 72.050781 37.859375 71.164062 37.261719 71.164062 36.527344 C 71.164062 35.792969 72.050781 35.195312 73.136719 35.195312 " fill-opacity="1" fill-rule="evenodd"/><path fill="#f7907f" d="M 62.304688 35.195312 C 63.386719 35.195312 64.277344 35.792969 64.277344 36.527344 C 64.277344 37.261719 63.386719 37.859375 62.304688 37.859375 C 61.210938 37.859375 60.328125 37.261719 60.328125 36.527344 C 60.328125 35.792969 61.210938 35.195312 62.304688 35.195312 " fill-opacity="1" fill-rule="evenodd"/><path fill="#582d2a" d="M 63.953125 32.078125 C 64.488281 32.078125 64.917969 32.53125 64.917969 33.085938 C 64.917969 33.640625 64.488281 34.09375 63.953125 34.09375 C 63.421875 34.09375 62.996094 33.640625 62.996094 33.085938 C 62.996094 32.53125 63.421875 32.078125 63.953125 32.078125 " fill-opacity="1" fill-rule="evenodd"/><path fill="#582d2a" d="M 70.878906 30.351562 C 71.09375 30.257812 71.316406 30.207031 71.53125 30.164062 C 71.761719 30.121094 71.984375 30.121094 72.203125 30.121094 C 72.476562 30.132812 72.75 30.148438 73.035156 30.207031 C 73.222656 30.25 73.410156 30.292969 73.589844 30.363281 C 73.757812 30.4375 73.964844 30.371094 74.042969 30.199219 C 74.117188 30.027344 74.042969 29.832031 73.878906 29.753906 C 73.519531 29.550781 73.144531 29.398438 72.75 29.304688 C 72.582031 29.261719 72.402344 29.234375 72.222656 29.234375 C 72.042969 29.226562 71.863281 29.242188 71.683594 29.277344 C 71.28125 29.347656 70.898438 29.507812 70.53125 29.753906 C 70.367188 29.851562 70.308594 30.0625 70.402344 30.234375 C 70.496094 30.394531 70.710938 30.457031 70.878906 30.351562 " fill-opacity="1" fill-rule="evenodd"/><path fill="#582d2a" d="M 65.277344 29.753906 C 64.910156 29.507812 64.523438 29.347656 64.121094 29.277344 C 63.945312 29.242188 63.765625 29.226562 63.585938 29.234375 C 63.40625 29.234375 63.226562 29.261719 63.046875 29.304688 C 62.660156 29.398438 62.285156 29.550781 61.9375 29.753906 C 61.765625 29.832031 61.6875 30.027344 61.765625 30.199219 C 61.84375 30.371094 62.046875 30.4375 62.21875 30.363281 C 62.398438 30.292969 62.585938 30.25 62.773438 30.207031 C 63.046875 30.148438 63.328125 30.132812 63.601562 30.121094 C 63.824219 30.121094 64.046875 30.121094 64.277344 30.164062 C 64.488281 30.207031 64.710938 30.257812 64.933594 30.351562 C 65.097656 30.457031 65.308594 30.394531 65.40625 30.234375 C 65.5 30.0625 65.4375 29.851562 65.277344 29.753906 " fill-opacity="1" fill-rule="evenodd"/><path fill="#f7907f" d="M 65.394531 39.90625 C 65.394531 39.90625 65.445312 42.578125 67.726562 42.347656 C 71.070312 42.007812 70.785156 39.140625 70.785156 39.140625 L 65.394531 39.90625 " fill-opacity="1" fill-rule="evenodd"/><path fill="#f7907f" d="M 66.738281 31.820312 C 66.898438 33.699219 66.59375 35.160156 66.472656 36.132812 C 66.414062 36.65625 66.421875 37.046875 66.539062 37.320312 C 66.710938 37.695312 67.113281 37.890625 67.976562 37.78125 C 68.085938 37.773438 68.164062 37.671875 68.148438 37.558594 C 68.136719 37.449219 68.035156 37.363281 67.925781 37.378906 C 67.601562 37.421875 67.371094 37.421875 67.191406 37.371094 C 67.054688 37.335938 66.960938 37.261719 66.90625 37.148438 C 66.8125 36.925781 66.832031 36.601562 66.882812 36.175781 C 66.992188 35.1875 67.308594 33.707031 67.136719 31.789062 C 67.128906 31.667969 67.035156 31.589844 66.925781 31.601562 C 66.8125 31.609375 66.730469 31.710938 66.738281 31.820312 " fill-opacity="1" fill-rule="evenodd"/></svg>