<svg xmlns="http://www.w3.org/2000/svg" xmlns:xlink="http://www.w3.org/1999/xlink" width="126" zoomAndPan="magnify" viewBox="0 0 94.5 112.499997" height="150" preserveAspectRatio="xMidYMid meet" version="1.0"><defs><clipPath id="e49bb65702"><path d="M 23 80.421875 L 70 80.421875 L 70 111.726562 L 23 111.726562 Z M 23 80.421875 " clip-rule="nonzero"/></clipPath><clipPath id="e8db00740c"><path d="M 69 28 L 87.398438 28 L 87.398438 51 L 69 51 Z M 69 28 " clip-rule="nonzero"/></clipPath></defs><g clip-path="url(#e49bb65702)"><path fill="#f4d2c5" d="M 26.398438 80.628906 L 23.03125 110.125 C 37.664062 112.667969 53.921875 112 69.796875 109.472656 L 64.988281 81.726562 L 26.398438 80.628906 " fill-opacity="1" fill-rule="evenodd"/></g><path fill="#f0be5b" d="M 38.984375 41.109375 C 38.984375 41.109375 28.898438 41.175781 25.402344 46.222656 C 22.410156 50.550781 6.882812 77.78125 7.386719 84.355469 C 8.050781 92.96875 24.003906 104.542969 24.003906 104.542969 L 25.863281 90.820312 C 29.761719 91.386719 37.542969 91.988281 37.542969 91.988281 L 38.4375 81.402344 L 56.042969 80.878906 L 56.761719 92.292969 C 56.761719 92.292969 64.925781 91.015625 67.851562 90.601562 L 66.433594 77.769531 C 66.433594 77.769531 74.625 88.074219 80.976562 83.375 C 87.179688 78.773438 85.488281 54.769531 82.613281 49.625 L 70.648438 50.519531 C 68.34375 46.484375 65.972656 42.472656 57.277344 41.25 Z M 24.539062 88.300781 L 21.351562 83.917969 L 25.753906 73.714844 C 25.632812 77.410156 25.261719 85.128906 24.539062 88.300781 " fill-opacity="1" fill-rule="evenodd"/><path fill="#582d2a" d="M 37.96875 40.890625 L 38.078125 83.472656 L 56.367188 83.808594 L 57.613281 40.882812 L 53.222656 39.683594 L 42.492188 39.269531 L 37.96875 40.890625 " fill-opacity="1" fill-rule="evenodd"/><path fill="#582d2a" d="M 21.460938 83.601562 C 21.21875 83.503906 20.988281 83.429688 20.761719 83.363281 C 20.519531 83.296875 20.269531 83.242188 20.027344 83.222656 C 19.515625 83.179688 19.011719 83.242188 18.53125 83.375 C 18.355469 83.417969 18.246094 83.59375 18.28125 83.765625 C 18.324219 83.941406 18.5 84.050781 18.671875 84.007812 C 19.011719 83.953125 19.351562 83.953125 19.699219 83.972656 C 19.898438 83.984375 20.105469 84.015625 20.3125 84.039062 C 20.617188 84.082031 20.925781 84.136719 21.242188 84.226562 C 21.414062 84.289062 21.601562 84.191406 21.667969 84.015625 C 21.722656 83.84375 21.632812 83.65625 21.460938 83.601562 " fill-opacity="1" fill-rule="evenodd"/><path fill="#582d2a" d="M 21.679688 83.863281 C 21.65625 83.503906 21.578125 83.167969 21.449219 82.839844 C 21.394531 82.699219 21.328125 82.558594 21.242188 82.425781 C 20.976562 82.035156 20.597656 81.695312 20.082031 81.433594 C 19.929688 81.347656 19.734375 81.402344 19.632812 81.554688 C 19.546875 81.71875 19.601562 81.914062 19.753906 82 C 20.136719 82.242188 20.386719 82.535156 20.585938 82.839844 C 20.683594 83.015625 20.78125 83.179688 20.847656 83.363281 C 20.925781 83.558594 20.976562 83.746094 21.023438 83.953125 C 21.042969 84.136719 21.207031 84.269531 21.394531 84.234375 C 21.578125 84.214844 21.699219 84.050781 21.679688 83.863281 " fill-opacity="1" fill-rule="evenodd"/><path fill="#582d2a" d="M 63.710938 73.53125 C 64.234375 74.578125 64.761719 75.515625 65.296875 76.363281 C 65.917969 77.335938 66.550781 78.195312 67.230469 78.980469 C 68.640625 80.605469 70.210938 81.902344 72.058594 83.289062 C 72.199219 83.40625 72.398438 83.375 72.507812 83.234375 C 72.628906 83.089844 72.59375 82.882812 72.453125 82.773438 C 70.683594 81.378906 69.195312 80.070312 67.820312 78.46875 C 67.164062 77.714844 66.53125 76.886719 65.917969 75.960938 C 65.371094 75.144531 64.835938 74.25 64.300781 73.234375 C 64.226562 73.074219 64.027344 73.007812 63.851562 73.09375 C 63.699219 73.171875 63.636719 73.367188 63.710938 73.53125 " fill-opacity="1" fill-rule="evenodd"/><path fill="#582d2a" d="M 25.851562 60.210938 C 25.851562 60.210938 25.511719 71.425781 24.976562 79.667969 C 24.726562 83.636719 24.441406 86.917969 24.082031 87.832031 C 23.785156 88.574219 23.960938 89.195312 24.453125 89.730469 C 24.921875 90.242188 25.742188 90.667969 26.746094 90.996094 C 30.296875 92.171875 36.296875 92.246094 36.296875 92.246094 C 36.472656 92.246094 36.625 92.105469 36.625 91.933594 C 36.636719 91.746094 36.484375 91.605469 36.308594 91.59375 C 36.308594 91.59375 30.453125 91.484375 26.976562 90.308594 C 26.277344 90.078125 25.675781 89.804688 25.25 89.46875 C 24.78125 89.097656 24.5625 88.660156 24.78125 88.105469 C 25.152344 87.167969 25.503906 83.800781 25.753906 79.710938 C 26.277344 71.46875 26.519531 60.230469 26.519531 60.230469 C 26.527344 60.046875 26.375 59.894531 26.203125 59.894531 C 26.015625 59.882812 25.863281 60.023438 25.851562 60.210938 " fill-opacity="1" fill-rule="evenodd"/><path fill="#582d2a" d="M 46.097656 3.488281 C 39.847656 -0.0859375 34.277344 5.15625 32.789062 8.527344 C 30.351562 14.03125 32.265625 14.457031 29.753906 17.957031 C 28.035156 20.320312 25.6875 23.394531 28.179688 27.777344 C 29.554688 30.207031 26.167969 33.183594 27.710938 36.957031 L 33.25 36.824219 C 32.921875 35.5625 33.140625 34.308594 34.253906 33.074219 C 34.035156 34.558594 34.625 35.789062 36.023438 36.75 L 62.019531 36.195312 C 62.957031 35.332031 63.351562 34.394531 62.988281 33.347656 C 63.996094 34.285156 64.28125 35.210938 64.050781 36.128906 L 67.710938 35.964844 C 70.34375 31.691406 63.941406 28.019531 65.089844 25.835938 C 66.125 23.855469 67.644531 18.785156 64.125 15.796875 C 61.394531 13.488281 62.835938 7.773438 59.066406 4.667969 C 53.726562 0.253906 46.097656 3.488281 46.097656 3.488281 " fill-opacity="1" fill-rule="evenodd"/><path fill="#fcbfa3" d="M 52.097656 28.824219 L 42.570312 28.824219 C 42.570312 28.824219 43.0625 35.277344 42.109375 37.480469 C 41.246094 39.476562 39.828125 40.097656 39.828125 40.097656 C 42.644531 45.089844 52.304688 45.535156 55.515625 40.433594 C 55.515625 40.433594 53.757812 39.300781 53.125 37.46875 C 52.324219 35.203125 52.097656 28.824219 52.097656 28.824219 " fill-opacity="1" fill-rule="evenodd"/><path fill="#f7907f" d="M 42.339844 36.824219 C 48.328125 36.71875 51.570312 34.898438 52.773438 31.757812 L 42.789062 31.191406 L 42.339844 36.824219 " fill-opacity="1" fill-rule="evenodd"/><path fill="#fcbfa3" d="M 46.03125 7.742188 C 38.164062 7.96875 35.859375 15.949219 36.101562 22.796875 C 36.339844 29.730469 39.421875 34.898438 47.320312 34.722656 C 54.347656 34.546875 57.570312 28.660156 57.515625 22.828125 C 57.441406 15.15625 55.101562 7.480469 46.03125 7.742188 " fill-opacity="1" fill-rule="evenodd"/><path fill="#582d2a" d="M 35.183594 16.09375 L 38.503906 15.863281 C 38.199219 15.261719 38.558594 14.390625 39.148438 13.714844 C 39.160156 14.433594 39.445312 15.066406 39.914062 15.625 L 41.179688 15.40625 C 40.972656 14.402344 41.105469 13.3125 41.519531 12.363281 C 41.519531 13.496094 41.792969 14.511719 42.316406 15.40625 L 46.25 15.1875 C 46.042969 14.695312 46.054688 14.183594 46.449219 13.617188 C 46.492188 14.238281 46.886719 14.75 47.453125 15.199219 L 51.167969 15.199219 C 51.636719 14.445312 51.679688 13.695312 51.515625 12.941406 C 52.054688 13.695312 52.269531 14.445312 52.25 15.199219 L 53.441406 15.207031 C 53.988281 14.847656 54.226562 14.445312 54.074219 13.964844 C 54.53125 14.378906 54.597656 14.792969 54.53125 15.207031 L 58.160156 15.207031 L 55.503906 5.050781 L 44.796875 5.59375 L 35.519531 8.996094 L 35.183594 16.09375 " fill-opacity="1" fill-rule="evenodd"/><path fill="#582d2a" d="M 51.734375 19.582031 C 51.289062 19.625 50.816406 19.789062 50.402344 20.015625 C 49.933594 20.277344 49.527344 20.625 49.308594 20.941406 C 49.234375 21.050781 49.246094 21.203125 49.332031 21.3125 C 49.417969 21.410156 49.5625 21.457031 49.691406 21.402344 C 50.03125 21.25 50.402344 21.148438 50.773438 21.160156 C 51.125 21.171875 51.472656 21.257812 51.789062 21.5 C 51.898438 21.585938 52.074219 21.5625 52.164062 21.445312 C 52.25 21.335938 52.226562 21.171875 52.109375 21.085938 C 51.714844 20.757812 51.253906 20.605469 50.808594 20.582031 C 50.742188 20.570312 50.6875 20.570312 50.632812 20.570312 C 50.65625 20.5625 50.675781 20.539062 50.699219 20.527344 C 51.035156 20.320312 51.417969 20.15625 51.800781 20.101562 C 51.953125 20.082031 52.054688 19.949219 52.03125 19.808594 C 52.019531 19.65625 51.878906 19.558594 51.734375 19.582031 " fill-opacity="1" fill-rule="evenodd"/><path fill="#582d2a" d="M 42.164062 19.425781 C 41.53125 19.425781 41.015625 19.972656 41.015625 20.636719 C 41.015625 21.300781 41.53125 21.835938 42.164062 21.835938 C 42.808594 21.835938 43.324219 21.300781 43.324219 20.636719 C 43.324219 19.972656 42.808594 19.425781 42.164062 19.425781 " fill-opacity="1" fill-rule="evenodd"/><path fill="#f7907f" d="M 52.621094 23.375 C 53.933594 23.375 54.992188 24.09375 54.992188 24.964844 C 54.992188 25.847656 53.933594 26.558594 52.621094 26.558594 C 51.320312 26.558594 50.261719 25.847656 50.261719 24.964844 C 50.261719 24.09375 51.320312 23.375 52.621094 23.375 " fill-opacity="1" fill-rule="evenodd"/><path fill="#f7907f" d="M 39.652344 23.375 C 40.953125 23.375 42.011719 24.09375 42.011719 24.964844 C 42.011719 25.847656 40.953125 26.558594 39.652344 26.558594 C 38.339844 26.558594 37.292969 25.847656 37.292969 24.964844 C 37.292969 24.09375 38.339844 23.375 39.652344 23.375 " fill-opacity="1" fill-rule="evenodd"/><path fill="#582d2a" d="M 49.945312 17.171875 C 50.195312 17.050781 50.457031 16.976562 50.71875 16.921875 C 50.980469 16.855469 51.253906 16.84375 51.515625 16.84375 C 51.84375 16.84375 52.183594 16.855469 52.511719 16.910156 C 52.742188 16.953125 52.972656 16.996094 53.1875 17.074219 C 53.398438 17.160156 53.636719 17.0625 53.714844 16.855469 C 53.800781 16.648438 53.714844 16.417969 53.507812 16.332031 C 53.070312 16.101562 52.609375 15.929688 52.152344 15.839844 C 51.933594 15.796875 51.726562 15.777344 51.507812 15.777344 C 51.300781 15.777344 51.070312 15.796875 50.863281 15.851562 C 50.390625 15.949219 49.933594 16.15625 49.507812 16.472656 C 49.308594 16.59375 49.246094 16.855469 49.375 17.039062 C 49.496094 17.238281 49.746094 17.300781 49.945312 17.171875 " fill-opacity="1" fill-rule="evenodd"/><path fill="#582d2a" d="M 43.269531 17.191406 C 43.015625 17.050781 42.765625 16.964844 42.503906 16.886719 C 42.242188 16.8125 41.980469 16.789062 41.714844 16.769531 C 41.378906 16.746094 41.050781 16.734375 40.710938 16.777344 C 40.480469 16.800781 40.253906 16.832031 40.023438 16.898438 C 39.816406 16.964844 39.585938 16.855469 39.507812 16.648438 C 39.445312 16.441406 39.554688 16.210938 39.761719 16.136719 C 40.207031 15.9375 40.667969 15.785156 41.148438 15.722656 C 41.355469 15.699219 41.574219 15.6875 41.78125 15.699219 C 42 15.710938 42.21875 15.753906 42.425781 15.808594 C 42.898438 15.9375 43.332031 16.179688 43.75 16.515625 C 43.933594 16.648438 43.976562 16.910156 43.847656 17.09375 C 43.714844 17.28125 43.453125 17.324219 43.269531 17.191406 " fill-opacity="1" fill-rule="evenodd"/><path fill="#f7907f" d="M 44.851562 28.507812 C 45.125 28.757812 45.476562 28.933594 45.859375 29.054688 C 46.21875 29.164062 46.613281 29.207031 47.003906 29.195312 C 47.464844 29.171875 47.921875 29.074219 48.359375 28.855469 C 48.621094 28.714844 48.894531 28.542969 49.136719 28.3125 C 49.253906 28.179688 49.453125 28.179688 49.582031 28.300781 C 49.703125 28.421875 49.714844 28.617188 49.59375 28.75 C 49.101562 29.304688 48.523438 29.664062 47.921875 29.859375 C 47.640625 29.957031 47.34375 30.011719 47.046875 30.023438 C 46.644531 30.046875 46.25 29.992188 45.890625 29.882812 C 45.277344 29.695312 44.753906 29.378906 44.394531 28.964844 C 44.261719 28.835938 44.273438 28.628906 44.394531 28.507812 C 44.523438 28.378906 44.730469 28.386719 44.851562 28.507812 " fill-opacity="1" fill-rule="evenodd"/><path fill="#f7907f" d="M 45.945312 19.339844 C 46.140625 21.597656 45.769531 23.332031 45.640625 24.496094 C 45.5625 25.117188 45.574219 25.585938 45.714844 25.914062 C 45.921875 26.371094 46.402344 26.601562 47.429688 26.46875 C 47.5625 26.457031 47.660156 26.328125 47.640625 26.199219 C 47.628906 26.066406 47.507812 25.96875 47.367188 25.988281 C 46.984375 26.035156 46.699219 26.035156 46.492188 25.980469 C 46.328125 25.9375 46.21875 25.847656 46.152344 25.707031 C 46.042969 25.445312 46.066406 25.0625 46.121094 24.550781 C 46.261719 23.363281 46.632812 21.597656 46.4375 19.296875 C 46.425781 19.164062 46.304688 19.066406 46.175781 19.078125 C 46.03125 19.089844 45.933594 19.210938 45.945312 19.339844 " fill-opacity="1" fill-rule="evenodd"/><g clip-path="url(#e8db00740c)"><path fill="#fcbfa3" d="M 73.054688 50.714844 C 73.054688 50.714844 72.890625 46.582031 70.988281 43.703125 C 68.59375 40.074219 68.902344 37 69.457031 36.597656 C 70.222656 36.050781 71.042969 36.726562 70.867188 37.414062 C 70.636719 38.308594 73.03125 41.339844 73.863281 40.695312 C 75.25 39.628906 74.058594 37.535156 71.195312 36.664062 C 70.191406 36.355469 70.53125 35.210938 71.128906 35.136719 C 75.785156 34.558594 76.441406 37.980469 76.441406 37.980469 C 77.359375 33.390625 79.957031 27.875 81.925781 28.683594 L 79.304688 36.914062 C 81.085938 33.523438 84.4375 30.121094 85.695312 31.605469 L 81.925781 37.730469 C 83.640625 36.617188 85.335938 35.386719 87.410156 36.171875 C 87.410156 36.171875 83.5 39.945312 82.1875 42.308594 C 80.875 44.664062 80.8125 49.972656 80.8125 49.972656 L 73.054688 50.714844 " fill-opacity="1" fill-rule="evenodd"/></g><path fill="#582d2a" d="M 82.121094 49.472656 L 70.246094 50.289062 C 70.039062 50.3125 69.882812 50.484375 69.882812 50.691406 C 69.882812 50.691406 70.015625 53.777344 70.15625 57.277344 C 70.367188 61.855469 70.605469 67.140625 70.605469 67.140625 C 70.617188 67.328125 70.769531 67.457031 70.945312 67.457031 C 71.128906 67.449219 71.273438 67.296875 71.261719 67.121094 C 71.261719 67.121094 71.085938 61.824219 70.921875 57.242188 C 70.8125 54.464844 70.714844 51.957031 70.683594 51.03125 L 82.175781 50.125 C 82.363281 50.113281 82.492188 49.960938 82.484375 49.777344 C 82.472656 49.589844 82.308594 49.449219 82.121094 49.472656 " fill-opacity="1" fill-rule="evenodd"/></svg>