<svg xmlns="http://www.w3.org/2000/svg" xmlns:xlink="http://www.w3.org/1999/xlink" width="126" zoomAndPan="magnify" viewBox="0 0 94.5 56.249996" height="75" preserveAspectRatio="xMidYMid meet" version="1.0"><defs><clipPath id="2bfbfa99f4"><path d="M 47 42 L 72 42 L 72 55.511719 L 47 55.511719 Z M 47 42 " clip-rule="nonzero"/></clipPath><clipPath id="1c61d7df61"><path d="M 64 55 L 66 55 L 66 55.511719 L 64 55.511719 Z M 64 55 " clip-rule="nonzero"/></clipPath><clipPath id="3ed7647ebc"><path d="M 51 48 L 69 48 L 69 55.511719 L 51 55.511719 Z M 51 48 " clip-rule="nonzero"/></clipPath><clipPath id="95af10811e"><path d="M 22 42 L 47 42 L 47 55.511719 L 22 55.511719 Z M 22 42 " clip-rule="nonzero"/></clipPath><clipPath id="8d4ae867c4"><path d="M 28 55 L 29 55 L 29 55.511719 L 28 55.511719 Z M 28 55 " clip-rule="nonzero"/></clipPath><clipPath id="3f879af8d7"><path d="M 24 49 L 43 49 L 43 55.511719 L 24 55.511719 Z M 24 49 " clip-rule="nonzero"/></clipPath></defs><g clip-path="url(#2bfbfa99f4)"><path fill="#a47343" d="M 70.007812 42.699219 C 73.488281 45.199219 69.640625 55.503906 64.710938 55.425781 C 61.40625 55.375 49.703125 52.988281 47.558594 44.335938 C 50.511719 45.824219 54.980469 44.710938 59.316406 43.597656 C 63.488281 42.527344 67.539062 41.460938 70.007812 42.699219 " fill-opacity="1" fill-rule="nonzero"/></g><g clip-path="url(#1c61d7df61)"><path fill="#d7b59a" d="M 64.765625 55.425781 C 64.746094 55.425781 64.730469 55.425781 64.710938 55.425781 C 64.726562 55.425781 64.746094 55.425781 64.765625 55.425781 C 64.875 55.425781 64.984375 55.421875 65.09375 55.410156 C 64.984375 55.421875 64.875 55.425781 64.765625 55.425781 M 65.097656 55.410156 L 65.097656 55.410156 " fill-opacity="1" fill-rule="nonzero"/></g><g clip-path="url(#3ed7647ebc)"><path fill="#8c5630" d="M 64.765625 55.425781 C 64.746094 55.425781 64.726562 55.425781 64.710938 55.425781 C 62.3125 55.386719 55.503906 54.121094 51.121094 50.125 C 53.320312 49.785156 55.300781 49.214844 56.941406 48.378906 C 57.425781 51.535156 60.019531 54.351562 63.882812 54.351562 C 65.367188 54.351562 67.039062 53.933594 68.851562 52.964844 C 67.804688 54.3125 66.503906 55.277344 65.097656 55.410156 C 65.09375 55.410156 65.09375 55.410156 65.09375 55.410156 C 64.984375 55.421875 64.875 55.425781 64.765625 55.425781 " fill-opacity="1" fill-rule="nonzero"/></g><path fill="#b27d4c" d="M 70 48.785156 C 70 48.785156 69.238281 48.785156 68.867188 46.164062 C 68.460938 43.285156 64.351562 43.617188 64.710938 43.503906 C 65.671875 43.195312 66.53125 43.054688 67.273438 43.054688 C 68.914062 43.054688 69.972656 43.734375 70.238281 44.796875 C 70.625 46.328125 70 48.785156 70 48.785156 " fill-opacity="1" fill-rule="nonzero"/><path fill="#a47343" d="M 32.4375 39.363281 C 29.722656 40.378906 26.152344 36.945312 25.984375 34.773438 C 25.726562 31.457031 31.8125 22.816406 40.652344 23.425781 C 36.117188 28.074219 36.378906 35.324219 32.4375 39.363281 " fill-opacity="1" fill-rule="nonzero"/><g clip-path="url(#95af10811e)"><path fill="#a47343" d="M 23.671875 42.699219 C 20.191406 45.199219 24.042969 55.503906 28.972656 55.425781 C 32.273438 55.375 43.976562 52.988281 46.121094 44.335938 C 43.167969 45.824219 38.703125 44.710938 34.363281 43.597656 C 30.191406 42.527344 26.140625 41.460938 23.671875 42.699219 " fill-opacity="1" fill-rule="nonzero"/></g><g clip-path="url(#8d4ae867c4)"><path fill="#decaae" d="M 28.914062 55.425781 C 28.800781 55.425781 28.691406 55.421875 28.582031 55.410156 C 28.691406 55.421875 28.804688 55.425781 28.914062 55.425781 C 28.933594 55.425781 28.953125 55.425781 28.972656 55.425781 C 28.953125 55.425781 28.933594 55.425781 28.914062 55.425781 " fill-opacity="1" fill-rule="nonzero"/></g><g clip-path="url(#3f879af8d7)"><path fill="#905e34" d="M 28.914062 55.425781 C 28.804688 55.425781 28.691406 55.421875 28.582031 55.410156 C 27.175781 55.277344 25.875 54.3125 24.828125 52.964844 C 26.640625 53.933594 28.3125 54.351562 29.796875 54.351562 C 33.273438 54.351562 35.71875 52.074219 36.53125 49.320312 C 38.222656 49.875 40.160156 50.222656 42.253906 50.394531 C 37.871094 54.175781 31.3125 55.386719 28.972656 55.425781 C 28.953125 55.425781 28.933594 55.425781 28.914062 55.425781 " fill-opacity="1" fill-rule="nonzero"/></g><path fill="#865730" d="M 29.941406 38.234375 C 29.90625 38.144531 29.867188 38.054688 29.824219 37.964844 C 29.40625 37.101562 29.128906 36.210938 28.972656 35.3125 C 29.078125 33.117188 29.917969 30.8125 30.859375 29.179688 C 31.976562 27.238281 33.722656 25.839844 35.683594 24.824219 C 35.757812 24.875 35.832031 24.921875 35.910156 24.972656 C 32.863281 28.996094 30.6875 34.21875 29.941406 38.234375 " fill-opacity="1" fill-rule="nonzero"/><path fill="#a47343" d="M 59.691406 39.363281 C 62.40625 40.378906 65.980469 36.945312 66.148438 34.773438 C 66.40625 31.457031 60.316406 22.816406 51.476562 23.425781 C 56.015625 28.074219 55.75 35.324219 59.691406 39.363281 " fill-opacity="1" fill-rule="nonzero"/><path fill="#865730" d="M 61.640625 39.421875 C 61.144531 35.296875 58.839844 29.410156 55.488281 24.972656 C 55.667969 24.855469 55.847656 24.734375 56.019531 24.609375 C 58.15625 25.644531 60.074219 27.101562 61.273438 29.179688 C 62.214844 30.8125 63.050781 33.117188 63.160156 35.3125 C 63.003906 36.210938 62.722656 37.101562 62.304688 37.964844 C 62.082031 38.429688 61.992188 38.882812 62 39.316406 C 61.878906 39.355469 61.761719 39.394531 61.640625 39.421875 " fill-opacity="1" fill-rule="nonzero"/><path fill="#a47343" d="M 61.742188 40.980469 C 61.742188 47.964844 54.386719 50.523438 45.523438 50.523438 C 36.664062 50.523438 29.65625 47.964844 29.65625 40.980469 C 29.65625 33.996094 36.835938 18.75 45.699219 18.75 C 54.558594 18.75 61.742188 33.996094 61.742188 40.980469 " fill-opacity="1" fill-rule="nonzero"/><path fill="#decaae" d="M 45.539062 50.523438 C 45.542969 50.523438 45.542969 50.523438 45.546875 50.523438 C 45.542969 50.523438 45.539062 50.523438 45.539062 50.523438 M 45.554688 50.523438 C 45.558594 50.523438 45.558594 50.523438 45.558594 50.523438 C 45.558594 50.523438 45.558594 50.523438 45.554688 50.523438 M 45.570312 50.523438 C 45.570312 50.523438 45.574219 50.523438 45.574219 50.523438 C 45.574219 50.523438 45.570312 50.523438 45.570312 50.523438 M 45.589844 50.523438 L 45.589844 50.523438 M 45.605469 50.523438 L 45.605469 50.523438 M 45.621094 50.523438 L 45.621094 50.523438 M 45.636719 50.523438 L 45.636719 50.523438 M 29.65625 40.96875 L 29.65625 40.96875 M 29.65625 40.960938 L 29.65625 40.960938 M 29.65625 40.953125 C 29.65625 40.953125 29.65625 40.953125 29.65625 40.949219 C 29.65625 40.953125 29.65625 40.953125 29.65625 40.953125 M 29.65625 40.941406 L 29.65625 40.941406 M 29.65625 40.914062 L 29.65625 40.914062 M 29.65625 40.90625 L 29.65625 40.90625 M 29.65625 40.894531 L 29.65625 40.894531 M 29.65625 40.867188 L 29.65625 40.867188 M 29.65625 40.859375 L 29.65625 40.859375 M 29.65625 40.847656 L 29.65625 40.847656 M 29.65625 40.820312 L 29.65625 40.820312 M 29.65625 40.8125 L 29.65625 40.8125 M 29.65625 40.800781 L 29.65625 40.800781 M 29.65625 40.792969 L 29.65625 40.792969 M 29.65625 40.773438 L 29.65625 40.773438 M 29.65625 40.765625 L 29.65625 40.765625 M 29.65625 40.753906 L 29.65625 40.753906 M 29.65625 40.746094 L 29.65625 40.746094 M 29.65625 40.726562 L 29.65625 40.726562 M 29.660156 40.71875 L 29.660156 40.714844 C 29.660156 40.714844 29.660156 40.714844 29.660156 40.71875 M 29.660156 40.707031 L 29.660156 40.707031 M 29.660156 40.699219 L 29.660156 40.695312 L 29.660156 40.699219 M 29.660156 40.667969 L 29.660156 40.667969 M 29.660156 40.660156 L 29.660156 40.660156 M 29.660156 40.648438 L 29.660156 40.648438 M 29.660156 40.640625 L 29.660156 40.640625 M 29.660156 40.628906 L 29.660156 40.628906 M 29.660156 40.621094 L 29.660156 40.621094 M 29.660156 40.613281 L 29.660156 40.609375 C 29.660156 40.609375 29.660156 40.613281 29.660156 40.613281 M 29.664062 40.601562 L 29.664062 40.601562 M 29.664062 40.554688 L 29.664062 40.554688 " fill-opacity="1" fill-rule="nonzero"/><path fill="#905e34" d="M 45.523438 50.523438 C 44.402344 50.523438 43.308594 50.480469 42.253906 50.394531 C 40.160156 50.222656 38.222656 49.875 36.53125 49.320312 C 32.359375 47.949219 29.65625 45.316406 29.65625 40.980469 C 29.65625 40.976562 29.65625 40.972656 29.65625 40.96875 C 29.65625 40.964844 29.65625 40.964844 29.65625 40.960938 C 29.65625 40.957031 29.65625 40.953125 29.65625 40.953125 C 29.65625 40.953125 29.65625 40.953125 29.65625 40.949219 C 29.65625 40.949219 29.65625 40.945312 29.65625 40.941406 C 29.65625 40.9375 29.65625 40.933594 29.65625 40.933594 C 29.65625 40.929688 29.65625 40.925781 29.65625 40.921875 C 29.65625 40.921875 29.65625 40.917969 29.65625 40.914062 C 29.65625 40.910156 29.65625 40.910156 29.65625 40.90625 C 29.65625 40.902344 29.65625 40.898438 29.65625 40.894531 C 29.65625 40.890625 29.65625 40.890625 29.65625 40.886719 C 29.65625 40.882812 29.65625 40.878906 29.65625 40.875 C 29.65625 40.875 29.65625 40.871094 29.65625 40.867188 C 29.65625 40.863281 29.65625 40.863281 29.65625 40.859375 C 29.65625 40.855469 29.65625 40.851562 29.65625 40.847656 C 29.65625 40.84375 29.65625 40.839844 29.65625 40.839844 C 29.65625 40.832031 29.65625 40.828125 29.65625 40.820312 C 29.65625 40.816406 29.65625 40.816406 29.65625 40.8125 C 29.65625 40.808594 29.65625 40.804688 29.65625 40.800781 C 29.65625 40.796875 29.65625 40.792969 29.65625 40.792969 C 29.65625 40.789062 29.65625 40.785156 29.65625 40.78125 C 29.65625 40.78125 29.65625 40.777344 29.65625 40.773438 C 29.65625 40.769531 29.65625 40.765625 29.65625 40.765625 C 29.65625 40.761719 29.65625 40.757812 29.65625 40.753906 C 29.65625 40.75 29.65625 40.746094 29.65625 40.746094 C 29.65625 40.738281 29.65625 40.734375 29.65625 40.726562 C 29.65625 40.722656 29.660156 40.71875 29.660156 40.71875 C 29.660156 40.714844 29.660156 40.714844 29.660156 40.714844 C 29.660156 40.710938 29.660156 40.710938 29.660156 40.707031 C 29.660156 40.703125 29.660156 40.699219 29.660156 40.699219 L 29.660156 40.695312 C 29.660156 40.695312 29.660156 40.691406 29.660156 40.6875 C 29.660156 40.679688 29.660156 40.675781 29.660156 40.667969 C 29.660156 40.664062 29.660156 40.664062 29.660156 40.660156 C 29.660156 40.65625 29.660156 40.652344 29.660156 40.648438 C 29.660156 40.644531 29.660156 40.640625 29.660156 40.640625 C 29.660156 40.636719 29.660156 40.632812 29.660156 40.628906 C 29.660156 40.625 29.660156 40.625 29.660156 40.621094 C 29.660156 40.617188 29.660156 40.613281 29.660156 40.613281 C 29.660156 40.613281 29.660156 40.609375 29.660156 40.609375 C 29.660156 40.605469 29.664062 40.605469 29.664062 40.601562 C 29.664062 40.597656 29.664062 40.59375 29.664062 40.589844 C 29.664062 40.585938 29.664062 40.578125 29.664062 40.570312 C 29.664062 40.570312 29.664062 40.566406 29.664062 40.5625 C 29.664062 40.558594 29.664062 40.554688 29.664062 40.554688 C 29.824219 36.433594 32.234375 29.832031 35.910156 24.972656 C 36.429688 25.308594 36.972656 25.617188 37.539062 25.898438 C 34.839844 30.457031 33.1875 35.703125 33.1875 39.054688 C 33.1875 46.039062 40.195312 48.601562 49.058594 48.601562 C 52.703125 48.601562 56.089844 48.164062 58.816406 47.167969 C 55.890625 49.53125 51.050781 50.507812 45.636719 50.523438 C 45.632812 50.523438 45.628906 50.523438 45.621094 50.523438 C 45.617188 50.523438 45.613281 50.523438 45.605469 50.523438 C 45.601562 50.523438 45.59375 50.523438 45.589844 50.523438 C 45.582031 50.523438 45.578125 50.523438 45.574219 50.523438 C 45.574219 50.523438 45.570312 50.523438 45.570312 50.523438 C 45.566406 50.523438 45.5625 50.523438 45.558594 50.523438 C 45.558594 50.523438 45.558594 50.523438 45.554688 50.523438 C 45.550781 50.523438 45.546875 50.523438 45.546875 50.523438 C 45.542969 50.523438 45.542969 50.523438 45.539062 50.523438 C 45.535156 50.523438 45.53125 50.523438 45.523438 50.523438 " fill-opacity="1" fill-rule="nonzero"/><path fill="#a47343" d="M 52.722656 5.449219 C 52.722656 8.457031 55.144531 10.898438 58.136719 10.898438 C 61.125 10.898438 63.550781 8.457031 63.550781 5.449219 C 63.550781 2.4375 61.125 -0.00390625 58.136719 -0.00390625 C 55.144531 -0.00390625 52.722656 2.4375 52.722656 5.449219 " fill-opacity="1" fill-rule="nonzero"/><path fill="#5a3114" d="M 55.449219 5.449219 C 55.449219 6.941406 56.652344 8.152344 58.136719 8.152344 C 59.621094 8.152344 60.824219 6.941406 60.824219 5.449219 C 60.824219 3.953125 59.621094 2.742188 58.136719 2.742188 C 56.652344 2.742188 55.449219 3.953125 55.449219 5.449219 " fill-opacity="1" fill-rule="nonzero"/><path fill="#a47343" d="M 27.949219 5.449219 C 27.949219 8.457031 30.371094 10.898438 33.363281 10.898438 C 36.355469 10.898438 38.777344 8.457031 38.777344 5.449219 C 38.777344 2.4375 36.355469 -0.00390625 33.363281 -0.00390625 C 30.371094 -0.00390625 27.949219 2.4375 27.949219 5.449219 " fill-opacity="1" fill-rule="nonzero"/><path fill="#5a3114" d="M 30.675781 5.449219 C 30.675781 6.941406 31.878906 8.152344 33.363281 8.152344 C 34.847656 8.152344 36.050781 6.941406 36.050781 5.449219 C 36.050781 3.953125 34.847656 2.742188 33.363281 2.742188 C 31.878906 2.742188 30.675781 3.953125 30.675781 5.449219 " fill-opacity="1" fill-rule="nonzero"/><path fill="#a47343" d="M 61.742188 14.289062 C 61.742188 21.734375 54.558594 27.773438 45.699219 27.773438 C 36.835938 27.773438 29.65625 21.734375 29.65625 14.289062 C 29.65625 6.84375 36.835938 0.804688 45.699219 0.804688 C 54.558594 0.804688 61.742188 6.84375 61.742188 14.289062 " fill-opacity="1" fill-rule="nonzero"/><path fill="#f8a680" d="M 55.328125 21.453125 C 55.328125 24.941406 51.015625 27.773438 45.699219 27.773438 C 40.378906 27.773438 36.070312 24.941406 36.070312 21.453125 C 36.070312 17.960938 40.378906 15.132812 45.699219 15.132812 C 51.015625 15.132812 55.328125 17.960938 55.328125 21.453125 " fill-opacity="1" fill-rule="nonzero"/><path fill="#283038" d="M 52.0625 13.234375 C 52.0625 14.148438 51.328125 14.890625 50.421875 14.890625 C 49.515625 14.890625 48.78125 14.148438 48.78125 13.234375 C 48.78125 12.320312 49.515625 11.578125 50.421875 11.578125 C 51.328125 11.578125 52.0625 12.320312 52.0625 13.234375 " fill-opacity="1" fill-rule="nonzero"/><path fill="#1d2127" d="M 51.398438 14.113281 C 50.007812 14.113281 49.1875 13.417969 48.914062 12.582031 C 48.828125 12.78125 48.78125 13 48.78125 13.234375 C 48.78125 14.148438 49.515625 14.890625 50.421875 14.890625 C 51.019531 14.890625 51.539062 14.5625 51.824219 14.082031 C 51.6875 14.097656 51.546875 14.113281 51.398438 14.113281 " fill-opacity="1" fill-rule="nonzero"/><path fill="#ffffff" d="M 51.371094 12.265625 C 51.371094 12.5 51.136719 12.6875 50.851562 12.6875 C 50.5625 12.6875 50.328125 12.5 50.328125 12.265625 C 50.328125 12.035156 50.5625 11.847656 50.851562 11.847656 C 51.136719 11.847656 51.371094 12.035156 51.371094 12.265625 " fill-opacity="1" fill-rule="nonzero"/><path fill="#283038" d="M 42.386719 13.234375 C 42.386719 14.148438 41.652344 14.890625 40.746094 14.890625 C 39.839844 14.890625 39.105469 14.148438 39.105469 13.234375 C 39.105469 12.320312 39.839844 11.578125 40.746094 11.578125 C 41.652344 11.578125 42.386719 12.320312 42.386719 13.234375 " fill-opacity="1" fill-rule="nonzero"/><path fill="#1d2127" d="M 41.71875 14.113281 C 40.332031 14.113281 39.511719 13.417969 39.238281 12.582031 C 39.152344 12.78125 39.105469 13 39.105469 13.234375 C 39.105469 14.148438 39.839844 14.890625 40.746094 14.890625 C 41.34375 14.890625 41.863281 14.5625 42.148438 14.082031 C 42.007812 14.097656 41.871094 14.113281 41.71875 14.113281 " fill-opacity="1" fill-rule="nonzero"/><path fill="#ffffff" d="M 41.695312 12.265625 C 41.695312 12.5 41.460938 12.6875 41.175781 12.6875 C 40.886719 12.6875 40.652344 12.5 40.652344 12.265625 C 40.652344 12.035156 40.886719 11.847656 41.175781 11.847656 C 41.460938 11.847656 41.695312 12.035156 41.695312 12.265625 " fill-opacity="1" fill-rule="nonzero"/><path fill="#5a3114" d="M 48.96875 21.03125 C 48.96875 21.03125 48.933594 21.152344 48.824219 21.339844 C 48.769531 21.433594 48.699219 21.546875 48.601562 21.664062 C 48.503906 21.785156 48.386719 21.914062 48.238281 22.035156 C 48.167969 22.097656 48.089844 22.160156 48.007812 22.222656 C 47.925781 22.285156 47.832031 22.339844 47.738281 22.394531 C 47.644531 22.453125 47.542969 22.5 47.441406 22.550781 C 47.335938 22.605469 47.226562 22.644531 47.113281 22.683594 C 47.054688 22.703125 47 22.722656 46.941406 22.742188 C 46.882812 22.757812 46.824219 22.773438 46.761719 22.789062 C 46.644531 22.820312 46.523438 22.851562 46.398438 22.863281 C 46.152344 22.910156 45.898438 22.917969 45.644531 22.925781 L 45.273438 22.910156 C 45.160156 22.910156 45.019531 22.878906 44.894531 22.863281 C 44.765625 22.851562 44.644531 22.820312 44.527344 22.789062 C 44.464844 22.773438 44.40625 22.757812 44.347656 22.746094 C 44.289062 22.722656 44.234375 22.703125 44.175781 22.683594 C 44.0625 22.644531 43.953125 22.605469 43.847656 22.550781 C 43.742188 22.503906 43.644531 22.453125 43.550781 22.394531 C 43.453125 22.339844 43.363281 22.285156 43.28125 22.222656 C 43.195312 22.164062 43.121094 22.101562 43.046875 22.035156 C 42.902344 21.914062 42.785156 21.785156 42.6875 21.667969 C 42.589844 21.550781 42.519531 21.433594 42.464844 21.339844 C 42.351562 21.152344 42.320312 21.03125 42.320312 21.03125 C 42.320312 21.03125 42.402344 21.125 42.5625 21.257812 C 42.640625 21.328125 42.742188 21.402344 42.855469 21.484375 C 42.914062 21.527344 42.976562 21.570312 43.046875 21.609375 C 43.113281 21.648438 43.179688 21.695312 43.257812 21.730469 C 43.332031 21.773438 43.414062 21.8125 43.496094 21.847656 C 43.578125 21.890625 43.667969 21.925781 43.757812 21.960938 C 43.847656 21.996094 43.941406 22.027344 44.039062 22.054688 C 44.136719 22.085938 44.234375 22.113281 44.335938 22.136719 C 44.386719 22.148438 44.441406 22.160156 44.492188 22.171875 C 44.542969 22.179688 44.597656 22.191406 44.648438 22.199219 C 44.757812 22.214844 44.863281 22.238281 44.96875 22.242188 C 45.082031 22.25 45.175781 22.269531 45.300781 22.269531 L 45.644531 22.28125 C 45.871094 22.273438 46.09375 22.273438 46.3125 22.242188 C 46.425781 22.238281 46.53125 22.214844 46.636719 22.199219 C 46.746094 22.183594 46.851562 22.160156 46.953125 22.136719 C 47.054688 22.113281 47.152344 22.085938 47.25 22.054688 C 47.347656 22.027344 47.441406 22 47.53125 21.960938 C 47.621094 21.929688 47.707031 21.890625 47.789062 21.847656 C 47.875 21.816406 47.957031 21.773438 48.03125 21.730469 C 48.105469 21.695312 48.175781 21.648438 48.242188 21.609375 C 48.3125 21.570312 48.375 21.527344 48.433594 21.484375 C 48.546875 21.402344 48.648438 21.328125 48.726562 21.257812 C 48.886719 21.125 48.96875 21.03125 48.96875 21.03125 " fill-opacity="1" fill-rule="nonzero"/><path fill="#5a3114" d="M 45.324219 22.605469 L 45.964844 22.605469 L 45.964844 18.621094 L 45.324219 18.621094 Z M 45.324219 22.605469 " fill-opacity="1" fill-rule="nonzero"/><path fill="#5a3114" d="M 49.007812 15.550781 C 49.007812 16.097656 46.769531 18.855469 45.699219 18.953125 C 44.628906 19.050781 42.386719 16.097656 42.386719 15.550781 C 42.386719 15 43.871094 14.558594 45.699219 14.558594 C 47.527344 14.558594 49.007812 15 49.007812 15.550781 " fill-opacity="1" fill-rule="nonzero"/><path fill="#cb6d5a" d="M 45.324219 18.890625 C 44.484375 18.570312 43.296875 17.1875 42.722656 16.277344 C 43.296875 17.1875 44.484375 18.570312 45.324219 18.890625 M 42.722656 16.277344 L 42.722656 16.277344 M 42.386719 15.550781 C 42.386719 15.546875 42.386719 15.546875 42.386719 15.546875 C 42.386719 15.546875 42.386719 15.546875 42.386719 15.550781 M 42.386719 15.546875 L 42.386719 15.546875 " fill-opacity="1" fill-rule="nonzero"/><path fill="#4c2311" d="M 45.644531 18.957031 C 45.546875 18.957031 45.4375 18.933594 45.324219 18.890625 C 45.4375 18.933594 45.546875 18.957031 45.644531 18.957031 M 45.644531 18.957031 C 45.660156 18.957031 45.679688 18.953125 45.695312 18.953125 C 45.679688 18.953125 45.660156 18.957031 45.644531 18.957031 M 45.699219 18.953125 C 45.753906 18.949219 45.8125 18.9375 45.875 18.917969 C 45.8125 18.9375 45.753906 18.949219 45.699219 18.953125 " fill-opacity="1" fill-rule="nonzero"/><path fill="#4c2311" d="M 45.644531 18.957031 C 45.546875 18.957031 45.4375 18.933594 45.324219 18.890625 C 44.484375 18.570312 43.296875 17.1875 42.722656 16.277344 C 42.515625 15.949219 42.386719 15.679688 42.386719 15.550781 C 42.386719 15.546875 42.386719 15.546875 42.386719 15.546875 C 42.390625 15.179688 43.0625 14.867188 44.046875 14.695312 C 43.816406 16.242188 44.703125 17.992188 46.714844 17.992188 C 46.90625 17.992188 47.085938 17.96875 47.257812 17.9375 C 46.769531 18.410156 46.269531 18.796875 45.875 18.917969 C 45.8125 18.9375 45.753906 18.949219 45.699219 18.953125 C 45.699219 18.953125 45.695312 18.953125 45.695312 18.953125 C 45.679688 18.953125 45.660156 18.957031 45.644531 18.957031 " fill-opacity="1" fill-rule="nonzero"/><path fill="#693a15" d="M 46.578125 16.253906 C 45.664062 16.253906 44.921875 15.949219 44.921875 15.570312 C 44.921875 15.195312 45.664062 14.890625 46.578125 14.890625 C 47.492188 14.890625 48.230469 15.195312 48.230469 15.570312 C 48.230469 15.949219 47.492188 16.253906 46.578125 16.253906 " fill-opacity="1" fill-rule="nonzero"/><path fill="#b27d4c" d="M 57.007812 5.980469 C 56.570312 5.980469 54.296875 4.710938 48.652344 3.214844 C 47.121094 2.8125 44.042969 2.527344 44.042969 2.152344 C 44.042969 1.832031 44.96875 1.425781 46.203125 1.425781 C 46.425781 1.425781 46.660156 1.4375 46.902344 1.46875 C 54.09375 2.367188 57.089844 5.542969 57.089844 5.917969 C 57.089844 5.960938 57.0625 5.980469 57.007812 5.980469 " fill-opacity="1" fill-rule="nonzero"/><path fill="#b27d4c" d="M 23.683594 48.785156 C 23.683594 48.785156 23.054688 46.328125 23.441406 44.796875 C 23.707031 43.734375 24.765625 43.054688 26.40625 43.054688 C 27.148438 43.054688 28.011719 43.195312 28.972656 43.503906 C 29.328125 43.617188 25.21875 43.285156 24.8125 46.164062 C 24.441406 48.785156 23.683594 48.785156 23.683594 48.785156 " fill-opacity="1" fill-rule="nonzero"/><path fill="#905e34" d="M 52.058594 26.667969 C 52.023438 26.53125 51.980469 26.398438 51.929688 26.269531 C 53.722656 25.273438 54.949219 23.847656 55.253906 22.238281 C 58.195312 20.648438 60.476562 18.269531 61.675781 15.460938 C 61.160156 20.5 57.347656 24.746094 52.058594 26.667969 M 38.910156 26.507812 C 38.441406 26.324219 37.984375 26.121094 37.539062 25.898438 C 36.972656 25.617188 36.429688 25.308594 35.910156 24.972656 C 32.105469 22.507812 29.65625 18.636719 29.65625 14.289062 C 29.65625 14.285156 29.65625 14.28125 29.65625 14.277344 C 29.65625 14.277344 29.65625 14.277344 29.65625 14.273438 C 29.65625 14.273438 29.65625 14.269531 29.65625 14.269531 C 29.65625 14.265625 29.65625 14.265625 29.65625 14.261719 C 29.65625 14.261719 29.65625 14.261719 29.65625 14.257812 C 29.65625 14.257812 29.65625 14.253906 29.65625 14.253906 C 29.65625 14.25 29.65625 14.25 29.65625 14.25 C 29.65625 14.246094 29.65625 14.246094 29.65625 14.242188 C 29.65625 14.242188 29.65625 14.238281 29.65625 14.238281 C 29.664062 12.65625 29.996094 11.136719 30.597656 9.726562 C 30.558594 10.113281 30.535156 10.503906 30.535156 10.898438 C 30.535156 14.972656 32.683594 18.625 36.082031 21.09375 C 36.074219 21.214844 36.070312 21.332031 36.070312 21.453125 C 36.070312 23.261719 37.230469 24.898438 39.089844 26.050781 C 39.023438 26.191406 38.960938 26.34375 38.910156 26.507812 " fill-opacity="1" fill-rule="nonzero"/><path fill="#d9855b" d="M 45.160156 27.625 C 44.269531 26.390625 41.613281 25.304688 40.136719 25.304688 C 39.988281 25.304688 39.847656 25.316406 39.726562 25.339844 C 39.53125 25.378906 39.285156 25.65625 39.089844 26.050781 C 37.230469 24.898438 36.070312 23.261719 36.070312 21.453125 C 36.070312 21.332031 36.074219 21.214844 36.082031 21.09375 C 38.894531 23.140625 42.566406 24.382812 46.578125 24.382812 C 49.773438 24.382812 52.753906 23.59375 55.253906 22.238281 C 54.949219 23.847656 53.722656 25.273438 51.929688 26.269531 C 51.730469 25.765625 51.425781 25.382812 51.199219 25.339844 C 51.074219 25.316406 50.9375 25.304688 50.785156 25.304688 C 49.355469 25.304688 46.816406 26.328125 45.847656 27.515625 C 45.785156 27.5 45.714844 27.492188 45.644531 27.492188 C 45.46875 27.492188 45.300781 27.539062 45.160156 27.625 " fill-opacity="1" fill-rule="nonzero"/><path fill="#ef3643" d="M 45.460938 28.433594 C 45.460938 30.082031 42.121094 31.554688 40.230469 31.554688 C 39.21875 31.554688 38.238281 28.90625 39.21875 28.566406 C 38.207031 27.480469 39.175781 25.445312 39.726562 25.339844 C 41.3125 25.035156 45.460938 26.78125 45.460938 28.433594 " fill-opacity="1" fill-rule="nonzero"/><path fill="#875236" d="M 40.234375 31.554688 L 40.234375 31.554688 M 40.238281 31.554688 C 40.242188 31.554688 40.242188 31.554688 40.242188 31.554688 C 40.242188 31.554688 40.242188 31.554688 40.238281 31.554688 M 40.25 31.554688 L 40.25 31.554688 M 40.253906 31.554688 L 40.253906 31.554688 M 40.261719 31.554688 C 40.265625 31.554688 40.265625 31.554688 40.265625 31.554688 C 40.265625 31.554688 40.265625 31.554688 40.261719 31.554688 M 40.269531 31.554688 L 40.269531 31.554688 M 40.277344 31.554688 L 40.277344 31.554688 M 40.28125 31.554688 C 40.28125 31.554688 40.285156 31.554688 40.285156 31.554688 C 40.285156 31.554688 40.28125 31.554688 40.28125 31.554688 M 40.292969 31.554688 L 40.292969 31.554688 M 40.296875 31.554688 L 40.296875 31.554688 M 40.300781 31.554688 L 40.300781 31.554688 M 40.304688 31.554688 L 40.304688 31.554688 M 40.3125 31.554688 L 40.3125 31.554688 M 40.316406 31.554688 L 40.316406 31.554688 M 40.324219 31.554688 L 40.324219 31.554688 M 40.328125 31.554688 L 40.332031 31.554688 L 40.328125 31.554688 M 40.339844 31.554688 L 40.339844 31.554688 M 40.34375 31.554688 L 40.34375 31.554688 M 40.355469 31.554688 L 40.355469 31.554688 M 40.375 31.554688 L 40.375 31.554688 M 40.382812 31.550781 L 40.382812 31.550781 M 40.386719 31.550781 L 40.386719 31.550781 M 40.398438 31.550781 L 40.398438 31.550781 M 40.421875 31.550781 L 40.421875 31.550781 M 39.214844 28.5625 C 38.972656 28.300781 38.84375 27.980469 38.796875 27.644531 C 38.84375 27.980469 38.972656 28.300781 39.214844 28.5625 M 38.796875 27.644531 C 38.796875 27.640625 38.796875 27.640625 38.796875 27.640625 C 38.796875 27.640625 38.796875 27.640625 38.796875 27.644531 M 38.796875 27.636719 L 38.796875 27.636719 " fill-opacity="1" fill-rule="nonzero"/><path fill="#c62836" d="M 40.230469 31.554688 C 39.515625 31.554688 38.816406 30.226562 38.816406 29.332031 C 38.816406 28.960938 38.933594 28.664062 39.21875 28.566406 C 39.21875 28.566406 39.21875 28.566406 39.214844 28.5625 C 38.972656 28.300781 38.84375 27.980469 38.796875 27.644531 C 38.796875 27.640625 38.796875 27.640625 38.796875 27.640625 C 38.796875 27.640625 38.796875 27.640625 38.796875 27.636719 C 38.785156 27.542969 38.777344 27.449219 38.777344 27.355469 C 39.183594 28.101562 39.835938 28.566406 39.835938 28.566406 C 39.835938 28.566406 39.566406 30.59375 40.691406 30.796875 C 40.835938 30.824219 41 30.835938 41.179688 30.835938 C 42.390625 30.835938 44.296875 30.257812 45.1875 29.25 C 45.1875 29.25 45.191406 29.25 45.195312 29.253906 C 44.402344 30.480469 42.039062 31.457031 40.460938 31.546875 C 40.453125 31.550781 40.441406 31.550781 40.429688 31.550781 C 40.429688 31.550781 40.425781 31.550781 40.421875 31.550781 C 40.421875 31.550781 40.417969 31.550781 40.417969 31.550781 C 40.414062 31.550781 40.40625 31.550781 40.402344 31.550781 C 40.402344 31.550781 40.398438 31.550781 40.398438 31.550781 C 40.394531 31.550781 40.390625 31.550781 40.386719 31.550781 C 40.386719 31.550781 40.382812 31.550781 40.382812 31.550781 C 40.382812 31.550781 40.378906 31.554688 40.378906 31.554688 C 40.375 31.554688 40.375 31.554688 40.375 31.554688 C 40.367188 31.554688 40.363281 31.554688 40.359375 31.554688 C 40.355469 31.554688 40.355469 31.554688 40.355469 31.554688 C 40.351562 31.554688 40.347656 31.554688 40.34375 31.554688 C 40.34375 31.554688 40.339844 31.554688 40.339844 31.554688 C 40.339844 31.554688 40.335938 31.554688 40.335938 31.554688 C 40.332031 31.554688 40.332031 31.554688 40.332031 31.554688 L 40.328125 31.554688 C 40.328125 31.554688 40.328125 31.554688 40.324219 31.554688 C 40.324219 31.554688 40.320312 31.554688 40.316406 31.554688 C 40.3125 31.554688 40.3125 31.554688 40.3125 31.554688 C 40.308594 31.554688 40.308594 31.554688 40.304688 31.554688 C 40.304688 31.554688 40.304688 31.554688 40.300781 31.554688 C 40.300781 31.554688 40.300781 31.554688 40.296875 31.554688 C 40.292969 31.554688 40.292969 31.554688 40.292969 31.554688 C 40.289062 31.554688 40.289062 31.554688 40.289062 31.554688 C 40.285156 31.554688 40.285156 31.554688 40.285156 31.554688 C 40.285156 31.554688 40.28125 31.554688 40.28125 31.554688 C 40.28125 31.554688 40.28125 31.554688 40.277344 31.554688 C 40.277344 31.554688 40.273438 31.554688 40.273438 31.554688 C 40.273438 31.554688 40.269531 31.554688 40.269531 31.554688 C 40.265625 31.554688 40.265625 31.554688 40.265625 31.554688 C 40.265625 31.554688 40.265625 31.554688 40.261719 31.554688 C 40.261719 31.554688 40.261719 31.554688 40.257812 31.554688 C 40.257812 31.554688 40.257812 31.554688 40.253906 31.554688 C 40.253906 31.554688 40.25 31.554688 40.25 31.554688 C 40.25 31.554688 40.246094 31.554688 40.246094 31.554688 C 40.246094 31.554688 40.242188 31.554688 40.242188 31.554688 C 40.242188 31.554688 40.242188 31.554688 40.238281 31.554688 C 40.238281 31.554688 40.238281 31.554688 40.234375 31.554688 C 40.234375 31.554688 40.234375 31.554688 40.230469 31.554688 " fill-opacity="1" fill-rule="nonzero"/><path fill="#8f1f24" d="M 44.710938 27.480469 C 44.710938 27.480469 41.679688 26.804688 40.941406 26.488281 C 39.835938 26.019531 39.835938 25.535156 39.835938 25.535156 C 39.835938 25.535156 40.246094 25.292969 41.785156 25.816406 C 43.875 26.527344 44.710938 27.480469 44.710938 27.480469 " fill-opacity="1" fill-rule="nonzero"/><path fill="#c22b35" d="M 45.019531 28.566406 C 45.019531 28.640625 44.371094 28.703125 43.570312 28.703125 C 42.769531 28.703125 42.121094 28.640625 42.121094 28.566406 C 42.121094 28.492188 42.769531 28.429688 43.570312 28.429688 C 44.371094 28.429688 45.019531 28.492188 45.019531 28.566406 " fill-opacity="1" fill-rule="nonzero"/><path fill="#c22b35" d="M 45.019531 28.339844 C 45.003906 28.410156 44.488281 28.339844 43.871094 28.179688 C 43.257812 28.015625 42.773438 27.828125 42.792969 27.753906 C 42.8125 27.683594 43.324219 27.753906 43.941406 27.914062 C 44.554688 28.078125 45.039062 28.265625 45.019531 28.339844 " fill-opacity="1" fill-rule="nonzero"/><path fill="#f14967" d="M 43.707031 27.410156 C 43.707031 27.410156 41.527344 27.109375 40.914062 26.929688 C 39.625 26.554688 39.679688 25.691406 39.679688 25.691406 C 39.679688 25.691406 39.835938 26.335938 40.984375 26.667969 C 41.710938 26.878906 43.707031 27.410156 43.707031 27.410156 " fill-opacity="1" fill-rule="nonzero"/><path fill="#c22b35" d="M 45.019531 28.789062 C 45.003906 28.714844 44.488281 28.785156 43.871094 28.945312 C 43.257812 29.109375 42.773438 29.300781 42.792969 29.371094 C 42.8125 29.445312 43.324219 29.371094 43.941406 29.210938 C 44.554688 29.050781 45.039062 28.859375 45.019531 28.789062 " fill-opacity="1" fill-rule="nonzero"/><path fill="#ef3643" d="M 45.460938 28.433594 C 45.460938 30.082031 48.800781 31.554688 50.691406 31.554688 C 51.703125 31.554688 52.683594 28.90625 51.703125 28.566406 C 52.714844 27.480469 51.746094 25.445312 51.199219 25.339844 C 49.613281 25.035156 45.460938 26.78125 45.460938 28.433594 " fill-opacity="1" fill-rule="nonzero"/><path fill="#875236" d="M 50.6875 31.554688 L 50.6875 31.554688 M 50.683594 31.554688 L 50.683594 31.554688 M 50.675781 31.554688 C 50.675781 31.554688 50.671875 31.554688 50.671875 31.554688 C 50.671875 31.554688 50.671875 31.554688 50.675781 31.554688 M 50.667969 31.554688 L 50.667969 31.554688 M 50.660156 31.554688 L 50.660156 31.554688 M 50.65625 31.554688 C 50.65625 31.554688 50.65625 31.554688 50.652344 31.554688 C 50.652344 31.554688 50.65625 31.554688 50.65625 31.554688 M 50.644531 31.554688 L 50.644531 31.554688 M 50.640625 31.554688 L 50.640625 31.554688 M 50.632812 31.554688 C 50.632812 31.554688 50.628906 31.554688 50.628906 31.554688 C 50.628906 31.554688 50.632812 31.554688 50.632812 31.554688 M 50.625 31.554688 L 50.625 31.554688 M 50.621094 31.554688 L 50.621094 31.554688 M 50.617188 31.554688 L 50.617188 31.554688 M 50.613281 31.554688 L 50.613281 31.554688 M 50.605469 31.554688 L 50.605469 31.554688 M 50.597656 31.554688 L 50.597656 31.554688 M 50.59375 31.554688 L 50.59375 31.554688 M 50.589844 31.554688 C 50.589844 31.554688 50.589844 31.554688 50.585938 31.554688 C 50.589844 31.554688 50.589844 31.554688 50.589844 31.554688 M 50.585938 31.554688 C 50.585938 31.554688 50.582031 31.554688 50.582031 31.554688 C 50.582031 31.554688 50.585938 31.554688 50.585938 31.554688 M 50.578125 31.554688 L 50.578125 31.554688 M 50.574219 31.554688 L 50.574219 31.554688 M 50.570312 31.554688 C 50.570312 31.554688 50.570312 31.554688 50.566406 31.554688 C 50.570312 31.554688 50.570312 31.554688 50.570312 31.554688 M 50.566406 31.554688 C 50.5625 31.554688 50.5625 31.554688 50.5625 31.554688 C 50.5625 31.554688 50.5625 31.554688 50.566406 31.554688 M 50.558594 31.554688 L 50.558594 31.554688 M 50.554688 31.554688 L 50.554688 31.554688 M 50.550781 31.554688 L 50.550781 31.554688 M 50.546875 31.554688 C 50.546875 31.554688 50.542969 31.554688 50.542969 31.554688 C 50.542969 31.554688 50.546875 31.554688 50.546875 31.554688 M 50.542969 31.550781 C 50.539062 31.550781 50.539062 31.550781 50.539062 31.550781 C 50.539062 31.550781 50.539062 31.550781 50.542969 31.550781 M 50.535156 31.550781 L 50.535156 31.550781 M 50.53125 31.550781 C 50.53125 31.550781 50.53125 31.550781 50.527344 31.550781 C 50.53125 31.550781 50.53125 31.550781 50.53125 31.550781 M 50.527344 31.550781 C 50.527344 31.550781 50.523438 31.550781 50.523438 31.550781 C 50.523438 31.550781 50.527344 31.550781 50.527344 31.550781 M 50.523438 31.550781 C 50.519531 31.550781 50.519531 31.550781 50.519531 31.550781 C 50.519531 31.550781 50.519531 31.550781 50.523438 31.550781 M 50.515625 31.550781 L 50.515625 31.550781 M 50.511719 31.550781 L 50.511719 31.550781 M 50.507812 31.550781 C 50.507812 31.550781 50.507812 31.550781 50.503906 31.550781 C 50.507812 31.550781 50.507812 31.550781 50.507812 31.550781 M 50.503906 31.550781 C 50.5 31.550781 50.5 31.550781 50.5 31.550781 C 50.5 31.550781 50.5 31.550781 50.503906 31.550781 M 50.496094 31.550781 L 50.496094 31.550781 M 50.492188 31.550781 C 50.492188 31.550781 50.492188 31.550781 50.488281 31.550781 C 50.492188 31.550781 50.492188 31.550781 50.492188 31.550781 M 50.488281 31.550781 C 50.488281 31.550781 50.484375 31.550781 50.484375 31.550781 C 50.484375 31.550781 50.488281 31.550781 50.488281 31.550781 M 50.484375 31.550781 C 50.484375 31.550781 50.480469 31.550781 50.480469 31.550781 C 50.480469 31.550781 50.484375 31.550781 50.484375 31.550781 M 50.476562 31.550781 L 50.476562 31.550781 M 50.472656 31.550781 C 50.472656 31.550781 50.472656 31.550781 50.46875 31.550781 C 50.472656 31.550781 50.472656 31.550781 50.472656 31.550781 M 50.46875 31.546875 C 50.46875 31.546875 50.464844 31.546875 50.464844 31.546875 C 50.464844 31.546875 50.46875 31.546875 50.46875 31.546875 M 50.464844 31.546875 C 50.460938 31.546875 50.457031 31.546875 50.457031 31.546875 C 50.457031 31.546875 50.460938 31.546875 50.464844 31.546875 M 50.453125 31.546875 C 50.453125 31.546875 50.453125 31.546875 50.449219 31.546875 C 50.453125 31.546875 50.453125 31.546875 50.453125 31.546875 M 50.449219 31.546875 C 50.445312 31.546875 50.445312 31.546875 50.441406 31.546875 C 50.445312 31.546875 50.445312 31.546875 50.449219 31.546875 M 50.441406 31.546875 C 50.4375 31.546875 50.4375 31.546875 50.433594 31.546875 C 50.4375 31.546875 50.4375 31.546875 50.441406 31.546875 M 50.433594 31.546875 C 50.425781 31.546875 50.414062 31.546875 50.40625 31.546875 C 50.414062 31.546875 50.425781 31.546875 50.433594 31.546875 M 50.40625 31.546875 C 50.148438 31.527344 49.867188 31.484375 49.582031 31.425781 C 49.867188 31.484375 50.148438 31.527344 50.40625 31.546875 M 49.582031 31.425781 C 49.578125 31.425781 49.574219 31.425781 49.574219 31.421875 C 49.574219 31.425781 49.578125 31.425781 49.582031 31.425781 M 49.574219 31.421875 C 49.570312 31.421875 49.566406 31.421875 49.5625 31.421875 C 49.566406 31.421875 49.570312 31.421875 49.574219 31.421875 M 49.5625 31.421875 C 49.5625 31.421875 49.558594 31.417969 49.558594 31.417969 C 49.558594 31.417969 49.5625 31.421875 49.5625 31.421875 M 49.558594 31.417969 C 49.554688 31.417969 49.554688 31.417969 49.554688 31.417969 C 49.554688 31.417969 49.554688 31.417969 49.558594 31.417969 M 49.550781 31.417969 C 49.550781 31.417969 49.546875 31.417969 49.546875 31.417969 C 49.546875 31.417969 49.550781 31.417969 49.550781 31.417969 M 49.546875 31.417969 C 49.542969 31.417969 49.542969 31.417969 49.542969 31.417969 C 49.542969 31.417969 49.542969 31.417969 49.546875 31.417969 M 49.539062 31.414062 L 49.539062 31.414062 M 49.535156 31.414062 C 49.53125 31.414062 49.53125 31.414062 49.53125 31.414062 C 49.53125 31.414062 49.53125 31.414062 49.535156 31.414062 M 49.527344 31.414062 L 49.527344 31.414062 M 49.523438 31.410156 C 49.523438 31.410156 49.519531 31.410156 49.519531 31.410156 C 49.519531 31.410156 49.523438 31.410156 49.523438 31.410156 M 49.515625 31.410156 L 49.515625 31.410156 M 49.5 31.40625 L 49.5 31.40625 M 46.484375 30.046875 C 46.484375 30.042969 46.484375 30.042969 46.484375 30.042969 C 46.484375 30.042969 46.484375 30.042969 46.484375 30.046875 M 46.480469 30.042969 C 46.207031 29.828125 45.972656 29.597656 45.800781 29.355469 C 45.972656 29.597656 46.207031 29.828125 46.480469 30.042969 M 51.703125 28.566406 C 52.019531 28.226562 52.144531 27.792969 52.144531 27.355469 C 52.144531 27.792969 52.019531 28.226562 51.703125 28.566406 " fill-opacity="1" fill-rule="nonzero"/><path fill="#c62836" d="M 50.691406 31.554688 C 50.691406 31.554688 50.6875 31.554688 50.6875 31.554688 C 50.683594 31.554688 50.683594 31.554688 50.683594 31.554688 C 50.679688 31.554688 50.679688 31.554688 50.679688 31.554688 C 50.675781 31.554688 50.675781 31.554688 50.675781 31.554688 C 50.671875 31.554688 50.671875 31.554688 50.671875 31.554688 C 50.671875 31.554688 50.671875 31.554688 50.667969 31.554688 C 50.667969 31.554688 50.664062 31.554688 50.664062 31.554688 C 50.664062 31.554688 50.660156 31.554688 50.660156 31.554688 C 50.65625 31.554688 50.65625 31.554688 50.65625 31.554688 C 50.65625 31.554688 50.652344 31.554688 50.652344 31.554688 C 50.652344 31.554688 50.652344 31.554688 50.648438 31.554688 C 50.648438 31.554688 50.648438 31.554688 50.644531 31.554688 C 50.644531 31.554688 50.640625 31.554688 50.640625 31.554688 C 50.640625 31.554688 50.636719 31.554688 50.636719 31.554688 C 50.632812 31.554688 50.632812 31.554688 50.632812 31.554688 C 50.632812 31.554688 50.628906 31.554688 50.628906 31.554688 C 50.628906 31.554688 50.628906 31.554688 50.625 31.554688 C 50.625 31.554688 50.625 31.554688 50.621094 31.554688 C 50.621094 31.554688 50.617188 31.554688 50.617188 31.554688 C 50.613281 31.554688 50.613281 31.554688 50.613281 31.554688 C 50.609375 31.554688 50.609375 31.554688 50.605469 31.554688 C 50.605469 31.554688 50.601562 31.554688 50.597656 31.554688 C 50.59375 31.554688 50.59375 31.554688 50.59375 31.554688 C 50.589844 31.554688 50.589844 31.554688 50.589844 31.554688 C 50.589844 31.554688 50.589844 31.554688 50.585938 31.554688 C 50.585938 31.554688 50.582031 31.554688 50.582031 31.554688 C 50.582031 31.554688 50.578125 31.554688 50.578125 31.554688 C 50.578125 31.554688 50.574219 31.554688 50.574219 31.554688 C 50.574219 31.554688 50.570312 31.554688 50.570312 31.554688 C 50.570312 31.554688 50.570312 31.554688 50.566406 31.554688 C 50.5625 31.554688 50.5625 31.554688 50.5625 31.554688 C 50.5625 31.554688 50.5625 31.554688 50.558594 31.554688 C 50.558594 31.554688 50.554688 31.554688 50.554688 31.554688 C 50.550781 31.554688 50.550781 31.554688 50.550781 31.554688 C 50.546875 31.554688 50.546875 31.554688 50.546875 31.554688 C 50.546875 31.554688 50.542969 31.554688 50.542969 31.554688 C 50.542969 31.554688 50.542969 31.550781 50.542969 31.550781 C 50.539062 31.550781 50.539062 31.550781 50.539062 31.550781 C 50.539062 31.550781 50.539062 31.550781 50.535156 31.550781 C 50.535156 31.550781 50.53125 31.550781 50.53125 31.550781 C 50.53125 31.550781 50.53125 31.550781 50.527344 31.550781 C 50.527344 31.550781 50.523438 31.550781 50.523438 31.550781 C 50.519531 31.550781 50.519531 31.550781 50.519531 31.550781 C 50.519531 31.550781 50.515625 31.550781 50.515625 31.550781 C 50.515625 31.550781 50.511719 31.550781 50.511719 31.550781 C 50.507812 31.550781 50.507812 31.550781 50.507812 31.550781 C 50.507812 31.550781 50.507812 31.550781 50.503906 31.550781 C 50.5 31.550781 50.5 31.550781 50.5 31.550781 C 50.5 31.550781 50.5 31.550781 50.496094 31.550781 C 50.496094 31.550781 50.492188 31.550781 50.492188 31.550781 C 50.492188 31.550781 50.492188 31.550781 50.488281 31.550781 C 50.488281 31.550781 50.484375 31.550781 50.484375 31.550781 C 50.484375 31.550781 50.480469 31.550781 50.480469 31.550781 C 50.480469 31.550781 50.476562 31.550781 50.476562 31.550781 C 50.476562 31.550781 50.472656 31.550781 50.472656 31.550781 C 50.472656 31.550781 50.472656 31.550781 50.46875 31.550781 C 50.46875 31.550781 50.46875 31.546875 50.46875 31.546875 C 50.46875 31.546875 50.464844 31.546875 50.464844 31.546875 C 50.460938 31.546875 50.457031 31.546875 50.457031 31.546875 C 50.457031 31.546875 50.457031 31.546875 50.453125 31.546875 C 50.453125 31.546875 50.453125 31.546875 50.449219 31.546875 C 50.445312 31.546875 50.445312 31.546875 50.441406 31.546875 C 50.4375 31.546875 50.4375 31.546875 50.433594 31.546875 C 50.425781 31.546875 50.414062 31.546875 50.40625 31.546875 C 50.148438 31.527344 49.867188 31.484375 49.582031 31.425781 C 49.578125 31.425781 49.574219 31.425781 49.574219 31.421875 C 49.570312 31.421875 49.566406 31.421875 49.5625 31.421875 C 49.5625 31.421875 49.558594 31.417969 49.558594 31.417969 C 49.554688 31.417969 49.554688 31.417969 49.554688 31.417969 C 49.554688 31.417969 49.550781 31.417969 49.550781 31.417969 C 49.550781 31.417969 49.546875 31.417969 49.546875 31.417969 C 49.542969 31.417969 49.542969 31.417969 49.542969 31.417969 C 49.542969 31.417969 49.539062 31.414062 49.539062 31.414062 C 49.535156 31.414062 49.535156 31.414062 49.535156 31.414062 C 49.53125 31.414062 49.53125 31.414062 49.53125 31.414062 C 49.53125 31.414062 49.527344 31.414062 49.527344 31.414062 C 49.523438 31.414062 49.523438 31.414062 49.523438 31.410156 C 49.523438 31.410156 49.519531 31.410156 49.519531 31.410156 C 49.519531 31.410156 49.519531 31.410156 49.515625 31.410156 C 49.515625 31.410156 49.511719 31.410156 49.511719 31.410156 C 49.507812 31.40625 49.503906 31.40625 49.5 31.40625 C 48.457031 31.171875 47.296875 30.675781 46.488281 30.046875 C 46.488281 30.046875 46.488281 30.046875 46.484375 30.046875 C 46.484375 30.042969 46.484375 30.042969 46.484375 30.042969 C 46.484375 30.042969 46.480469 30.042969 46.480469 30.042969 C 46.207031 29.828125 45.972656 29.597656 45.800781 29.355469 C 45.808594 29.355469 45.820312 29.351562 45.832031 29.351562 C 46.757812 30.292969 48.574219 30.835938 49.742188 30.835938 C 49.921875 30.835938 50.085938 30.824219 50.230469 30.796875 C 51.355469 30.59375 51.089844 28.566406 51.089844 28.566406 C 51.089844 28.566406 51.738281 28.101562 52.144531 27.355469 C 52.144531 27.792969 52.019531 28.226562 51.703125 28.566406 C 51.988281 28.664062 52.109375 28.960938 52.109375 29.332031 C 52.109375 30.226562 51.410156 31.554688 50.691406 31.554688 " fill-opacity="1" fill-rule="nonzero"/><path fill="#8f1f24" d="M 46.214844 27.480469 C 46.214844 27.480469 49.242188 26.804688 49.984375 26.488281 C 51.089844 26.019531 51.089844 25.535156 51.089844 25.535156 C 51.089844 25.535156 50.675781 25.292969 49.140625 25.816406 C 47.046875 26.527344 46.214844 27.480469 46.214844 27.480469 " fill-opacity="1" fill-rule="nonzero"/><path fill="#c22b35" d="M 45.902344 28.566406 C 45.902344 28.640625 46.550781 28.703125 47.351562 28.703125 C 48.152344 28.703125 48.804688 28.640625 48.804688 28.566406 C 48.804688 28.492188 48.152344 28.429688 47.351562 28.429688 C 46.550781 28.429688 45.902344 28.492188 45.902344 28.566406 " fill-opacity="1" fill-rule="nonzero"/><path fill="#c22b35" d="M 45.902344 28.339844 C 45.921875 28.410156 46.433594 28.339844 47.050781 28.179688 C 47.664062 28.015625 48.148438 27.828125 48.128906 27.753906 C 48.113281 27.683594 47.597656 27.753906 46.984375 27.914062 C 46.367188 28.078125 45.882812 28.265625 45.902344 28.339844 " fill-opacity="1" fill-rule="nonzero"/><path fill="#f14967" d="M 47.214844 27.410156 C 47.214844 27.410156 49.210938 26.878906 49.941406 26.667969 C 51.089844 26.335938 51.242188 25.691406 51.242188 25.691406 C 51.242188 25.691406 51.300781 26.554688 50.007812 26.929688 C 49.394531 27.109375 47.214844 27.410156 47.214844 27.410156 " fill-opacity="1" fill-rule="nonzero"/><path fill="#c22b35" d="M 45.902344 28.789062 C 45.921875 28.714844 46.433594 28.785156 47.050781 28.945312 C 47.664062 29.109375 48.148438 29.300781 48.128906 29.371094 C 48.113281 29.445312 47.597656 29.371094 46.984375 29.210938 C 46.367188 29.050781 45.882812 28.859375 45.902344 28.789062 " fill-opacity="1" fill-rule="nonzero"/><path fill="#ef3643" d="M 46.578125 28.429688 C 46.578125 28.949219 46.160156 29.371094 45.644531 29.371094 C 45.128906 29.371094 44.710938 28.949219 44.710938 28.429688 C 44.710938 27.910156 45.128906 27.492188 45.644531 27.492188 C 46.160156 27.492188 46.578125 27.910156 46.578125 28.429688 " fill-opacity="1" fill-rule="nonzero"/><path fill="#875236" d="M 45.644531 29.371094 C 45.644531 29.371094 45.640625 29.371094 45.640625 29.371094 C 45.640625 29.371094 45.644531 29.371094 45.644531 29.371094 C 45.699219 29.371094 45.75 29.367188 45.800781 29.355469 C 45.75 29.367188 45.699219 29.371094 45.644531 29.371094 " fill-opacity="1" fill-rule="nonzero"/><path fill="#875236" d="M 45.640625 29.371094 C 45.640625 29.371094 45.640625 29.371094 45.636719 29.371094 C 45.640625 29.371094 45.640625 29.371094 45.640625 29.371094 M 45.636719 29.371094 L 45.636719 29.371094 M 45.636719 29.371094 C 45.632812 29.371094 45.632812 29.371094 45.632812 29.371094 C 45.632812 29.371094 45.632812 29.371094 45.636719 29.371094 M 45.632812 29.371094 C 45.628906 29.371094 45.628906 29.371094 45.628906 29.371094 C 45.628906 29.371094 45.628906 29.371094 45.632812 29.371094 M 45.628906 29.371094 C 45.628906 29.371094 45.628906 29.371094 45.625 29.371094 C 45.628906 29.371094 45.628906 29.371094 45.628906 29.371094 M 45.625 29.371094 L 45.625 29.371094 M 45.621094 29.371094 L 45.621094 29.371094 M 45.617188 29.371094 L 45.617188 29.371094 M 45.617188 29.371094 C 45.617188 29.371094 45.613281 29.371094 45.613281 29.371094 C 45.613281 29.371094 45.617188 29.371094 45.617188 29.371094 M 45.613281 29.371094 C 45.613281 29.371094 45.613281 29.371094 45.609375 29.371094 C 45.613281 29.371094 45.613281 29.371094 45.613281 29.371094 M 45.609375 29.371094 L 45.609375 29.371094 M 45.609375 29.371094 C 45.605469 29.371094 45.605469 29.367188 45.605469 29.367188 C 45.605469 29.367188 45.605469 29.367188 45.609375 29.371094 M 45.605469 29.367188 C 45.605469 29.367188 45.601562 29.367188 45.601562 29.367188 C 45.601562 29.367188 45.605469 29.367188 45.605469 29.367188 M 45.601562 29.367188 C 45.597656 29.367188 45.597656 29.367188 45.59375 29.367188 C 45.597656 29.367188 45.597656 29.367188 45.601562 29.367188 M 45.59375 29.367188 C 45.589844 29.367188 45.589844 29.367188 45.589844 29.367188 C 45.589844 29.367188 45.589844 29.367188 45.59375 29.367188 M 45.589844 29.367188 C 45.589844 29.367188 45.589844 29.367188 45.585938 29.367188 C 45.589844 29.367188 45.589844 29.367188 45.589844 29.367188 M 45.585938 29.367188 C 45.585938 29.367188 45.582031 29.367188 45.578125 29.367188 C 45.582031 29.367188 45.585938 29.367188 45.585938 29.367188 M 45.578125 29.367188 C 45.578125 29.367188 45.574219 29.367188 45.574219 29.367188 C 45.574219 29.367188 45.578125 29.367188 45.578125 29.367188 M 45.574219 29.367188 L 45.574219 29.367188 M 45.574219 29.367188 C 45.558594 29.367188 45.546875 29.363281 45.53125 29.363281 C 45.546875 29.363281 45.558594 29.367188 45.574219 29.367188 M 45.53125 29.363281 C 45.53125 29.363281 45.527344 29.363281 45.527344 29.363281 C 45.527344 29.363281 45.53125 29.363281 45.53125 29.363281 M 45.527344 29.363281 C 45.523438 29.363281 45.519531 29.363281 45.515625 29.363281 C 45.519531 29.363281 45.523438 29.363281 45.527344 29.363281 M 45.515625 29.363281 C 45.515625 29.363281 45.515625 29.363281 45.511719 29.359375 C 45.515625 29.363281 45.515625 29.363281 45.515625 29.363281 M 45.511719 29.359375 L 45.511719 29.359375 M 45.511719 29.359375 C 45.507812 29.359375 45.503906 29.359375 45.5 29.359375 C 45.503906 29.359375 45.507812 29.359375 45.511719 29.359375 M 45.5 29.359375 L 45.5 29.359375 M 45.5 29.359375 C 45.496094 29.359375 45.496094 29.359375 45.496094 29.359375 C 45.496094 29.359375 45.496094 29.359375 45.5 29.359375 M 45.496094 29.359375 L 45.496094 29.359375 M 45.492188 29.359375 C 45.492188 29.355469 45.492188 29.355469 45.492188 29.355469 C 45.492188 29.355469 45.492188 29.355469 45.492188 29.359375 M 45.488281 29.355469 L 45.488281 29.355469 M 45.484375 29.355469 L 45.484375 29.355469 M 45.484375 29.355469 L 45.484375 29.355469 " fill-opacity="1" fill-rule="nonzero"/><path fill="#c62836" d="M 46.578125 28.425781 L 46.578125 28.425781 M 46.578125 28.425781 C 46.578125 28.425781 46.578125 28.425781 46.578125 28.421875 C 46.578125 28.425781 46.578125 28.425781 46.578125 28.425781 M 46.578125 28.421875 L 46.578125 28.421875 M 46.328125 27.789062 C 46.316406 27.78125 46.308594 27.769531 46.296875 27.757812 C 46.308594 27.769531 46.316406 27.78125 46.328125 27.789062 " fill-opacity="1" fill-rule="nonzero"/><path fill="#c62836" d="M 45.644531 29.371094 C 45.644531 29.371094 45.640625 29.371094 45.640625 29.371094 C 45.640625 29.371094 45.640625 29.371094 45.636719 29.371094 C 45.632812 29.371094 45.632812 29.371094 45.632812 29.371094 C 45.628906 29.371094 45.628906 29.371094 45.628906 29.371094 C 45.628906 29.371094 45.628906 29.371094 45.625 29.371094 C 45.625 29.371094 45.621094 29.371094 45.621094 29.371094 C 45.621094 29.371094 45.621094 29.371094 45.617188 29.371094 C 45.617188 29.371094 45.613281 29.371094 45.613281 29.371094 C 45.613281 29.371094 45.613281 29.371094 45.609375 29.371094 C 45.605469 29.367188 45.605469 29.367188 45.605469 29.367188 C 45.605469 29.367188 45.601562 29.367188 45.601562 29.367188 C 45.597656 29.367188 45.597656 29.367188 45.59375 29.367188 C 45.589844 29.367188 45.589844 29.367188 45.589844 29.367188 C 45.589844 29.367188 45.589844 29.367188 45.585938 29.367188 C 45.585938 29.367188 45.582031 29.367188 45.578125 29.367188 C 45.578125 29.367188 45.574219 29.367188 45.574219 29.367188 C 45.558594 29.367188 45.546875 29.363281 45.53125 29.363281 C 45.53125 29.363281 45.527344 29.363281 45.527344 29.363281 C 45.523438 29.363281 45.519531 29.363281 45.515625 29.363281 C 45.515625 29.363281 45.515625 29.363281 45.511719 29.359375 C 45.507812 29.359375 45.503906 29.359375 45.5 29.359375 C 45.496094 29.359375 45.496094 29.359375 45.496094 29.359375 C 45.492188 29.359375 45.492188 29.359375 45.492188 29.359375 C 45.492188 29.355469 45.492188 29.355469 45.492188 29.355469 C 45.492188 29.355469 45.488281 29.355469 45.488281 29.355469 C 45.488281 29.355469 45.488281 29.355469 45.484375 29.355469 C 45.484375 29.355469 45.480469 29.355469 45.480469 29.355469 C 45.121094 29.292969 44.835938 29.023438 44.742188 28.671875 C 44.910156 28.839844 45.140625 28.941406 45.394531 28.941406 C 45.914062 28.941406 46.332031 28.523438 46.332031 28.003906 C 46.332031 27.917969 46.316406 27.835938 46.296875 27.757812 C 46.308594 27.769531 46.316406 27.78125 46.328125 27.789062 C 46.476562 27.953125 46.570312 28.167969 46.578125 28.410156 C 46.578125 28.410156 46.578125 28.410156 46.578125 28.414062 C 46.578125 28.414062 46.578125 28.414062 46.578125 28.417969 C 46.578125 28.417969 46.578125 28.417969 46.578125 28.421875 C 46.578125 28.425781 46.578125 28.425781 46.578125 28.425781 C 46.578125 28.429688 46.578125 28.429688 46.578125 28.429688 C 46.578125 28.4375 46.578125 28.445312 46.578125 28.453125 C 46.578125 28.53125 46.566406 28.605469 46.542969 28.679688 C 46.53125 28.726562 46.515625 28.773438 46.492188 28.820312 C 46.460938 28.894531 46.417969 28.964844 46.367188 29.023438 C 46.234375 29.1875 46.046875 29.308594 45.832031 29.351562 C 45.820312 29.351562 45.808594 29.355469 45.800781 29.355469 C 45.75 29.367188 45.699219 29.371094 45.644531 29.371094 " fill-opacity="1" fill-rule="nonzero"/><path fill="#f14967" d="M 44.953125 28.613281 C 44.949219 28.613281 44.945312 28.609375 44.941406 28.605469 C 44.902344 28.523438 44.945312 27.960938 45.269531 27.792969 C 45.339844 27.757812 45.417969 27.742188 45.496094 27.742188 C 45.785156 27.742188 46.085938 27.933594 46.117188 27.996094 C 46.128906 28.015625 46.113281 28.023438 46.082031 28.023438 C 46.054688 28.023438 46.015625 28.015625 45.964844 28.011719 C 45.917969 28.007812 45.859375 28.003906 45.796875 28.003906 C 45.679688 28.003906 45.542969 28.019531 45.421875 28.085938 C 45.121094 28.238281 45.003906 28.613281 44.953125 28.613281 " fill-opacity="1" fill-rule="nonzero"/></svg>