<svg xmlns="http://www.w3.org/2000/svg" xmlns:xlink="http://www.w3.org/1999/xlink" width="126" zoomAndPan="magnify" viewBox="0 0 94.5 56.249996" height="75" preserveAspectRatio="xMidYMid meet" version="1.0"><defs><clipPath id="3d72902429"><path d="M 0.375 0 L 93.632812 0 L 93.632812 54 L 0.375 54 Z M 0.375 0 " clip-rule="nonzero"/></clipPath></defs><g clip-path="url(#3d72902429)"><path fill="#000000" d="M 89.246094 45.316406 C 87.367188 46.101562 85.402344 46.191406 83.414062 46.019531 C 78.644531 45.613281 74.171875 44.171875 69.878906 42.089844 C 69.164062 41.742188 68.476562 41.328125 67.730469 40.917969 C 67.71875 40.925781 67.632812 40.945312 67.582031 40.996094 C 66.082031 42.6875 64.105469 43.410156 61.957031 43.8125 C 59.765625 44.222656 57.5625 44.375 55.339844 44.375 C 52.078125 44.375 48.816406 44.316406 45.59375 43.789062 C 43.308594 43.414062 41.039062 42.898438 38.761719 42.449219 C 38.636719 42.425781 38.511719 42.386719 38.316406 42.339844 C 38.167969 42.601562 38.023438 42.847656 37.882812 43.097656 C 36.585938 45.390625 35.117188 47.566406 33.417969 49.582031 C 32.734375 50.402344 31.96875 51.15625 31.214844 51.921875 C 29.519531 53.652344 27.449219 54.050781 25.160156 53.582031 C 22.675781 53.074219 20.378906 52.082031 18.257812 50.691406 C 17.472656 50.175781 16.78125 49.542969 16.238281 48.753906 C 15.542969 47.734375 15.429688 46.664062 15.996094 45.5625 C 16.214844 45.136719 16.453125 44.703125 16.765625 44.347656 C 17.65625 43.3125 18.535156 42.253906 19.519531 41.3125 C 21.6875 39.238281 23.917969 37.230469 26.125 35.203125 C 26.222656 35.113281 26.359375 35.070312 26.476562 35.007812 C 25.613281 34.488281 24.886719 33.921875 23.945312 34.296875 C 23.730469 34.378906 23.511719 34.488281 23.332031 34.628906 C 22.5 35.300781 21.714844 36.035156 20.851562 36.664062 C 18.128906 38.660156 15.351562 40.566406 12.351562 42.121094 C 10.929688 42.859375 9.472656 43.523438 7.882812 43.832031 C 5.707031 44.257812 3.917969 43.605469 2.523438 41.90625 C 1.324219 40.449219 0.582031 38.78125 0.472656 36.855469 C 0.417969 35.894531 0.738281 35.171875 1.605469 34.738281 C 2.226562 34.421875 2.839844 34.097656 3.480469 33.828125 C 5.152344 33.125 6.832031 32.453125 8.574219 31.734375 C 8.425781 31.285156 8.316406 30.820312 8.121094 30.398438 C 8.03125 30.210938 7.777344 30.085938 7.574219 29.980469 C 6.804688 29.597656 6.066406 29.183594 5.496094 28.511719 C 3.902344 26.632812 3.617188 23.96875 4.816406 21.8125 C 5.96875 19.730469 7.628906 18.179688 9.816406 17.234375 C 10.613281 16.890625 11.113281 16.269531 11.671875 15.609375 C 11.515625 15.527344 11.457031 15.476562 11.382812 15.457031 C 7.585938 14.507812 5.53125 10.660156 6.847656 6.933594 C 7.417969 5.320312 8.414062 3.996094 9.738281 2.945312 C 12.472656 0.773438 15.566406 0.0195312 18.992188 0.773438 C 20.390625 1.082031 21.609375 1.714844 22.355469 3.023438 C 22.542969 3.34375 22.820312 3.308594 23.109375 3.355469 C 24.132812 3.511719 25.179688 3.597656 26.171875 3.886719 C 27.515625 4.273438 28.640625 5.019531 29.226562 6.402344 C 29.300781 6.570312 29.574219 6.683594 29.777344 6.757812 C 30.800781 7.132812 31.859375 7.433594 32.863281 7.859375 C 34.496094 8.558594 35.144531 9.113281 36.183594 10.472656 C 37.339844 10.417969 38.503906 10.535156 39.625 10.921875 C 42.292969 11.851562 44.359375 13.46875 45.546875 16.109375 C 45.828125 16.75 46.097656 17.394531 46.421875 18.007812 C 46.75 18.617188 47.140625 19.191406 47.503906 19.777344 C 48.246094 19.671875 48.894531 19.53125 49.554688 19.484375 C 51.792969 19.320312 54.027344 19.164062 56.265625 19.050781 C 58.355469 18.945312 60.429688 19.023438 62.476562 19.789062 C 62.894531 19.242188 63.332031 18.738281 63.691406 18.183594 C 64.730469 16.589844 65.710938 14.957031 66.765625 13.371094 C 67.558594 12.164062 68.347656 10.9375 69.28125 9.84375 C 70.722656 8.152344 72.757812 7.746094 74.8125 8.558594 C 76.660156 9.289062 77.445312 10.683594 77.089844 12.644531 C 77.003906 13.121094 76.890625 13.59375 76.71875 14.042969 C 75.429688 17.453125 73.425781 20.363281 70.480469 22.535156 C 69.734375 23.082031 68.859375 23.460938 68.042969 23.90625 C 67.835938 24.019531 67.613281 24.09375 67.359375 24.199219 C 67.65625 24.710938 67.925781 25.171875 68.230469 25.707031 C 68.847656 25.539062 69.464844 25.398438 70.066406 25.195312 C 72.292969 24.457031 74.515625 23.707031 76.738281 22.941406 C 78.503906 22.332031 80.304688 21.953125 82.164062 22.226562 C 84.90625 22.617188 87.160156 23.832031 88.445312 26.402344 C 89.492188 28.496094 89.589844 30.628906 88.261719 32.683594 C 88.234375 32.722656 88.234375 32.78125 88.207031 32.898438 C 88.5 33.074219 88.8125 33.265625 89.125 33.457031 C 90.898438 34.539062 92.21875 35.992188 92.78125 38.054688 C 93.609375 41.121094 92.15625 44.101562 89.246094 45.316406 Z M 89.246094 45.316406 " fill-opacity="1" fill-rule="nonzero"/></g><path fill="#cb915a" d="M 10.992188 23.585938 C 10.546875 23.375 10.328125 23.636719 10.109375 23.863281 C 8.71875 25.273438 7.851562 26.910156 7.925781 28.957031 C 7.929688 29.058594 7.90625 29.167969 7.890625 29.339844 C 6.707031 28.957031 5.890625 28.1875 5.347656 27.140625 C 4.703125 25.90625 4.535156 24.578125 4.957031 23.234375 C 5.691406 20.871094 7.378906 19.320312 9.511719 17.992188 C 9.453125 18.300781 9.417969 18.472656 9.382812 18.644531 C 9.222656 19.410156 9.460938 20.082031 9.875 20.699219 C 11.15625 22.617188 12.988281 23.59375 15.25 23.765625 C 16.035156 23.824219 16.789062 23.625 17.433594 23.121094 C 18.316406 22.425781 18.386719 21.664062 17.589844 20.886719 C 16.09375 19.433594 14.371094 18.316406 12.410156 17.601562 C 11.972656 17.441406 11.5 17.386719 11.035156 17.28125 C 11.859375 16.257812 12.667969 15.242188 13.511719 14.195312 C 13.945312 15.273438 14.863281 15.789062 15.960938 15.984375 C 18.355469 16.414062 20.21875 14.523438 20.191406 12.3125 C 20.183594 11.207031 19.414062 10.34375 18.277344 9.996094 C 17.972656 9.902344 17.667969 9.84375 17.339844 9.765625 C 21.796875 5.375 32.289062 6.203125 35.59375 10.507812 C 35.253906 10.832031 34.585938 10.679688 34.371094 11.359375 C 34.574219 11.359375 34.730469 11.394531 34.859375 11.355469 C 36.359375 10.855469 37.867188 10.921875 39.347656 11.390625 C 41.9375 12.207031 43.933594 13.757812 45.082031 16.292969 C 45.335938 16.855469 45.605469 17.410156 45.851562 17.972656 C 46.550781 19.53125 47.636719 20.769531 49.003906 21.757812 C 49.890625 22.402344 50.832031 22.980469 51.679688 23.671875 C 52.292969 24.171875 52.886719 24.75 53.320312 25.40625 C 54.351562 26.945312 54.371094 28.578125 53.453125 30.195312 C 52.84375 31.269531 52.003906 32.132812 50.960938 32.769531 C 48.617188 34.207031 46.101562 34.917969 43.328125 34.53125 C 41.539062 34.28125 39.8125 33.886719 38.230469 32.976562 C 37.203125 32.378906 36.304688 31.636719 35.648438 30.578125 C 36 30.269531 36.339844 29.972656 36.777344 29.582031 C 36.097656 29.421875 35.8125 29.902344 35.332031 30.003906 C 35.234375 29.875 35.117188 29.714844 34.976562 29.523438 C 35.328125 29.226562 35.636719 28.960938 36.019531 28.640625 C 35.4375 28.371094 35.152344 28.871094 34.722656 28.878906 C 34.21875 27.921875 34.042969 26.863281 33.898438 25.804688 C 33.582031 23.542969 33.789062 21.304688 34.117188 19.0625 C 34.160156 18.742188 34.199219 18.425781 34.222656 18.101562 C 34.230469 18.03125 34.175781 17.960938 34.140625 17.859375 C 33.796875 17.941406 33.757812 18.222656 33.722656 18.46875 C 33.5625 19.691406 33.351562 20.914062 33.277344 22.140625 C 33.132812 24.542969 33.34375 26.917969 34.253906 29.167969 C 34.085938 29.394531 33.9375 29.597656 33.679688 29.945312 C 34.0625 29.894531 34.277344 29.863281 34.546875 29.828125 C 34.632812 29.972656 34.746094 30.144531 34.851562 30.3125 C 34.605469 30.578125 34.375 30.820312 34.121094 31.089844 C 34.613281 31.40625 34.8125 30.886719 35.238281 30.917969 C 36.746094 33.019531 38.945312 34.117188 41.464844 34.765625 C 41.304688 34.785156 41.144531 34.820312 40.988281 34.816406 C 39.351562 34.777344 37.746094 34.554688 36.183594 34.035156 C 33.117188 33.011719 31.484375 30.882812 31.144531 27.652344 C 30.796875 24.402344 31.175781 21.222656 31.835938 18.050781 C 31.890625 17.800781 31.914062 17.546875 31.953125 17.296875 C 31.898438 17.269531 31.84375 17.238281 31.792969 17.210938 C 31.679688 17.316406 31.503906 17.40625 31.460938 17.542969 C 31.242188 18.175781 31 18.808594 30.863281 19.460938 C 30.332031 21.96875 30.191406 24.515625 30.386719 27.074219 C 30.5 28.523438 30.757812 29.953125 31.503906 31.296875 C 31.359375 31.382812 31.242188 31.480469 31.105469 31.535156 C 28.433594 32.550781 25.722656 33.4375 22.886719 33.894531 C 19.285156 34.472656 15.707031 34.363281 12.164062 33.480469 C 12.058594 33.457031 11.957031 33.414062 11.855469 33.386719 C 9.875 32.847656 8.777344 31.550781 8.5625 29.503906 C 8.394531 27.890625 8.6875 26.402344 9.789062 25.148438 C 10.105469 24.785156 10.421875 24.421875 10.730469 24.046875 C 10.816406 23.921875 10.890625 23.757812 10.992188 23.585938 Z M 24.152344 20.851562 C 24.15625 20.835938 24.15625 20.828125 24.160156 20.8125 C 24.320312 20.8125 24.484375 20.816406 24.644531 20.8125 C 26.015625 20.785156 27.242188 19.777344 27.660156 18.339844 C 28.042969 17.046875 27.570312 15.746094 26.433594 14.953125 C 24.515625 13.609375 21.890625 14.320312 20.859375 16.457031 C 20.070312 18.101562 20.859375 20.011719 22.585938 20.566406 C 23.082031 20.722656 23.625 20.757812 24.152344 20.851562 Z M 48.140625 20.421875 C 48.585938 20.785156 49.027344 21.164062 49.488281 21.507812 C 50.417969 22.183594 51.402344 22.796875 52.292969 23.519531 C 53.816406 24.738281 54.707031 26.300781 54.554688 28.328125 C 54.457031 29.644531 53.847656 30.734375 53.011719 31.707031 C 51.65625 33.277344 49.914062 34.226562 47.945312 34.78125 C 45.84375 35.375 43.691406 35.539062 41.523438 35.507812 C 41.289062 35.5 41.058594 35.507812 40.84375 35.507812 C 40.402344 37.777344 39.558594 39.820312 38.578125 41.835938 C 38.738281 41.910156 38.832031 41.972656 38.933594 41.992188 C 41.289062 42.445312 43.632812 42.980469 46.007812 43.3125 C 49.664062 43.828125 53.351562 43.90625 57.039062 43.808594 C 58.878906 43.757812 60.707031 43.542969 62.515625 43.160156 C 63.859375 42.875 65.148438 42.453125 66.234375 41.558594 C 68.476562 39.695312 69.507812 37.242188 69.632812 34.367188 C 69.742188 31.574219 69.050781 28.941406 67.894531 26.425781 C 67.5625 25.707031 67.128906 25.027344 66.804688 24.429688 C 66.050781 24.390625 65.4375 24.402344 64.839844 24.316406 C 63.28125 24.097656 62.140625 23.214844 61.285156 21.941406 C 60.914062 21.390625 60.96875 21.214844 61.46875 20.796875 C 61.628906 20.664062 61.769531 20.519531 61.960938 20.34375 C 61.75 20.25 61.617188 20.171875 61.464844 20.125 C 60.332031 19.777344 59.164062 19.625 57.988281 19.660156 C 55.34375 19.738281 52.707031 19.867188 50.066406 20 C 49.441406 20.027344 48.820312 20.164062 48.199219 20.253906 C 48.179688 20.308594 48.160156 20.363281 48.140625 20.421875 Z M 25.65625 53.019531 C 25.832031 53.089844 25.921875 53.148438 26.019531 53.15625 C 27.746094 53.332031 29.308594 52.976562 30.605469 51.734375 C 34.320312 48.179688 37.0625 43.960938 39.011719 39.207031 C 39.503906 38.007812 39.847656 36.742188 40.269531 35.472656 C 36.984375 35.199219 33.941406 34.519531 31.824219 31.914062 C 29.75 32.605469 27.75 33.277344 25.6875 33.960938 C 26.105469 34.167969 26.480469 34.347656 26.835938 34.519531 C 27.335938 34.421875 27.5 33.785156 28.144531 33.816406 C 28.050781 34.019531 28.023438 34.179688 27.929688 34.277344 C 27.671875 34.546875 27.394531 34.800781 27.101562 35.035156 C 24.527344 37.144531 22.136719 39.449219 19.808594 41.816406 C 18.925781 42.714844 18.101562 43.667969 17.28125 44.625 C 16.988281 44.96875 16.761719 45.371094 16.546875 45.773438 C 16.039062 46.71875 16.144531 47.632812 16.761719 48.5 C 17.324219 49.304688 18.066406 49.910156 18.890625 50.429688 C 20.367188 51.363281 21.960938 52.027344 23.601562 52.628906 C 24.507812 52.960938 25.199219 52.792969 25.882812 52.214844 C 26.003906 52.113281 26.136719 52.015625 26.246094 51.902344 C 27.4375 50.707031 28.628906 49.507812 29.808594 48.308594 C 29.992188 48.121094 30.132812 47.894531 30.292969 47.691406 C 29.96875 47.414062 29.679688 47.171875 29.34375 46.886719 C 29.984375 46.410156 30.285156 47.160156 30.824219 47.058594 C 31.144531 46.65625 31.5 46.191406 31.855469 45.734375 C 31.675781 45.519531 31.523438 45.332031 31.378906 45.15625 C 31.695312 44.703125 32.007812 45.152344 32.351562 45.03125 C 32.636719 44.605469 32.953125 44.140625 33.25 43.664062 C 34.117188 42.277344 34.96875 40.878906 35.84375 39.496094 C 36.003906 39.242188 36.226562 39.03125 36.460938 38.757812 C 36.730469 39.222656 36.488281 39.496094 36.339844 39.746094 C 35.316406 41.449219 34.273438 43.136719 33.234375 44.828125 C 33.128906 45 33.035156 45.175781 32.9375 45.347656 C 33.226562 45.519531 33.457031 45.660156 33.742188 45.828125 C 33.269531 46.324219 32.847656 45.753906 32.40625 45.988281 C 32.078125 46.414062 31.714844 46.886719 31.339844 47.371094 C 31.679688 47.566406 31.917969 47.703125 32.207031 47.867188 C 31.734375 48.367188 31.34375 47.929688 30.84375 47.941406 C 29.300781 49.777344 27.589844 51.460938 25.65625 53.019531 Z M 68.074219 40.40625 C 69.726562 38.21875 70.292969 35.777344 70.214844 33.09375 C 70.765625 33.035156 71.289062 33 71.804688 32.925781 C 74.949219 32.492188 78.089844 31.960938 81.277344 32.054688 C 83.476562 32.117188 85.640625 32.40625 87.664062 33.355469 C 89.011719 33.988281 90.234375 34.796875 91.136719 36.007812 C 92.289062 37.550781 92.726562 39.261719 92.273438 41.167969 C 91.859375 42.914062 90.800781 44.109375 89.171875 44.8125 C 87.585938 45.492188 85.921875 45.636719 84.226562 45.523438 C 79.289062 45.199219 74.652344 43.753906 70.226562 41.578125 C 69.515625 41.222656 68.828125 40.816406 68.074219 40.40625 Z M 83.691406 34.148438 C 84.375 34.320312 85.050781 34.460938 85.707031 34.667969 C 86.394531 34.882812 87.054688 35.171875 87.734375 35.414062 C 88.367188 35.640625 88.910156 36.09375 89.640625 36.261719 C 89.597656 35.765625 89.269531 35.644531 89.015625 35.480469 C 87.527344 34.539062 85.875 34.035156 84.175781 33.664062 C 83.976562 33.617188 83.785156 33.550781 83.648438 33.507812 C 83.511719 33.148438 83.941406 32.800781 83.414062 32.519531 C 83.269531 32.824219 83.125 33.113281 82.96875 33.433594 C 82.476562 33.378906 81.980469 33.328125 81.566406 33.285156 C 81.3125 32.972656 81.652344 32.472656 81.054688 32.378906 C 80.964844 32.65625 80.878906 32.921875 80.78125 33.226562 C 80.636719 33.226562 80.507812 33.230469 80.375 33.226562 C 77.558594 33.144531 74.789062 33.476562 72.054688 34.160156 C 71.808594 34.21875 71.527344 34.21875 71.410156 34.683594 C 73.027344 34.429688 74.558594 34.117188 76.109375 33.96875 C 77.671875 33.816406 79.246094 33.824219 80.804688 33.761719 C 80.941406 34.171875 81.039062 34.476562 81.136719 34.78125 C 81.195312 34.777344 81.257812 34.769531 81.316406 34.765625 C 81.40625 34.480469 81.488281 34.199219 81.582031 33.898438 C 82.089844 33.953125 82.554688 34 82.980469 34.046875 C 83.113281 34.339844 83.203125 34.558594 83.371094 34.9375 C 83.519531 34.570312 83.59375 34.382812 83.691406 34.148438 Z M 87.660156 32.585938 C 86.71875 32.335938 85.855469 32.070312 84.972656 31.878906 C 83.273438 31.511719 81.542969 31.402344 79.800781 31.476562 C 77.316406 31.578125 74.863281 31.902344 72.410156 32.320312 C 71.703125 32.4375 70.984375 32.496094 70.167969 32.59375 C 70.007812 30.328125 69.320312 28.261719 68.503906 26.300781 C 71.46875 25.3125 74.34375 24.347656 77.230469 23.40625 C 79.628906 22.621094 82.042969 22.433594 84.429688 23.476562 C 86.976562 24.582031 88.449219 26.511719 88.660156 29.320312 C 88.746094 30.5 88.425781 31.597656 87.660156 32.585938 Z M 78.890625 24.230469 C 78.148438 24.367188 77.4375 24.476562 76.746094 24.640625 C 76.019531 24.816406 75.304688 25.042969 74.59375 25.257812 C 73.90625 25.46875 73.21875 25.6875 72.542969 25.925781 C 71.863281 26.167969 71.113281 26.253906 70.453125 26.769531 C 70.832031 27.015625 71.070312 26.851562 71.308594 26.78125 C 73.042969 26.257812 74.773438 25.726562 76.519531 25.230469 C 77.359375 24.996094 78.214844 24.832031 79.027344 24.796875 C 79.382812 25.152344 79.3125 25.710938 79.933594 25.890625 C 79.832031 25.460938 79.746094 25.117188 79.648438 24.707031 C 79.96875 24.679688 80.25 24.585938 80.480469 24.65625 C 80.714844 24.726562 80.90625 24.949219 81.148438 25.128906 C 81.25 24.949219 81.351562 24.785156 81.503906 24.527344 C 82.730469 24.738281 83.945312 24.949219 85.160156 25.15625 C 85 24.753906 85.011719 24.707031 84.628906 24.597656 C 83.9375 24.410156 83.234375 24.273438 82.527344 24.148438 C 82.117188 24.074219 81.699219 24.066406 81.328125 24.035156 C 81.230469 23.667969 81.15625 23.402344 81.089844 23.140625 C 81.015625 23.140625 80.941406 23.140625 80.867188 23.140625 C 80.804688 23.425781 80.742188 23.707031 80.660156 24.066406 C 80.273438 24.09375 79.863281 24.117188 79.523438 24.140625 C 79.304688 23.84375 79.542969 23.382812 79.007812 23.34375 C 78.960938 23.636719 78.929688 23.898438 78.890625 24.230469 Z M 13.367188 12.835938 C 13.664062 11.34375 14.574219 10.433594 15.984375 9.96875 C 16.230469 9.890625 16.496094 9.78125 16.664062 9.601562 C 17.496094 8.691406 18.503906 8.039062 19.625 7.585938 C 22.136719 6.558594 24.742188 6.09375 27.457031 6.378906 C 27.847656 6.417969 28.242188 6.449219 28.796875 6.492188 C 28.515625 6.097656 28.34375 5.804688 28.121094 5.558594 C 27.601562 4.996094 26.953125 4.605469 26.234375 4.386719 C 23.253906 3.503906 20.34375 3.355469 17.679688 5.363281 C 17.574219 5.441406 17.46875 5.539062 17.34375 5.574219 C 17.21875 5.609375 17.078125 5.585938 16.941406 5.585938 C 18.285156 4.109375 19.953125 3.417969 22.03125 3.320312 C 21.726562 2.957031 21.539062 2.671875 21.300781 2.445312 C 20.738281 1.933594 20.066406 1.59375 19.335938 1.40625 C 16.316406 0.632812 13.492188 1.101562 10.917969 2.84375 C 9.359375 3.898438 8.175781 5.296875 7.519531 7.109375 C 6.238281 10.664062 8.578125 14.582031 12.203125 14.949219 C 12.375 14.667969 12.566406 14.371094 12.734375 14.109375 C 11.78125 13.464844 10.910156 12.863281 9.964844 12.222656 C 9.800781 12.222656 9.558594 12.601562 9.21875 12.1875 C 9.378906 12.011719 9.542969 11.832031 9.742188 11.613281 C 9.648438 11.457031 9.539062 11.285156 9.441406 11.128906 C 9.144531 11.160156 8.890625 11.484375 8.578125 11.121094 C 8.796875 10.929688 8.988281 10.761719 9.179688 10.601562 C 8.734375 8.171875 8.796875 7.277344 9.550781 6.546875 C 9.597656 7.820312 9.289062 9.054688 9.835938 10.203125 C 10.230469 10.042969 10.582031 9.894531 10.933594 9.75 C 10.972656 9.8125 11.007812 9.875 11.046875 9.933594 C 10.71875 10.207031 10.398438 10.480469 10.050781 10.78125 C 10.164062 10.976562 10.257812 11.128906 10.328125 11.257812 C 10.730469 11.304688 10.976562 10.8125 11.46875 11.066406 C 11.203125 11.351562 10.972656 11.585938 10.734375 11.835938 C 11.351562 12.664062 12.203125 13.085938 13.152344 13.542969 C 13.234375 13.273438 13.324219 13.054688 13.367188 12.835938 Z M 15.332031 37.664062 C 13.644531 38.699219 11.929688 39.683594 10.148438 40.546875 C 8.375 41.410156 6.535156 42.140625 4.664062 42.953125 C 5.769531 43.5 6.851562 43.472656 7.941406 43.257812 C 9.394531 42.972656 10.730469 42.351562 12.027344 41.664062 C 15.507812 39.820312 18.738281 37.589844 21.84375 35.167969 C 22.046875 35.011719 22.21875 34.824219 22.519531 34.546875 C 21.851562 34.605469 21.347656 34.648438 20.847656 34.691406 C 17.734375 34.957031 14.660156 34.730469 11.640625 33.898438 C 10.8125 33.667969 10.015625 33.308594 9.414062 32.683594 C 9.054688 32.316406 8.757812 32.34375 8.351562 32.515625 C 6.671875 33.210938 4.984375 33.882812 3.3125 34.578125 C 2.84375 34.777344 2.40625 35.03125 1.941406 35.246094 C 1.167969 35.605469 0.953125 36.230469 1.035156 37.035156 C 1.214844 38.832031 1.957031 40.371094 3.089844 41.757812 C 3.640625 42.433594 4.195312 42.589844 5.03125 42.269531 C 7 41.503906 8.960938 40.734375 10.8125 39.714844 C 12.007812 39.054688 13.199219 38.402344 14.398438 37.753906 C 14.648438 37.621094 14.90625 37.507812 15.160156 37.382812 C 15.21875 37.46875 15.277344 37.566406 15.332031 37.664062 Z M 61.695312 21.222656 C 63.234375 19.871094 64.347656 18.230469 65.417969 16.5625 C 66.316406 15.164062 67.144531 13.722656 68.066406 12.339844 C 68.613281 11.523438 69.226562 10.730469 69.894531 10.007812 C 71.652344 8.085938 74.355469 8.546875 75.792969 9.691406 C 76.363281 10.148438 76.667969 10.761719 76.710938 11.496094 C 76.765625 12.316406 76.632812 13.109375 76.34375 13.867188 C 75.019531 17.359375 72.925781 20.277344 69.835938 22.421875 C 68.949219 23.035156 67.972656 23.464844 66.929688 23.730469 C 65.167969 24.171875 62.828125 23.546875 61.695312 21.222656 Z M 74.625 11.976562 C 73.902344 13.71875 73.332031 15.511719 72.320312 17.042969 C 71.894531 17.097656 71.625 16.5 71.199219 17 C 71.460938 17.214844 71.699219 17.410156 71.964844 17.636719 C 71.820312 17.835938 71.683594 18.023438 71.578125 18.164062 C 71.117188 18.230469 70.753906 17.558594 70.265625 18.191406 C 70.589844 18.390625 70.871094 18.5625 71.230469 18.789062 C 70.664062 19.410156 70.15625 20.039062 69.578125 20.582031 C 68.992188 21.125 68.367188 21.640625 67.695312 22.066406 C 67.042969 22.480469 66.304688 22.765625 65.527344 23.140625 C 66.320312 23.371094 67.550781 22.894531 68.992188 21.703125 C 69.976562 20.894531 70.84375 19.941406 71.800781 19.019531 C 71.941406 19.027344 72.160156 19.039062 72.503906 19.058594 C 72.320312 18.773438 72.214844 18.605469 72.09375 18.414062 C 72.199219 18.253906 72.316406 18.082031 72.425781 17.921875 C 72.71875 17.960938 72.976562 17.992188 73.230469 18.023438 C 73.25 17.972656 73.261719 17.921875 73.28125 17.871094 C 73.136719 17.699219 72.984375 17.523438 72.84375 17.359375 C 73.675781 15.628906 74.804688 14.027344 74.625 11.976562 Z M 74.625 11.976562 " fill-opacity="1" fill-rule="nonzero"/><path fill="#634c3b" d="M 17.59375 21.847656 C 17.03125 22.851562 16.140625 23.214844 15.09375 23.132812 C 13.15625 22.96875 11.566406 22.121094 10.429688 20.507812 C 10.230469 20.230469 10.070312 19.910156 9.964844 19.582031 C 9.695312 18.761719 10.179688 18.070312 11.039062 18.023438 C 11.328125 18.007812 11.636719 18.039062 11.910156 18.121094 C 14.054688 18.773438 15.847656 20 17.414062 21.582031 C 17.492188 21.65625 17.535156 21.757812 17.59375 21.847656 Z M 17.59375 21.847656 " fill-opacity="1" fill-rule="nonzero"/><path fill="#4d4d4f" d="M 17.414062 10.488281 C 16.890625 12.546875 17.089844 12.917969 19.242188 13.894531 C 18.125 16.007812 16.136719 15.914062 14.613281 14.714844 C 13.953125 14.1875 13.855469 13.386719 14.078125 12.574219 C 14.476562 11.152344 15.886719 10.277344 17.414062 10.488281 Z M 24.527344 17.488281 C 23.839844 16.660156 24.089844 15.757812 24.484375 14.875 C 23.03125 14.78125 21.777344 15.828125 21.367188 16.847656 C 20.980469 17.800781 21.1875 18.925781 21.992188 19.558594 C 22.972656 20.328125 24.113281 20.554688 25.308594 20.132812 C 26.167969 19.828125 26.800781 19.234375 27.109375 18.277344 C 26.101562 18.410156 25.195312 18.292969 24.527344 17.488281 Z M 24.527344 17.488281 " fill-opacity="1" fill-rule="nonzero"/><path fill="#ffffff" d="M 19.503906 13.183594 C 18.121094 13.234375 17.28125 12.183594 17.808594 11.054688 C 18.039062 10.566406 18.214844 10.507812 18.675781 10.773438 C 19.542969 11.257812 19.835938 12.121094 19.503906 13.183594 Z M 27.128906 16.6875 C 26.894531 16.027344 26.429688 15.566406 25.8125 15.246094 C 25.234375 14.949219 24.949219 15.058594 24.710938 15.675781 C 24.292969 16.769531 25.082031 17.773438 26.371094 17.773438 C 27.222656 17.773438 27.417969 17.503906 27.128906 16.6875 Z M 27.128906 16.6875 " fill-opacity="1" fill-rule="nonzero"/></svg>