<svg xmlns="http://www.w3.org/2000/svg" xmlns:xlink="http://www.w3.org/1999/xlink" width="126" zoomAndPan="magnify" viewBox="0 0 94.5 112.499997" height="150" preserveAspectRatio="xMidYMid meet" version="1.0"><defs><clipPath id="4922011f97"><path d="M 36 31.796875 L 68 31.796875 L 68 58 L 36 58 Z M 36 31.796875 " clip-rule="nonzero"/></clipPath><clipPath id="c7a238c6ef"><path d="M 1 96 L 53 96 L 53 111.625 L 1 111.625 Z M 1 96 " clip-rule="nonzero"/></clipPath></defs><path fill="#a96551" d="M 48.648438 64.863281 C 48.648438 64.863281 87.25 96.875 88.449219 96.480469 C 89.648438 96.085938 94.027344 91.148438 93.363281 89.460938 C 92.695312 87.769531 50.960938 61.558594 50.960938 61.558594 Z M 48.648438 64.863281 " fill-opacity="1" fill-rule="nonzero"/><path fill="#97503d" d="M 23.449219 60.257812 C 23.449219 60.257812 34.902344 53.476562 38.628906 38.574219 L 62.316406 55.019531 C 62.316406 55.019531 49.308594 63.480469 47.140625 76.703125 Z M 23.449219 60.257812 " fill-opacity="1" fill-rule="nonzero"/><path fill="#a96551" d="M 22.707031 57.902344 C 22.707031 57.902344 16.535156 63.128906 18.703125 65.863281 C 20.871094 68.59375 41.300781 84.308594 43.636719 83.171875 C 45.976562 82.03125 50.289062 77.046875 49.125 75.625 C 47.960938 74.207031 28.136719 59.828125 22.707031 57.902344 Z M 22.707031 57.902344 " fill-opacity="1" fill-rule="nonzero"/><g clip-path="url(#4922011f97)"><path fill="#a96551" d="M 41.273438 31.816406 C 41.273438 31.816406 35.101562 37.046875 37.269531 39.777344 C 39.433594 42.511719 59.863281 58.226562 62.199219 57.085938 C 64.539062 55.945312 68.851562 50.960938 67.6875 49.542969 C 66.527344 48.121094 46.703125 33.746094 41.273438 31.816406 Z M 41.273438 31.816406 " fill-opacity="1" fill-rule="nonzero"/></g><path fill="#c4773c" d="M 9.023438 98.867188 C 9.023438 98.867188 6.496094 92.574219 11.042969 90.8125 C 15.59375 89.050781 42.355469 88.078125 44.632812 90.726562 C 46.90625 93.375 46.539062 98.15625 45.839844 99.917969 Z M 9.023438 98.867188 " fill-opacity="1" fill-rule="nonzero"/><g clip-path="url(#c7a238c6ef)"><path fill="#d89355" d="M 2.324219 111.644531 C 2.324219 111.644531 0.0078125 101.054688 5.769531 98.820312 C 11.535156 96.589844 47.285156 95.496094 50.167969 98.847656 C 53.046875 102.203125 52.585938 108.261719 51.695312 110.492188 Z M 2.324219 111.644531 " fill-opacity="1" fill-rule="nonzero"/></g></svg>