<svg xmlns="http://www.w3.org/2000/svg" xmlns:xlink="http://www.w3.org/1999/xlink" width="126" zoomAndPan="magnify" viewBox="0 0 94.5 112.499997" height="150" preserveAspectRatio="xMidYMid meet" version="1.0"><defs><clipPath id="bbf9c2f0ba"><path d="M 5.035156 0.046875 L 89.339844 0.046875 L 89.339844 111.957031 L 5.035156 111.957031 Z M 5.035156 0.046875 " clip-rule="nonzero"/></clipPath><clipPath id="3a05c0b1a4"><path d="M 5.035156 31 L 89.339844 31 L 89.339844 111.957031 L 5.035156 111.957031 Z M 5.035156 31 " clip-rule="nonzero"/></clipPath><clipPath id="16bd77f731"><path d="M 38 61 L 89.339844 61 L 89.339844 89 L 38 89 Z M 38 61 " clip-rule="nonzero"/></clipPath><clipPath id="b91f48033f"><path d="M 38 61 L 89.339844 61 L 89.339844 88 L 38 88 Z M 38 61 " clip-rule="nonzero"/></clipPath><clipPath id="cb72aaba51"><path d="M 9 0.046875 L 89.339844 0.046875 L 89.339844 110 L 9 110 Z M 9 0.046875 " clip-rule="nonzero"/></clipPath></defs><g clip-path="url(#bbf9c2f0ba)"><path fill="#5c5f98" d="M 88.386719 61.90625 C 88.488281 61.902344 88.589844 61.90625 88.6875 61.910156 L 88.691406 61.910156 C 88.804688 61.914062 88.917969 61.921875 89.027344 61.933594 C 89.117188 61.945312 89.203125 61.957031 89.289062 61.972656 C 89.261719 61.996094 89.203125 62.058594 89.175781 62.085938 C 89.136719 62.117188 88.828125 62.296875 88.875 62.378906 C 88.878906 62.386719 88.886719 62.394531 88.894531 62.402344 L 88.902344 62.410156 L 88.925781 62.425781 L 88.929688 62.425781 L 88.941406 62.433594 L 88.953125 62.4375 L 88.957031 62.4375 L 88.96875 62.445312 L 88.972656 62.445312 L 89.019531 62.457031 L 89.023438 62.457031 L 89.027344 62.460938 L 89.050781 62.464844 L 89.066406 62.46875 C 89.167969 62.488281 89.277344 62.507812 89.316406 62.574219 C 89.347656 62.628906 89.128906 62.894531 89.105469 62.941406 C 89.097656 62.960938 89.09375 62.976562 89.089844 62.996094 L 89.089844 63.015625 C 89.089844 63.035156 89.089844 63.050781 89.09375 63.070312 L 89.097656 63.078125 L 89.101562 63.113281 L 89.101562 63.121094 L 89.105469 63.125 L 89.105469 63.152344 L 89.109375 63.160156 L 89.109375 63.167969 C 89.109375 63.171875 89.109375 63.175781 89.105469 63.179688 L 89.105469 63.203125 L 89.101562 63.207031 L 89.101562 63.214844 L 89.097656 63.21875 L 89.097656 63.222656 L 89.09375 63.230469 C 89.089844 63.234375 89.089844 63.238281 89.085938 63.238281 L 89.085938 63.242188 L 89.082031 63.246094 L 89.082031 63.25 L 89.078125 63.25 L 89.074219 63.253906 L 89.074219 63.257812 L 89.070312 63.257812 L 89.054688 63.273438 L 89.050781 63.273438 C 89.046875 63.277344 89.042969 63.28125 89.039062 63.28125 C 89.039062 63.28125 89.039062 63.285156 89.039062 63.285156 L 89.039062 63.289062 L 89.035156 63.296875 L 89.035156 63.300781 C 88.988281 63.40625 88.488281 63.964844 88.433594 64.027344 C 87.78125 64.777344 87.078125 65.535156 86.46875 66.324219 L 86.132812 66.765625 L 86.125 66.777344 L 85.988281 66.953125 L 85.769531 67.238281 L 85.613281 67.441406 L 85.4375 67.675781 L 85.417969 67.699219 L 85.246094 67.925781 L 85.089844 68.128906 L 85.078125 68.140625 L 85.066406 68.160156 L 84.945312 68.316406 L 84.914062 68.355469 L 84.910156 68.363281 L 84.886719 68.394531 L 84.769531 68.546875 L 84.738281 68.582031 L 84.734375 68.589844 L 84.710938 68.625 L 84.589844 68.78125 L 84.566406 68.8125 L 84.558594 68.816406 L 84.53125 68.855469 L 84.40625 69.011719 L 84.386719 69.039062 L 84.382812 69.042969 L 84.351562 69.085938 L 84.226562 69.246094 L 84.210938 69.265625 L 84.207031 69.269531 L 84.171875 69.316406 L 84.042969 69.476562 L 84.035156 69.492188 L 84.03125 69.496094 L 83.988281 69.546875 L 83.859375 69.710938 L 83.808594 69.777344 L 83.675781 69.941406 L 75.007812 81.179688 C 74.867188 81.449219 74.648438 81.699219 74.5 81.855469 C 74.476562 81.882812 74.453125 81.910156 74.429688 81.933594 L 70.046875 87.613281 C 69.957031 87.875 69.828125 88.097656 69.664062 88.304688 L 69.667969 88.304688 L 69.660156 88.308594 L 69.644531 88.332031 L 69.632812 88.347656 L 69.625 88.355469 L 69.617188 88.367188 L 69.59375 88.394531 L 69.589844 88.398438 C 69.578125 88.414062 69.566406 88.425781 69.550781 88.441406 L 69.550781 88.445312 L 69.527344 88.46875 L 69.515625 88.484375 L 69.464844 88.535156 C 69.453125 88.550781 69.441406 88.5625 69.425781 88.578125 L 69.421875 88.582031 L 69.417969 88.589844 L 69.386719 88.621094 L 69.378906 88.625 L 69.375 88.632812 L 69.367188 88.636719 L 69.335938 88.671875 L 69.332031 88.675781 L 69.328125 88.675781 L 69.328125 88.683594 L 69.324219 88.6875 L 69.324219 88.691406 L 69.316406 88.707031 L 69.3125 88.722656 L 69.3125 88.726562 C 69.273438 88.910156 69.300781 89.445312 69.167969 89.625 C 67.796875 91.433594 65.117188 92.152344 63.089844 92.84375 C 61.378906 93.429688 59.566406 94.175781 57.753906 94.378906 C 57.484375 94.410156 57.105469 94.386719 56.875 94.226562 C 56.683594 94.089844 56.457031 93.761719 56.1875 93.800781 C 56.171875 93.804688 56.152344 93.804688 56.132812 93.808594 C 56.148438 93.859375 56.171875 93.882812 56.203125 93.867188 C 56.539062 95.21875 56.386719 96.765625 56.457031 98.152344 C 56.570312 100.289062 56.871094 102.382812 57.117188 104.507812 C 57.257812 105.703125 57.351562 106.894531 57.582031 108.082031 C 57.660156 108.472656 57.71875 108.867188 57.8125 109.253906 C 57.855469 109.429688 58.171875 109.828125 57.996094 109.769531 C 57.390625 109.558594 56.308594 109.964844 55.667969 109.964844 C 53.191406 109.957031 50.691406 109.910156 48.214844 110.007812 C 40.625 110.308594 33.054688 110.484375 25.472656 110.964844 C 22.695312 111.144531 19.914062 111.320312 17.144531 111.546875 C 16.734375 111.582031 14.464844 111.90625 14.164062 111.527344 C 14.25 110.980469 14.320312 110.433594 14.378906 109.882812 C 14.402344 109.675781 14.421875 109.472656 14.441406 109.269531 L 14.445312 109.230469 L 14.460938 109.046875 L 14.46875 109.003906 C 14.519531 108.417969 14.570312 107.832031 14.617188 107.246094 L 14.636719 107.027344 L 14.640625 106.96875 L 14.648438 106.890625 L 14.65625 106.785156 L 14.660156 106.761719 L 14.660156 106.746094 L 14.664062 106.675781 L 14.679688 106.511719 L 14.679688 106.496094 L 14.683594 106.492188 C 14.691406 106.40625 14.695312 106.320312 14.703125 106.234375 L 14.707031 106.230469 L 14.707031 106.210938 L 14.722656 106.035156 L 14.726562 105.992188 L 14.730469 105.964844 L 14.734375 105.921875 L 14.742188 105.824219 L 14.75 105.742188 L 14.753906 105.699219 L 14.757812 105.664062 L 14.765625 105.609375 L 14.777344 105.480469 L 14.78125 105.433594 L 14.785156 105.410156 L 14.785156 105.394531 L 14.789062 105.367188 L 14.796875 105.300781 L 14.808594 105.199219 L 14.808594 105.175781 C 14.816406 105.113281 14.824219 105.050781 14.832031 104.988281 L 14.832031 104.96875 L 14.835938 104.945312 C 14.84375 104.882812 14.847656 104.820312 14.855469 104.761719 L 14.859375 104.753906 L 14.859375 104.734375 L 14.871094 104.636719 L 14.878906 104.5625 L 14.882812 104.539062 L 14.886719 104.527344 C 14.894531 104.464844 14.902344 104.402344 14.910156 104.34375 L 14.910156 104.328125 L 14.914062 104.304688 L 14.921875 104.238281 L 14.9375 104.121094 L 14.9375 104.113281 L 14.941406 104.105469 L 14.941406 104.089844 L 14.953125 104.007812 L 14.957031 103.988281 L 14.960938 103.972656 L 14.960938 103.949219 L 14.96875 103.898438 L 14.976562 103.863281 L 14.976562 103.839844 L 14.980469 103.820312 L 14.984375 103.792969 L 14.992188 103.734375 L 14.996094 103.707031 L 15 103.699219 C 15.003906 103.660156 15.011719 103.617188 15.019531 103.578125 L 15.035156 103.472656 L 15.035156 103.457031 L 15.039062 103.445312 L 15.042969 103.417969 L 15.050781 103.367188 L 15.058594 103.335938 L 15.0625 103.3125 L 15.0625 103.292969 L 15.070312 103.261719 L 15.082031 103.179688 L 15.085938 103.167969 C 15.09375 103.128906 15.097656 103.085938 15.105469 103.046875 C 15.34375 101.714844 15.457031 100.382812 15.617188 99.042969 L 15.621094 99.015625 L 15.621094 99.003906 L 15.625 98.988281 L 15.625 98.972656 L 15.628906 98.964844 L 15.628906 98.957031 L 15.632812 98.949219 L 15.632812 98.9375 L 15.636719 98.925781 L 15.636719 98.917969 L 15.640625 98.914062 L 15.640625 98.910156 L 15.644531 98.894531 L 15.644531 98.886719 L 15.648438 98.882812 L 15.652344 98.859375 L 15.652344 98.851562 C 15.65625 98.84375 15.660156 98.832031 15.664062 98.824219 C 15.667969 98.804688 15.671875 98.789062 15.675781 98.769531 L 15.679688 98.765625 L 15.679688 98.761719 C 15.683594 98.742188 15.691406 98.726562 15.695312 98.710938 L 15.699219 98.703125 L 15.71875 98.644531 C 15.726562 98.621094 15.734375 98.597656 15.742188 98.574219 L 15.742188 98.570312 L 15.75 98.550781 L 15.765625 98.503906 L 15.777344 98.480469 L 15.785156 98.449219 L 15.84375 98.285156 L 15.851562 98.265625 L 15.875 98.195312 L 15.878906 98.191406 L 15.902344 98.117188 L 15.90625 98.109375 L 15.925781 98.046875 L 15.941406 97.996094 L 15.949219 97.960938 L 15.960938 97.925781 L 15.972656 97.886719 C 16.046875 97.601562 16.0625 97.339844 15.910156 97.171875 C 15.289062 96.480469 15.003906 95.289062 14.679688 94.441406 C 14.054688 92.804688 13.398438 91.222656 12.90625 89.53125 C 12.667969 88.710938 12.429688 87.890625 12.183594 87.070312 C 12.117188 86.851562 12.046875 86.636719 11.976562 86.421875 C 11.945312 86.3125 12.023438 86.035156 11.921875 86.085938 C 8.683594 79.03125 6.121094 71.382812 5.425781 63.617188 C 5.171875 60.769531 5.039062 57.863281 5.199219 55.007812 C 5.253906 54.0625 5.757812 51.808594 5.339844 51.101562 C 6.113281 48.917969 7.164062 48.351562 8.710938 46.929688 C 11.023438 44.804688 13.71875 43.054688 16.222656 41.160156 C 17.574219 40.136719 19.003906 39.203125 20.414062 38.269531 C 20.914062 37.933594 21.359375 37.527344 21.886719 37.230469 C 21.914062 37.214844 22.519531 36.910156 22.628906 36.917969 L 22.636719 36.917969 C 22.640625 36.917969 22.640625 36.917969 22.640625 36.921875 L 22.644531 36.921875 C 22.644531 36.921875 22.644531 36.925781 22.644531 36.925781 L 22.644531 36.929688 C 22.644531 36.929688 22.644531 36.933594 22.644531 36.933594 C 22.65625 36.914062 22.667969 36.890625 22.675781 36.871094 L 22.679688 36.867188 L 22.6875 36.847656 L 22.707031 36.808594 L 22.714844 36.800781 L 22.726562 36.773438 L 22.734375 36.757812 L 22.738281 36.753906 L 22.746094 36.734375 L 22.78125 36.667969 C 23.488281 35.347656 24.425781 34.175781 25.414062 33.050781 C 25.761719 32.652344 26.09375 32.242188 26.457031 31.859375 C 26.523438 31.789062 26.648438 31.746094 26.769531 31.703125 L 26.824219 31.683594 L 26.875 31.667969 L 26.878906 31.664062 L 26.90625 31.65625 L 26.917969 31.652344 L 26.9375 31.644531 L 26.945312 31.640625 L 26.964844 31.632812 L 26.976562 31.625 L 26.980469 31.625 L 27 31.613281 L 27.019531 31.605469 L 27.019531 31.601562 L 27.023438 31.597656 L 27.03125 31.59375 L 27.035156 31.59375 L 27.042969 31.585938 L 27.054688 31.578125 L 27.0625 31.570312 L 27.0625 31.566406 L 27.074219 31.554688 L 27.074219 31.550781 L 27.082031 31.542969 L 27.085938 31.535156 L 27.085938 31.527344 L 27.089844 31.523438 L 27.089844 31.492188 L 27.082031 31.476562 L 27.082031 31.472656 L 27.078125 31.464844 L 27.078125 31.460938 L 27.070312 31.449219 L 28.476562 31.601562 L 28.492188 31.539062 C 28.496094 31.519531 28.5 31.503906 28.503906 31.492188 C 28.601562 30.957031 28.667969 30.410156 28.738281 29.867188 C 28.933594 28.390625 29.132812 26.917969 29.289062 25.4375 C 29.359375 24.777344 29.515625 24.113281 29.550781 23.453125 C 29.507812 23.449219 29.320312 23.320312 29.253906 23.257812 C 29.097656 23.121094 28.984375 22.941406 28.875 22.765625 C 28.542969 22.246094 28.300781 21.609375 28.101562 21.027344 C 27.617188 19.621094 27.535156 18.457031 27.863281 17 C 28.019531 16.304688 28.1875 15.664062 28.71875 15.160156 C 28.78125 15.101562 28.839844 15.050781 28.90625 15.007812 C 28.902344 14.472656 28.890625 13.9375 28.902344 13.402344 C 28.941406 11.835938 29.273438 10.5 29.742188 9.015625 C 30.003906 8.191406 30.207031 7.238281 30.734375 6.539062 C 32.167969 4.640625 34.101562 3.199219 36.328125 2.355469 C 37.042969 2.085938 37.761719 1.863281 38.5 1.671875 C 38.761719 1.601562 39.03125 1.5625 39.296875 1.511719 C 39.414062 1.488281 39.78125 1.5 39.660156 1.484375 C 39.328125 1.433594 39.011719 1.367188 38.683594 1.292969 C 38.507812 1.253906 38.160156 1.148438 38.160156 1.148438 C 38.160156 1.148438 38.449219 1.132812 38.589844 1.144531 C 38.867188 1.160156 39.140625 1.128906 39.414062 1.171875 C 39.707031 1.214844 40.144531 1.304688 40.425781 1.210938 C 40.769531 1.101562 41.097656 0.789062 41.472656 0.667969 C 41.796875 0.5625 42.125 0.464844 42.441406 0.335938 C 42.546875 0.292969 42.660156 0.253906 42.769531 0.21875 C 42.832031 0.199219 42.972656 0.0859375 42.960938 0.15625 C 42.953125 0.207031 42.65625 0.367188 42.605469 0.417969 C 42.363281 0.648438 42.246094 1.117188 41.996094 1.300781 C 42.277344 1.121094 42.703125 1.136719 43.019531 1.0625 C 44.167969 0.796875 45.324219 0.875 46.488281 1.011719 C 48.980469 1.308594 51.089844 2.402344 53.085938 3.828125 C 53.730469 4.289062 54.40625 4.761719 54.941406 5.351562 C 55.851562 6.359375 56.542969 7.613281 57.375 8.6875 C 58.023438 9.523438 58.878906 10.539062 59.710938 11.191406 C 60.023438 11.4375 60.410156 11.652344 60.773438 11.816406 C 60.882812 11.867188 61.167969 11.863281 61.09375 12.003906 C 61 12.1875 60.777344 12.296875 60.644531 12.453125 C 60.273438 12.898438 59.933594 13.347656 59.476562 13.714844 C 59.070312 14.039062 58.671875 14.308594 58.210938 14.542969 C 57.910156 14.695312 57.617188 14.828125 57.289062 14.917969 C 56.988281 15 56.085938 15.460938 55.769531 15.238281 C 55.75 15.226562 55.734375 15.214844 55.71875 15.199219 C 55.726562 15.082031 55.730469 14.953125 55.734375 14.824219 C 55.71875 15.199219 55.707031 15.570312 55.703125 15.621094 C 55.53125 17.339844 55.332031 19.125 54.871094 20.796875 C 54.472656 22.246094 53.652344 23.460938 53.132812 24.839844 C 52.554688 26.367188 52.269531 27.972656 51.527344 29.464844 C 50.347656 31.847656 48.667969 34.089844 47.109375 36.230469 C 46.8125 36.640625 46.453125 37.121094 46.046875 37.605469 C 46.644531 37.871094 47.242188 38.140625 47.84375 38.402344 L 47.980469 38.464844 C 48.875 38.855469 49.773438 39.234375 50.679688 39.601562 C 52.84375 40.46875 54.902344 41.40625 56.726562 42.859375 C 57.363281 43.363281 57.722656 43.921875 58.148438 44.59375 C 58.269531 44.78125 58.6875 45.578125 58.6875 45.578125 C 59.511719 51 59.054688 56.648438 59.070312 62.113281 C 59.074219 64.300781 59.414062 66.496094 59.488281 68.683594 C 59.492188 68.738281 59.488281 68.992188 59.476562 69.304688 L 59.527344 69.308594 L 59.578125 69.308594 L 59.609375 69.3125 L 59.632812 69.3125 L 59.675781 69.316406 L 59.710938 69.316406 L 59.726562 69.320312 L 59.761719 69.324219 C 59.796875 69.324219 59.832031 69.328125 59.867188 69.332031 L 59.886719 69.332031 L 59.925781 69.335938 L 59.960938 69.339844 L 59.972656 69.34375 L 59.984375 69.34375 L 60.003906 69.347656 L 60.074219 69.355469 L 60.078125 69.355469 C 60.109375 69.359375 60.136719 69.363281 60.167969 69.367188 L 60.1875 69.367188 L 60.230469 69.375 L 60.261719 69.378906 L 60.273438 69.378906 L 60.285156 69.382812 L 60.308594 69.386719 L 60.367188 69.394531 L 60.378906 69.394531 C 60.410156 69.398438 60.441406 69.40625 60.472656 69.410156 L 60.476562 69.410156 L 60.484375 69.414062 L 60.539062 69.421875 L 60.554688 69.421875 C 60.597656 69.429688 60.644531 69.4375 60.6875 69.445312 L 60.695312 69.445312 L 60.714844 69.449219 L 60.777344 69.460938 L 60.828125 69.46875 L 60.847656 69.472656 L 60.878906 69.480469 L 60.917969 69.484375 L 61.003906 69.5 L 61.082031 69.515625 L 61.132812 69.523438 L 61.15625 69.527344 L 61.269531 69.550781 L 61.472656 69.585938 L 61.507812 69.59375 L 61.652344 69.617188 L 61.769531 69.640625 L 61.902344 69.660156 L 61.960938 69.671875 L 61.984375 69.675781 L 62.070312 69.6875 L 62.089844 69.691406 L 62.160156 69.699219 L 62.1875 69.707031 L 62.25 69.714844 L 62.277344 69.71875 L 62.363281 69.726562 L 62.375 69.730469 L 62.449219 69.738281 L 62.476562 69.742188 L 62.539062 69.746094 L 62.5625 69.75 L 62.648438 69.757812 C 66.464844 70.078125 70.316406 70.28125 74.128906 70.691406 L 74.132812 70.664062 C 74.289062 69.496094 75.804688 68.261719 76.515625 67.410156 C 79 64.449219 82.449219 62.550781 86.289062 62.105469 C 86.835938 62.042969 87.4375 61.949219 88.027344 61.917969 L 88.046875 61.917969 L 88.054688 61.914062 L 88.113281 61.914062 L 88.136719 61.910156 L 88.21875 61.910156 L 88.25 61.90625 Z M 89.289062 61.972656 C 89.292969 61.972656 89.300781 61.960938 89.308594 61.964844 C 89.308594 61.964844 89.308594 61.96875 89.308594 61.972656 L 89.304688 61.976562 Z M 42.472656 40.113281 L 42.410156 40.113281 C 42.4375 40.113281 42.464844 40.113281 42.492188 40.113281 Z M 42.089844 40.097656 L 42.074219 40.097656 Z M 43.09375 40.023438 L 43.101562 40.023438 Z M 43.136719 40.011719 L 43.144531 40.007812 Z M 41.453125 39.992188 L 41.511719 40.003906 Z M 41.390625 39.976562 L 41.441406 39.992188 Z M 41.316406 39.960938 L 41.261719 39.945312 Z M 40.9375 39.851562 L 40.984375 39.867188 Z M 43.515625 39.84375 Z M 43.660156 39.765625 Z M 40.554688 39.71875 L 40.613281 39.738281 Z M 40.5 39.695312 L 40.546875 39.714844 Z M 40.441406 39.675781 L 40.476562 39.6875 Z M 40.425781 39.667969 L 40.410156 39.660156 Z M 43.867188 39.640625 L 43.871094 39.640625 L 43.863281 39.644531 Z M 40.320312 39.621094 L 40.339844 39.632812 Z M 40.265625 39.601562 L 40.304688 39.617188 Z M 43.90625 39.617188 L 43.929688 39.601562 Z M 40.234375 39.585938 L 40.210938 39.574219 Z M 43.96875 39.578125 L 43.972656 39.574219 L 43.984375 39.566406 L 43.988281 39.5625 Z M 44.144531 39.457031 L 44.109375 39.480469 L 44.117188 39.472656 Z M 44.226562 39.394531 L 44.167969 39.4375 L 44.21875 39.402344 Z M 39.839844 39.390625 L 39.871094 39.410156 Z M 39.78125 39.359375 L 39.824219 39.386719 Z M 44.292969 39.34375 L 44.246094 39.378906 L 44.265625 39.363281 Z M 39.738281 39.335938 L 39.777344 39.359375 Z M 44.367188 39.289062 C 44.347656 39.304688 44.328125 39.320312 44.304688 39.335938 Z M 39.664062 39.292969 L 39.648438 39.285156 Z M 44.429688 39.238281 L 44.378906 39.277344 L 44.40625 39.257812 Z M 44.503906 39.175781 C 44.484375 39.195312 44.464844 39.210938 44.445312 39.226562 Z M 39.382812 39.117188 L 39.40625 39.128906 C 39.433594 39.144531 39.457031 39.15625 39.476562 39.171875 L 39.511719 39.199219 L 39.476562 39.171875 C 39.453125 39.15625 39.417969 39.136719 39.382812 39.117188 Z M 44.566406 39.125 L 44.515625 39.167969 L 44.542969 39.144531 Z M 44.640625 39.0625 C 44.621094 39.078125 44.601562 39.097656 44.582031 39.113281 Z M 44.703125 39.007812 L 44.652344 39.050781 L 44.683594 39.027344 Z M 44.777344 38.941406 C 44.757812 38.960938 44.738281 38.976562 44.71875 38.996094 Z M 44.835938 38.886719 L 44.789062 38.933594 Z M 44.910156 38.820312 C 44.890625 38.835938 44.871094 38.855469 44.851562 38.875 Z M 38.261719 38.664062 C 38.339844 38.699219 38.414062 38.730469 38.492188 38.765625 C 38.414062 38.730469 38.339844 38.699219 38.261719 38.664062 L 38.152344 38.617188 Z M 44.96875 38.765625 L 44.921875 38.808594 L 44.953125 38.78125 Z M 45.042969 38.695312 C 45.023438 38.710938 45.003906 38.730469 44.988281 38.75 Z M 38.007812 38.554688 C 38.058594 38.574219 38.105469 38.597656 38.152344 38.617188 C 38.105469 38.597656 38.058594 38.574219 38.007812 38.554688 Z M 45.144531 38.597656 L 45.125 38.617188 L 45.128906 38.609375 Z M 37.917969 38.515625 L 37.972656 38.539062 L 37.917969 38.515625 L 37.859375 38.488281 Z M 45.226562 38.511719 L 45.207031 38.535156 L 45.21875 38.519531 Z M 37.683594 38.40625 C 37.730469 38.429688 37.777344 38.449219 37.824219 38.472656 C 37.777344 38.449219 37.730469 38.429688 37.683594 38.40625 Z M 37.574219 38.355469 L 37.585938 38.363281 L 37.574219 38.355469 L 37.558594 38.347656 Z M 45.402344 38.332031 L 45.382812 38.351562 Z M 45.480469 38.246094 L 45.464844 38.265625 L 45.476562 38.253906 Z M 45.652344 38.058594 L 45.636719 38.078125 L 45.644531 38.070312 Z M 45.730469 37.972656 L 45.71875 37.988281 L 45.726562 37.976562 Z M 45.808594 37.882812 Z M 45.898438 37.78125 L 45.882812 37.796875 L 45.890625 37.792969 Z M 36.308594 37.726562 L 36.304688 37.726562 Z M 45.972656 37.695312 L 45.964844 37.703125 Z M 35.296875 37.261719 L 35.414062 37.316406 L 35.296875 37.261719 L 35.113281 37.179688 Z M 35.097656 37.171875 L 35.101562 37.171875 L 35.097656 37.171875 L 35.082031 37.164062 Z M 34.894531 37.078125 L 34.921875 37.089844 L 34.894531 37.078125 L 34.863281 37.066406 Z M 34.695312 36.988281 L 34.734375 37.003906 L 34.695312 36.988281 L 34.664062 36.972656 Z M 34.59375 36.941406 L 34.636719 36.960938 L 34.59375 36.941406 L 34.507812 36.898438 Z M 33.960938 36.632812 C 34.140625 36.722656 34.320312 36.808594 34.5 36.894531 C 34.320312 36.808594 34.140625 36.722656 33.960938 36.632812 Z M 33.613281 36.449219 L 33.664062 36.476562 L 33.613281 36.449219 L 33.558594 36.417969 Z M 32.925781 36.03125 L 33.003906 36.082031 L 32.925781 36.03125 L 32.902344 36.019531 Z M 32.5 35.75 C 32.527344 35.769531 32.554688 35.785156 32.585938 35.804688 C 32.558594 35.785156 32.527344 35.769531 32.5 35.75 Z M 31.179688 34.792969 C 31.234375 34.832031 31.289062 34.875 31.34375 34.914062 L 31.664062 35.148438 C 31.445312 34.988281 31.230469 34.832031 31.019531 34.675781 Z M 30.410156 34.246094 L 30.480469 34.296875 L 30.410156 34.246094 L 30.382812 34.226562 Z M 28.964844 32.996094 C 28.984375 33.019531 29.003906 33.042969 29.023438 33.066406 C 29.003906 33.042969 28.984375 33.019531 28.964844 32.996094 Z M 28.636719 32.515625 C 28.722656 32.664062 28.816406 32.800781 28.917969 32.929688 C 28.828125 32.816406 28.746094 32.695312 28.667969 32.566406 Z M 28.515625 32.300781 C 28.53125 32.328125 28.546875 32.355469 28.558594 32.382812 L 28.546875 32.355469 Z M 28.402344 32.058594 Z M 28.398438 32.042969 L 28.398438 32.039062 Z M 28.398438 32.007812 L 28.398438 32.011719 Z M 28.402344 31.929688 Z M 29.550781 23.453125 L 29.550781 23.425781 C 29.5625 23.445312 29.5625 23.453125 29.550781 23.453125 Z M 33.652344 19.832031 C 33.683594 19.832031 33.714844 19.832031 33.746094 19.832031 Z M 33.984375 19.816406 C 33.988281 19.820312 33.988281 19.816406 33.992188 19.808594 C 33.988281 19.816406 33.988281 19.820312 33.984375 19.816406 Z M 32.859375 19.734375 C 32.957031 19.742188 33.054688 19.757812 33.15625 19.773438 C 33.054688 19.757812 32.957031 19.742188 32.859375 19.734375 Z M 32.109375 19.75 L 32.089844 19.746094 C 32.1875 19.765625 32.300781 19.746094 32.398438 19.730469 C 32.414062 19.730469 32.429688 19.726562 32.445312 19.726562 L 32.421875 19.730469 C 32.414062 19.730469 32.40625 19.730469 32.398438 19.730469 C 32.304688 19.742188 32.203125 19.765625 32.109375 19.75 Z M 32.058594 19.699219 C 32.0625 19.710938 32.070312 19.726562 32.078125 19.734375 C 32.070312 19.730469 32.066406 19.71875 32.0625 19.710938 Z M 34.003906 19.714844 L 34.007812 19.707031 C 34.007812 19.707031 34.007812 19.703125 34.007812 19.699219 L 34.007812 19.707031 Z M 32.046875 19.566406 L 32.042969 19.691406 C 32.046875 19.597656 32.050781 19.496094 32.054688 19.398438 C 32.050781 19.453125 32.050781 19.511719 32.046875 19.566406 Z M 34.375 18.914062 C 34.316406 19.054688 34.257812 19.195312 34.191406 19.328125 C 34.257812 19.195312 34.316406 19.054688 34.375 18.914062 Z M 34.585938 18.382812 L 34.613281 18.316406 C 34.566406 18.429688 34.519531 18.546875 34.476562 18.660156 C 34.511719 18.566406 34.546875 18.472656 34.585938 18.382812 Z M 32.058594 18.441406 C 32.0625 18.476562 32.0625 18.507812 32.0625 18.542969 C 32.0625 18.488281 32.058594 18.429688 32.058594 18.371094 Z M 34.78125 17.917969 Z M 32.011719 17.726562 C 32.003906 17.691406 32 17.65625 31.996094 17.621094 L 32.003906 17.6875 Z M 31.785156 16.664062 C 31.8125 16.746094 31.835938 16.828125 31.859375 16.910156 C 31.835938 16.828125 31.8125 16.746094 31.785156 16.664062 Z M 31.714844 16.464844 C 31.703125 16.4375 31.695312 16.410156 31.683594 16.382812 L 31.707031 16.445312 Z M 35.847656 15.617188 C 35.746094 15.800781 35.652344 15.984375 35.558594 16.171875 C 35.652344 15.984375 35.746094 15.800781 35.847656 15.617188 Z M 31.1875 15.558594 C 31.199219 15.570312 31.207031 15.582031 31.214844 15.589844 C 31.222656 15.601562 31.230469 15.609375 31.238281 15.621094 C 31.230469 15.609375 31.222656 15.601562 31.214844 15.589844 Z M 31.160156 15.527344 L 31.179688 15.546875 Z M 31.132812 15.496094 L 31.148438 15.515625 L 31.136719 15.5 Z M 31.101562 15.464844 L 31.121094 15.480469 L 31.109375 15.46875 Z M 31.074219 15.433594 L 31.089844 15.449219 L 31.078125 15.441406 Z M 31.042969 15.402344 L 31.058594 15.417969 Z M 31.011719 15.371094 L 31.027344 15.390625 L 31.019531 15.382812 Z M 30.980469 15.34375 L 30.996094 15.359375 Z M 30.945312 15.3125 L 30.964844 15.332031 L 30.960938 15.324219 Z M 30.914062 15.285156 L 30.933594 15.300781 L 30.929688 15.296875 Z M 30.875 15.253906 L 30.898438 15.273438 Z M 30.832031 15.21875 C 30.84375 15.230469 30.855469 15.238281 30.867188 15.246094 Z M 30.796875 15.195312 L 30.828125 15.21875 Z M 30.761719 15.167969 L 30.785156 15.183594 L 30.765625 15.171875 Z M 30.726562 15.144531 L 30.746094 15.160156 L 30.730469 15.148438 Z M 30.691406 15.121094 L 30.710938 15.132812 L 30.695312 15.125 Z M 30.652344 15.097656 L 30.671875 15.109375 L 30.660156 15.101562 Z M 30.617188 15.074219 L 30.636719 15.085938 L 30.625 15.078125 Z M 30.578125 15.050781 L 30.597656 15.0625 L 30.589844 15.058594 Z M 30.539062 15.027344 L 30.5625 15.039062 Z M 36.214844 15.039062 L 36.234375 15.023438 L 36.25 15.007812 C 36.238281 15.019531 36.226562 15.03125 36.214844 15.039062 Z M 30.5 15.007812 L 30.523438 15.019531 Z M 30.460938 14.988281 L 30.484375 15 L 30.480469 14.996094 Z M 28.941406 14.984375 L 28.9375 14.988281 Z M 30.421875 14.96875 L 30.445312 14.980469 Z M 28.976562 14.964844 Z M 30.367188 14.945312 C 30.382812 14.949219 30.394531 14.957031 30.40625 14.960938 Z M 29.015625 14.941406 L 29.011719 14.945312 Z M 30.328125 14.925781 L 30.363281 14.941406 L 30.332031 14.925781 Z M 36.4375 14.886719 C 36.40625 14.902344 36.375 14.917969 36.347656 14.9375 C 36.371094 14.921875 36.394531 14.910156 36.417969 14.898438 Z M 29.050781 14.921875 L 29.050781 14.925781 Z M 30.289062 14.910156 L 30.316406 14.921875 L 30.292969 14.910156 Z M 29.085938 14.90625 Z M 30.25 14.894531 L 30.273438 14.902344 L 30.253906 14.898438 Z M 30.210938 14.878906 L 30.230469 14.890625 L 30.214844 14.882812 Z M 30.167969 14.867188 L 30.191406 14.875 Z M 29.160156 14.875 Z M 30.128906 14.855469 L 30.152344 14.863281 Z M 29.199219 14.859375 Z M 30.085938 14.84375 L 30.109375 14.847656 L 30.101562 14.847656 Z M 29.238281 14.847656 L 29.234375 14.847656 Z M 30.046875 14.832031 L 30.070312 14.839844 L 30.0625 14.835938 Z M 29.277344 14.835938 L 29.273438 14.835938 Z M 30.003906 14.824219 L 30.027344 14.828125 L 30.023438 14.828125 Z M 29.3125 14.824219 L 29.335938 14.820312 Z M 29.964844 14.8125 L 29.988281 14.820312 L 29.980469 14.816406 Z M 29.390625 14.808594 L 29.355469 14.816406 Z M 29.921875 14.804688 L 29.945312 14.8125 L 29.941406 14.808594 Z M 29.429688 14.800781 L 29.410156 14.804688 L 29.433594 14.800781 Z M 55.738281 14.777344 L 55.734375 14.804688 L 55.738281 14.746094 Z M 29.863281 14.796875 C 29.878906 14.800781 29.890625 14.800781 29.90625 14.804688 Z M 29.46875 14.796875 L 29.453125 14.796875 L 29.472656 14.792969 Z M 29.824219 14.792969 L 29.851562 14.796875 Z M 29.507812 14.789062 L 29.492188 14.792969 L 29.515625 14.789062 Z M 29.78125 14.789062 L 29.804688 14.789062 Z M 29.546875 14.785156 L 29.535156 14.789062 L 29.554688 14.785156 Z M 29.738281 14.785156 L 29.761719 14.785156 Z M 29.585938 14.785156 L 29.574219 14.785156 L 29.597656 14.785156 Z M 29.699219 14.785156 L 29.722656 14.785156 Z M 29.625 14.78125 L 29.617188 14.785156 L 29.636719 14.78125 Z M 29.65625 14.78125 L 29.679688 14.78125 Z M 37.167969 14.679688 L 37.144531 14.6875 L 37.167969 14.679688 L 37.175781 14.679688 Z M 55.742188 14.632812 L 55.742188 14.667969 L 55.746094 14.621094 Z M 37.257812 14.652344 C 37.273438 14.648438 37.285156 14.644531 37.296875 14.636719 Z M 37.574219 14.46875 C 37.554688 14.488281 37.53125 14.507812 37.511719 14.523438 C 37.53125 14.507812 37.554688 14.488281 37.574219 14.46875 Z M 55.75 14.496094 L 55.75 14.507812 L 55.753906 14.472656 Z M 37.605469 14.441406 L 37.601562 14.445312 L 37.609375 14.4375 Z M 55.757812 14.363281 L 55.757812 14.386719 L 55.761719 14.347656 Z M 55.765625 14.304688 L 55.761719 14.332031 L 55.765625 14.273438 Z M 55.773438 14.191406 L 55.765625 14.257812 C 55.769531 14.234375 55.769531 14.210938 55.773438 14.191406 Z M 37.835938 14.140625 L 37.804688 14.179688 Z M 55.777344 14.148438 L 55.777344 14.152344 L 55.777344 14.144531 Z M 55.78125 14.109375 L 55.78125 14.113281 L 55.78125 14.105469 Z M 55.789062 14.074219 L 55.789062 14.070312 Z M 55.792969 14.042969 L 55.792969 14.046875 L 55.792969 14.039062 Z M 55.796875 14.03125 L 55.792969 14.035156 L 55.796875 14.027344 Z M 55.800781 14.015625 L 55.796875 14.023438 C 55.800781 14.019531 55.800781 14.015625 55.800781 14.015625 Z M 55.804688 14.007812 Z M 55.804688 14.003906 L 55.808594 14.003906 Z M 55.808594 14.003906 Z M 38.585938 12.996094 C 38.523438 13.074219 38.460938 13.152344 38.402344 13.234375 C 38.460938 13.152344 38.523438 13.074219 38.585938 12.996094 Z M 54.9375 13.070312 C 54.90625 13.046875 54.875 13.023438 54.839844 13.003906 L 54.90625 13.046875 Z M 54.257812 12.617188 C 54.296875 12.644531 54.335938 12.671875 54.375 12.699219 L 54.320312 12.660156 Z M 39.113281 12.335938 L 39.074219 12.382812 L 39.113281 12.335938 L 39.167969 12.265625 Z M 53.019531 11.71875 C 53.238281 11.875 53.457031 12.035156 53.671875 12.195312 C 53.457031 12.035156 53.238281 11.878906 53.019531 11.71875 Z M 39.402344 11.949219 C 39.390625 11.964844 39.378906 11.984375 39.363281 12.003906 C 39.378906 11.984375 39.390625 11.964844 39.402344 11.949219 Z M 39.507812 11.796875 L 39.488281 11.824219 Z M 51.824219 10.902344 C 51.902344 10.957031 51.984375 11.011719 52.066406 11.0625 C 51.917969 10.964844 51.765625 10.863281 51.617188 10.765625 Z M 50.140625 9.859375 C 50.417969 10.015625 50.691406 10.179688 50.960938 10.347656 C 50.65625 10.15625 50.347656 9.972656 50.03125 9.796875 Z M 48.761719 9.171875 C 48.707031 9.148438 48.648438 9.125 48.59375 9.101562 L 48.707031 9.148438 Z M 41.792969 8.925781 C 41.792969 8.929688 41.789062 8.9375 41.785156 8.941406 C 41.789062 8.9375 41.792969 8.929688 41.792969 8.925781 Z M 41.828125 8.839844 C 41.828125 8.839844 41.824219 8.84375 41.824219 8.84375 L 41.824219 8.851562 C 41.824219 8.847656 41.824219 8.847656 41.824219 8.84375 Z M 47.882812 8.84375 C 47.851562 8.835938 47.820312 8.824219 47.789062 8.816406 L 47.847656 8.832031 Z M 42.214844 8.730469 C 42.117188 8.742188 42.019531 8.757812 41.945312 8.78125 C 42.019531 8.757812 42.117188 8.742188 42.214844 8.730469 Z M 47.554688 8.746094 L 47.613281 8.761719 L 47.617188 8.765625 C 47.597656 8.757812 47.574219 8.753906 47.554688 8.746094 Z M 42.339844 8.714844 L 42.292969 8.722656 L 42.339844 8.714844 L 42.351562 8.714844 Z M 42.773438 8.671875 L 42.652344 8.6875 L 42.773438 8.671875 L 42.890625 8.65625 Z M 44.71875 8.5 C 44.335938 8.519531 43.960938 8.546875 43.585938 8.582031 L 43.746094 8.566406 C 44.121094 8.535156 44.5 8.511719 44.882812 8.488281 Z M 46.652344 8.550781 L 46.714844 8.5625 C 46.753906 8.566406 46.796875 8.574219 46.835938 8.582031 C 46.773438 8.570312 46.714844 8.5625 46.652344 8.550781 Z M 46.347656 8.511719 L 46.371094 8.511719 L 46.347656 8.511719 L 46.328125 8.507812 Z M 45.59375 8.464844 C 45.636719 8.464844 45.679688 8.464844 45.722656 8.46875 L 45.660156 8.464844 C 45.617188 8.464844 45.574219 8.464844 45.53125 8.464844 Z M 33.507812 19.820312 C 33.539062 19.824219 33.570312 19.824219 33.601562 19.828125 Z M 34.058594 19.597656 C 34.046875 19.617188 34.039062 19.636719 34.03125 19.65625 L 34.050781 19.609375 Z M 35.039062 17.308594 L 34.953125 17.511719 Z M 35.171875 17.003906 C 35.273438 16.773438 35.378906 16.539062 35.488281 16.308594 C 35.363281 16.574219 35.242188 16.839844 35.125 17.105469 Z M 31.574219 16.144531 L 31.601562 16.203125 C 31.558594 16.113281 31.511719 16.027344 31.460938 15.945312 C 31.5 16.007812 31.539062 16.074219 31.574219 16.144531 Z M 36.195312 15.0625 C 36.1875 15.074219 36.179688 15.082031 36.171875 15.09375 L 36.183594 15.074219 Z M 36.480469 14.871094 C 36.488281 14.867188 36.5 14.859375 36.507812 14.859375 C 36.492188 14.863281 36.476562 14.871094 36.457031 14.878906 Z M 37.339844 14.621094 L 37.320312 14.628906 C 37.351562 14.617188 37.382812 14.601562 37.414062 14.585938 C 37.390625 14.597656 37.367188 14.609375 37.339844 14.621094 Z M 55.234375 13.3125 L 55.238281 13.3125 L 55.265625 13.339844 C 55.253906 13.328125 55.246094 13.320312 55.234375 13.3125 Z M 39.894531 11.191406 L 39.824219 11.304688 L 39.757812 11.414062 C 39.804688 11.339844 39.847656 11.265625 39.894531 11.191406 Z M 40.242188 10.644531 C 40.300781 10.554688 40.363281 10.464844 40.425781 10.375 L 40.460938 10.320312 C 40.359375 10.460938 40.265625 10.605469 40.171875 10.753906 Z M 40.539062 10.214844 C 40.550781 10.199219 40.566406 10.179688 40.578125 10.164062 L 40.617188 10.113281 C 40.578125 10.164062 40.539062 10.214844 40.5 10.269531 Z M 40.703125 10.007812 C 40.714844 9.988281 40.730469 9.972656 40.746094 9.953125 L 40.789062 9.902344 C 40.746094 9.953125 40.703125 10.007812 40.660156 10.058594 Z M 40.96875 9.691406 C 41.046875 9.609375 41.125 9.527344 41.207031 9.449219 C 41.109375 9.542969 41.015625 9.640625 40.921875 9.746094 Z M 41.375 9.300781 L 41.359375 9.3125 C 41.375 9.296875 41.375 9.300781 41.390625 9.285156 L 41.421875 9.261719 C 41.40625 9.273438 41.390625 9.289062 41.375 9.300781 Z M 41.707031 9.039062 C 41.644531 9.105469 41.566406 9.160156 41.488281 9.214844 L 41.453125 9.238281 C 41.539062 9.179688 41.636719 9.113281 41.707031 9.039062 Z M 47.257812 8.671875 L 47.316406 8.683594 C 47.257812 8.671875 47.195312 8.65625 47.136719 8.644531 C 47.175781 8.652344 47.21875 8.660156 47.257812 8.671875 Z M 47.257812 8.671875 " fill-opacity="1" fill-rule="evenodd"/></g><g clip-path="url(#3a05c0b1a4)"><path fill="#5c5f98" d="M 56.890625 88.585938 C 56.710938 89.5 56.554688 90.417969 56.414062 91.347656 C 56.316406 92.007812 56.125 92.695312 56.09375 93.363281 C 56.09375 93.402344 56.085938 93.929688 56.203125 93.867188 C 56.539062 95.21875 56.386719 96.765625 56.457031 98.152344 C 56.570312 100.289062 56.871094 102.378906 57.117188 104.507812 C 57.257812 105.703125 57.351562 106.894531 57.582031 108.078125 C 57.660156 108.46875 57.71875 108.867188 57.8125 109.253906 C 57.855469 109.429688 58.171875 109.828125 57.996094 109.769531 C 57.390625 109.558594 56.308594 109.964844 55.667969 109.960938 C 53.191406 109.957031 50.691406 109.910156 48.214844 110.007812 C 40.625 110.308594 33.054688 110.484375 25.472656 110.964844 C 22.695312 111.144531 19.914062 111.320312 17.140625 111.546875 C 16.734375 111.582031 14.464844 111.90625 14.164062 111.527344 C 14.605469 108.71875 14.605469 105.867188 15.105469 103.046875 C 15.34375 101.714844 15.457031 100.382812 15.617188 99.042969 C 15.679688 98.507812 16.269531 97.570312 15.910156 97.171875 C 15.289062 96.484375 15.003906 95.289062 14.679688 94.441406 C 14.054688 92.804688 13.398438 91.222656 12.90625 89.535156 C 12.667969 88.710938 12.429688 87.890625 12.183594 87.070312 C 12.117188 86.851562 12.046875 86.636719 11.976562 86.421875 C 11.945312 86.3125 12.023438 86.035156 11.921875 86.085938 C 8.683594 79.03125 6.121094 71.382812 5.425781 63.617188 C 5.171875 60.769531 5.039062 57.863281 5.199219 55.007812 C 5.253906 54.0625 5.757812 51.808594 5.339844 51.101562 C 6.113281 48.917969 7.164062 48.351562 8.710938 46.929688 C 11.023438 44.804688 13.71875 43.054688 16.222656 41.160156 C 17.574219 40.136719 19.003906 39.203125 20.414062 38.269531 C 20.914062 37.933594 21.359375 37.527344 21.886719 37.230469 C 21.917969 37.210938 22.671875 36.832031 22.644531 36.933594 C 23.363281 35.503906 24.359375 34.25 25.414062 33.050781 C 25.761719 32.652344 26.09375 32.242188 26.457031 31.859375 C 26.625 31.679688 27.199219 31.660156 27.070312 31.449219 L 28.476562 31.601562 C 28.4375 31.753906 28.375 31.992188 28.40625 32.066406 C 28.972656 33.359375 29.898438 33.867188 31.019531 34.675781 C 31.878906 35.296875 32.769531 35.996094 33.703125 36.496094 C 34.742188 37.054688 35.851562 37.476562 36.898438 38.023438 C 37.496094 38.335938 38.105469 38.601562 38.726562 38.867188 C 38.910156 38.945312 39.308594 39.054688 39.476562 39.171875 C 40.289062 39.742188 42.167969 40.386719 43.175781 39.996094 C 44.195312 39.601562 45.214844 38.601562 46.046875 37.605469 C 47.582031 38.292969 49.121094 38.972656 50.679688 39.601562 C 52.84375 40.46875 54.902344 41.40625 56.726562 42.859375 C 57.363281 43.363281 57.722656 43.921875 58.148438 44.59375 C 58.269531 44.78125 58.6875 45.582031 58.6875 45.582031 C 59.511719 51 59.054688 56.648438 59.070312 62.113281 C 59.074219 64.300781 59.414062 66.496094 59.492188 68.6875 C 59.492188 68.738281 59.488281 68.992188 59.480469 69.304688 C 60.523438 69.34375 61.652344 69.675781 62.648438 69.757812 C 66.464844 70.078125 70.316406 70.28125 74.128906 70.691406 C 74.265625 69.519531 75.796875 68.269531 76.515625 67.410156 C 79 64.449219 82.449219 62.550781 86.289062 62.109375 C 87.234375 62 88.347656 61.800781 89.289062 61.972656 C 89.261719 61.996094 89.203125 62.058594 89.175781 62.085938 C 89.136719 62.117188 88.828125 62.296875 88.875 62.378906 C 88.941406 62.492188 89.246094 62.453125 89.316406 62.574219 C 89.347656 62.625 89.128906 62.894531 89.105469 62.941406 C 89.046875 63.058594 89.183594 63.199219 89.039062 63.28125 C 89.070312 63.3125 88.492188 63.960938 88.4375 64.023438 C 87.78125 64.777344 87.078125 65.535156 86.46875 66.324219 C 85.558594 67.511719 84.632812 68.742188 83.675781 69.941406 L 69.5625 88.242188 Z M 89.289062 61.972656 L 89.304688 61.976562 C 89.3125 61.957031 89.304688 61.960938 89.289062 61.972656 Z M 89.289062 61.972656 " fill-opacity="1" fill-rule="evenodd"/></g><path fill="#ffffff" d="M 26.769531 31.703125 C 26.964844 31.636719 27.148438 31.578125 27.070312 31.449219 L 28.476562 31.601562 C 28.472656 31.625 28.464844 31.652344 28.457031 31.675781 L 28.453125 31.691406 L 28.445312 31.71875 L 28.445312 31.730469 L 28.4375 31.761719 L 28.433594 31.773438 L 28.433594 31.777344 L 28.429688 31.785156 L 28.429688 31.796875 L 28.425781 31.816406 L 28.421875 31.824219 C 28.417969 31.839844 28.417969 31.851562 28.414062 31.867188 L 28.414062 31.871094 L 28.410156 31.894531 L 28.40625 31.902344 L 28.40625 31.925781 L 28.402344 31.929688 C 28.402344 31.9375 28.402344 31.945312 28.402344 31.953125 L 28.402344 31.960938 L 28.398438 31.96875 L 28.398438 32.019531 C 28.398438 32.023438 28.398438 32.027344 28.398438 32.03125 L 28.398438 32.042969 L 28.402344 32.042969 L 28.402344 32.058594 C 28.40625 32.0625 28.40625 32.0625 28.40625 32.066406 C 28.972656 33.359375 29.898438 33.867188 31.019531 34.675781 C 31.878906 35.296875 32.769531 35.996094 33.703125 36.496094 C 34.742188 37.054688 35.851562 37.476562 36.898438 38.023438 C 37.496094 38.335938 38.105469 38.601562 38.726562 38.863281 C 38.910156 38.945312 39.308594 39.054688 39.476562 39.171875 C 40.113281 39.617188 41.398438 40.109375 42.410156 40.113281 L 42.472656 40.113281 C 42.730469 40.113281 42.972656 40.074219 43.175781 39.996094 L 43.210938 39.984375 L 43.226562 39.976562 L 43.230469 39.972656 L 43.246094 39.96875 L 43.265625 39.960938 L 43.273438 39.957031 L 43.277344 39.957031 C 43.289062 39.949219 43.304688 39.945312 43.320312 39.9375 L 43.328125 39.933594 L 43.347656 39.925781 L 43.363281 39.917969 L 43.367188 39.914062 L 43.375 39.914062 L 43.414062 39.894531 L 43.417969 39.890625 C 43.429688 39.886719 43.445312 39.878906 43.460938 39.871094 L 43.464844 39.871094 L 43.511719 39.847656 L 43.515625 39.84375 C 43.53125 39.835938 43.542969 39.828125 43.558594 39.820312 L 43.589844 39.804688 L 43.601562 39.800781 L 43.605469 39.796875 L 43.613281 39.792969 L 43.625 39.785156 L 43.644531 39.773438 L 43.65625 39.769531 L 43.703125 39.742188 L 43.71875 39.730469 L 43.726562 39.726562 L 43.730469 39.722656 C 43.773438 39.699219 43.816406 39.675781 43.859375 39.648438 L 43.867188 39.640625 C 44 39.558594 44.132812 39.464844 44.265625 39.363281 C 45.570312 43.375 47.164062 47.324219 48.484375 51.332031 C 48.902344 52.59375 49.082031 53.90625 49.410156 55.1875 C 49.515625 55.59375 49.722656 56.234375 49.769531 56.601562 C 50.320312 60.738281 49.988281 65.230469 49.753906 69.378906 C 49.691406 70.542969 49.3125 71.8125 49.417969 72.980469 C 48.234375 71.460938 47.679688 69.546875 46.765625 67.867188 C 44.785156 64.238281 42.230469 60.894531 40.167969 57.304688 C 39.375 55.925781 38.40625 54.632812 37.570312 53.273438 C 37.378906 52.964844 36.976562 52.25 36.785156 51.90625 C 34.714844 48.183594 32.261719 44.492188 29.804688 41.011719 C 28.324219 38.910156 26.535156 36.164062 26.394531 33.515625 C 26.359375 32.863281 26.554688 32.277344 26.769531 31.703125 Z M 26.769531 31.703125 " fill-opacity="0.54" fill-rule="evenodd"/><g clip-path="url(#16bd77f731)"><path fill="#ee8454" d="M 38.054688 86.742188 C 38.058594 86.722656 38.058594 86.703125 38.058594 86.691406 C 38.089844 85.808594 38.199219 84.625 38.457031 83.777344 C 38.527344 83.542969 38.5625 83.164062 38.757812 83 C 38.789062 83.058594 39.105469 82.847656 39.136719 82.828125 C 39.535156 82.609375 39.914062 82.359375 40.285156 82.101562 C 41.839844 81.011719 43.355469 79.859375 44.9375 78.8125 C 46.414062 77.832031 47.734375 76.628906 49.167969 75.589844 C 50.722656 74.46875 52.355469 73.453125 53.929688 72.363281 C 55.195312 71.488281 56.53125 70.214844 57.925781 69.566406 C 59.300781 68.925781 61.125 69.632812 62.648438 69.757812 C 66.464844 70.078125 70.316406 70.28125 74.128906 70.691406 C 74.265625 69.519531 75.796875 68.269531 76.515625 67.410156 C 79 64.449219 82.449219 62.550781 86.289062 62.109375 C 87.234375 62 88.347656 61.796875 89.289062 61.972656 C 89.261719 61.996094 89.203125 62.058594 89.175781 62.085938 C 89.136719 62.117188 88.828125 62.296875 88.875 62.378906 C 88.941406 62.492188 89.246094 62.453125 89.316406 62.570312 C 89.347656 62.625 89.128906 62.894531 89.105469 62.941406 C 89.046875 63.058594 89.183594 63.199219 89.039062 63.28125 C 89.070312 63.3125 88.492188 63.960938 88.433594 64.023438 C 87.78125 64.777344 87.078125 65.535156 86.46875 66.324219 C 85.558594 67.511719 84.632812 68.742188 83.675781 69.941406 L 69.5625 88.242188 L 53.007812 88.691406 L 52.992188 88.511719 L 50.070312 88.378906 L 39.960938 87.128906 Z M 89.289062 61.972656 L 89.304688 61.976562 C 89.3125 61.957031 89.304688 61.960938 89.289062 61.972656 Z M 89.289062 61.972656 " fill-opacity="0.27" fill-rule="evenodd"/></g><g clip-path="url(#b91f48033f)"><path fill="#ffffff" d="M 38.054688 86.742188 C 38.058594 86.722656 38.058594 86.703125 38.058594 86.691406 C 38.089844 85.808594 38.199219 84.625 38.457031 83.777344 C 38.527344 83.542969 38.5625 83.164062 38.757812 83 C 38.789062 83.058594 39.105469 82.847656 39.136719 82.828125 C 39.535156 82.609375 39.914062 82.359375 40.285156 82.101562 C 41.839844 81.011719 43.355469 79.859375 44.9375 78.8125 C 46.414062 77.832031 47.734375 76.628906 49.167969 75.589844 C 50.722656 74.46875 52.355469 73.453125 53.929688 72.363281 C 55.195312 71.488281 56.53125 70.214844 57.925781 69.566406 C 59.300781 68.925781 61.125 69.632812 62.648438 69.757812 C 66.464844 70.078125 70.316406 70.28125 74.128906 70.691406 C 74.265625 69.519531 75.796875 68.269531 76.515625 67.410156 C 79 64.449219 82.449219 62.550781 86.289062 62.109375 C 87.234375 62 88.347656 61.796875 89.289062 61.972656 C 89.261719 61.996094 89.203125 62.058594 89.175781 62.085938 C 89.136719 62.117188 88.828125 62.296875 88.875 62.378906 C 88.941406 62.492188 89.246094 62.453125 89.316406 62.570312 C 89.347656 62.625 89.128906 62.894531 89.105469 62.941406 C 89.046875 63.058594 89.183594 63.199219 89.039062 63.28125 C 89.070312 63.3125 88.492188 63.960938 88.433594 64.023438 C 87.78125 64.777344 87.078125 65.535156 86.46875 66.324219 C 84.613281 68.742188 82.714844 71.332031 80.554688 73.496094 C 79.722656 74.332031 78.992188 75.230469 78.179688 76.078125 C 77.890625 76.378906 77.222656 76.890625 77.105469 77.308594 C 77.089844 77.203125 76.699219 77.238281 76.640625 77.234375 C 76.09375 77.179688 75.558594 77.125 75.015625 77.085938 C 72.714844 76.921875 70.40625 76.648438 68.121094 76.328125 C 65.203125 75.914062 62.253906 75.671875 59.355469 75.117188 C 58.648438 74.980469 57.9375 74.878906 57.222656 74.777344 C 57.144531 74.765625 56.546875 74.597656 56.511719 74.621094 C 53.175781 76.867188 50.203125 79.664062 47.0625 82.171875 C 44.824219 83.964844 42.449219 85.546875 40.078125 87.144531 L 39.960938 87.128906 Z M 89.289062 61.972656 L 89.304688 61.976562 C 89.3125 61.957031 89.304688 61.960938 89.289062 61.972656 Z M 89.289062 61.972656 " fill-opacity="0.39" fill-rule="evenodd"/></g><path fill="#ee8454" d="M 49.59375 88.757812 C 49.644531 88.882812 50.363281 88.585938 50.417969 88.566406 C 51.246094 88.253906 52.167969 88.027344 52.925781 87.5625 C 53.050781 87.625 53.003906 87.300781 53.054688 87.171875 C 53.167969 86.890625 53.265625 86.605469 53.375 86.324219 C 53.707031 85.484375 53.960938 84.214844 54.539062 83.503906 C 54.675781 83.335938 55.050781 83.292969 55.230469 83.214844 C 55.675781 83.019531 56.121094 82.789062 56.539062 82.546875 C 58.136719 81.613281 59.699219 80.644531 61.289062 79.699219 C 61.785156 79.402344 62.644531 78.773438 63.28125 78.902344 C 64.03125 79.054688 64.144531 80.257812 63.949219 80.835938 C 63.71875 81.519531 62.878906 82.167969 62.363281 82.65625 C 61.6875 83.292969 61.136719 84.015625 60.59375 84.765625 C 62.625 83.847656 64.886719 83.386719 67 82.710938 C 69.03125 82.058594 71.042969 81.296875 73.0625 80.609375 C 73.460938 80.476562 74.644531 79.882812 75.027344 80.34375 C 75.414062 80.8125 74.800781 81.535156 74.5 81.855469 C 73.742188 82.675781 72.648438 83.230469 71.707031 83.820312 C 71.425781 83.996094 71.039062 84.097656 70.800781 84.332031 C 70.695312 84.4375 71.007812 84.570312 71.042969 84.71875 C 71.101562 85 70.910156 85.355469 70.820312 85.617188 C 70.664062 86.078125 70.292969 86.316406 70.066406 86.710938 C 69.949219 86.914062 70.15625 87.214844 70.09375 87.457031 C 69.964844 87.957031 69.695312 88.316406 69.335938 88.671875 C 69.261719 88.742188 69.320312 89.421875 69.167969 89.625 C 67.796875 91.429688 65.117188 92.152344 63.089844 92.84375 C 61.378906 93.429688 59.566406 94.175781 57.753906 94.378906 C 57.484375 94.410156 57.105469 94.386719 56.875 94.226562 C 56.683594 94.089844 56.457031 93.761719 56.1875 93.800781 C 55.765625 93.859375 55.332031 94.164062 54.945312 94.335938 C 53.824219 94.84375 52.761719 95.425781 51.613281 95.871094 C 50.851562 96.164062 49.851562 96.34375 49.289062 95.621094 C 49.019531 95.273438 48.898438 94.804688 48.75 94.402344 C 48.578125 93.9375 48.390625 93.441406 48.328125 92.945312 C 48.234375 92.207031 48.304688 91.429688 48.390625 90.695312 C 48.402344 90.597656 48.542969 90.289062 48.578125 90.210938 C 48.789062 89.734375 49.121094 89.230469 49.460938 88.832031 Z M 29.550781 23.453125 C 29.507812 23.449219 29.320312 23.320312 29.253906 23.257812 C 29.097656 23.121094 28.984375 22.941406 28.875 22.765625 C 28.542969 22.246094 28.300781 21.609375 28.101562 21.027344 C 27.617188 19.621094 27.535156 18.457031 27.863281 17 C 28.019531 16.304688 28.1875 15.664062 28.71875 15.160156 C 29.488281 14.429688 30.621094 14.867188 31.214844 15.589844 C 32.109375 16.683594 32.101562 18.363281 32.042969 19.691406 C 32.054688 19.671875 32.066406 19.742188 32.089844 19.746094 C 32.1875 19.765625 32.300781 19.746094 32.398438 19.730469 C 32.917969 19.660156 33.496094 19.902344 33.984375 19.8125 C 33.996094 19.847656 33.992188 19.734375 34.007812 19.699219 C 34.0625 19.578125 34.125 19.460938 34.183594 19.34375 C 34.347656 19.011719 34.46875 18.660156 34.613281 18.316406 C 35.0625 17.253906 35.503906 16.128906 36.128906 15.148438 C 36.40625 14.714844 37.0625 14.800781 37.457031 14.5625 C 37.769531 14.375 38.09375 13.664062 38.292969 13.382812 C 38.667969 12.859375 39.109375 12.378906 39.472656 11.847656 C 39.867188 11.277344 40.1875 10.664062 40.617188 10.113281 C 40.839844 9.832031 41.085938 9.542969 41.359375 9.3125 C 41.511719 9.183594 41.769531 9.0625 41.824219 8.851562 C 41.851562 8.734375 42.546875 8.699219 42.609375 8.691406 C 43.484375 8.574219 44.328125 8.515625 45.210938 8.472656 C 47.964844 8.34375 50.265625 9.851562 52.4375 11.3125 C 53.058594 11.730469 53.644531 12.183594 54.257812 12.617188 C 54.582031 12.851562 54.980469 13.054688 55.265625 13.339844 L 55.808594 14.003906 C 55.746094 14.019531 55.714844 15.515625 55.703125 15.621094 C 55.53125 17.339844 55.332031 19.125 54.871094 20.796875 C 54.472656 22.246094 53.652344 23.460938 53.132812 24.839844 C 52.554688 26.367188 52.269531 27.972656 51.527344 29.464844 C 50.347656 31.847656 48.667969 34.089844 47.109375 36.230469 C 46.195312 37.488281 44.691406 39.410156 43.175781 39.996094 C 42.167969 40.386719 40.289062 39.742188 39.476562 39.171875 C 39.308594 39.054688 38.910156 38.945312 38.726562 38.863281 C 38.105469 38.601562 37.496094 38.335938 36.898438 38.023438 C 35.851562 37.476562 34.742188 37.054688 33.703125 36.496094 C 32.769531 35.996094 31.878906 35.296875 31.019531 34.675781 C 29.898438 33.867188 28.972656 33.359375 28.40625 32.066406 C 28.363281 31.96875 28.488281 31.585938 28.503906 31.492188 C 28.601562 30.957031 28.667969 30.410156 28.738281 29.867188 C 28.933594 28.390625 29.132812 26.917969 29.289062 25.4375 C 29.359375 24.777344 29.515625 24.113281 29.550781 23.453125 Z M 29.550781 23.453125 L 29.550781 23.425781 C 29.5625 23.445312 29.5625 23.453125 29.550781 23.453125 Z M 29.550781 23.453125 " fill-opacity="1" fill-rule="evenodd"/><g clip-path="url(#cb72aaba51)"><path fill="#000000" d="M 51.203125 102.195312 C 51.355469 102.15625 51.519531 102.097656 51.640625 102.023438 C 52.214844 101.660156 52.816406 101.234375 53.171875 100.644531 C 53.84375 99.527344 54.011719 98.203125 54.0625 96.910156 C 54.082031 96.476562 54.003906 95.839844 54.144531 95.429688 C 54.160156 95.375 54.222656 95.34375 54.277344 95.363281 C 54.332031 95.378906 54.363281 95.441406 54.34375 95.496094 C 54.210938 95.890625 54.292969 96.5 54.277344 96.917969 C 54.222656 98.246094 54.046875 99.605469 53.355469 100.753906 C 52.992188 101.351562 52.398438 101.792969 51.816406 102.160156 C 51.925781 102.152344 52.039062 102.144531 52.148438 102.140625 C 52.308594 102.132812 52.785156 102.039062 52.628906 102.078125 C 43.003906 104.523438 33.25 106.449219 23.488281 108.375 C 21 108.867188 18.46875 109.191406 15.96875 109.628906 C 15.503906 109.707031 14.945312 109.828125 14.378906 109.882812 C 14.625 107.609375 14.703125 105.316406 15.105469 103.046875 C 15.339844 101.714844 15.457031 100.382812 15.617188 99.042969 C 15.652344 98.730469 15.867188 98.285156 15.96875 97.886719 C 15.992188 97.925781 16.011719 97.957031 16.035156 97.984375 C 16.9375 99.132812 18.226562 99.980469 19.511719 100.648438 C 20.851562 101.34375 22.421875 101.507812 23.875 101.792969 C 29.089844 102.816406 34.582031 102.128906 39.875 102.375 C 42.695312 102.503906 45.539062 102.558594 48.355469 102.359375 C 48.738281 102.332031 49.117188 102.304688 49.5 102.28125 C 49.261719 102.179688 48.820312 101.976562 48.628906 101.855469 C 48.554688 101.804688 48.511719 101.757812 48.5 101.734375 C 48.484375 101.695312 48.488281 101.660156 48.503906 101.632812 C 48.53125 101.582031 48.597656 101.5625 48.648438 101.589844 C 48.671875 101.601562 48.6875 101.617188 48.695312 101.640625 C 48.785156 101.6875 49.621094 102.117188 49.695312 102.132812 C 49.753906 102.144531 49.789062 102.199219 49.777344 102.257812 C 49.777344 102.257812 49.777344 102.261719 49.777344 102.261719 C 50.25 102.234375 50.726562 102.210938 51.203125 102.195312 Z M 47.242188 88.203125 C 43.914062 87.835938 40.628906 87.28125 37.296875 86.738281 C 36.085938 86.539062 34.945312 86.085938 33.746094 85.867188 C 31.917969 85.53125 30.089844 85.265625 28.253906 84.996094 C 27.917969 84.949219 27.617188 84.902344 27.316406 84.894531 C 27.324219 84.921875 27.332031 84.949219 27.34375 84.972656 C 27.359375 85.03125 27.332031 85.089844 27.273438 85.109375 C 27.21875 85.125 27.160156 85.097656 27.140625 85.042969 C 27.125 84.992188 27.109375 84.945312 27.09375 84.902344 C 26.902344 84.910156 26.710938 84.941406 26.503906 85.003906 C 26.339844 85.050781 25.816406 85.300781 25.75 85.324219 C 25.640625 85.367188 25.597656 85.242188 25.597656 85.234375 C 25.597656 85.226562 25.589844 85.171875 25.652344 85.136719 C 25.664062 85.128906 25.671875 85.125 25.683594 85.125 C 25.761719 85.085938 26.289062 84.847656 26.441406 84.800781 C 26.644531 84.742188 26.835938 84.707031 27.023438 84.695312 C 25.699219 80.792969 24.085938 76.949219 23.175781 72.929688 C 22.871094 71.582031 22.628906 70.230469 22.222656 68.910156 C 22.082031 68.457031 21.949219 67.996094 21.761719 67.566406 C 21.710938 67.449219 21.679688 67.1875 21.644531 67.042969 C 21.636719 67.039062 21.632812 67.039062 21.625 67.035156 C 21.570312 67.011719 21.546875 66.949219 21.570312 66.894531 C 21.601562 66.828125 21.640625 66.804688 21.667969 66.800781 C 21.710938 66.789062 21.753906 66.796875 21.792969 66.839844 C 21.8125 66.863281 21.839844 66.929688 21.855469 67.019531 C 21.886719 67.160156 21.910156 67.378906 21.953125 67.480469 C 22.148438 67.921875 22.285156 68.390625 22.425781 68.847656 C 22.832031 70.175781 23.078125 71.53125 23.382812 72.882812 C 24.296875 76.914062 25.917969 80.773438 27.242188 84.683594 C 27.578125 84.683594 27.910156 84.734375 28.285156 84.789062 C 30.125 85.054688 31.953125 85.320312 33.785156 85.65625 C 34.980469 85.878906 36.125 86.332031 37.332031 86.53125 L 38.058594 86.648438 L 38.054688 86.742188 L 39.960938 87.128906 L 40.078125 87.144531 L 40.277344 87.007812 C 43.5 87.527344 46.703125 88 49.976562 88.246094 C 50.035156 88.25 50.078125 88.300781 50.074219 88.359375 C 50.070312 88.417969 50.019531 88.460938 49.960938 88.457031 C 49.136719 88.394531 48.316406 88.320312 47.503906 88.230469 C 47.496094 88.257812 47.480469 88.289062 47.453125 88.316406 C 47.414062 88.351562 47.347656 88.390625 47.28125 88.429688 C 47.238281 88.457031 47.191406 88.480469 47.171875 88.507812 C 46.96875 88.796875 46.78125 89.097656 46.597656 89.398438 C 46.105469 90.214844 45.867188 91.054688 45.707031 91.992188 C 45.183594 95.023438 45.347656 98.804688 47.929688 100.949219 C 47.976562 100.984375 47.980469 101.050781 47.945312 101.097656 C 47.90625 101.140625 47.839844 101.148438 47.796875 101.109375 C 45.152344 98.917969 44.960938 95.054688 45.496094 91.957031 C 45.664062 90.992188 45.910156 90.128906 46.417969 89.289062 C 46.601562 88.984375 46.792969 88.679688 46.996094 88.386719 C 47.027344 88.347656 47.078125 88.304688 47.136719 88.269531 C 47.167969 88.25 47.207031 88.222656 47.242188 88.203125 Z M 49.460938 88.832031 C 49.121094 89.230469 48.789062 89.734375 48.578125 90.210938 C 48.542969 90.285156 48.40625 90.589844 48.390625 90.691406 L 48.351562 91.03125 C 48.335938 91.214844 48.316406 91.398438 48.304688 91.582031 C 48.296875 91.691406 48.292969 91.804688 48.289062 91.917969 C 48.285156 92.058594 48.28125 92.199219 48.285156 92.339844 C 48.289062 92.535156 48.300781 92.734375 48.324219 92.925781 L 48.328125 92.945312 C 48.335938 93.019531 48.347656 93.089844 48.363281 93.164062 L 48.382812 93.269531 C 48.390625 93.292969 48.394531 93.3125 48.398438 93.335938 C 48.410156 93.375 48.417969 93.414062 48.429688 93.457031 L 48.460938 93.570312 C 48.472656 93.605469 48.484375 93.640625 48.492188 93.671875 C 48.535156 93.8125 48.585938 93.949219 48.632812 94.085938 L 48.75 94.402344 C 48.804688 94.546875 48.855469 94.703125 48.910156 94.859375 C 48.9375 94.933594 48.964844 95.007812 48.996094 95.082031 L 49.066406 95.246094 L 49.113281 95.339844 C 49.136719 95.382812 49.160156 95.425781 49.183594 95.464844 C 49.210938 95.511719 49.242188 95.558594 49.273438 95.601562 C 49.28125 95.605469 49.285156 95.613281 49.289062 95.617188 C 49.429688 95.800781 49.601562 95.925781 49.785156 96.007812 L 49.90625 96.050781 C 49.949219 96.066406 49.996094 96.078125 50.039062 96.085938 C 50.070312 96.09375 50.105469 96.101562 50.136719 96.105469 L 50.296875 96.121094 L 50.464844 96.125 C 50.476562 96.125 50.484375 96.125 50.496094 96.125 C 50.585938 96.121094 50.675781 96.113281 50.761719 96.101562 C 50.773438 96.101562 50.78125 96.097656 50.789062 96.097656 C 50.890625 96.082031 50.992188 96.0625 51.089844 96.035156 L 51.210938 96.003906 C 51.296875 95.980469 51.382812 95.953125 51.464844 95.921875 L 51.738281 95.820312 L 52.097656 95.671875 L 52.460938 95.515625 L 52.589844 95.457031 L 52.746094 95.382812 C 52.800781 95.359375 52.851562 95.335938 52.902344 95.3125 L 52.988281 95.492188 C 52.988281 96.90625 52.964844 99.683594 51.691406 100.589844 C 49.882812 101.875 48.277344 98.757812 47.851562 97.589844 C 47.714844 97.214844 47.558594 96.839844 47.445312 96.457031 C 47.300781 95.964844 47.257812 95.449219 47.246094 94.9375 C 47.210938 93.246094 47.335938 91.449219 48.285156 89.992188 C 48.402344 89.808594 49.429688 88.246094 49.710938 88.675781 L 49.761719 88.777344 L 49.679688 88.789062 L 49.644531 88.785156 L 49.625 88.78125 L 49.613281 88.777344 L 49.605469 88.773438 L 49.597656 88.765625 L 49.59375 88.757812 Z M 44.742188 99.242188 C 44.601562 99.191406 44.457031 99.152344 44.304688 99.125 C 44.054688 99.082031 43.855469 99.1875 43.777344 99.335938 C 43.691406 99.488281 43.714844 99.699219 43.949219 99.875 C 44.03125 99.9375 44.175781 99.992188 44.339844 100.027344 C 44.574219 100.074219 44.851562 100.082031 45.035156 100.023438 C 45.167969 99.976562 45.253906 99.894531 45.277344 99.789062 C 45.300781 99.691406 45.269531 99.5625 45.136719 99.398438 C 45.101562 99.351562 45.03125 99.34375 44.988281 99.382812 C 44.941406 99.417969 44.933594 99.484375 44.972656 99.53125 C 45.046875 99.621094 45.082031 99.6875 45.070312 99.742188 C 45.0625 99.785156 45.019531 99.804688 44.96875 99.820312 C 44.8125 99.871094 44.582031 99.859375 44.382812 99.820312 C 44.253906 99.792969 44.140625 99.753906 44.078125 99.707031 C 43.957031 99.617188 43.917969 99.515625 43.960938 99.4375 C 44.007812 99.351562 44.125 99.308594 44.269531 99.335938 C 44.410156 99.359375 44.542969 99.394531 44.675781 99.441406 C 44.730469 99.460938 44.792969 99.429688 44.808594 99.375 C 44.828125 99.320312 44.800781 99.257812 44.742188 99.242188 Z M 39.640625 98.957031 C 39.503906 98.84375 39.214844 98.761719 39.035156 98.738281 C 38.90625 98.71875 38.769531 98.714844 38.640625 98.71875 C 38.449219 98.730469 38.207031 98.8125 38.082031 98.929688 C 38.015625 98.996094 37.980469 99.070312 37.984375 99.148438 C 37.984375 99.246094 38.054688 99.367188 38.265625 99.476562 C 38.5 99.597656 38.855469 99.675781 39.179688 99.65625 C 39.40625 99.640625 39.617188 99.578125 39.769531 99.457031 C 39.816406 99.421875 39.824219 99.355469 39.785156 99.308594 C 39.75 99.261719 39.683594 99.257812 39.636719 99.292969 C 39.515625 99.390625 39.347656 99.433594 39.167969 99.445312 C 38.882812 99.460938 38.570312 99.394531 38.363281 99.289062 C 38.296875 99.253906 38.25 99.222656 38.222656 99.1875 C 38.207031 99.171875 38.195312 99.15625 38.195312 99.140625 C 38.195312 99.128906 38.199219 99.117188 38.207031 99.105469 C 38.222656 99.085938 38.246094 99.066406 38.273438 99.046875 C 38.375 98.980469 38.527344 98.9375 38.648438 98.929688 C 38.769531 98.925781 38.890625 98.929688 39.007812 98.945312 C 39.152344 98.964844 39.390625 99.027344 39.507812 99.121094 C 39.550781 99.160156 39.617188 99.152344 39.65625 99.109375 C 39.691406 99.0625 39.6875 98.996094 39.640625 98.957031 Z M 69.667969 88.304688 C 69.566406 88.429688 69.457031 88.550781 69.335938 88.671875 C 69.324219 88.683594 69.316406 88.707031 69.308594 88.742188 C 69.101562 88.859375 68.863281 88.984375 68.652344 89.066406 C 68.457031 89.144531 68.28125 89.183594 68.152344 89.164062 C 68.09375 89.15625 68.054688 89.101562 68.0625 89.042969 C 68.070312 88.984375 68.125 88.945312 68.183594 88.953125 C 68.320312 88.976562 68.527344 88.898438 68.746094 88.796875 C 69.097656 88.636719 69.472656 88.402344 69.667969 88.304688 Z M 70.199219 86.511719 C 70.152344 86.578125 70.105469 86.640625 70.066406 86.710938 C 70.046875 86.746094 70.035156 86.78125 70.03125 86.816406 C 69.78125 86.921875 69.527344 87.023438 69.273438 87.125 C 69.125 87.1875 68.96875 87.238281 68.824219 87.300781 C 68.808594 87.304688 68.671875 87.355469 68.644531 87.363281 C 68.519531 87.410156 68.511719 87.214844 68.511719 87.210938 C 68.527344 87.1875 68.550781 87.171875 68.574219 87.164062 C 68.574219 87.164062 68.726562 87.109375 68.742188 87.105469 C 68.890625 87.042969 69.042969 86.992188 69.191406 86.929688 C 69.53125 86.792969 69.867188 86.664062 70.199219 86.511719 Z M 68.6875 87.203125 C 68.699219 87.21875 68.707031 87.238281 68.710938 87.261719 C 68.710938 87.28125 68.707031 87.304688 68.695312 87.320312 C 68.722656 87.273438 68.710938 87.234375 68.6875 87.203125 Z M 68.6875 87.199219 C 68.679688 87.191406 68.667969 87.183594 68.660156 87.175781 C 68.636719 87.164062 68.609375 87.15625 68.585938 87.164062 C 68.648438 87.152344 68.679688 87.191406 68.683594 87.199219 Z M 39.355469 87.007812 L 39.625 87.058594 C 42.015625 85.09375 44.449219 83.171875 46.898438 81.277344 C 48.042969 80.394531 49.175781 79.496094 50.3125 78.605469 C 50.710938 78.292969 51.105469 77.976562 51.503906 77.667969 C 51.640625 77.558594 51.78125 77.449219 51.925781 77.347656 C 51.933594 77.34375 52.074219 77.257812 52.089844 77.238281 C 52.140625 77.1875 52.117188 77.136719 52.109375 77.117188 C 52.09375 77.09375 52.074219 77.066406 52.027344 77.058594 C 51.992188 77.054688 51.957031 77.070312 51.933594 77.09375 C 51.910156 77.109375 51.8125 77.171875 51.804688 77.175781 C 51.65625 77.277344 51.515625 77.390625 51.371094 77.5 C 50.972656 77.8125 50.578125 78.128906 50.179688 78.441406 C 49.042969 79.332031 47.910156 80.226562 46.769531 81.113281 C 44.273438 83.042969 41.792969 85 39.355469 87.007812 Z M 38.082031 86.191406 C 43.492188 82.179688 48.984375 78.257812 54.574219 74.515625 C 54.621094 74.484375 54.6875 74.496094 54.722656 74.546875 C 54.753906 74.59375 54.742188 74.660156 54.691406 74.691406 C 49.054688 78.464844 43.519531 82.421875 38.066406 86.464844 C 38.074219 86.375 38.078125 86.285156 38.082031 86.191406 Z M 71.097656 84.125 C 70.988281 84.183594 70.882812 84.25 70.800781 84.332031 C 70.769531 84.363281 70.773438 84.398438 70.800781 84.4375 C 70.226562 84.609375 69.652344 84.769531 69.082031 84.960938 C 68.953125 85.003906 68.742188 85.027344 68.554688 85.074219 C 68.453125 85.097656 68.355469 85.128906 68.296875 85.179688 C 67.8125 85.582031 67.03125 86.023438 66.363281 85.941406 C 66.304688 85.933594 66.261719 85.882812 66.269531 85.824219 C 66.277344 85.765625 66.332031 85.726562 66.390625 85.734375 C 67.003906 85.808594 67.714844 85.390625 68.160156 85.015625 C 68.242188 84.949219 68.367188 84.902344 68.503906 84.867188 C 68.683594 84.824219 68.890625 84.800781 69.011719 84.757812 C 69.703125 84.53125 70.402344 84.34375 71.097656 84.125 Z M 38.195312 85.058594 C 41.179688 82.730469 44.445312 80.789062 47.414062 78.425781 C 49.363281 76.878906 51.355469 75.386719 53.3125 73.847656 C 54.121094 73.214844 54.960938 72.289062 55.894531 71.835938 C 55.945312 71.8125 56.011719 71.832031 56.035156 71.886719 C 56.0625 71.9375 56.039062 72 55.988281 72.027344 C 55.066406 72.472656 54.242188 73.390625 53.445312 74.015625 C 51.484375 75.550781 49.496094 77.042969 47.546875 78.59375 C 44.519531 80.996094 41.1875 82.96875 38.15625 85.359375 C 38.167969 85.257812 38.179688 85.160156 38.195312 85.058594 Z M 25.804688 85.269531 C 25.800781 85.277344 25.796875 85.285156 25.792969 85.292969 C 25.785156 85.296875 25.78125 85.304688 25.773438 85.308594 L 25.765625 85.316406 C 25.792969 85.296875 25.804688 85.277344 25.808594 85.261719 Z M 38.433594 83.863281 C 41.730469 81.363281 45.292969 79.222656 48.59375 76.71875 C 49.691406 75.886719 50.800781 75.0625 51.886719 74.210938 C 52.078125 74.066406 52.367188 73.753906 52.660156 73.511719 C 52.871094 73.339844 53.082031 73.203125 53.261719 73.167969 C 53.320312 73.160156 53.375 73.195312 53.382812 73.253906 C 53.394531 73.3125 53.355469 73.367188 53.300781 73.375 C 53.148438 73.40625 52.972656 73.527344 52.792969 73.675781 C 52.503906 73.917969 52.210938 74.230469 52.019531 74.378906 C 50.933594 75.230469 49.820312 76.050781 48.722656 76.886719 C 45.351562 79.445312 41.707031 81.621094 38.347656 84.191406 C 38.375 84.078125 38.402344 83.96875 38.433594 83.863281 Z M 51.984375 77.265625 C 51.976562 77.265625 51.972656 77.261719 51.964844 77.257812 L 51.957031 77.253906 C 51.960938 77.257812 51.96875 77.261719 51.972656 77.261719 C 51.976562 77.261719 51.976562 77.265625 51.980469 77.265625 L 51.992188 77.269531 Z M 74.964844 76.035156 C 72.5 75.484375 69.945312 75.246094 67.441406 74.921875 C 63.816406 74.449219 60.191406 73.988281 56.550781 73.703125 C 56.492188 73.699219 56.441406 73.742188 56.433594 73.800781 C 56.429688 73.859375 56.476562 73.910156 56.53125 73.914062 C 60.171875 74.199219 63.792969 74.65625 67.414062 75.128906 C 69.910156 75.457031 72.460938 75.691406 74.917969 76.242188 C 74.976562 76.253906 75.035156 76.21875 75.046875 76.160156 C 75.058594 76.105469 75.023438 76.046875 74.964844 76.035156 Z M 75.867188 75.496094 C 75.871094 75.53125 75.886719 75.5625 75.921875 75.582031 C 75.972656 75.613281 76.035156 75.59375 76.066406 75.542969 C 76.089844 75.5 76.09375 75.460938 76.089844 75.429688 C 76.078125 75.382812 76.046875 75.339844 75.988281 75.3125 C 75.945312 75.292969 75.882812 75.277344 75.808594 75.269531 C 75.730469 75.257812 75.640625 75.25 75.585938 75.234375 C 75.109375 75.070312 74.613281 74.988281 74.121094 74.875 C 72.777344 74.566406 71.449219 74.261719 70.085938 74.046875 C 66.160156 73.417969 61.863281 72.648438 57.875 72.886719 C 57.816406 72.890625 57.769531 72.941406 57.773438 73 C 57.777344 73.058594 57.828125 73.101562 57.886719 73.097656 C 61.859375 72.863281 66.140625 73.632812 70.050781 74.253906 C 71.410156 74.472656 72.734375 74.773438 74.074219 75.082031 C 74.554688 75.191406 75.046875 75.269531 75.515625 75.433594 C 75.589844 75.457031 75.722656 75.46875 75.824219 75.484375 C 75.839844 75.488281 75.855469 75.492188 75.867188 75.496094 Z M 88.890625 62.402344 C 88.945312 62.453125 89.054688 62.464844 89.148438 62.484375 C 85.457031 64.914062 82.195312 67.917969 79.460938 71.390625 C 78.757812 72.28125 78.082031 73.179688 77.527344 74.171875 C 77.484375 74.246094 77.230469 74.609375 77.117188 74.871094 C 77.09375 74.929688 77.078125 75.011719 77.074219 75.023438 C 77.101562 75.070312 77.089844 75.128906 77.046875 75.164062 C 77 75.199219 76.933594 75.1875 76.898438 75.144531 C 76.875 75.113281 76.863281 75.078125 76.859375 75.03125 C 76.859375 74.96875 76.882812 74.882812 76.921875 74.789062 C 77.039062 74.519531 77.296875 74.144531 77.34375 74.066406 C 77.902344 73.066406 78.585938 72.15625 79.292969 71.257812 C 82.011719 67.8125 85.238281 64.824219 88.890625 62.402344 Z M 89.089844 62.996094 C 89.082031 63.097656 89.164062 63.210938 89.039062 63.28125 C 89.042969 63.285156 89.039062 63.292969 89.03125 63.308594 C 85.855469 65.75 82.945312 68.699219 80.429688 71.789062 C 79.847656 72.5 79.308594 73.246094 78.726562 73.960938 C 78.644531 74.058594 78.328125 74.351562 78.148438 74.59375 C 78.113281 74.640625 78.085938 74.683594 78.066406 74.722656 C 78.050781 74.746094 78.042969 74.765625 78.042969 74.78125 C 78.046875 74.839844 78.003906 74.890625 77.945312 74.894531 C 77.886719 74.898438 77.835938 74.855469 77.832031 74.796875 C 77.828125 74.71875 77.878906 74.597656 77.976562 74.46875 C 78.15625 74.222656 78.480469 73.925781 78.558594 73.824219 C 79.144531 73.113281 79.683594 72.367188 80.261719 71.65625 C 82.839844 68.492188 85.828125 65.476562 89.089844 62.996094 Z M 37.972656 44.125 C 37.769531 44.300781 37.566406 44.472656 37.355469 44.636719 C 37.027344 44.894531 36.707031 45.160156 36.378906 45.421875 C 36.335938 45.457031 36.265625 45.480469 36.199219 45.503906 C 36.171875 45.511719 36.136719 45.527344 36.121094 45.535156 C 36.113281 45.585938 36.074219 45.625 36.019531 45.628906 C 35.972656 45.628906 35.929688 45.601562 35.914062 45.5625 C 35.914062 45.5625 35.910156 45.566406 35.910156 45.570312 C 35.875 45.617188 35.808594 45.628906 35.761719 45.59375 C 32.492188 43.269531 29.839844 39.457031 27.6875 36.167969 C 27.273438 35.535156 26.875 34.894531 26.472656 34.253906 C 26.445312 34.089844 26.425781 33.921875 26.410156 33.757812 C 26.894531 34.523438 27.367188 35.292969 27.863281 36.050781 C 30.003906 39.320312 32.636719 43.113281 35.886719 45.421875 C 35.898438 45.433594 35.910156 45.445312 35.917969 45.460938 C 35.9375 45.402344 35.980469 45.363281 36.046875 45.332031 C 36.085938 45.316406 36.132812 45.304688 36.175781 45.289062 C 36.203125 45.28125 36.230469 45.273438 36.246094 45.257812 C 36.574219 44.996094 36.894531 44.730469 37.222656 44.472656 C 37.460938 44.289062 37.691406 44.09375 37.917969 43.894531 C 37.84375 43.542969 37.824219 43.199219 37.933594 42.917969 C 38.109375 42.464844 38.71875 41.984375 39.0625 41.660156 C 39.53125 41.222656 40.484375 40.1875 41.164062 40.074219 L 42.65625 41.117188 C 43.039062 41.496094 43.359375 42.046875 43.542969 42.582031 C 43.5625 42.457031 43.585938 42.332031 43.613281 42.207031 C 43.683594 41.828125 43.757812 41.449219 43.792969 41.0625 C 43.835938 40.597656 43.859375 40.121094 43.867188 39.644531 C 43.9375 39.597656 44.007812 39.550781 44.082031 39.5 C 44.078125 40.035156 44.050781 40.5625 44.003906 41.082031 C 43.96875 41.472656 43.894531 41.859375 43.820312 42.246094 C 43.785156 42.417969 43.753906 42.589844 43.722656 42.765625 C 43.714844 42.820312 43.707031 42.972656 43.695312 43.121094 C 43.890625 43.851562 44.222656 45.0625 43.890625 45.613281 C 43.875 45.640625 43.839844 45.660156 43.800781 45.679688 C 44.160156 46.96875 44.472656 48.273438 44.78125 49.570312 C 44.910156 50.101562 45.230469 50.566406 45.351562 51.09375 C 45.96875 53.75 46.230469 56.5 46.804688 59.171875 C 47.402344 61.945312 48.207031 64.648438 49.054688 67.359375 C 49.636719 69.21875 50.214844 70.96875 50.351562 72.902344 C 50.367188 73.128906 50.589844 74.480469 50.320312 74.613281 C 50.050781 74.746094 49.410156 73.890625 49.300781 73.761719 C 48.40625 72.710938 48.007812 71.339844 47.261719 70.195312 C 45.71875 67.816406 44.1875 65.28125 43.222656 62.601562 C 42.175781 59.695312 41.617188 56.636719 41.019531 53.617188 C 40.636719 51.6875 39.96875 49.847656 39.683594 47.898438 C 39.613281 47.417969 39.542969 46.9375 39.421875 46.464844 C 39.273438 46.484375 39.121094 46.472656 38.953125 46.40625 C 38.597656 46.265625 38.484375 45.546875 38.371094 45.246094 C 38.253906 44.941406 38.085938 44.539062 37.972656 44.125 Z M 65.351562 72.570312 C 65.328125 72.554688 65.296875 72.546875 65.269531 72.550781 C 65.210938 72.5625 65.171875 72.617188 65.183594 72.675781 C 65.1875 72.695312 65.195312 72.71875 65.222656 72.742188 C 65.234375 72.753906 65.273438 72.773438 65.332031 72.785156 C 65.488281 72.820312 65.878906 72.84375 65.910156 72.847656 C 66.511719 72.917969 67.113281 73 67.71875 73.0625 C 70.289062 73.328125 72.960938 73.695312 75.4375 74.457031 C 75.492188 74.476562 75.550781 74.445312 75.570312 74.386719 C 75.585938 74.332031 75.554688 74.273438 75.5 74.257812 C 73.011719 73.492188 70.324219 73.121094 67.738281 72.851562 C 67.136719 72.789062 66.535156 72.707031 65.933594 72.636719 Z M 48.066406 38.5 L 47.84375 38.402344 C 48.035156 38.660156 48.191406 38.871094 48.21875 38.910156 C 49.097656 40.226562 49.523438 41.828125 50.332031 43.210938 C 50.421875 43.363281 50.777344 43.878906 50.933594 44.28125 C 50.964844 44.359375 50.984375 44.429688 50.996094 44.496094 C 51 44.542969 51.003906 44.582031 50.988281 44.609375 C 50.957031 44.671875 50.882812 44.710938 50.796875 44.742188 C 50.621094 44.800781 50.382812 44.820312 50.148438 44.839844 C 49.894531 44.863281 49.640625 44.890625 49.453125 44.953125 C 49.300781 45.003906 49.191406 45.082031 49.136719 45.1875 C 49.125 45.21875 49.117188 45.253906 49.121094 45.296875 C 49.125 45.355469 49.152344 45.4375 49.199219 45.527344 C 49.328125 45.785156 49.59375 46.144531 49.644531 46.226562 C 50.15625 47.035156 50.886719 47.757812 51.277344 48.636719 C 51.433594 48.984375 51.46875 49.421875 51.476562 49.867188 C 51.484375 50.328125 51.460938 50.792969 51.492188 51.183594 C 51.605469 52.550781 51.894531 53.910156 52.046875 55.277344 C 52.730469 61.394531 52.3125 67.261719 50.730469 73.167969 C 50.714844 73.226562 50.75 73.285156 50.804688 73.300781 C 50.863281 73.3125 50.917969 73.28125 50.933594 73.222656 C 52.523438 67.289062 52.945312 61.398438 52.261719 55.253906 C 52.109375 53.890625 51.816406 52.53125 51.703125 51.164062 C 51.671875 50.78125 51.699219 50.320312 51.691406 49.863281 C 51.683594 49.390625 51.636719 48.921875 51.472656 48.550781 C 51.074219 47.664062 50.339844 46.929688 49.824219 46.113281 C 49.773438 46.035156 49.515625 45.6875 49.390625 45.433594 C 49.367188 45.386719 49.347656 45.34375 49.335938 45.308594 C 49.332031 45.296875 49.332031 45.28125 49.332031 45.277344 C 49.363281 45.214844 49.433594 45.179688 49.519531 45.152344 C 49.695312 45.09375 49.929688 45.074219 50.167969 45.050781 C 50.421875 45.027344 50.675781 45.003906 50.863281 44.941406 C 51.015625 44.890625 51.125 44.8125 51.179688 44.703125 C 51.203125 44.652344 51.214844 44.589844 51.210938 44.515625 C 51.203125 44.425781 51.175781 44.320312 51.132812 44.203125 C 50.972656 43.792969 50.605469 43.261719 50.515625 43.101562 C 49.707031 41.71875 49.277344 40.113281 48.394531 38.792969 C 48.378906 38.769531 48.320312 38.6875 48.234375 38.574219 Z M 57.730469 71.28125 C 59.273438 71.613281 60.945312 71.554688 62.507812 71.71875 C 66.464844 72.140625 70.5 72.488281 74.425781 73.125 C 74.480469 73.132812 74.535156 73.09375 74.546875 73.035156 C 74.554688 72.980469 74.515625 72.925781 74.457031 72.914062 C 70.527344 72.28125 66.492188 71.929688 62.53125 71.507812 C 60.972656 71.34375 59.3125 71.40625 57.777344 71.074219 C 57.71875 71.0625 57.664062 71.101562 57.652344 71.15625 C 57.636719 71.214844 57.675781 71.269531 57.730469 71.28125 Z M 22.765625 36.703125 C 23.039062 37.878906 23.414062 39.035156 23.863281 40.261719 C 23.984375 40.589844 24.191406 41.21875 24.460938 41.734375 C 24.632812 42.054688 24.824219 42.335938 25.042969 42.441406 C 25.285156 42.5625 25.601562 42.617188 25.933594 42.636719 C 26.453125 42.671875 27.015625 42.628906 27.429688 42.628906 C 27.539062 42.628906 27.910156 42.585938 28.148438 42.613281 C 28.226562 42.621094 28.289062 42.636719 28.335938 42.660156 C 28.382812 42.683594 28.417969 42.714844 28.433594 42.753906 C 28.488281 42.859375 28.480469 42.988281 28.421875 43.132812 C 28.347656 43.304688 28.195312 43.507812 28.011719 43.722656 C 27.753906 44.027344 27.441406 44.359375 27.253906 44.675781 C 27.148438 44.863281 27.082031 45.039062 27.121094 45.199219 C 27.203125 45.519531 27.429688 45.867188 27.671875 46.210938 C 27.929688 46.570312 28.203125 46.921875 28.367188 47.226562 C 29.550781 49.433594 30.894531 51.472656 32.261719 53.5625 C 36.757812 60.421875 41.511719 67.570312 47.847656 72.90625 C 47.890625 72.945312 47.898438 73.011719 47.859375 73.054688 C 47.820312 73.097656 47.753906 73.105469 47.707031 73.066406 C 41.359375 67.71875 36.589844 60.554688 32.085938 53.679688 C 30.710938 51.582031 29.367188 49.539062 28.179688 47.328125 C 28.019531 47.027344 27.75 46.683594 27.5 46.332031 C 27.238281 45.96875 27 45.59375 26.914062 45.25 C 26.863281 45.042969 26.929688 44.808594 27.070312 44.570312 C 27.261719 44.246094 27.582031 43.902344 27.847656 43.585938 C 28.015625 43.390625 28.160156 43.207031 28.226562 43.050781 C 28.257812 42.976562 28.273438 42.910156 28.246094 42.855469 C 28.242188 42.851562 28.226562 42.84375 28.214844 42.839844 C 28.1875 42.832031 28.160156 42.828125 28.125 42.824219 C 27.894531 42.796875 27.535156 42.839844 27.425781 42.839844 C 27.011719 42.839844 26.445312 42.882812 25.917969 42.847656 C 25.554688 42.824219 25.210938 42.765625 24.945312 42.632812 C 24.699219 42.507812 24.46875 42.199219 24.273438 41.832031 C 23.996094 41.308594 23.789062 40.667969 23.664062 40.335938 C 23.234375 39.160156 22.871094 38.046875 22.597656 36.921875 C 22.632812 36.914062 22.648438 36.917969 22.644531 36.933594 C 22.683594 36.855469 22.722656 36.777344 22.765625 36.703125 Z M 88.640625 61.90625 C 88.773438 61.910156 88.902344 61.921875 89.027344 61.933594 C 85.632812 63.792969 82.625 66.214844 79.695312 68.71875 C 78.890625 69.40625 78.261719 70.21875 77.582031 71.019531 C 77.503906 71.113281 77.269531 71.320312 77.101562 71.519531 C 77.050781 71.582031 77.003906 71.640625 76.972656 71.695312 C 76.953125 71.730469 76.933594 71.765625 76.9375 71.792969 C 76.945312 71.851562 76.902344 71.902344 76.84375 71.90625 C 76.785156 71.914062 76.730469 71.871094 76.726562 71.8125 C 76.71875 71.730469 76.765625 71.609375 76.855469 71.488281 C 77.023438 71.261719 77.328125 70.992188 77.417969 70.882812 C 78.105469 70.074219 78.746094 69.25 79.554688 68.558594 C 82.414062 66.113281 85.347656 63.75 88.640625 61.90625 Z M 74.421875 71.578125 C 72.535156 71.734375 70.371094 71.101562 68.5 70.898438 C 64.789062 70.492188 61.046875 70.269531 57.328125 69.984375 C 57.269531 69.980469 57.21875 70.023438 57.210938 70.082031 C 57.207031 70.140625 57.253906 70.191406 57.3125 70.195312 C 61.027344 70.480469 64.769531 70.703125 68.476562 71.105469 C 70.359375 71.3125 72.542969 71.945312 74.4375 71.789062 C 74.5 71.785156 74.542969 71.734375 74.535156 71.675781 C 74.53125 71.617188 74.480469 71.574219 74.421875 71.578125 Z M 88.386719 61.90625 C 85.308594 63.34375 82.464844 65.082031 79.78125 67.183594 C 78.773438 67.972656 77.789062 68.835938 76.925781 69.789062 C 76.671875 70.070312 76.449219 70.367188 76.21875 70.664062 C 76.15625 70.742188 76.078125 70.929688 76.011719 71.046875 C 75.972656 71.121094 75.925781 71.171875 75.898438 71.1875 C 75.851562 71.214844 75.8125 71.210938 75.777344 71.191406 C 75.75 71.179688 75.71875 71.148438 75.703125 71.082031 C 75.691406 71.023438 75.730469 70.96875 75.785156 70.957031 C 75.796875 70.953125 75.808594 70.953125 75.820312 70.957031 C 75.890625 70.835938 75.980469 70.625 76.050781 70.535156 C 76.285156 70.230469 76.511719 69.929688 76.769531 69.644531 C 77.640625 68.6875 78.632812 67.816406 79.652344 67.015625 C 82.214844 65.011719 84.921875 63.335938 87.839844 61.929688 C 88.023438 61.917969 88.207031 61.90625 88.386719 61.90625 Z M 56.007812 70.78125 L 56.214844 70.628906 C 56.128906 68.820312 55.902344 66.988281 55.878906 65.230469 C 55.851562 63.003906 55.726562 60.710938 55.886719 58.5 C 56.035156 56.421875 56.238281 54.339844 55.988281 52.261719 C 55.773438 50.476562 55.496094 48.632812 55.105469 46.878906 C 55.070312 46.710938 54.738281 45.777344 54.640625 45.367188 C 54.628906 45.3125 54.621094 45.253906 54.617188 45.234375 C 54.628906 45.195312 54.617188 45.144531 54.578125 45.117188 C 54.53125 45.082031 54.464844 45.09375 54.429688 45.140625 C 54.421875 45.152344 54.410156 45.175781 54.40625 45.207031 C 54.402344 45.242188 54.410156 45.316406 54.433594 45.417969 C 54.53125 45.824219 54.863281 46.757812 54.898438 46.925781 C 55.289062 48.671875 55.566406 50.507812 55.777344 52.285156 C 56.027344 54.351562 55.824219 56.417969 55.671875 58.484375 C 55.511719 60.703125 55.636719 63.003906 55.667969 65.230469 C 55.691406 67.039062 55.929688 68.921875 56.007812 70.78125 Z M 9.363281 49.660156 C 9.3125 49.644531 9.257812 49.667969 9.234375 49.71875 C 9.210938 49.773438 9.234375 49.835938 9.285156 49.859375 C 9.304688 49.867188 9.332031 49.871094 9.371094 49.871094 C 9.414062 49.871094 9.488281 49.863281 9.574219 49.847656 C 9.820312 49.800781 10.207031 49.703125 10.347656 49.726562 C 11.195312 49.863281 12.066406 50.28125 12.816406 50.679688 C 17.761719 53.304688 19.347656 58.632812 20.871094 63.621094 C 20.890625 63.679688 20.949219 63.710938 21.003906 63.691406 C 21.0625 63.675781 21.09375 63.617188 21.074219 63.5625 C 19.535156 58.519531 17.914062 53.148438 12.917969 50.496094 C 12.148438 50.085938 11.25 49.660156 10.382812 49.519531 C 10.230469 49.496094 9.804688 49.589844 9.535156 49.640625 C 9.460938 49.652344 9.371094 49.660156 9.363281 49.660156 Z M 24.160156 60.9375 C 26.355469 60.507812 28.609375 60.261719 30.816406 59.894531 C 31.527344 59.777344 32.242188 59.671875 32.953125 59.546875 C 33.101562 59.523438 33.261719 59.457031 33.425781 59.40625 C 33.566406 59.359375 33.707031 59.320312 33.835938 59.339844 C 33.894531 59.351562 33.949219 59.3125 33.957031 59.253906 C 33.96875 59.195312 33.929688 59.140625 33.871094 59.132812 C 33.707031 59.105469 33.53125 59.148438 33.359375 59.203125 C 33.207031 59.253906 33.054688 59.316406 32.917969 59.339844 C 32.207031 59.460938 31.492188 59.566406 30.78125 59.6875 C 28.570312 60.054688 26.316406 60.300781 24.121094 60.730469 C 24.0625 60.742188 24.023438 60.796875 24.035156 60.855469 C 24.046875 60.910156 24.101562 60.949219 24.160156 60.9375 Z M 36.976562 41.703125 C 36.902344 41.714844 36.789062 41.761719 36.667969 41.835938 C 36.503906 41.941406 36.320312 42.101562 36.195312 42.269531 C 36.03125 42.488281 35.96875 42.722656 36.089844 42.894531 C 36.195312 43.046875 36.3125 43.121094 36.425781 43.144531 C 36.597656 43.179688 36.773438 43.101562 36.925781 42.964844 C 37.15625 42.753906 37.332031 42.414062 37.367188 42.21875 C 37.378906 42.160156 37.339844 42.105469 37.285156 42.09375 C 37.226562 42.085938 37.171875 42.121094 37.160156 42.179688 C 37.128906 42.34375 36.976562 42.632812 36.785156 42.808594 C 36.6875 42.898438 36.578125 42.960938 36.46875 42.9375 C 36.398438 42.921875 36.332031 42.871094 36.265625 42.773438 C 36.234375 42.730469 36.234375 42.675781 36.246094 42.621094 C 36.265625 42.546875 36.308594 42.472656 36.363281 42.394531 C 36.476562 42.246094 36.636719 42.109375 36.785156 42.015625 C 36.871094 41.960938 36.949219 41.921875 37.003906 41.914062 C 37.0625 41.90625 37.105469 41.851562 37.097656 41.792969 C 37.089844 41.738281 37.035156 41.695312 36.976562 41.703125 Z M 34.5 36.894531 C 34.144531 36.371094 33.800781 35.804688 33.574219 35.324219 C 33.417969 34.988281 33.296875 34.640625 33.171875 34.289062 C 32.960938 33.699219 32.792969 33.105469 32.695312 32.484375 C 32.683594 32.417969 32.550781 31.933594 32.605469 31.890625 C 32.613281 31.882812 32.703125 32.128906 32.707031 32.136719 C 32.757812 32.257812 32.816406 32.382812 32.878906 32.503906 C 33.078125 32.886719 33.328125 33.226562 33.574219 33.582031 C 34.59375 35.039062 35.789062 36.554688 37.101562 37.765625 C 37.398438 38.039062 37.730469 38.300781 38.050781 38.542969 C 38.0625 38.546875 38.101562 38.582031 38.152344 38.617188 C 37.730469 38.433594 37.308594 38.238281 36.898438 38.023438 C 36.117188 37.613281 35.296875 37.273438 34.5 36.894531 Z M 41.167969 33.472656 C 41.695312 33.484375 42.339844 33.738281 43.019531 33.988281 C 43.722656 34.246094 44.457031 34.503906 45.132812 34.507812 C 45.523438 34.511719 45.933594 34.558594 46.320312 34.488281 C 46.539062 34.445312 46.804688 34.351562 47.0625 34.304688 C 47.292969 34.261719 47.515625 34.257812 47.6875 34.390625 C 47.734375 34.429688 47.800781 34.421875 47.835938 34.375 C 47.871094 34.328125 47.863281 34.261719 47.816406 34.226562 C 47.640625 34.085938 47.421875 34.054688 47.1875 34.074219 C 46.882812 34.101562 46.550781 34.230469 46.28125 34.277344 C 45.910156 34.347656 45.511719 34.300781 45.136719 34.296875 C 44.484375 34.292969 43.773438 34.039062 43.09375 33.789062 C 42.390625 33.53125 41.71875 33.273438 41.171875 33.261719 C 41.113281 33.261719 41.066406 33.308594 41.0625 33.367188 C 41.0625 33.425781 41.109375 33.472656 41.167969 33.472656 Z M 50.640625 22.675781 C 50.648438 22.667969 50.65625 22.664062 50.660156 22.65625 C 50.699219 22.613281 50.695312 22.546875 50.648438 22.507812 C 50.628906 22.488281 50.601562 22.476562 50.5625 22.484375 C 50.554688 22.484375 50.519531 22.496094 50.480469 22.539062 C 50.359375 22.671875 49.824219 23.394531 49.761719 23.503906 C 49.472656 24.011719 49.386719 24.636719 49.371094 25.273438 C 49.359375 25.894531 49.410156 26.527344 49.394531 27.078125 C 49.363281 28.21875 49.328125 29.394531 48.917969 30.476562 C 48.835938 30.6875 48.753906 30.929688 48.621094 31.101562 C 48.507812 31.25 48.351562 31.335938 48.113281 31.269531 C 47.769531 31.175781 47.515625 30.921875 47.261719 30.667969 C 46.988281 30.390625 46.722656 30.109375 46.382812 29.980469 C 46.328125 29.960938 46.265625 29.988281 46.246094 30.042969 C 46.222656 30.097656 46.253906 30.160156 46.308594 30.179688 C 46.617188 30.296875 46.859375 30.5625 47.113281 30.816406 C 47.386719 31.097656 47.675781 31.371094 48.058594 31.472656 C 48.398438 31.570312 48.625 31.445312 48.789062 31.234375 C 48.933594 31.046875 49.027344 30.78125 49.113281 30.550781 C 49.535156 29.445312 49.578125 28.25 49.609375 27.082031 C 49.621094 26.53125 49.570312 25.898438 49.582031 25.277344 C 49.597656 24.675781 49.671875 24.089844 49.945312 23.605469 C 50.003906 23.5 50.523438 22.808594 50.636719 22.679688 Z M 45.667969 26.371094 C 45.703125 26.371094 45.742188 26.355469 45.761719 26.324219 C 45.792969 26.273438 45.78125 26.207031 45.734375 26.175781 C 45.714844 26.164062 45.660156 26.148438 45.589844 26.171875 C 45.496094 26.207031 45.300781 26.324219 45.277344 26.335938 C 44.945312 26.492188 44.617188 26.652344 44.289062 26.808594 C 44.234375 26.832031 44.214844 26.894531 44.238281 26.949219 C 44.261719 27 44.328125 27.023438 44.378906 27 C 44.710938 26.839844 45.039062 26.683594 45.367188 26.527344 C 45.382812 26.519531 45.476562 26.464844 45.566406 26.417969 C 45.601562 26.398438 45.652344 26.378906 45.667969 26.371094 Z M 51.371094 25.410156 C 51.34375 25.246094 51.105469 25.125 50.980469 25.253906 C 50.769531 25.46875 50.582031 25.917969 50.519531 26.203125 C 50.484375 26.359375 50.625 26.820312 50.871094 26.648438 C 51.105469 26.480469 51.28125 26.164062 51.367188 25.898438 Z M 45.34375 23.519531 C 45.332031 23.585938 45.292969 23.378906 45.234375 23.335938 C 45.128906 23.265625 45.027344 23.308594 44.949219 23.394531 C 44.738281 23.613281 44.234375 24.585938 44.664062 24.835938 C 45.164062 25.128906 45.332031 24.046875 45.410156 23.765625 Z M 51.507812 21.386719 C 51.652344 21.519531 50.992188 22.019531 51.246094 22.203125 C 51.324219 22.261719 51.539062 22.242188 51.628906 22.253906 C 51.902344 22.285156 52.265625 22.308594 52.523438 22.40625 C 52.796875 22.511719 53.074219 22.613281 53.332031 22.757812 C 53.378906 22.785156 53.554688 22.910156 53.613281 22.878906 C 53.761719 22.804688 53.453125 22.328125 53.402344 22.261719 C 53.085938 21.804688 52.453125 21.402344 51.894531 21.328125 Z M 50.515625 22.671875 C 50.53125 22.683594 50.554688 22.695312 50.582031 22.695312 C 50.570312 22.695312 50.558594 22.691406 50.546875 22.6875 C 50.535156 22.683594 50.523438 22.679688 50.515625 22.671875 L 50.511719 22.667969 Z M 48.078125 20.082031 C 47.292969 19.789062 46.582031 19.480469 45.746094 19.335938 C 45.234375 19.25 44.722656 19.082031 44.199219 19.09375 C 43.636719 19.109375 43 19.246094 42.476562 19.457031 C 42.445312 19.46875 41.949219 19.757812 41.96875 19.773438 C 42.011719 19.804688 42.339844 19.753906 42.402344 19.753906 C 42.757812 19.746094 43.140625 19.769531 43.484375 19.851562 C 44.421875 20.070312 45.414062 20.277344 46.3125 20.621094 C 46.691406 20.765625 47.304688 21.148438 47.710938 21.144531 C 47.953125 21.144531 47.988281 20.628906 47.992188 20.492188 Z M 30.253906 20.179688 C 30.160156 19.792969 30.003906 19.472656 29.699219 19.199219 C 29.65625 19.160156 29.589844 19.160156 29.550781 19.203125 C 29.511719 19.246094 29.511719 19.316406 29.558594 19.355469 C 29.867188 19.632812 30 19.964844 30.078125 20.375 C 30.09375 20.453125 30.085938 20.59375 30.09375 20.714844 C 30.101562 20.820312 30.125 20.917969 30.167969 20.976562 C 30.199219 21.019531 30.234375 21.027344 30.257812 21.03125 C 30.292969 21.035156 30.328125 21.023438 30.355469 20.988281 C 30.363281 20.972656 30.375 20.949219 30.382812 20.914062 C 30.390625 20.871094 30.386719 20.785156 30.390625 20.742188 C 30.40625 20.636719 30.417969 20.53125 30.429688 20.425781 C 30.472656 20.109375 30.539062 19.792969 30.59375 19.480469 C 30.730469 18.710938 30.851562 17.914062 30.796875 17.128906 C 30.777344 16.863281 30.734375 16.460938 30.558594 16.242188 C 30.425781 16.074219 30.285156 16.007812 30.152344 16.003906 C 30.019531 16 29.886719 16.0625 29.761719 16.164062 C 29.441406 16.429688 29.171875 16.992188 29.078125 17.207031 C 29.039062 17.300781 28.976562 17.4375 28.953125 17.566406 C 28.933594 17.675781 28.941406 17.777344 28.988281 17.863281 C 29.015625 17.914062 29.082031 17.929688 29.132812 17.902344 C 29.183594 17.871094 29.199219 17.808594 29.171875 17.757812 C 29.148438 17.714844 29.152344 17.660156 29.160156 17.605469 C 29.183594 17.492188 29.238281 17.371094 29.273438 17.289062 C 29.332031 17.15625 29.460938 16.875 29.632812 16.632812 C 29.714844 16.507812 29.808594 16.394531 29.910156 16.316406 C 29.996094 16.25 30.078125 16.207031 30.167969 16.21875 C 30.246094 16.226562 30.316406 16.277344 30.394531 16.371094 C 30.542969 16.5625 30.566406 16.914062 30.585938 17.144531 C 30.636719 17.910156 30.519531 18.691406 30.386719 19.445312 C 30.339844 19.6875 30.292969 19.933594 30.253906 20.179688 Z M 28.90625 15.007812 C 28.902344 14.472656 28.890625 13.9375 28.902344 13.402344 C 28.941406 11.835938 29.273438 10.5 29.742188 9.015625 C 30.003906 8.191406 30.207031 7.238281 30.734375 6.539062 C 32.167969 4.640625 34.101562 3.199219 36.328125 2.355469 C 37.042969 2.085938 37.761719 1.863281 38.5 1.671875 C 38.761719 1.601562 39.03125 1.5625 39.296875 1.511719 C 39.414062 1.488281 39.78125 1.5 39.660156 1.484375 C 39.328125 1.433594 39.011719 1.367188 38.683594 1.296875 C 38.507812 1.253906 38.160156 1.148438 38.160156 1.148438 C 38.160156 1.148438 38.449219 1.132812 38.59375 1.144531 C 38.867188 1.160156 39.140625 1.128906 39.414062 1.171875 C 39.707031 1.214844 40.144531 1.304688 40.425781 1.210938 C 40.769531 1.101562 41.097656 0.789062 41.472656 0.667969 C 41.796875 0.5625 42.125 0.464844 42.441406 0.335938 C 42.546875 0.292969 42.660156 0.253906 42.769531 0.21875 C 42.835938 0.199219 42.972656 0.0859375 42.960938 0.15625 C 42.953125 0.207031 42.65625 0.367188 42.605469 0.417969 C 42.363281 0.648438 42.25 1.117188 41.996094 1.300781 C 42.277344 1.121094 42.703125 1.136719 43.019531 1.066406 C 44.167969 0.796875 45.324219 0.875 46.488281 1.011719 C 48.980469 1.308594 51.089844 2.402344 53.085938 3.828125 C 53.730469 4.289062 54.40625 4.761719 54.941406 5.351562 C 55.851562 6.359375 56.542969 7.613281 57.375 8.6875 C 58.023438 9.523438 58.878906 10.539062 59.710938 11.191406 C 60.023438 11.4375 60.410156 11.652344 60.773438 11.816406 C 60.882812 11.867188 61.167969 11.863281 61.09375 12.003906 C 61 12.1875 60.777344 12.296875 60.644531 12.453125 C 60.273438 12.898438 59.933594 13.347656 59.476562 13.714844 C 59.070312 14.039062 58.671875 14.308594 58.210938 14.542969 C 57.910156 14.695312 57.617188 14.828125 57.289062 14.917969 C 56.988281 15 56.085938 15.460938 55.769531 15.238281 C 55.75 15.226562 55.734375 15.214844 55.722656 15.199219 C 55.738281 14.722656 55.765625 14.015625 55.808594 14.003906 L 55.265625 13.339844 C 54.980469 13.054688 54.582031 12.851562 54.257812 12.617188 C 53.644531 12.183594 53.058594 11.730469 52.4375 11.3125 C 50.265625 9.851562 47.964844 8.34375 45.210938 8.472656 C 44.328125 8.515625 43.484375 8.574219 42.609375 8.691406 C 42.546875 8.699219 41.851562 8.734375 41.824219 8.851562 C 41.769531 9.0625 41.511719 9.183594 41.359375 9.3125 C 41.085938 9.542969 40.839844 9.832031 40.617188 10.113281 C 40.1875 10.664062 39.867188 11.277344 39.472656 11.847656 C 39.109375 12.382812 38.667969 12.859375 38.292969 13.382812 C 38.09375 13.664062 37.769531 14.375 37.457031 14.5625 C 37.0625 14.800781 36.40625 14.714844 36.128906 15.148438 C 35.503906 16.128906 35.0625 17.253906 34.613281 18.316406 C 34.46875 18.660156 34.347656 19.011719 34.1875 19.34375 C 34.125 19.460938 34.0625 19.578125 34.007812 19.699219 C 33.992188 19.734375 33.996094 19.847656 33.984375 19.8125 C 33.496094 19.902344 32.917969 19.660156 32.398438 19.730469 C 32.300781 19.746094 32.1875 19.765625 32.089844 19.746094 C 32.066406 19.742188 32.054688 19.671875 32.042969 19.691406 C 32.101562 18.363281 32.109375 16.683594 31.214844 15.589844 C 30.667969 14.921875 29.660156 14.496094 28.90625 15.007812 Z M 28.90625 15.007812 " fill-opacity="1" fill-rule="evenodd"/></g></svg>