<?xml version="1.0" encoding="UTF-8"?>
<!DOCTYPE svg PUBLIC "-//W3C//DTD SVG 1.1//EN" "http://www.w3.org/Graphics/SVG/1.1/DTD/svg11.dtd">
<svg xmlns="http://www.w3.org/2000/svg" version="1.1" width="326px" height="356px" style="shape-rendering:geometricPrecision; text-rendering:geometricPrecision; image-rendering:optimizeQuality; fill-rule:evenodd; clip-rule:evenodd" xmlns:xlink="http://www.w3.org/1999/xlink">
<g><path style="opacity:0.989" fill="#9fc5d9" d="M 158.5,53.5 C 158.694,56.3297 159.361,58.9963 160.5,61.5C 159.5,62.8333 158.5,62.8333 157.5,61.5C 153.739,53.3874 150.072,45.2207 146.5,37C 148.259,36.2025 149.926,36.3691 151.5,37.5C 154.228,42.692 156.561,48.0253 158.5,53.5 Z"/></g>
<g><path style="opacity:0.993" fill="#a2c7da" d="M 187.5,49.5 C 185.777,51.78 185.111,54.4467 185.5,57.5C 185.425,60.2062 185.092,62.8728 184.5,65.5C 182.712,65.7852 181.045,65.4519 179.5,64.5C 181.342,56.1301 183.342,47.7967 185.5,39.5C 187.438,38.4655 188.772,39.1322 189.5,41.5C 188.954,44.2371 188.288,46.9037 187.5,49.5 Z"/></g>
<g><path style="opacity:0.576" fill="#c8dde9" d="M 160.5,61.5 C 159.361,58.9963 158.694,56.3297 158.5,53.5C 159.268,54.2625 159.768,55.2625 160,56.5C 163.365,50.4336 166.199,44.1003 168.5,37.5C 169.365,36.4173 170.365,36.2506 171.5,37C 167.929,45.3007 164.262,53.4674 160.5,61.5 Z"/></g>
<g><path style="opacity:0.978" fill="#a4c7da" d="M 199.5,68.5 C 198.833,68.8333 198.167,69.1667 197.5,69.5C 196.244,69.5386 195.244,69.0386 194.5,68C 198.237,60.692 201.57,53.192 204.5,45.5C 206.547,44.0961 208.214,44.4294 209.5,46.5C 206.117,53.9236 202.784,61.257 199.5,68.5 Z"/></g>
<g><path style="opacity:0.99" fill="#a0c5d9" d="M 115.5,62.5 C 115.5,60.5 114.5,59.5 112.5,59.5C 110.5,58.1667 108.833,56.5 107.5,54.5C 107.144,52.8102 106.144,51.8102 104.5,51.5C 103.766,50.2921 103.433,48.9587 103.5,47.5C 104.552,47.3505 105.552,47.5172 106.5,48C 113.015,54.3478 119.348,60.8478 125.5,67.5C 124.672,68.4147 123.672,69.0814 122.5,69.5C 119.812,67.4789 117.479,65.1456 115.5,62.5 Z"/></g>
<g><path style="opacity:0.765" fill="#bed8e5" d="M 187.5,49.5 C 187.198,52.3725 186.531,55.0392 185.5,57.5C 185.111,54.4467 185.777,51.78 187.5,49.5 Z"/></g>
<g><path style="opacity:0.843" fill="#bad4e3" d="M 80.5,60.5 C 79.1667,60.8333 79.1667,61.1667 80.5,61.5C 80.1667,62.1667 79.8333,62.8333 79.5,63.5C 77.9735,62.5081 77.3068,61.0081 77.5,59C 77.7885,56.813 78.1218,54.6463 78.5,52.5C 80.3464,52.2222 81.6798,52.8888 82.5,54.5C 81.2528,56.323 80.5861,58.323 80.5,60.5 Z"/></g>
<g><path style="opacity:0.982" fill="#a4c7da" d="M 223.5,81.5 C 222.833,81.8333 222.167,82.1667 221.5,82.5C 219.727,81.6857 219.227,80.3524 220,78.5C 224.713,72.2426 229.546,66.076 234.5,60C 238.333,59.8333 239.167,61.3333 237,64.5C 232.492,70.197 227.992,75.8637 223.5,81.5 Z"/></g>
<g><path style="opacity:0.333" fill="#cce0eb" d="M 104.5,51.5 C 106.144,51.8102 107.144,52.8102 107.5,54.5C 106.2,57.0241 106.2,59.6908 107.5,62.5C 109.396,61.7255 111.063,60.7255 112.5,59.5C 114.5,59.5 115.5,60.5 115.5,62.5C 112.369,61.9344 109.536,62.9344 107,65.5C 107.672,69.1379 107.505,72.8045 106.5,76.5C 104.819,68.2589 104.152,59.9256 104.5,51.5 Z"/></g>
<g><path style="opacity:0.988" fill="#a4c8da" d="M 80.5,60.5 C 82.0174,60.5106 83.1841,61.1772 84,62.5C 88.5149,69.0105 93.0149,75.5105 97.5,82C 96.6667,84.5 95.1667,85 93,83.5C 88.2322,76.9487 83.7322,70.282 79.5,63.5C 79.8333,62.8333 80.1667,62.1667 80.5,61.5C 80.5,61.1667 80.5,60.8333 80.5,60.5 Z"/></g>
<g><path style="opacity:0.11" fill="#dbe9f1" d="M 157.5,61.5 C 158.5,62.8333 159.5,62.8333 160.5,61.5C 159.5,64.1667 158.5,64.1667 157.5,61.5 Z"/></g>
<g><path style="opacity:0.498" fill="#bed8e5" d="M 199.5,68.5 C 203,71.0594 207,72.5594 211.5,73C 212.833,73.6667 212.833,74.3333 211.5,75C 206.344,74.4473 201.677,72.614 197.5,69.5C 198.167,69.1667 198.833,68.8333 199.5,68.5 Z"/></g>
<g><path style="opacity:0.588" fill="#d1e3ed" d="M 58.5,88.5 C 57.71,87.3915 57.21,86.0581 57,84.5C 56.7679,85.7375 56.2679,86.7375 55.5,87.5C 56.558,81.0978 60.2246,76.7645 66.5,74.5C 67.5,74.8333 68.1667,75.5 68.5,76.5C 61.8437,77.8165 58.5104,81.8165 58.5,88.5 Z"/></g>
<g><path style="opacity:0.973" fill="#9fc4d8" d="M 261.5,82.5 C 261.443,83.609 261.11,84.609 260.5,85.5C 258.393,87.7267 256.06,89.7267 253.5,91.5C 252.29,91.9321 251.29,92.5987 250.5,93.5C 248.393,95.7267 246.06,97.7267 243.5,99.5C 242.5,99.5 241.5,99.5 240.5,99.5C 239.711,99.2172 239.044,98.7172 238.5,98C 245.167,92.6667 251.833,87.3333 258.5,82C 259.749,81.2599 260.749,81.4265 261.5,82.5 Z"/></g>
<g><path style="opacity:0.335" fill="#c8dde9" d="M 223.5,81.5 C 226.567,84.8789 230.234,87.5456 234.5,89.5C 233.277,90.6139 231.944,90.7805 230.5,90C 227.31,87.6356 224.31,85.1356 221.5,82.5C 222.167,82.1667 222.833,81.8333 223.5,81.5 Z"/></g>
<g><path style="opacity:0.99" fill="#8fbcd3" d="M 214.5,103.5 C 214.973,104.906 215.973,105.573 217.5,105.5C 220.167,107.5 222.5,109.833 224.5,112.5C 224.738,114.404 225.738,115.738 227.5,116.5C 245.062,137.745 251.229,162.079 246,189.5C 237.577,225.089 215.744,247.756 180.5,257.5C 179.558,257.392 178.725,257.059 178,256.5C 177.167,227.494 177.333,198.494 178.5,169.5C 179.865,168.193 181.198,168.193 182.5,169.5C 182.5,196.5 182.5,223.5 182.5,250.5C 183.791,250.737 184.791,250.404 185.5,249.5C 196.206,245.646 205.873,239.979 214.5,232.5C 217.5,231.5 219.5,229.5 220.5,226.5C 245.813,194.398 247.98,160.732 227,125.5C 203.37,95.2778 172.87,84.7778 135.5,94C 99.1992,107.308 80.1992,133.308 78.5,172C 79.7843,203.917 94.1176,227.917 121.5,244C 125.822,245.938 130.155,247.771 134.5,249.5C 134.56,250.043 134.893,250.376 135.5,250.5C 136.5,224.175 136.833,197.842 136.5,171.5C 137.609,167.971 139.442,167.638 142,170.5C 142.667,198.833 142.667,227.167 142,255.5C 141.5,256 141,256.5 140.5,257C 111.788,250.978 91.2876,234.478 79,207.5C 65.133,170.178 71.633,137.011 98.5,108C 129.784,81.9286 164.117,77.262 201.5,94C 206.256,96.6991 210.589,99.8658 214.5,103.5 Z M 121.5,152.5 C 121.5,152.833 121.5,153.167 121.5,153.5C 119.915,154.002 119.415,155.002 120,156.5C 121.171,157.893 122.671,158.727 124.5,159C 127.167,161.333 127.167,163.667 124.5,166C 116.643,165.801 114.143,161.967 117,154.5C 118.11,152.963 119.61,152.297 121.5,152.5 Z M 198.5,152.5 C 201.845,153.348 203.512,155.515 203.5,159C 203.267,165.11 200.267,167.277 194.5,165.5C 191.833,163.5 191.833,161.5 194.5,159.5C 199.2,158.985 200.533,156.651 198.5,152.5 Z"/></g>
<g><path style="opacity:0.416" fill="#d0e3ec" d="M 261.5,82.5 C 265.032,85.8712 268.032,89.7045 270.5,94C 270.37,95.0588 269.87,95.8921 269,96.5C 266.685,92.362 263.852,88.6953 260.5,85.5C 261.11,84.609 261.443,83.609 261.5,82.5 Z"/></g>
<g><path style="opacity:0.972" fill="#9ec4d8" d="M 58.5,88.5 C 61.5643,96.1979 67.2309,100.198 75.5,100.5C 76.1667,100.5 76.5,100.833 76.5,101.5C 68.4337,105.092 61.9337,103.092 57,95.5C 55.7475,92.9865 55.2475,90.3198 55.5,87.5C 56.2679,86.7375 56.7679,85.7375 57,84.5C 57.21,86.0581 57.71,87.3915 58.5,88.5 Z"/></g>
<g><path style="opacity:0.522" fill="#d1e3ed" d="M 253.5,91.5 C 255.666,93.8367 257.666,96.3367 259.5,99C 259,99.5 258.5,100 258,100.5C 255.91,97.5724 253.41,95.2391 250.5,93.5C 251.29,92.5987 252.29,91.9321 253.5,91.5 Z"/></g>
<g><path style="opacity:0.659" fill="#cadfea" d="M 76.5,101.5 C 76.5,100.833 76.1667,100.5 75.5,100.5C 79.6851,97.6339 81.6851,93.6339 81.5,88.5C 82.5,88.5 83.5,88.5 84.5,88.5C 84.7022,90.9892 84.2022,93.3225 83,95.5C 81.5945,98.4086 79.4278,100.409 76.5,101.5 Z"/></g>
<g><path style="opacity:0.502" fill="#cbdfea" d="M 240.5,99.5 C 241.5,99.5 242.5,99.5 243.5,99.5C 245.202,104.041 248.202,107.541 252.5,110C 251.892,110.87 251.059,111.37 250,111.5C 246.111,108.047 242.944,104.047 240.5,99.5 Z"/></g>
<g><path style="opacity:0.082" fill="#dce9f1" d="M 214.5,103.5 C 216.027,103.427 217.027,104.094 217.5,105.5C 215.973,105.573 214.973,104.906 214.5,103.5 Z"/></g>
<g><path style="opacity:0.988" fill="#92bdd4" d="M 158.5,104.5 C 159.609,104.557 160.609,104.89 161.5,105.5C 163.385,107.311 165.719,108.478 168.5,109C 167.099,110.677 165.765,112.344 164.5,114C 165.148,115.44 165.481,116.94 165.5,118.5C 163.173,118.753 161.173,118.086 159.5,116.5C 158.15,117.95 156.484,118.617 154.5,118.5C 154.702,116.05 154.369,113.717 153.5,111.5C 153.5,110.5 153.5,109.5 153.5,108.5C 155.483,108.843 156.817,108.176 157.5,106.5C 157.833,105.833 158.167,105.167 158.5,104.5 Z"/></g>
<g><path style="opacity:0.333" fill="#cde0eb" d="M 161.5,105.5 C 160.609,104.89 159.609,104.557 158.5,104.5C 160.013,101.952 161.013,102.285 161.5,105.5 Z"/></g>
<g><path style="opacity:0.982" fill="#96c0d5" d="M 50.5,112.5 C 50.6621,114.527 50.4955,116.527 50,118.5C 49.7679,117.263 49.2679,116.263 48.5,115.5C 46.9856,112.905 44.6523,111.571 41.5,111.5C 40.7611,111.631 40.0944,111.464 39.5,111C 40.3805,110.292 41.0472,109.458 41.5,108.5C 45.7481,106.787 48.7481,108.12 50.5,112.5 Z"/></g>
<g><path style="opacity:0.822" fill="#c6dce8" d="M 157.5,106.5 C 156.817,108.176 155.483,108.843 153.5,108.5C 153.5,109.5 153.5,110.5 153.5,111.5C 151.915,110.998 151.415,109.998 152,108.5C 153.815,107.756 155.648,107.089 157.5,106.5 Z"/></g>
<g><path style="opacity:0.067" fill="#e3edf3" d="M 127.5,111.5 C 128.623,110.243 129.289,110.576 129.5,112.5C 128.833,112.167 128.167,111.833 127.5,111.5 Z"/></g>
<g><path style="opacity:0.987" fill="#8ebbd2" d="M 127.5,111.5 C 128.167,111.833 128.833,112.167 129.5,112.5C 129.5,112.833 129.5,113.167 129.5,113.5C 131.167,115.5 132.833,117.5 134.5,119.5C 134.5,120.167 134.167,120.5 133.5,120.5C 133.028,122.531 132.028,124.198 130.5,125.5C 129.504,125.586 128.671,125.252 128,124.5C 126.416,125.861 124.582,126.528 122.5,126.5C 124.43,122.455 123.43,119.288 119.5,117C 123.368,116.687 126.035,114.854 127.5,111.5 Z"/></g>
<g><path style="opacity:0.983" fill="#94bed4" d="M 189.5,116.5 C 191.483,116.843 192.817,116.176 193.5,114.5C 195.324,109.196 196.99,109.363 198.5,115C 200.5,115.667 202.5,116.333 204.5,117C 200.633,119.646 199.466,123.146 201,127.5C 198.007,124.386 194.84,124.053 191.5,126.5C 191.101,123.029 189.767,120.029 187.5,117.5C 187.957,116.702 188.624,116.369 189.5,116.5 Z"/></g>
<g><path style="opacity:0.263" fill="#d2e4ed" d="M 65.5,117.5 C 65.6716,116.508 65.3382,115.842 64.5,115.5C 63.0728,113.1 63.5728,112.433 66,113.5C 66.765,115.066 66.5983,116.399 65.5,117.5 Z"/></g>
<g><path style="opacity:0.975" fill="#a2c7da" d="M 277.5,113.5 C 277.611,114.117 277.944,114.617 278.5,115C 276.292,115.191 274.292,115.691 272.5,116.5C 267.42,117.696 263.42,120.362 260.5,124.5C 259.833,126.167 259.167,127.833 258.5,129.5C 257.969,116.379 264.303,111.045 277.5,113.5 Z"/></g>
<g><path style="opacity:0.443" fill="#cce0eb" d="M 224.5,112.5 C 226.262,113.262 227.262,114.596 227.5,116.5C 225.738,115.738 224.738,114.404 224.5,112.5 Z"/></g>
<g><path style="opacity:0.357" fill="#d3e4ed" d="M 41.5,108.5 C 41.0472,109.458 40.3805,110.292 39.5,111C 40.0944,111.464 40.7611,111.631 41.5,111.5C 38.2037,113.749 36.8704,116.749 37.5,120.5C 36.391,120.443 35.391,120.11 34.5,119.5C 35.1133,114.578 37.4466,110.911 41.5,108.5 Z"/></g>
<g><path style="opacity:0.576" fill="#d7e6ef" d="M 193.5,114.5 C 192.817,116.176 191.483,116.843 189.5,116.5C 190.671,115.655 192.005,114.989 193.5,114.5 Z"/></g>
<g><path style="opacity:0.954" fill="#9ec4d8" d="M 64.5,115.5 C 65.3382,115.842 65.6716,116.508 65.5,117.5C 65.1193,118.931 64.1193,119.764 62.5,120C 58.4155,120.233 54.4155,120.733 50.5,121.5C 49.1667,121.5 48.5,120.833 48.5,119.5C 50.3797,119.771 51.713,119.104 52.5,117.5C 56.2095,115.864 60.2095,115.198 64.5,115.5 Z"/></g>
<g><path style="opacity:0.733" fill="#bdd7e4" d="M 129.5,113.5 C 131.802,114.829 134.136,116.162 136.5,117.5C 136.145,118.522 135.478,119.189 134.5,119.5C 132.833,117.5 131.167,115.5 129.5,113.5 Z"/></g>
<g><path style="opacity:0.667" fill="#c6dce8" d="M 277.5,113.5 C 284.513,116.755 287.846,122.422 287.5,130.5C 286.127,130.657 284.793,130.49 283.5,130C 285.613,120.937 281.946,116.437 272.5,116.5C 274.292,115.691 276.292,115.191 278.5,115C 277.944,114.617 277.611,114.117 277.5,113.5 Z"/></g>
<g><path style="opacity:0.545" fill="#cfe2eb" d="M 50.5,112.5 C 51.1667,114.167 51.8333,115.833 52.5,117.5C 51.713,119.104 50.3797,119.771 48.5,119.5C 48.5,118.167 48.5,116.833 48.5,115.5C 49.2679,116.263 49.7679,117.263 50,118.5C 50.4955,116.527 50.6621,114.527 50.5,112.5 Z"/></g>
<g><path style="opacity:0.975" fill="#9fc5d9" d="M 34.5,119.5 C 35.391,120.11 36.391,120.443 37.5,120.5C 39.9538,121.227 42.2872,122.227 44.5,123.5C 45.2905,124.401 46.2905,125.068 47.5,125.5C 51.3621,126.428 55.0288,127.928 58.5,130C 59.6405,130.741 59.6405,131.575 58.5,132.5C 57.277,133.614 55.9437,133.781 54.5,133C 47.7905,129.93 41.1238,126.763 34.5,123.5C 33.218,122.042 33.218,120.708 34.5,119.5 Z"/></g>
<g><path style="opacity:0.439" fill="#d4e5ee" d="M 48.5,119.5 C 48.5,120.833 49.1667,121.5 50.5,121.5C 48.7706,122.236 47.7706,123.57 47.5,125.5C 46.2905,125.068 45.2905,124.401 44.5,123.5C 46.2737,122.63 47.607,121.297 48.5,119.5 Z"/></g>
<g><path style="opacity:0.584" fill="#cbdfea" d="M 133.5,120.5 C 133.663,122.857 133.497,125.19 133,127.5C 132.005,126.934 131.172,126.267 130.5,125.5C 132.028,124.198 133.028,122.531 133.5,120.5 Z"/></g>
<g><path style="opacity:0.333" fill="#d2e4ed" d="M 260.5,124.5 C 259.742,129.271 261.075,133.271 264.5,136.5C 263.833,136.5 263.5,136.833 263.5,137.5C 260.368,135.797 258.701,133.13 258.5,129.5C 259.167,127.833 259.833,126.167 260.5,124.5 Z"/></g>
<g><path style="opacity:0.924" fill="#a1c6d9" d="M 263.5,137.5 C 263.5,136.833 263.833,136.5 264.5,136.5C 267.782,135.461 270.948,134.128 274,132.5C 274.956,133.579 275.789,134.745 276.5,136C 273.409,137.628 270.243,139.128 267,140.5C 265.482,139.837 264.315,138.837 263.5,137.5 Z"/></g>
<g><path style="opacity:0.982" fill="#88b7d0" d="M 110.5,134.5 C 143.502,134.333 176.502,134.5 209.5,135C 210.833,136.667 210.833,138.333 209.5,140C 176.168,140.5 142.835,140.667 109.5,140.5C 109.325,138.379 109.659,136.379 110.5,134.5 Z"/></g>
<g><path style="opacity:0.929" fill="#9bc2d7" d="M 43.5,148.5 C 41.901,148.232 40.5676,148.566 39.5,149.5C 37.2362,150.219 34.9029,150.552 32.5,150.5C 31.391,150.557 30.391,150.89 29.5,151.5C 26.2693,150.902 25.936,149.736 28.5,148C 36.8789,146.322 45.2122,144.488 53.5,142.5C 55.6454,143.682 55.6454,145.182 53.5,147C 50.1727,147.61 46.8394,148.11 43.5,148.5 Z"/></g>
<g><path style="opacity:0.989" fill="#8cbad1" d="M 207.5,150.5 C 207.427,152.027 208.094,153.027 209.5,153.5C 211.97,167.196 206.303,173.362 192.5,172C 186.458,168.252 184.958,163.085 188,156.5C 190.295,154.062 193.128,152.562 196.5,152C 195.906,151.536 195.239,151.369 194.5,151.5C 170.167,150.167 145.833,150.167 121.5,151.5C 121.5,151.833 121.5,152.167 121.5,152.5C 119.61,152.297 118.11,152.963 117,154.5C 114.143,161.967 116.643,165.801 124.5,166C 127.167,163.667 127.167,161.333 124.5,159C 122.671,158.727 121.171,157.893 120,156.5C 119.415,155.002 119.915,154.002 121.5,153.5C 123.5,153.5 125.5,153.5 127.5,153.5C 134.14,157.828 135.14,163.328 130.5,170C 114.929,175.615 108.096,170.115 110,153.5C 111.263,149.781 113.763,147.281 117.5,146C 145.5,145.333 173.5,145.333 201.5,146C 204.106,146.792 206.106,148.292 207.5,150.5 Z M 121.5,152.5 C 121.5,152.833 121.5,153.167 121.5,153.5C 119.915,154.002 119.415,155.002 120,156.5C 121.171,157.893 122.671,158.727 124.5,159C 127.167,161.333 127.167,163.667 124.5,166C 116.643,165.801 114.143,161.967 117,154.5C 118.11,152.963 119.61,152.297 121.5,152.5 Z M 198.5,152.5 C 200.533,156.651 199.2,158.985 194.5,159.5C 191.833,161.5 191.833,163.5 194.5,165.5C 200.267,167.277 203.267,165.11 203.5,159C 203.512,155.515 201.845,153.348 198.5,152.5 Z"/></g>
<g><path style="opacity:0.589" fill="#b1d0e0" d="M 121.5,151.5 C 145.833,150.167 170.167,150.167 194.5,151.5C 170.831,151.333 147.164,151.5 123.5,152C 125.058,152.21 126.391,152.71 127.5,153.5C 125.5,153.5 123.5,153.5 121.5,153.5C 121.5,153.167 121.5,152.833 121.5,152.5C 122.833,152.167 122.833,151.833 121.5,151.5 Z"/></g>
<g><path style="opacity:0.227" fill="#d6e6ee" d="M 207.5,150.5 C 208.906,150.973 209.573,151.973 209.5,153.5C 208.094,153.027 207.427,152.027 207.5,150.5 Z"/></g>
<g><path style="opacity:0.365" fill="#d0e2ec" d="M 39.5,149.5 C 40.5676,148.566 41.901,148.232 43.5,148.5C 42.8654,151.493 42.6987,154.493 43,157.5C 45.3974,159.782 48.2307,161.116 51.5,161.5C 51.719,162.675 51.3857,163.675 50.5,164.5C 43.2684,160.392 36.2684,156.059 29.5,151.5C 30.391,150.89 31.391,150.557 32.5,150.5C 34.2367,152.88 36.57,154.547 39.5,155.5C 40.4556,154.135 41.1223,152.635 41.5,151C 41.1639,149.97 40.4972,149.47 39.5,149.5 Z"/></g>
<g><path style="opacity:0.999" fill="#97c0d5" d="M 137.5,154.5 C 152.17,154.333 166.837,154.5 181.5,155C 184.326,157.522 183.993,159.522 180.5,161C 166.5,161.667 152.5,161.667 138.5,161C 135.149,159.175 134.816,157.008 137.5,154.5 Z"/></g>
<g><path style="opacity:0.345" fill="#cee1eb" d="M 291.5,157.5 C 290.041,157.433 288.708,157.766 287.5,158.5C 284.916,156.528 281.916,155.528 278.5,155.5C 278.025,158.082 278.692,160.082 280.5,161.5C 279.486,162.674 278.153,163.34 276.5,163.5C 276.817,160.428 276.484,157.428 275.5,154.5C 272.627,153.225 269.627,152.392 266.5,152C 265.289,151.107 265.289,150.274 266.5,149.5C 274.899,152.342 283.233,155.009 291.5,157.5 Z"/></g>
<g><path style="opacity:0.949" fill="#a2c6da" d="M 291.5,157.5 C 293.549,157.706 293.883,158.539 292.5,160C 288.598,162.119 284.598,163.952 280.5,165.5C 278.847,165.66 277.514,166.326 276.5,167.5C 276.5,167.833 276.5,168.167 276.5,168.5C 273.702,169.1 271.035,170.1 268.5,171.5C 267.585,170.672 266.919,169.672 266.5,168.5C 269.577,166.295 272.91,164.628 276.5,163.5C 278.153,163.34 279.486,162.674 280.5,161.5C 282.713,160.227 285.046,159.227 287.5,158.5C 288.708,157.766 290.041,157.433 291.5,157.5 Z"/></g>
<g><path style="opacity:0.993" fill="#97c0d5" d="M 150.5,163.5 C 152.766,163.141 154.599,163.808 156,165.5C 156.667,192.5 156.667,219.5 156,246.5C 154.522,249.993 152.522,250.326 150,247.5C 149.176,219.428 149.343,191.428 150.5,163.5 Z"/></g>
<g><path style="opacity:0.999" fill="#86b6cf" d="M 164.5,164.5 C 165.833,164.5 167.167,164.5 168.5,164.5C 168.5,192.5 168.5,220.5 168.5,248.5C 166.847,249.799 165.347,249.466 164,247.5C 163.17,219.664 163.336,191.997 164.5,164.5 Z"/></g>
<g><path style="opacity:0.776" fill="#94bfd4" d="M 164.5,164.5 C 165.919,163.549 167.585,163.216 169.5,163.5C 169.831,192.005 169.498,220.338 168.5,248.5C 168.5,220.5 168.5,192.5 168.5,164.5C 167.167,164.5 165.833,164.5 164.5,164.5 Z"/></g>
<g><path style="opacity:0.027" fill="#ebf3f7" d="M 280.5,165.5 C 281.167,166.167 281.833,166.833 282.5,167.5C 280.708,167.366 279.042,167.699 277.5,168.5C 277.5,167.833 277.167,167.5 276.5,167.5C 277.514,166.326 278.847,165.66 280.5,165.5 Z"/></g>
<g><path style="opacity:0.985" fill="#93bdd4" d="M 41.5,169.5 C 41.938,173.908 39.938,175.575 35.5,174.5C 32.932,172.331 32.932,169.998 35.5,167.5C 38.3116,165.992 40.3116,166.659 41.5,169.5 Z"/></g>
<g><path style="opacity:0.972" fill="#91bcd3" d="M 282.5,167.5 C 285.802,169.45 286.136,171.783 283.5,174.5C 278.2,176.209 275.867,174.209 276.5,168.5C 276.833,168.5 277.167,168.5 277.5,168.5C 279.042,167.699 280.708,167.366 282.5,167.5 Z"/></g>
<g><path style="opacity:0.59" fill="#b1d0e0" d="M 182.5,169.5 C 182.836,196.349 183.836,223.016 185.5,249.5C 184.791,250.404 183.791,250.737 182.5,250.5C 182.5,223.5 182.5,196.5 182.5,169.5 Z"/></g>
<g><path style="opacity:0.206" fill="#deebf1" d="M 136.5,171.5 C 136.833,197.842 136.5,224.175 135.5,250.5C 134.893,250.376 134.56,250.043 134.5,249.5C 135.167,223.5 135.833,197.5 136.5,171.5 Z"/></g>
<g><path style="opacity:0.678" fill="#cee1eb" d="M 41.5,169.5 C 42.4345,170.568 42.7678,171.901 42.5,173.5C 44.7354,173.205 46.7354,173.539 48.5,174.5C 45.1194,174.46 41.7861,174.793 38.5,175.5C 38.5,176.5 38.5,177.5 38.5,178.5C 37.6588,177.074 36.6588,175.74 35.5,174.5C 39.938,175.575 41.938,173.908 41.5,169.5 Z"/></g>
<g><path style="opacity:0.97" fill="#8bb9d1" d="M 48.5,174.5 C 49.1157,175.798 49.1157,176.798 48.5,177.5C 45.1933,178.051 41.8599,178.384 38.5,178.5C 38.5,177.5 38.5,176.5 38.5,175.5C 41.7861,174.793 45.1194,174.46 48.5,174.5 Z"/></g>
<g><path style="opacity:0.972" fill="#9dc4d8" d="M 292.5,187.5 C 292.672,188.492 292.338,189.158 291.5,189.5C 289.989,187.559 287.989,187.059 285.5,188C 282.833,192 279.5,195.333 275.5,198C 273.167,198.667 270.833,198.667 268.5,198C 267.619,197.292 266.953,196.458 266.5,195.5C 266.328,194.508 266.662,193.842 267.5,193.5C 269.402,194.511 271.402,194.678 273.5,194C 275.037,192.293 276.704,190.793 278.5,189.5C 280.5,188.167 282.167,186.5 283.5,184.5C 285.628,183.371 287.961,183.204 290.5,184C 291.823,184.816 292.489,185.983 292.5,187.5 Z"/></g>
<g><path style="opacity:0.596" fill="#c9dee9" d="M 283.5,184.5 C 282.167,186.5 280.5,188.167 278.5,189.5C 279.167,186.833 280.833,185.167 283.5,184.5 Z"/></g>
<g><path style="opacity:0.71" fill="#c1d9e6" d="M 48.5,174.5 C 53.6021,179.89 54.6021,185.89 51.5,192.5C 51.631,191.761 51.4643,191.094 51,190.5C 49.871,192.141 48.371,193.141 46.5,193.5C 52.2382,188.807 52.9049,183.474 48.5,177.5C 49.1157,176.798 49.1157,175.798 48.5,174.5 Z"/></g>
<g><path style="opacity:0.951" fill="#9cc3d7" d="M 51.5,192.5 C 50.7457,195.091 49.079,196.924 46.5,198C 41.8164,199.909 37.1497,199.909 32.5,198C 30.6763,197.34 29.343,196.173 28.5,194.5C 28.8417,193.662 29.5084,193.328 30.5,193.5C 35.7958,196.048 41.1292,196.048 46.5,193.5C 48.371,193.141 49.871,192.141 51,190.5C 51.4643,191.094 51.631,191.761 51.5,192.5 Z"/></g>
<g><path style="opacity:0.608" fill="#c4dbe7" d="M 30.5,193.5 C 29.5084,193.328 28.8417,193.662 28.5,194.5C 24.9114,190.566 23.7448,185.899 25,180.5C 25.8261,178.595 26.9928,178.261 28.5,179.5C 25.4828,184.727 26.1495,189.393 30.5,193.5 Z"/></g>
<g><path style="opacity:0.737" fill="#cce0ea" d="M 267.5,193.5 C 266.662,193.842 266.328,194.508 266.5,195.5C 263.926,190.837 264.259,186.171 267.5,181.5C 268.723,180.386 270.056,180.219 271.5,181C 267.383,184.374 266.05,188.54 267.5,193.5 Z"/></g>
<g><path style="opacity:0.698" fill="#c5dce8" d="M 292.5,187.5 C 294.036,191.556 293.369,195.389 290.5,199C 289.365,199.749 288.365,199.583 287.5,198.5C 290.199,196.102 291.533,193.102 291.5,189.5C 292.338,189.158 292.672,188.492 292.5,187.5 Z"/></g>
<g><path style="opacity:0.796" fill="#acccde" d="M 43.5,227.5 C 41.8333,226.833 40.1667,226.167 38.5,225.5C 53.9318,219.424 56.2651,222.591 45.5,235C 44.5165,235.591 43.8499,235.257 43.5,234C 44.7201,231.83 44.7201,229.663 43.5,227.5 Z M 46.5,225.5 C 47.7733,226.077 47.7733,226.743 46.5,227.5C 45.537,227.03 45.537,226.363 46.5,225.5 Z"/></g>
<g><path style="opacity:0.259" fill="#e5eff5" d="M 38.5,225.5 C 40.1667,226.167 41.8333,226.833 43.5,227.5C 41.396,227.799 39.396,227.466 37.5,226.5C 37.6236,225.893 37.9569,225.56 38.5,225.5 Z"/></g>
<g><path style="opacity:0.714" fill="#bfd8e5" d="M 220.5,226.5 C 219.5,229.5 217.5,231.5 214.5,232.5C 216.167,230.167 218.167,228.167 220.5,226.5 Z"/></g>
<g><path style="opacity:0.006" fill="#f4f8fa" d="M 60.5,234.5 C 61.782,235.708 61.782,237.042 60.5,238.5C 59.8933,238.376 59.56,238.043 59.5,237.5C 60.404,236.791 60.7373,235.791 60.5,234.5 Z"/></g>
<g><path style="opacity:0.8" fill="#b0cfdf" d="M 262.5,227.5 C 267.095,228.815 271.761,229.815 276.5,230.5C 276.578,233.487 275.411,234.153 273,232.5C 269.258,234.451 268.758,236.951 271.5,240C 270.975,240.692 270.308,241.192 269.5,241.5C 266.072,237.31 263.738,232.643 262.5,227.5 Z M 266.5,232.5 C 267.077,231.227 267.743,231.227 268.5,232.5C 268.03,233.463 267.363,233.463 266.5,232.5 Z"/></g>
<g><path style="opacity:0.925" fill="#a9cbdd" d="M 60.5,234.5 C 60.7373,235.791 60.404,236.791 59.5,237.5C 59.573,235.973 58.9063,234.973 57.5,234.5C 56.5222,234.811 55.8555,235.478 55.5,236.5C 57.8815,242.62 55.8815,244.787 49.5,243C 48.1387,241.416 47.472,239.582 47.5,237.5C 49.9732,237.736 51.6399,239.069 52.5,241.5C 52.7472,238.656 53.0805,235.823 53.5,233C 55.5,232.333 57.5,232.333 59.5,233C 60.056,233.383 60.3893,233.883 60.5,234.5 Z"/></g>
<g><path style="opacity:0.337" fill="#d9e7f0" d="M 57.5,234.5 C 58.9063,234.973 59.573,235.973 59.5,237.5C 58.0937,237.027 57.427,236.027 57.5,234.5 Z"/></g>
<g><path style="opacity:0.898" fill="#b4d2e1" d="M 255.5,237.5 C 263.489,237.313 266.322,240.979 264,248.5C 262.737,250.797 260.903,251.63 258.5,251C 255.812,248.312 253.145,245.645 250.5,243C 251.679,240.657 253.346,238.824 255.5,237.5 Z M 256.5,240.5 C 262.329,241.157 263.496,243.823 260,248.5C 258.167,246.667 256.333,244.833 254.5,243C 255.381,242.292 256.047,241.458 256.5,240.5 Z"/></g>
<g><path style="opacity:0.859" fill="#b0cfdf" d="M 62.5,240.5 C 66.155,240.472 68.8217,242.139 70.5,245.5C 70.1924,246.308 69.6924,246.975 69,247.5C 67.6667,246.167 66.3333,244.833 65,243.5C 63.1645,245.727 63.6645,247.56 66.5,249C 64.2733,250.835 62.4399,250.335 61,247.5C 60.5,248 60,248.5 59.5,249C 61.845,250.724 62.345,252.557 61,254.5C 59.1884,252.688 57.3551,250.855 55.5,249C 58.4468,246.564 60.7801,243.731 62.5,240.5 Z"/></g>
<g><path style="opacity:0.996" fill="#8ebbd2" d="M 148.5,252.5 C 156.196,252.169 163.862,252.503 171.5,253.5C 172.859,255.306 172.525,256.806 170.5,258C 163.167,258.667 155.833,258.667 148.5,258C 147.248,256.172 147.248,254.339 148.5,252.5 Z"/></g>
<g><path style="opacity:0.908" fill="#afcedf" d="M 243.5,248.5 C 248.261,250.379 252.927,252.546 257.5,255C 256.892,255.87 256.059,256.37 255,256.5C 250.08,254.922 248.247,256.589 249.5,261.5C 249.167,262.5 248.5,263.167 247.5,263.5C 244.869,258.645 243.536,253.645 243.5,248.5 Z M 246.5,252.5 C 247.289,252.783 247.956,253.283 248.5,254C 247.184,254.528 246.517,254.028 246.5,252.5 Z"/></g>
<g><path style="opacity:0.909" fill="#aaccdd" d="M 237.5,255.5 C 237.176,259.555 237.509,263.555 238.5,267.5C 239.107,267.376 239.44,267.043 239.5,266.5C 241.111,263.837 243.111,263.337 245.5,265C 242.55,267.639 239.217,269.473 235.5,270.5C 235.665,266.818 235.499,263.152 235,259.5C 233.414,260.376 231.914,261.376 230.5,262.5C 229.246,260.741 229.579,259.241 231.5,258C 233.333,256.833 235.167,255.667 237,254.5C 237.399,254.728 237.565,255.062 237.5,255.5 Z"/></g>
<g><path style="opacity:0.941" fill="#b4d1e1" d="M 71.5,248.5 C 74.8254,248.494 77.1587,249.994 78.5,253C 76.2733,254.835 74.4399,254.335 73,251.5C 72.6577,253.818 73.1577,255.985 74.5,258C 70.555,262.916 67.2217,262.416 64.5,256.5C 65,256.167 65.5,255.833 66,255.5C 70.5042,260.843 71.6709,259.843 69.5,252.5C 69.8029,250.886 70.4695,249.552 71.5,248.5 Z"/></g>
<g><path style="opacity:0.148" fill="#e2edf3" d="M 237.5,255.5 C 238.167,259.167 238.833,262.833 239.5,266.5C 239.44,267.043 239.107,267.376 238.5,267.5C 237.509,263.555 237.176,259.555 237.5,255.5 Z"/></g>
<g><path style="opacity:0.922" fill="#b1d0e0" d="M 81.5,256.5 C 88.4528,257.062 90.9528,260.729 89,267.5C 83.7845,272.019 79.4512,271.353 76,265.5C 75.3046,260.882 77.1379,257.882 81.5,256.5 Z M 81.5,259.5 C 87.5289,261.309 88.0289,264.309 83,268.5C 77.7032,266.145 77.2032,263.145 81.5,259.5 Z"/></g>
<g><path style="opacity:0.798" fill="#afcfdf" d="M 224.5,262.5 C 227.71,265.247 230.043,268.747 231.5,273C 231.167,273.5 230.833,274 230.5,274.5C 227.856,271.891 225.689,268.891 224,265.5C 223.53,264.423 223.697,263.423 224.5,262.5 Z"/></g>
<g><path style="opacity:0.88" fill="#aacbdd" d="M 221.5,277.5 C 222.492,277.328 223.158,277.662 223.5,278.5C 223.158,279.338 222.492,279.672 221.5,279.5C 220.041,279.567 218.708,279.234 217.5,278.5C 216.597,276.364 215.431,274.364 214,272.5C 213.219,271.056 213.386,269.723 214.5,268.5C 216.62,271.78 218.954,274.78 221.5,277.5 Z"/></g>
<g><path style="opacity:0.729" fill="#b5d2e1" d="M 106.5,268.5 C 108.604,268.201 110.604,268.534 112.5,269.5C 111.372,270.262 110.205,270.929 109,271.5C 107.661,275.511 105.828,279.178 103.5,282.5C 102.692,282.192 102.025,281.692 101.5,281C 103.592,276.985 105.259,272.819 106.5,268.5 Z"/></g>
<g><path style="opacity:0.722" fill="#cce0ea" d="M 196.5,279.5 C 195.033,276.742 194.367,277.075 194.5,280.5C 192.318,278.313 192.484,276.646 195,275.5C 196.188,276.563 196.688,277.897 196.5,279.5 Z"/></g>
<g><path style="opacity:0.792" fill="#c2dae7" d="M 223.5,278.5 C 223.158,277.662 222.492,277.328 221.5,277.5C 222.751,275.439 224.418,275.106 226.5,276.5C 225.995,277.919 224.995,278.585 223.5,278.5 Z"/></g>
<g><path style="opacity:0.749" fill="#aecede" d="M 93.5,264.5 C 102.429,265.717 103.762,269.55 97.5,276C 99.2679,279.307 98.4346,280.141 95,278.5C 94.6667,276.5 94.3333,274.5 94,272.5C 93.059,274.061 91.8924,275.395 90.5,276.5C 89.6919,276.192 89.0253,275.692 88.5,275C 90.5793,271.676 92.2459,268.176 93.5,264.5 Z M 95.5,267.5 C 96.9953,267.415 97.9953,268.081 98.5,269.5C 95.2218,271.151 94.2218,270.485 95.5,267.5 Z"/></g>
<g><path style="opacity:0.904" fill="#a8cadc" d="M 206.5,273.5 C 205.74,274.893 205.074,276.393 204.5,278C 204.833,278.833 205.167,279.667 205.5,280.5C 206.107,280.376 206.44,280.043 206.5,279.5C 206.833,279.5 207.167,279.5 207.5,279.5C 209.698,279.409 210.031,280.075 208.5,281.5C 205.916,282.048 204.916,283.715 205.5,286.5C 204.5,286.5 203.5,286.5 202.5,286.5C 202.353,281.786 202.686,277.119 203.5,272.5C 204.791,272.263 205.791,272.596 206.5,273.5 Z"/></g>
<g><path style="opacity:0.824" fill="#b4d1e1" d="M 206.5,273.5 C 210.318,275.977 212.985,279.311 214.5,283.5C 212.315,283.296 210.315,282.63 208.5,281.5C 210.031,280.075 209.698,279.409 207.5,279.5C 207.631,278.624 207.298,277.957 206.5,277.5C 205.227,278.257 205.227,278.923 206.5,279.5C 206.44,280.043 206.107,280.376 205.5,280.5C 205.167,279.667 204.833,278.833 204.5,278C 205.074,276.393 205.74,274.893 206.5,273.5 Z M 207.5,279.5 C 207.167,279.5 206.833,279.5 206.5,279.5C 205.227,278.923 205.227,278.257 206.5,277.5C 207.298,277.957 207.631,278.624 207.5,279.5 Z"/></g>
<g><path style="opacity:0.302" fill="#dbe9f1" d="M 217.5,278.5 C 218.708,279.234 220.041,279.567 221.5,279.5C 221.083,280.124 220.416,280.457 219.5,280.5C 218.287,280.253 217.62,279.586 217.5,278.5 Z"/></g>
<g><path style="opacity:0.6" fill="#d7e7ef" d="M 140.5,281.5 C 138.575,281.89 136.575,282.223 134.5,282.5C 134.62,281.414 135.287,280.747 136.5,280.5C 137.849,280.846 139.183,281.179 140.5,281.5 Z"/></g>
<g><path style="opacity:0.776" fill="#a7cadc" d="M 196.5,279.5 C 197.576,282.302 198.576,285.135 199.5,288C 198.207,288.49 196.873,288.657 195.5,288.5C 195.167,285.833 194.833,283.167 194.5,280.5C 194.367,277.075 195.033,276.742 196.5,279.5 Z"/></g>
<g><path style="opacity:0.804" fill="#9fc5d9" d="M 119.5,281.5 C 119.662,283.527 119.495,285.527 119,287.5C 118.878,285.563 118.045,284.23 116.5,283.5C 115.417,283.461 114.417,283.127 113.5,282.5C 112.167,283.5 110.833,284.5 109.5,285.5C 108.692,285.192 108.025,284.692 107.5,284C 111.054,280.446 114.554,276.946 118,273.5C 119.375,275.937 119.875,278.603 119.5,281.5 Z"/></g>
<g><path style="opacity:0.024" fill="#edf4f8" d="M 115.5,279.5 C 115.783,278.711 116.283,278.044 117,277.5C 117.49,278.793 117.657,280.127 117.5,281.5C 116.325,281.719 115.325,281.386 114.5,280.5C 114.624,279.893 114.957,279.56 115.5,279.5 Z"/></g>
<g><path style="opacity:0.307" fill="#d8e7f0" d="M 161.5,281.5 C 159.833,281.5 158.167,281.5 156.5,281.5C 156.5,285.5 156.5,289.5 156.5,293.5C 155.515,289.366 155.182,285.032 155.5,280.5C 157.735,280.205 159.735,280.539 161.5,281.5 Z"/></g>
<g><path style="opacity:0.935" fill="#84b6cf" d="M 161.5,281.5 C 162.492,281.328 163.158,281.662 163.5,282.5C 163.657,283.873 163.49,285.207 163,286.5C 162.768,285.263 162.268,284.263 161.5,283.5C 160.432,282.566 159.099,282.232 157.5,282.5C 157.216,284.415 157.549,286.081 158.5,287.5C 158.833,287.5 159.167,287.5 159.5,287.5C 160.239,287.369 160.906,287.536 161.5,288C 160.207,288.49 158.873,288.657 157.5,288.5C 157.5,290.167 157.5,291.833 157.5,293.5C 157.167,293.5 156.833,293.5 156.5,293.5C 156.5,289.5 156.5,285.5 156.5,281.5C 158.167,281.5 159.833,281.5 161.5,281.5 Z"/></g>
<g><path style="opacity:0.02" fill="#e6f0f5" d="M 175.5,280.5 C 176.043,280.56 176.376,280.893 176.5,281.5C 175.311,282.429 173.978,282.762 172.5,282.5C 173.5,281.833 174.5,281.167 175.5,280.5 Z"/></g>
<g><path style="opacity:0.416" fill="#c9dee9" d="M 161.5,283.5 C 160.5,283.5 159.5,283.5 158.5,283.5C 158.5,284.833 158.5,286.167 158.5,287.5C 157.549,286.081 157.216,284.415 157.5,282.5C 159.099,282.232 160.432,282.566 161.5,283.5 Z"/></g>
<g><path style="opacity:0.005" fill="#fefffe" d="M 135.5,286.5 C 136.5,286.5 137.5,286.5 138.5,286.5C 137.74,288.985 136.74,288.985 135.5,286.5 Z"/></g>
<g><path style="opacity:0.886" fill="#b2d0e0" d="M 182.5,278.5 C 184.924,278.192 187.257,278.526 189.5,279.5C 182.679,280.624 181.346,283.791 185.5,289C 187.256,289.14 188.922,288.64 190.5,287.5C 192.271,288.035 192.604,288.869 191.5,290C 185.317,293.105 181.317,291.439 179.5,285C 179.84,282.489 180.84,280.322 182.5,278.5 Z"/></g>
<g><path style="opacity:0.431" fill="#d6e6ee" d="M 119.5,281.5 C 120.468,283.607 120.802,285.941 120.5,288.5C 119.5,288.5 118.5,288.5 117.5,288.5C 117.634,286.708 117.301,285.042 116.5,283.5C 118.045,284.23 118.878,285.563 119,287.5C 119.495,285.527 119.662,283.527 119.5,281.5 Z"/></g>
<g><path style="opacity:0.718" fill="#a8cadc" d="M 140.5,281.5 C 139.183,281.179 137.849,280.846 136.5,280.5C 135.287,280.747 134.62,281.414 134.5,282.5C 135.678,283.999 137.345,284.999 139.5,285.5C 139.376,286.107 139.043,286.44 138.5,286.5C 137.5,286.5 136.5,286.5 135.5,286.5C 134.522,286.811 133.855,287.478 133.5,288.5C 135.5,289.333 137.5,290.167 139.5,291C 138.737,291.944 137.737,292.444 136.5,292.5C 134.547,291.844 132.547,291.511 130.5,291.5C 131.059,287.147 131.725,282.814 132.5,278.5C 135.917,278.023 138.584,279.023 140.5,281.5 Z"/></g>
<g><path style="opacity:0.792" fill="#afcedf" d="M 144.5,280.5 C 146.833,280.5 149.167,280.5 151.5,280.5C 151.5,281.5 151.5,282.5 151.5,283.5C 145.145,282.613 144.979,283.946 151,287.5C 151.865,292.67 149.699,294.503 144.5,293C 142.595,292.174 142.261,291.007 143.5,289.5C 144.833,290.167 146.167,290.833 147.5,291.5C 147.833,291 148.167,290.5 148.5,290C 147.303,288.48 145.803,287.313 144,286.5C 143.322,284.402 143.489,282.402 144.5,280.5 Z"/></g>
<g><path style="opacity:0.927" fill="#aacbdd" d="M 175.5,280.5 C 174.5,281.167 173.5,281.833 172.5,282.5C 171.596,283.209 171.263,284.209 171.5,285.5C 172.833,285.5 174.167,285.5 175.5,285.5C 174.552,286.978 173.219,287.978 171.5,288.5C 171.263,289.791 171.596,290.791 172.5,291.5C 174.099,291.232 175.432,291.566 176.5,292.5C 173.946,293.388 171.279,293.721 168.5,293.5C 168.628,289.119 168.295,284.785 167.5,280.5C 170.414,280.195 173.081,280.195 175.5,280.5 Z"/></g>
<g><path style="opacity:0.009" fill="#fcfdfd" d="M 175.5,285.5 C 177.233,286.008 177.566,286.841 176.5,288C 174.866,288.494 173.199,288.66 171.5,288.5C 173.219,287.978 174.552,286.978 175.5,285.5 Z"/></g>
<g><path style="opacity:0.401" fill="#c4dbe7" d="M 163.5,282.5 C 165.501,287.19 163.835,289.524 158.5,289.5C 158.768,291.099 158.434,292.432 157.5,293.5C 157.5,291.833 157.5,290.167 157.5,288.5C 158.873,288.657 160.207,288.49 161.5,288C 160.906,287.536 160.239,287.369 159.5,287.5C 160.806,286.533 161.473,285.199 161.5,283.5C 162.268,284.263 162.768,285.263 163,286.5C 163.49,285.207 163.657,283.873 163.5,282.5 Z"/></g>
<g><path style="opacity:0.373" fill="#d6e6ee" d="M 172.5,291.5 C 174.035,290.212 175.701,290.212 177.5,291.5C 177.376,292.107 177.043,292.44 176.5,292.5C 175.432,291.566 174.099,291.232 172.5,291.5 Z"/></g>
</svg>
