<svg xmlns="http://www.w3.org/2000/svg" xmlns:xlink="http://www.w3.org/1999/xlink" width="450" zoomAndPan="magnify" viewBox="0 0 337.5 337.500003" height="450" preserveAspectRatio="xMidYMid meet" version="1.0"><defs><clipPath id="d037ad94bc"><path d="M 317 137 L 336.660156 137 L 336.660156 169 L 317 169 Z M 317 137 " clip-rule="nonzero"/></clipPath><clipPath id="3e9ac07454"><path d="M 92.523438 229 L 143 229 L 143 286 L 92.523438 286 Z M 92.523438 229 " clip-rule="nonzero"/></clipPath><clipPath id="442a623874"><path d="M 92.523438 173 L 169 173 L 169 252 L 92.523438 252 Z M 92.523438 173 " clip-rule="nonzero"/></clipPath><clipPath id="e93046cb52"><path d="M 92.523438 217 L 102 217 L 102 233 L 92.523438 233 Z M 92.523438 217 " clip-rule="nonzero"/></clipPath></defs><path fill="#facca3" d="M 108.824219 295.136719 C 109.660156 298.066406 110.914062 300.578125 111.753906 303.507812 C 112.171875 304.761719 112.589844 306.019531 113.425781 307.695312 C 114.679688 310.207031 116.351562 312.71875 118.023438 315.230469 C 118.859375 314.808594 119.695312 314.390625 120.949219 313.972656 C 120.949219 313.972656 121.367188 313.972656 121.367188 313.554688 C 121.367188 313.554688 121.367188 313.136719 121.367188 313.136719 C 120.949219 309.785156 119.695312 306.019531 119.277344 302.671875 C 118.859375 301.414062 118.859375 299.738281 118.441406 295.972656 C 117.605469 289.273438 117.1875 285.925781 117.1875 284.667969 C 117.1875 284.667969 117.605469 283.414062 115.933594 279.226562 C 115.933594 279.226562 115.933594 278.808594 115.515625 278.808594 C 115.515625 278.808594 115.097656 278.808594 115.097656 278.808594 C 112.589844 278.808594 110.078125 280.0625 107.570312 279.644531 C 107.152344 279.644531 105.898438 278.808594 105.480469 279.226562 C 105.0625 279.644531 105.0625 280.484375 105.480469 280.902344 C 105.480469 282.574219 105.898438 284.25 106.316406 285.925781 C 106.734375 288.855469 107.570312 292.203125 108.824219 295.136719 Z M 108.824219 295.136719 " fill-opacity="1" fill-rule="nonzero"/><path fill="#facca3" d="M 133.492188 282.996094 C 135.164062 285.925781 137.253906 288.4375 138.925781 290.949219 C 139.34375 291.785156 140.179688 292.621094 140.597656 293.460938 C 141.015625 294.296875 141.015625 295.554688 141.015625 296.808594 C 141.433594 298.484375 141.851562 299.738281 142.269531 301.414062 C 142.6875 302.671875 143.105469 303.507812 143.523438 304.761719 C 143.523438 305.183594 143.941406 305.601562 144.359375 305.601562 C 144.777344 306.019531 145.613281 305.601562 146.03125 305.183594 C 146.449219 304.761719 147.285156 304.34375 147.703125 303.507812 C 148.121094 303.089844 148.121094 303.089844 148.539062 302.671875 C 148.957031 302.25 148.957031 301.414062 148.957031 300.996094 C 148.957031 298.902344 148.957031 296.808594 148.539062 294.714844 C 148.121094 293.878906 148.121094 292.621094 147.703125 291.785156 C 147.285156 290.53125 147.285156 289.273438 146.867188 287.597656 C 145.613281 282.15625 142.269531 277.972656 138.507812 273.785156 C 138.089844 273.367188 138.089844 273.367188 137.671875 272.949219 C 137.253906 272.527344 136.835938 272.527344 136.417969 272.949219 C 134.746094 272.949219 131.398438 272.949219 130.980469 275.039062 C 130.5625 277.550781 132.65625 280.902344 133.492188 282.996094 Z M 133.492188 282.996094 " fill-opacity="1" fill-rule="nonzero"/><path fill="#81b29a" d="M 115.097656 323.601562 C 115.515625 324.4375 116.351562 325.277344 118.023438 326.113281 C 119.695312 326.949219 121.367188 326.949219 122.621094 326.949219 C 123.875 326.949219 124.710938 326.53125 125.546875 326.53125 C 127.21875 326.113281 128.054688 325.695312 128.472656 325.277344 C 129.308594 324.4375 129.726562 323.183594 129.308594 321.925781 C 129.308594 320.671875 128.472656 319.414062 127.636719 318.160156 C 126.800781 316.902344 125.546875 315.230469 124.710938 313.972656 C 124.292969 313.554688 123.875 312.71875 123.457031 311.878906 C 123.039062 311.042969 123.039062 309.785156 122.621094 308.949219 C 122.203125 307.695312 120.53125 307.273438 119.277344 307.695312 C 118.023438 308.113281 117.1875 308.949219 116.351562 309.785156 C 115.933594 310.207031 115.933594 310.625 115.515625 311.042969 C 115.097656 311.460938 114.679688 311.878906 113.84375 312.296875 C 112.589844 313.136719 112.171875 315.230469 112.171875 316.902344 C 113.007812 316.902344 112.589844 320.253906 115.097656 323.601562 Z M 115.097656 323.601562 " fill-opacity="1" fill-rule="nonzero"/><path fill="#81b29a" d="M 155.230469 310.207031 C 155.230469 311.042969 155.230469 312.296875 154.8125 313.554688 C 154.394531 315.230469 153.136719 316.066406 152.300781 316.902344 C 151.464844 317.742188 150.628906 318.160156 150.210938 318.160156 C 148.957031 318.996094 148.121094 318.996094 147.285156 318.996094 C 146.449219 318.996094 145.195312 318.160156 144.777344 317.320312 C 143.941406 316.484375 143.941406 315.230469 143.523438 313.972656 C 143.105469 312.296875 143.105469 311.042969 142.6875 309.367188 C 142.6875 308.53125 142.269531 308.113281 142.269531 307.273438 C 141.851562 306.4375 141.015625 305.601562 141.015625 304.761719 C 140.597656 303.507812 141.433594 302.671875 142.269531 301.832031 C 143.105469 300.996094 144.359375 300.996094 145.613281 301.414062 C 146.03125 301.414062 146.449219 301.832031 146.867188 301.832031 C 147.285156 301.832031 148.121094 301.832031 148.539062 301.832031 C 149.792969 301.832031 151.464844 303.089844 152.300781 303.925781 C 153.136719 305.183594 155.230469 307.273438 155.230469 310.207031 Z M 155.230469 310.207031 " fill-opacity="1" fill-rule="nonzero"/><path fill="#3d3d3d" d="M 273.535156 45.632812 C 273.953125 43.539062 274.371094 41.867188 274.371094 39.773438 C 274.789062 33.910156 273.953125 28.050781 272.28125 22.191406 C 271.863281 21.351562 271.445312 20.097656 271.027344 19.679688 C 270.191406 18.839844 269.355469 18.421875 268.101562 19.261719 C 266.847656 19.679688 266.847656 21.351562 265.59375 21.773438 C 264.757812 22.191406 263.921875 21.351562 263.503906 20.515625 C 263.085938 19.679688 263.085938 18.839844 262.667969 17.585938 C 261.832031 15.910156 260.574219 14.65625 258.484375 14.65625 C 257.648438 14.65625 256.8125 14.65625 256.394531 14.238281 C 255.558594 13.398438 256.394531 12.144531 256.8125 11.304688 C 257.648438 10.050781 258.484375 8.792969 259.320312 7.539062 C 259.738281 7.121094 259.738281 6.703125 259.738281 6.28125 C 259.738281 5.863281 259.320312 5.863281 258.902344 5.445312 C 254.722656 3.351562 249.707031 4.609375 245.527344 6.703125 C 241.765625 8.792969 238 11.726562 236.328125 15.910156 C 235.074219 18.839844 235.492188 21.351562 235.910156 23.863281 C 236.328125 29.308594 238.417969 31.398438 238.835938 38.097656 C 238.835938 38.9375 238.835938 39.773438 238.835938 41.027344 C 239.253906 44.796875 238.835938 48.5625 237.582031 51.914062 C 237.164062 53.167969 236.746094 54.425781 235.492188 55.261719 C 234.65625 56.097656 233.820312 56.519531 232.984375 56.9375 C 230.476562 58.609375 229.222656 61.960938 228.804688 65.308594 C 228.386719 67.402344 228.386719 69.496094 228.804688 71.589844 C 229.222656 73.679688 230.894531 75.355469 232.984375 76.191406 C 235.074219 77.03125 237.582031 75.773438 239.253906 74.519531 C 240.511719 73.261719 241.347656 71.589844 242.183594 69.914062 C 244.691406 65.308594 246.78125 60.285156 248.453125 54.84375 C 248.871094 53.167969 249.289062 51.914062 250.542969 50.65625 C 251.378906 49.402344 253.050781 48.5625 254.722656 48.984375 C 255.558594 49.402344 256.394531 49.820312 256.8125 50.65625 C 258.484375 52.332031 260.574219 54.007812 262.25 56.097656 C 263.921875 57.355469 265.175781 59.03125 267.265625 57.355469 C 268.9375 56.097656 270.191406 54.007812 271.445312 52.332031 C 271.863281 49.820312 273.535156 47.308594 273.535156 45.632812 Z M 273.535156 45.632812 " fill-opacity="1" fill-rule="nonzero"/><path fill="#facca3" d="M 242.183594 6.28125 C 240.511719 7.121094 238.835938 7.957031 238 9.214844 C 236.328125 11.726562 236.328125 14.65625 236.328125 17.585938 C 236.328125 20.097656 236.328125 22.609375 236.746094 25.121094 C 236.746094 25.957031 236.746094 26.796875 237.164062 27.632812 C 237.582031 28.050781 238 28.886719 238 29.308594 C 238.417969 30.144531 238.417969 30.980469 238.417969 32.238281 C 238.835938 37.261719 241.347656 41.867188 245.527344 44.796875 C 246.363281 45.214844 246.78125 45.632812 247.199219 46.050781 C 247.617188 46.890625 247.617188 47.726562 247.617188 48.5625 C 247.617188 52.332031 245.945312 55.679688 245.109375 59.449219 C 244.273438 63.214844 244.273438 66.984375 246.363281 69.914062 C 248.453125 73.261719 253.050781 74.519531 256.8125 74.519531 C 260.574219 74.9375 264.339844 74.519531 268.101562 73.679688 C 272.28125 72.84375 276.460938 71.589844 279.386719 68.65625 C 282.734375 64.890625 283.570312 59.449219 282.734375 54.425781 C 282.734375 54.007812 282.734375 53.167969 282.316406 52.75 C 281.894531 52.332031 281.476562 52.332031 281.058594 52.332031 C 278.550781 52.332031 276.460938 51.496094 273.953125 50.65625 C 273.117188 50.238281 271.863281 49.820312 271.445312 48.984375 C 270.609375 48.144531 270.609375 47.308594 270.191406 46.472656 C 268.519531 39.355469 268.9375 31.820312 268.101562 24.285156 C 267.683594 21.351562 267.265625 18.839844 266.429688 16.328125 C 265.59375 13.398438 264.757812 10.46875 262.667969 7.957031 C 258.066406 1.679688 248.871094 2.933594 242.183594 6.28125 Z M 242.183594 6.28125 " fill-opacity="1" fill-rule="nonzero"/><path fill="#81b29a" d="M 329.972656 141.082031 C 325.792969 142.335938 322.027344 143.171875 317.847656 144.429688 C 317.429688 144.429688 317.011719 144.429688 316.59375 144.429688 C 316.175781 144.429688 315.757812 143.59375 315.757812 143.171875 C 314.921875 141.082031 314.085938 138.988281 312.832031 137.3125 C 312.414062 136.058594 311.578125 135.21875 311.160156 134.382812 C 309.488281 132.289062 307.816406 130.195312 306.144531 127.683594 C 297.78125 115.960938 295.273438 101.3125 292.765625 87.078125 C 292.347656 91.265625 292.765625 95.03125 292.765625 98.800781 C 292.347656 107.171875 291.929688 115.542969 291.511719 123.917969 C 291.09375 129.777344 290.675781 135.636719 289.839844 141.5 C 289.839844 141.917969 289.839844 142.335938 289.421875 142.753906 C 289.003906 143.171875 288.585938 143.59375 288.167969 143.59375 C 284.824219 145.265625 281.476562 146.941406 278.132812 147.777344 C 274.371094 148.617188 270.609375 149.035156 266.847656 149.035156 C 257.230469 149.453125 247.617188 149.871094 238.417969 146.941406 C 237.582031 146.523438 236.746094 146.523438 236.328125 145.683594 C 235.910156 144.847656 235.492188 144.011719 235.492188 143.171875 C 235.074219 136.894531 235.492188 133.964844 235.492188 132.707031 C 235.910156 128.941406 235.910156 125.171875 235.910156 121.40625 C 236.328125 115.960938 236.328125 107.589844 235.074219 93.355469 C 235.074219 93.777344 235.074219 93.777344 234.65625 94.195312 C 232.984375 98.378906 231.3125 102.566406 229.222656 107.171875 C 228.804688 108.425781 227.96875 109.683594 227.132812 110.9375 C 227.132812 110.9375 227.132812 111.359375 226.714844 111.359375 C 225.878906 113.03125 225.042969 114.289062 224.207031 115.960938 C 224.207031 115.960938 224.207031 116.382812 223.789062 116.382812 C 216.679688 129.359375 208.738281 140.660156 201.214844 149.871094 C 199.960938 151.128906 199.125 152.382812 197.871094 153.640625 C 194.105469 151.128906 190.34375 148.195312 187.417969 144.429688 C 188.253906 143.59375 189.089844 142.753906 189.925781 141.5 C 194.523438 136.058594 198.289062 129.777344 201.632812 123.5 C 203.304688 120.566406 204.976562 117.636719 206.648438 114.707031 C 209.15625 110.519531 211.664062 106.335938 212.917969 101.730469 C 212.917969 100.890625 213.335938 100.054688 213.335938 99.21875 C 213.335938 99.21875 213.335938 98.800781 213.335938 98.800781 C 213.753906 95.867188 214.171875 92.519531 214.589844 89.589844 C 215.425781 84.148438 217.097656 79.125 219.191406 74.101562 C 220.863281 70.75 222.535156 66.984375 226.714844 63.632812 C 227.550781 62.796875 230.058594 60.703125 235.492188 58.191406 C 238 56.9375 241.765625 55.679688 245.945312 54.425781 C 245.945312 55.679688 245.527344 58.191406 246.363281 60.703125 C 248.453125 66.566406 253.886719 68.65625 255.140625 69.496094 C 260.574219 71.589844 266.429688 70.75 270.609375 68.238281 C 271.445312 67.820312 273.117188 66.566406 274.789062 64.472656 C 278.550781 59.867188 278.96875 54.425781 278.96875 52.332031 C 283.988281 53.585938 288.585938 54.84375 293.601562 56.097656 C 295.691406 56.519531 297.78125 57.355469 299.453125 58.191406 C 304.890625 61.542969 306.5625 69.078125 307.398438 75.355469 C 309.070312 85.820312 311.578125 95.867188 315.339844 105.914062 C 315.339844 106.335938 315.339844 106.335938 315.757812 106.753906 C 318.683594 114.707031 322.027344 122.660156 325.792969 130.195312 C 326.210938 131.035156 327.046875 132.289062 327.464844 133.125 C 329.136719 136.058594 329.972656 138.570312 329.972656 141.082031 Z M 329.972656 141.082031 " fill-opacity="1" fill-rule="nonzero"/><path fill="#facca3" d="M 268.9375 295.554688 C 268.519531 298.066406 267.683594 300.160156 267.265625 302.671875 C 270.191406 303.089844 273.535156 302.671875 276.460938 302.671875 C 277.296875 302.671875 278.132812 302.25 278.96875 302.671875 C 279.386719 302.671875 279.386719 302.671875 279.804688 302.671875 C 279.804688 302.671875 279.804688 302.671875 279.804688 302.25 C 279.804688 298.066406 280.222656 293.460938 281.058594 289.273438 C 278.550781 288.855469 275.625 288.4375 273.117188 288.019531 C 272.699219 288.019531 271.445312 287.597656 271.027344 288.019531 C 270.191406 288.4375 270.609375 289.691406 270.191406 290.109375 C 269.773438 291.785156 269.355469 293.460938 268.9375 295.554688 Z M 268.9375 295.554688 " fill-opacity="1" fill-rule="nonzero"/><path fill="#facca3" d="M 230.058594 304.761719 C 230.058594 306.019531 230.058594 307.695312 230.476562 308.949219 C 230.476562 309.785156 230.894531 311.042969 230.894531 311.878906 C 234.238281 310.625 238 310.207031 241.765625 309.785156 C 241.347656 305.601562 240.929688 301.414062 240.511719 297.226562 C 238.835938 297.648438 237.582031 297.648438 235.910156 297.648438 C 234.238281 297.226562 231.730469 295.554688 230.476562 297.226562 C 230.058594 298.066406 230.058594 299.320312 230.058594 300.160156 C 230.058594 302.25 230.058594 303.507812 230.058594 304.761719 Z M 230.058594 304.761719 " fill-opacity="1" fill-rule="nonzero"/><g clip-path="url(#d037ad94bc)"><path fill="#facca3" d="M 332.898438 148.617188 C 334.570312 151.128906 335.824219 154.058594 336.242188 156.988281 C 336.660156 162.011719 333.316406 167.035156 328.71875 168.292969 C 327.882812 168.292969 327.046875 168.292969 327.046875 167.871094 C 327.046875 167.453125 327.464844 166.617188 327.046875 166.617188 C 327.046875 166.617188 326.628906 166.199219 326.628906 166.199219 C 325.792969 165.78125 325.371094 164.523438 325.792969 163.6875 C 324.953125 163.6875 324.117188 162.847656 323.699219 162.011719 C 323.28125 161.175781 323.28125 159.917969 323.28125 159.082031 C 322.863281 157.40625 322.445312 156.152344 322.445312 154.476562 C 322.445312 153.640625 322.445312 152.800781 322.445312 151.964844 C 322.445312 148.195312 320.355469 145.265625 317.847656 142.335938 C 317.847656 141.917969 317.429688 141.917969 317.429688 141.5 C 317.429688 141.082031 317.847656 141.082031 317.847656 140.660156 C 320.355469 139.40625 325.375 136.058594 327.882812 138.988281 C 328.71875 139.824219 329.136719 141.082031 329.554688 142.335938 C 330.808594 144.847656 332.0625 146.523438 332.898438 148.617188 Z M 332.898438 148.617188 " fill-opacity="1" fill-rule="nonzero"/></g><path fill="#facca3" d="M 190.34375 144.429688 C 190.34375 144.429688 190.34375 144.011719 190.34375 144.429688 C 189.925781 145.683594 188.253906 146.941406 187.417969 148.195312 C 186.164062 149.871094 185.328125 151.546875 184.074219 153.21875 C 181.566406 157.824219 179.058594 161.59375 174.875 164.941406 C 171.53125 167.871094 169.859375 171.222656 169.859375 175.40625 C 169.859375 177.917969 170.695312 183.78125 174.457031 182.523438 C 177.386719 181.6875 176.550781 176.246094 176.550781 173.734375 C 178.222656 175.40625 179.058594 175.40625 179.894531 174.988281 C 180.730469 174.570312 180.3125 173.734375 181.148438 172.058594 C 181.566406 171.222656 181.984375 170.382812 182.820312 168.710938 C 185.328125 164.941406 187.835938 161.59375 190.761719 158.242188 C 192.015625 156.570312 193.269531 155.3125 194.523438 153.640625 C 195.777344 152.382812 197.453125 150.289062 197.871094 148.617188 C 198.289062 147.777344 198.289062 147.777344 197.453125 146.941406 C 196.613281 146.523438 195.359375 146.105469 194.523438 145.265625 C 193.6875 145.265625 192.015625 145.265625 190.34375 144.429688 Z M 190.34375 144.429688 " fill-opacity="1" fill-rule="nonzero"/><path fill="#facca3" d="M 136.417969 145.265625 C 134.746094 145.683594 133.074219 146.523438 132.234375 147.359375 C 128.472656 150.289062 126.382812 155.730469 126.800781 160.335938 C 126.800781 161.59375 127.21875 162.847656 127.636719 164.105469 C 129.308594 173.316406 126.800781 182.523438 125.546875 192.152344 C 128.472656 193.828125 132.234375 193.410156 135.582031 192.988281 C 136 192.988281 136.835938 192.988281 137.253906 192.570312 C 138.925781 191.734375 138.925781 189.222656 139.761719 187.546875 C 140.179688 185.875 141.433594 184.617188 142.269531 182.941406 C 143.105469 181.269531 143.523438 179.59375 143.105469 177.5 C 143.523438 177.917969 144.777344 178.339844 146.449219 178.339844 C 148.539062 178.339844 149.792969 177.082031 151.046875 175.40625 C 153.554688 172.894531 153.976562 169.964844 154.394531 169.128906 C 154.8125 167.871094 154.8125 167.035156 154.8125 166.199219 C 154.8125 164.105469 154.8125 163.6875 154.8125 162.011719 C 154.8125 159.917969 156.066406 157.40625 155.648438 155.3125 C 155.230469 154.476562 154.8125 153.21875 154.394531 152.382812 C 151.464844 148.195312 147.285156 146.941406 146.03125 146.523438 C 145.613281 146.523438 144.359375 146.105469 141.851562 145.683594 C 138.089844 145.265625 137.253906 144.847656 136.417969 145.265625 Z M 136.417969 145.265625 " fill-opacity="1" fill-rule="nonzero"/><path fill="#facca3" d="M 166.097656 187.964844 C 166.515625 187.128906 167.351562 185.875 167.769531 185.035156 C 169.441406 180.851562 171.53125 176.664062 171.53125 172.476562 C 171.53125 172.058594 171.53125 171.222656 171.949219 170.804688 C 171.949219 170.382812 172.785156 169.964844 173.203125 169.964844 C 173.621094 169.964844 174.039062 169.964844 174.039062 170.382812 C 176.96875 172.058594 176.96875 172.058594 177.386719 172.476562 C 177.804688 173.316406 177.804688 173.734375 178.222656 174.570312 C 178.640625 176.664062 178.222656 177.917969 177.804688 178.757812 C 177.386719 180.851562 176.550781 182.105469 175.296875 185.035156 C 173.621094 188.804688 174.039062 188.386719 172.367188 191.316406 C 171.113281 193.828125 170.277344 195.082031 169.441406 196.757812 C 168.1875 198.851562 167.769531 199.6875 167.351562 200.105469 C 165.679688 202.199219 164.84375 203.875 163.171875 203.457031 C 162.753906 203.457031 161.5 202.617188 159.828125 200.945312 C 158.992188 200.105469 157.738281 198.433594 157.738281 197.175781 C 157.738281 195.921875 158.992188 195.5 159.828125 195.082031 C 161.082031 194.246094 161.917969 192.988281 163.171875 191.734375 C 164.007812 190.898438 165.261719 189.222656 166.097656 187.964844 Z M 166.097656 187.964844 " fill-opacity="1" fill-rule="nonzero"/><g clip-path="url(#3e9ac07454)"><path fill="#3d405b" d="M 142.6875 276.714844 C 139.761719 277.972656 136 279.226562 131.398438 280.484375 C 127.21875 281.320312 123.039062 281.738281 120.113281 281.320312 C 120.113281 281.320312 119.695312 281.320312 119.695312 281.320312 C 119.695312 281.320312 119.695312 281.320312 119.277344 281.320312 C 117.605469 282.15625 115.515625 282.996094 113.007812 283.832031 C 106.316406 285.925781 100.046875 285.085938 96.703125 284.25 C 95.03125 276.296875 94.613281 270.4375 94.195312 266.25 C 94.195312 264.574219 94.195312 261.644531 93.777344 259.550781 C 93.359375 253.691406 93.359375 252.433594 93.359375 248.667969 C 92.941406 236.527344 92.523438 232.757812 94.195312 232.339844 C 95.449219 231.921875 95.867188 233.597656 98.375 233.597656 C 101.300781 233.597656 101.71875 231.503906 105.480469 230.246094 C 107.570312 229.410156 110.078125 229.410156 112.171875 229.410156 C 115.515625 229.410156 118.441406 229.410156 121.785156 230.246094 C 125.964844 231.503906 129.308594 234.015625 133.492188 234.015625 C 133.910156 234.015625 134.328125 234.015625 134.328125 234.433594 C 134.328125 234.433594 134.328125 234.851562 134.328125 235.269531 C 134.328125 236.945312 134.746094 238.621094 135.582031 240.714844 C 136 242.386719 137.253906 244.0625 137.671875 246.15625 C 138.089844 247.828125 138.089844 249.503906 138.089844 251.179688 C 138.089844 251.179688 137.671875 256.621094 138.089844 264.15625 C 139.34375 266.667969 139.761719 271.273438 142.6875 276.714844 Z M 142.6875 276.714844 " fill-opacity="1" fill-rule="nonzero"/></g><path fill="#3d3d3d" d="M 271.863281 29.308594 C 271.863281 31.398438 271.863281 34.75 272.699219 38.515625 C 274.371094 36.84375 274.789062 33.910156 274.789062 31.398438 C 274.789062 28.050781 274.789062 25.121094 273.953125 22.609375 C 273.117188 19.679688 272.28125 17.585938 272.28125 16.75 C 271.863281 16.328125 268.101562 6.703125 262.25 4.191406 C 260.992188 3.769531 258.902344 2.933594 258.902344 2.933594 C 257.230469 2.515625 255.558594 2.097656 255.140625 2.097656 C 249.707031 0.839844 244.273438 3.769531 244.273438 3.769531 C 242.183594 4.609375 238.417969 6.703125 236.328125 11.304688 C 235.074219 14.65625 235.492188 18.003906 235.492188 19.261719 C 235.910156 17.585938 238 11.726562 242.183594 8.792969 C 243.019531 8.375 243.855469 7.957031 244.273438 7.957031 C 245.527344 7.539062 248.871094 6.28125 252.632812 6.703125 C 253.46875 6.703125 255.558594 7.121094 257.648438 8.375 C 261.832031 10.886719 263.085938 15.910156 263.085938 17.167969 C 263.503906 19.679688 263.503906 21.773438 264.339844 21.773438 C 265.175781 22.191406 266.011719 19.679688 267.683594 20.097656 C 268.101562 20.097656 268.519531 20.515625 268.9375 20.933594 C 272.28125 24.285156 271.863281 29.726562 271.445312 33.910156 C 271.027344 36.003906 271.027344 38.515625 270.609375 40.609375 C 270.191406 43.539062 269.773438 46.472656 269.773438 49.820312 C 269.355469 57.355469 269.355469 65.308594 270.609375 72.84375 C 271.027344 74.519531 271.445312 76.191406 272.699219 77.449219 C 273.117188 77.867188 273.117188 77.867188 273.535156 77.867188 C 274.371094 77.867188 273.953125 76.613281 274.789062 76.191406 C 275.207031 76.191406 275.625 76.613281 276.460938 77.449219 C 278.132812 79.542969 278.132812 79.960938 278.550781 80.378906 C 279.804688 80.796875 281.476562 80.796875 282.3125 80.796875 C 282.3125 80.796875 282.734375 80.796875 282.734375 80.796875 C 282.734375 80.796875 282.734375 80.796875 282.734375 80.378906 C 283.570312 77.867188 282.734375 75.355469 282.734375 72.84375 C 282.734375 71.167969 283.152344 69.078125 283.152344 67.402344 C 283.570312 64.472656 283.570312 59.867188 281.894531 54.84375 C 281.476562 53.167969 281.058594 53.167969 280.640625 51.074219 C 279.804688 47.726562 280.222656 46.050781 279.804688 43.539062 C 279.386719 41.027344 278.550781 39.355469 277.714844 36.84375 C 276.460938 33.910156 275.207031 29.308594 273.953125 23.027344 C 273.953125 23.027344 273.535156 23.027344 273.535156 23.445312 C 272.699219 23.445312 271.863281 25.121094 271.863281 29.308594 Z M 271.863281 29.308594 " fill-opacity="1" fill-rule="nonzero"/><path fill="#facca3" d="M 272.28125 19.261719 C 272.699219 20.933594 273.117188 23.027344 272.699219 24.703125 C 272.28125 26.375 271.445312 28.46875 270.191406 29.726562 C 268.9375 30.5625 267.683594 31.398438 266.429688 31.820312 C 266.429688 31.820312 267.265625 26.796875 267.265625 25.957031 C 267.265625 24.703125 266.847656 23.027344 267.265625 21.351562 C 267.265625 18.839844 270.609375 15.074219 272.28125 19.261719 Z M 272.28125 19.261719 " fill-opacity="1" fill-rule="nonzero"/><path fill="#3d3d3d" d="M 127.21875 160.335938 C 127.21875 159.5 127.636719 158.664062 128.472656 158.242188 C 128.472656 158.242188 128.890625 157.824219 129.308594 157.824219 C 130.144531 157.824219 130.5625 158.664062 130.5625 159.5 C 130.5625 160.335938 130.980469 161.175781 131.398438 161.175781 C 132.234375 161.59375 133.074219 160.753906 133.074219 159.917969 C 133.074219 159.082031 133.074219 158.242188 133.074219 157.824219 C 133.074219 156.988281 133.492188 156.152344 133.910156 155.730469 C 134.328125 155.730469 134.746094 155.730469 134.746094 155.730469 C 135.582031 155.3125 136 154.476562 136 153.640625 C 136 152.800781 135.582031 151.964844 135.582031 151.128906 C 135.582031 150.289062 135.582031 149.871094 135.582031 149.035156 C 135.582031 148.617188 135.582031 148.617188 135.582031 148.195312 C 136 147.359375 136.835938 147.359375 137.671875 147.359375 C 139.761719 147.359375 142.269531 148.195312 144.359375 149.035156 C 145.195312 149.453125 146.449219 149.871094 147.285156 150.289062 C 148.539062 150.707031 149.375 151.128906 150.628906 151.964844 C 152.300781 153.21875 153.554688 154.476562 154.394531 156.570312 C 154.394531 156.988281 154.8125 157.40625 154.8125 157.40625 C 155.230469 157.40625 155.230469 156.988281 155.230469 156.570312 C 155.648438 155.730469 156.484375 152.382812 154.394531 148.195312 C 153.976562 147.777344 153.136719 146.105469 151.046875 144.429688 C 150.628906 144.011719 149.792969 143.171875 148.121094 142.753906 C 143.105469 140.242188 138.089844 141.917969 137.671875 141.917969 C 133.074219 143.171875 130.5625 146.105469 129.726562 147.359375 C 127.636719 149.871094 126.800781 153.21875 125.964844 156.570312 C 125.546875 158.242188 125.546875 159.917969 125.128906 161.59375 C 125.128906 162.847656 124.710938 164.941406 125.546875 166.199219 C 126.800781 163.6875 126.800781 162.011719 127.21875 160.335938 Z M 127.21875 160.335938 " fill-opacity="1" fill-rule="nonzero"/><path fill="#facca3" d="M 125.128906 159.082031 C 124.710938 159.5 124.292969 160.335938 124.292969 161.175781 C 124.292969 162.011719 124.710938 162.847656 125.128906 163.265625 C 125.964844 164.941406 127.21875 166.617188 128.890625 167.871094 C 129.308594 168.292969 129.726562 168.292969 130.144531 167.871094 C 130.144531 167.871094 130.5625 167.453125 130.5625 167.035156 C 131.398438 164.523438 130.5625 162.429688 130.144531 159.917969 C 128.890625 158.242188 126.382812 157.824219 125.128906 159.082031 Z M 125.128906 159.082031 " fill-opacity="1" fill-rule="nonzero"/><g clip-path="url(#442a623874)"><path fill="#e07a5f" d="M 168.1875 202.199219 C 167.769531 203.035156 166.515625 203.875 164.84375 205.128906 C 164.425781 205.128906 163.171875 206.386719 160.664062 206.804688 C 157.320312 207.222656 154.8125 206.804688 152.71875 206.386719 C 150.628906 205.96875 148.121094 205.128906 144.777344 203.457031 C 144.777344 203.457031 144.359375 203.875 144.359375 203.875 C 142.269531 205.96875 141.433594 208.480469 137.671875 213.503906 C 137.253906 214.339844 136.417969 215.175781 136 216.015625 C 135.164062 218.945312 136.417969 221.875 137.253906 224.804688 C 137.671875 226.898438 138.507812 230.667969 138.507812 234.433594 C 138.507812 237.363281 137.671875 239.875 136.835938 241.550781 C 127.636719 246.574219 122.621094 249.503906 120.949219 250.761719 C 120.949219 250.761719 120.113281 251.597656 119.277344 251.597656 C 118.441406 251.597656 118.023438 250.339844 118.023438 249.503906 C 117.605469 244.898438 117.605469 239.875 115.515625 235.691406 C 114.261719 239.457031 113.007812 242.804688 111.753906 246.574219 C 111.335938 247.410156 110.914062 248.667969 110.078125 248.667969 C 109.660156 248.667969 109.242188 248.667969 108.824219 248.25 C 103.808594 245.316406 99.210938 242.804688 94.195312 239.875 C 93.777344 239.457031 93.359375 239.457031 92.941406 239.039062 C 92.941406 238.621094 92.941406 238.203125 92.941406 237.78125 C 92.941406 236.527344 93.359375 234.851562 93.359375 233.597656 C 93.359375 233.179688 93.359375 233.179688 93.359375 232.757812 C 94.195312 227.316406 95.449219 222.292969 97.121094 216.851562 C 97.957031 214.757812 98.792969 212.246094 97.957031 210.152344 C 97.957031 209.734375 97.539062 209.316406 97.121094 208.898438 C 96.703125 208.480469 96.703125 208.058594 96.285156 208.058594 C 94.613281 205.128906 95.449219 201.78125 96.703125 198.851562 C 99.628906 190.476562 103.390625 181.6875 110.914062 176.664062 C 112.171875 175.828125 113.425781 175.40625 115.097656 174.988281 C 117.605469 174.570312 118.859375 174.988281 121.367188 174.988281 C 122.203125 174.988281 123.039062 174.988281 124.292969 174.570312 C 124.710938 174.570312 124.710938 174.570312 125.128906 174.152344 C 125.964844 173.734375 126.800781 173.734375 127.636719 173.316406 C 127.636719 173.316406 128.054688 173.316406 128.054688 173.316406 C 128.054688 173.734375 128.054688 174.570312 128.472656 175.828125 C 128.890625 180.011719 128.890625 182.523438 128.890625 184.617188 C 128.890625 186.710938 129.308594 189.222656 130.144531 192.570312 C 133.074219 191.316406 137.253906 189.222656 141.015625 185.035156 C 142.269531 183.78125 143.105469 182.105469 143.941406 180.851562 C 143.941406 180.851562 143.941406 180.851562 144.359375 181.269531 C 145.195312 182.105469 146.449219 183.363281 147.703125 185.035156 C 147.703125 185.035156 147.703125 185.035156 148.121094 185.453125 C 148.121094 185.453125 148.121094 185.875 148.121094 185.875 C 148.957031 187.546875 148.957031 187.964844 149.792969 189.640625 C 150.210938 190.058594 152.300781 193.828125 156.484375 195.082031 C 157.320312 195.082031 158.992188 195.5 161.5 195.082031 C 162.335938 196.339844 162.753906 197.175781 163.589844 197.59375 C 164.84375 199.269531 165.679688 200.105469 167.351562 202.199219 C 167.351562 200.945312 167.769531 201.78125 168.1875 202.199219 Z M 168.1875 202.199219 " fill-opacity="1" fill-rule="nonzero"/></g><path fill="#facca3" d="M 123.039062 205.546875 C 123.039062 205.546875 125.546875 205.96875 127.21875 205.546875 C 131.816406 204.710938 136.417969 199.269531 138.507812 198.433594 C 138.925781 198.433594 139.34375 198.011719 139.761719 198.011719 C 140.179688 198.011719 140.597656 198.011719 140.597656 198.433594 C 140.597656 198.433594 140.597656 198.851562 140.597656 199.269531 C 140.597656 200.105469 139.761719 200.945312 139.34375 201.363281 C 138.507812 201.78125 138.089844 202.617188 137.253906 203.035156 C 137.253906 203.035156 137.253906 203.035156 137.253906 203.457031 C 138.089844 203.875 138.507812 203.875 139.34375 204.292969 C 140.179688 204.710938 140.597656 205.128906 141.015625 205.546875 C 141.433594 206.386719 141.015625 207.222656 140.179688 207.222656 C 140.597656 207.222656 140.597656 207.640625 140.179688 208.0625 C 140.179688 208.480469 139.761719 208.480469 139.761719 208.898438 C 139.34375 209.316406 139.761719 209.734375 139.34375 210.152344 C 138.925781 210.152344 138.925781 210.574219 138.507812 210.574219 C 138.507812 210.574219 138.507812 210.992188 138.507812 210.992188 C 138.507812 212.246094 137.671875 213.085938 136.417969 213.503906 C 135.164062 213.921875 133.910156 213.921875 133.074219 213.503906 C 131.816406 213.503906 130.5625 213.085938 129.726562 212.664062 C 128.890625 212.664062 128.054688 212.664062 127.21875 212.664062 C 126.382812 212.664062 125.546875 212.664062 124.292969 212.664062 C 124.292969 212.246094 124.292969 211.410156 124.292969 210.992188 C 124.292969 208.058594 123.875 207.640625 124.292969 206.804688 C 124.710938 206.386719 124.710938 205.96875 124.710938 205.546875 C 124.292969 205.546875 123.039062 205.546875 123.039062 205.546875 Z M 123.039062 205.546875 " fill-opacity="1" fill-rule="nonzero"/><path fill="#3d405b" d="M 255.140625 141.5 C 268.101562 141.917969 279.804688 141.082031 290.257812 139.824219 C 290.675781 140.660156 291.09375 142.753906 291.929688 144.847656 C 293.601562 150.289062 301.542969 176.246094 299.035156 198.433594 C 297.78125 210.152344 296.945312 211.410156 296.109375 223.550781 C 295.691406 231.503906 295.691406 235.691406 294.855469 245.316406 C 294.4375 250.761719 293.601562 255.367188 292.347656 261.644531 C 290.257812 269.179688 288.167969 275.039062 286.078125 280.484375 C 283.988281 285.925781 281.894531 290.53125 280.640625 293.878906 C 276.878906 293.460938 273.117188 293.042969 269.355469 292.621094 C 269.355469 285.507812 269.355469 279.644531 269.355469 275.460938 C 268.9375 265.414062 268.519531 262.0625 269.355469 255.785156 C 270.191406 252.015625 270.609375 250.761719 270.609375 246.992188 C 271.027344 241.96875 270.191406 238.621094 269.355469 233.597656 C 268.101562 225.644531 268.9375 226.480469 267.683594 213.085938 C 267.265625 207.222656 266.847656 203.035156 265.59375 198.011719 C 264.339844 190.058594 262.667969 183.363281 260.574219 178.339844 C 259.738281 181.269531 258.902344 185.453125 258.066406 190.476562 C 256.394531 200.105469 254.722656 210.152344 253.886719 222.710938 C 253.050781 233.597656 254.304688 237.78125 251.796875 246.992188 C 250.542969 251.597656 250.542969 250.761719 248.453125 257.039062 C 244.273438 271.273438 243.019531 283.832031 242.183594 297.226562 C 242.183594 299.320312 241.765625 300.996094 241.765625 302.25 C 240.929688 302.671875 240.09375 302.671875 239.253906 302.671875 C 235.074219 303.507812 231.3125 303.507812 227.96875 303.089844 C 227.96875 291.785156 227.132812 282.996094 226.296875 276.714844 C 225.460938 269.179688 224.207031 263.738281 225.460938 257.039062 C 225.460938 255.785156 226.296875 251.597656 227.132812 245.738281 C 227.550781 244.0625 227.550781 242.804688 227.550781 241.132812 C 227.96875 235.691406 227.96875 229.828125 227.96875 224.386719 C 227.96875 217.6875 227.550781 211.410156 226.296875 205.128906 C 225.042969 198.433594 223.789062 191.316406 223.789062 184.617188 C 223.789062 181.269531 223.371094 165.359375 231.3125 147.359375 C 232.566406 144.847656 233.820312 142.753906 234.238281 141.082031 C 235.492188 141.082031 237.164062 141.082031 239.253906 141.082031 C 247.617188 141.082031 251.378906 141.5 255.140625 141.5 Z M 255.140625 141.5 " fill-opacity="1" fill-rule="nonzero"/><path fill="#e07a5f" d="M 263.921875 306.019531 C 263.921875 308.53125 264.757812 313.554688 267.265625 315.230469 C 268.101562 315.648438 268.9375 316.484375 269.355469 317.320312 C 269.355469 317.742188 269.355469 318.160156 269.355469 318.996094 C 269.355469 322.34375 269.355469 325.695312 270.609375 328.625 C 271.863281 331.554688 274.371094 334.066406 277.296875 335.324219 C 278.96875 335.742188 280.222656 335.742188 281.894531 336.160156 C 283.570312 336.160156 285.242188 336.160156 286.914062 336.160156 C 287.332031 336.160156 287.75 335.742188 288.167969 335.742188 C 288.585938 335.324219 289.839844 334.484375 289.839844 329.878906 C 289.839844 326.53125 289.003906 324.019531 289.003906 323.601562 C 287.75 319.832031 286.914062 319.414062 285.660156 315.648438 C 284.40625 311.878906 282.3125 307.695312 282.734375 303.089844 C 282.734375 302.25 282.734375 300.996094 281.894531 299.738281 C 281.058594 298.902344 279.804688 298.066406 278.96875 298.902344 C 278.132812 299.320312 278.132812 300.578125 277.296875 300.996094 C 276.878906 301.414062 276.460938 301.414062 276.042969 301.414062 C 273.117188 301.832031 271.445312 300.578125 271.445312 300.578125 C 269.355469 299.320312 268.9375 296.808594 268.9375 296.808594 C 267.683594 296.390625 263.921875 300.160156 263.921875 306.019531 Z M 263.921875 306.019531 " fill-opacity="1" fill-rule="nonzero"/><path fill="#e07a5f" d="M 243.4375 312.296875 C 243.855469 313.554688 243.855469 314.390625 243.855469 315.648438 C 243.855469 317.320312 243.019531 318.578125 242.183594 319.832031 C 241.347656 320.671875 240.929688 321.925781 239.675781 322.34375 C 238.835938 322.765625 238.417969 323.183594 237.582031 323.601562 C 235.910156 324.855469 236.328125 326.53125 234.65625 329.460938 C 234.238281 330.300781 233.402344 331.554688 231.730469 332.390625 C 230.476562 333.230469 229.222656 333.648438 228.386719 333.648438 C 225.878906 334.066406 223.789062 334.066406 221.699219 333.648438 C 218.773438 333.230469 217.515625 332.8125 216.679688 331.554688 C 215.84375 330.300781 215.84375 329.042969 215.84375 328.207031 C 215.84375 326.113281 216.679688 324.4375 218.355469 321.507812 C 219.191406 320.253906 219.609375 319.414062 220.027344 318.996094 C 221.28125 317.320312 222.117188 316.484375 222.117188 316.066406 C 223.371094 314.808594 224.625 311.878906 225.460938 305.601562 C 226.714844 305.183594 227.96875 304.761719 229.222656 305.183594 C 230.476562 305.183594 231.3125 306.019531 232.566406 306.4375 C 235.074219 307.695312 235.910156 307.695312 236.746094 307.695312 C 237.164062 307.695312 238.417969 307.695312 239.253906 307.273438 C 239.671875 306.855469 240.09375 306.855469 240.929688 306.4375 C 241.347656 306.019531 241.765625 305.601562 242.183594 305.601562 C 242.601562 308.53125 243.019531 310.625 243.4375 312.296875 Z M 243.4375 312.296875 " fill-opacity="1" fill-rule="nonzero"/><path fill="#e07a5f" d="M 202.050781 149.871094 C 200.796875 151.128906 199.960938 152.382812 198.707031 153.640625 C 194.941406 151.128906 191.179688 148.195312 188.253906 144.429688 C 189.089844 143.59375 189.925781 142.753906 190.761719 141.5 C 191.179688 141.917969 191.597656 141.917969 191.597656 142.335938 C 194.105469 143.59375 196.613281 144.847656 198.707031 146.523438 C 199.960938 147.777344 200.796875 148.617188 202.050781 149.871094 Z M 202.050781 149.871094 " fill-opacity="1" fill-rule="nonzero"/><path fill="#e07a5f" d="M 329.972656 141.082031 C 325.792969 142.335938 322.027344 143.171875 317.847656 144.429688 C 317.429688 144.429688 317.011719 144.429688 316.59375 144.429688 C 316.175781 144.429688 315.757812 143.59375 315.757812 143.171875 C 314.921875 141.082031 314.085938 138.988281 312.832031 137.3125 C 314.085938 136.476562 315.757812 136.058594 316.59375 135.636719 C 319.101562 134.800781 321.609375 133.964844 324.117188 133.546875 C 325.375 133.125 326.210938 133.125 327.464844 133.546875 C 329.136719 136.058594 329.972656 138.570312 329.972656 141.082031 Z M 329.972656 141.082031 " fill-opacity="1" fill-rule="nonzero"/><path fill="#facca3" d="M 128.054688 179.59375 C 128.054688 180.011719 127.636719 180.851562 127.21875 181.269531 C 126.800781 182.105469 126.382812 182.941406 125.964844 183.78125 C 125.128906 185.453125 124.710938 186.710938 123.875 188.386719 C 123.875 188.386719 123.457031 188.386719 123.457031 188.386719 C 122.203125 185.035156 121.785156 181.269531 121.367188 177.917969 C 121.367188 177.5 121.367188 176.664062 121.367188 176.246094 C 121.367188 175.828125 121.367188 175.40625 121.367188 174.988281 C 121.367188 174.570312 122.621094 173.734375 123.039062 173.734375 C 123.457031 173.316406 123.875 172.894531 123.875 172.894531 C 124.292969 172.894531 124.292969 172.894531 124.710938 172.476562 C 124.292969 172.894531 123.875 173.316406 123.457031 173.734375 C 122.621094 174.152344 121.785156 174.988281 121.785156 175.828125 C 121.785156 176.664062 121.785156 177.5 121.785156 178.339844 C 122.203125 181.6875 122.621094 184.617188 123.875 187.964844 C 124.292969 186.710938 125.128906 185.453125 125.546875 184.199219 C 126.382812 182.941406 127.21875 181.269531 127.21875 179.59375 C 127.21875 177.082031 127.21875 174.570312 126.800781 172.058594 C 126.800781 172.058594 127.21875 172.058594 127.21875 172.058594 C 127.21875 173.316406 127.21875 174.570312 127.21875 175.828125 C 127.21875 176.664062 127.21875 177.5 127.21875 178.339844 C 128.054688 177.917969 128.054688 178.757812 128.054688 179.59375 Z M 128.054688 179.59375 " fill-opacity="1" fill-rule="nonzero"/><path fill="#facca3" d="M 147.285156 183.78125 C 143.105469 187.546875 138.925781 190.898438 134.328125 194.664062 C 134.328125 194.664062 133.910156 194.664062 133.910156 194.664062 C 134.328125 192.570312 134.746094 190.476562 135.164062 188.386719 C 138.507812 186.292969 141.015625 183.363281 143.105469 180.011719 C 143.105469 180.011719 143.105469 180.011719 143.523438 180.429688 C 141.433594 183.78125 138.925781 186.710938 135.582031 188.804688 C 135.164062 190.898438 134.746094 192.570312 134.328125 194.664062 C 137.253906 192.152344 139.761719 190.058594 142.6875 187.546875 C 143.523438 186.710938 144.359375 186.292969 144.777344 185.453125 C 145.613281 184.617188 146.449219 183.78125 147.285156 183.78125 C 147.285156 183.363281 147.285156 183.78125 147.285156 183.78125 Z M 147.285156 183.78125 " fill-opacity="1" fill-rule="nonzero"/><g clip-path="url(#e93046cb52)"><path fill="#facca3" d="M 101.71875 218.109375 C 98.792969 222.710938 96.285156 227.734375 92.941406 232.339844 C 92.941406 231.921875 92.941406 231.921875 92.941406 231.503906 C 95.867188 226.898438 98.792969 222.710938 101.71875 218.109375 C 101.300781 217.6875 101.71875 218.109375 101.71875 218.109375 Z M 101.71875 218.109375 " fill-opacity="1" fill-rule="nonzero"/></g><path fill="#e07a5f" d="M 120.113281 281.320312 C 119.695312 281.320312 119.695312 281.320312 120.113281 281.320312 C 119.277344 279.644531 118.859375 277.972656 118.859375 275.878906 C 118.441406 272.527344 118.023438 269.597656 118.441406 266.25 C 118.441406 262.480469 118.859375 258.296875 117.605469 254.527344 C 117.605469 254.109375 118.023438 254.109375 118.023438 254.527344 C 119.277344 257.878906 118.859375 260.808594 118.859375 264.15625 C 118.859375 267.503906 118.859375 270.855469 119.277344 274.621094 C 119.277344 276.714844 119.277344 279.226562 120.113281 281.320312 Z M 120.113281 281.320312 " fill-opacity="1" fill-rule="nonzero"/><path fill="#e07a5f" d="M 316.175781 107.171875 C 311.160156 101.3125 303.214844 98.378906 296.945312 93.777344 C 296.945312 93.777344 296.945312 93.355469 296.945312 93.355469 C 303.214844 97.542969 310.742188 100.472656 315.757812 105.914062 C 316.175781 106.753906 316.175781 106.753906 316.175781 107.171875 Z M 316.175781 107.171875 " fill-opacity="1" fill-rule="nonzero"/><path fill="#e07a5f" d="M 227.132812 111.359375 C 227.132812 111.359375 227.132812 111.777344 226.714844 111.777344 C 225.460938 112.195312 223.789062 112.195312 222.535156 112.613281 C 219.609375 113.03125 216.261719 112.613281 213.753906 110.519531 C 213.753906 110.519531 213.753906 110.101562 214.171875 110.101562 C 216.679688 112.195312 220.445312 112.195312 223.789062 111.777344 C 225.042969 111.777344 226.296875 111.359375 227.132812 111.359375 Z M 227.132812 111.359375 " fill-opacity="1" fill-rule="nonzero"/><path fill="#e07a5f" d="M 293.183594 88.332031 C 293.183594 87.914062 292.765625 87.496094 292.765625 87.078125 C 291.929688 84.984375 290.257812 83.730469 289.003906 82.054688 C 287.75 80.378906 286.078125 79.125 283.988281 77.867188 C 283.570312 77.867188 283.988281 77.449219 284.40625 77.449219 C 286.078125 78.707031 287.75 79.960938 289.421875 81.636719 C 290.675781 83.308594 292.347656 84.984375 293.183594 86.660156 C 293.183594 86.660156 293.183594 87.078125 293.183594 87.078125 C 293.601562 88.332031 294.019531 90.007812 294.019531 91.265625 C 294.019531 91.683594 294.019531 91.683594 294.019531 92.101562 Z M 293.183594 88.332031 " fill-opacity="1" fill-rule="nonzero"/><path fill="#e07a5f" d="M 240.09375 83.308594 C 237.582031 85.820312 235.492188 88.753906 235.074219 92.101562 C 235.074219 92.519531 235.074219 92.9375 235.074219 93.355469 C 235.074219 93.777344 235.074219 93.777344 234.65625 94.195312 C 234.65625 92.9375 234.65625 91.683594 234.65625 90.84375 C 235.074219 87.914062 237.582031 85.402344 240.09375 83.308594 C 239.675781 82.890625 240.09375 82.890625 240.09375 83.308594 Z M 240.09375 83.308594 " fill-opacity="1" fill-rule="nonzero"/><path fill="#e07a5f" d="M 123.875 205.128906 C 124.710938 205.546875 125.128906 205.546875 125.964844 205.546875 C 125.964844 207.222656 125.964844 208.898438 125.964844 210.152344 C 125.964844 210.574219 125.964844 210.992188 125.964844 211.410156 C 125.964844 211.828125 125.964844 212.246094 125.546875 212.664062 C 125.128906 213.503906 125.128906 214.757812 124.710938 215.597656 C 123.875 215.597656 123.039062 215.175781 122.621094 214.757812 C 122.203125 214.339844 122.203125 213.921875 122.203125 213.503906 C 121.785156 211.828125 121.785156 210.152344 121.367188 208.480469 C 121.367188 207.222656 121.367188 206.386719 121.367188 205.128906 C 121.785156 204.292969 123.039062 204.710938 123.875 205.128906 Z M 123.875 205.128906 " fill-opacity="1" fill-rule="nonzero"/><path fill="#facca3" d="M 113.007812 184.617188 C 112.171875 187.964844 110.914062 191.316406 110.078125 194.664062 C 109.242188 197.175781 109.660156 199.269531 111.753906 200.945312 C 115.515625 204.292969 121.367188 204.710938 125.964844 204.710938 C 126.382812 204.710938 126.382812 204.292969 125.964844 204.292969 C 121.367188 204.710938 115.515625 203.875 111.753906 200.945312 C 110.914062 200.105469 110.078125 199.269531 110.078125 198.433594 C 109.660156 196.757812 110.078125 195.5 110.496094 193.828125 C 111.335938 190.898438 112.171875 187.546875 113.007812 184.617188 C 113.425781 184.617188 113.007812 184.199219 113.007812 184.617188 Z M 113.007812 184.617188 " fill-opacity="1" fill-rule="nonzero"/><path fill="#facca3" d="M 125.128906 216.015625 C 121.785156 217.269531 118.441406 216.851562 115.097656 216.015625 C 111.335938 215.175781 107.570312 214.339844 104.226562 213.085938 C 101.71875 212.246094 99.628906 210.574219 97.539062 208.898438 C 97.539062 208.480469 97.121094 208.058594 96.703125 207.640625 C 97.121094 207.640625 97.121094 208.058594 97.539062 208.480469 C 100.046875 210.574219 102.554688 212.246094 105.898438 213.503906 C 112.171875 214.757812 118.859375 217.6875 125.128906 216.015625 C 125.546875 215.597656 125.546875 216.015625 125.128906 216.015625 Z M 125.128906 216.015625 " fill-opacity="1" fill-rule="nonzero"/><path fill="#facca3" d="M 125.964844 204.292969 C 125.964844 208.0625 125.546875 212.246094 125.128906 216.015625 C 125.128906 216.433594 125.546875 216.433594 125.546875 216.015625 C 125.964844 212.246094 125.964844 208.480469 125.964844 204.292969 C 126.382812 204.292969 125.964844 204.292969 125.964844 204.292969 Z M 125.964844 204.292969 " fill-opacity="1" fill-rule="nonzero"/><path fill="#e07a5f" d="M 294.4375 196.757812 C 291.929688 203.875 289.003906 210.992188 286.496094 218.109375 C 283.988281 225.222656 285.242188 232.339844 283.570312 239.039062 C 283.570312 239.457031 283.988281 239.457031 283.988281 239.039062 C 285.242188 231.921875 284.40625 224.804688 286.914062 218.109375 C 289.003906 210.992188 291.929688 204.292969 294.4375 196.757812 C 294.855469 196.757812 294.4375 196.757812 294.4375 196.757812 Z M 294.4375 196.757812 " fill-opacity="1" fill-rule="nonzero"/><path fill="#e07a5f" d="M 291.511719 229.828125 C 291.929688 233.179688 291.511719 236.527344 290.257812 239.875 C 289.003906 243.226562 286.496094 246.15625 284.824219 249.085938 C 281.894531 254.527344 280.640625 260.390625 280.640625 266.667969 C 280.640625 267.085938 281.058594 267.085938 281.058594 266.667969 C 280.640625 259.550781 282.734375 252.851562 286.496094 246.992188 C 288.167969 244.480469 289.839844 241.96875 290.675781 239.039062 C 291.929688 236.109375 292.347656 232.757812 291.511719 229.828125 C 291.929688 229.410156 291.511719 229.410156 291.511719 229.828125 Z M 291.511719 229.828125 " fill-opacity="1" fill-rule="nonzero"/><path fill="#e07a5f" d="M 230.058594 202.617188 C 230.058594 205.96875 230.058594 209.316406 230.894531 212.664062 C 231.730469 216.015625 233.402344 218.527344 236.328125 221.039062 C 239.675781 223.550781 242.183594 226.480469 244.273438 229.828125 C 246.363281 233.179688 247.617188 237.363281 249.289062 241.132812 C 249.289062 241.550781 249.707031 241.132812 249.707031 241.132812 C 247.199219 234.851562 244.691406 227.734375 239.675781 223.132812 C 238 221.875 236.328125 220.621094 235.074219 219.363281 C 233.820312 218.109375 232.566406 216.015625 232.148438 214.339844 C 230.476562 210.152344 230.476562 205.96875 230.058594 202.617188 C 230.476562 202.199219 230.058594 202.199219 230.058594 202.617188 Z M 230.058594 202.617188 " fill-opacity="1" fill-rule="nonzero"/><path fill="#e07a5f" d="M 232.566406 196.757812 C 236.328125 201.78125 239.675781 207.222656 240.09375 213.503906 C 240.09375 213.921875 240.511719 213.921875 240.511719 213.503906 C 240.09375 207.222656 236.328125 201.78125 232.566406 196.757812 C 232.566406 196.339844 232.148438 196.757812 232.566406 196.757812 Z M 232.566406 196.757812 " fill-opacity="1" fill-rule="nonzero"/><path fill="#facca3" d="M 116.351562 229.828125 C 116.351562 230.058594 116.269531 230.257812 116.105469 230.421875 C 115.941406 230.585938 115.746094 230.667969 115.515625 230.667969 C 115.285156 230.667969 115.085938 230.585938 114.921875 230.421875 C 114.761719 230.257812 114.679688 230.058594 114.679688 229.828125 C 114.679688 229.597656 114.761719 229.402344 114.921875 229.238281 C 115.085938 229.074219 115.285156 228.992188 115.515625 228.992188 C 115.746094 228.992188 115.941406 229.074219 116.105469 229.238281 C 116.269531 229.402344 116.351562 229.597656 116.351562 229.828125 Z M 116.351562 229.828125 " fill-opacity="1" fill-rule="nonzero"/><path fill="#facca3" d="M 118.441406 218.527344 C 118.441406 218.757812 118.359375 218.953125 118.195312 219.117188 C 118.03125 219.28125 117.835938 219.363281 117.605469 219.363281 C 117.375 219.363281 117.175781 219.28125 117.011719 219.117188 C 116.851562 218.953125 116.769531 218.757812 116.769531 218.527344 C 116.769531 218.296875 116.851562 218.097656 117.011719 217.933594 C 117.175781 217.769531 117.375 217.6875 117.605469 217.6875 C 117.835938 217.6875 118.03125 217.769531 118.195312 217.933594 C 118.359375 218.097656 118.441406 218.296875 118.441406 218.527344 Z M 118.441406 218.527344 " fill-opacity="1" fill-rule="nonzero"/><path fill="#facca3" d="M 124.710938 202.199219 C 124.710938 202.429688 124.628906 202.628906 124.464844 202.792969 C 124.304688 202.957031 124.105469 203.035156 123.875 203.035156 C 123.644531 203.035156 123.449219 202.957031 123.285156 202.792969 C 123.121094 202.628906 123.039062 202.429688 123.039062 202.199219 C 123.039062 201.96875 123.121094 201.769531 123.285156 201.609375 C 123.449219 201.445312 123.644531 201.363281 123.875 201.363281 C 124.105469 201.363281 124.304688 201.445312 124.464844 201.609375 C 124.628906 201.769531 124.710938 201.96875 124.710938 202.199219 Z M 124.710938 202.199219 " fill-opacity="1" fill-rule="nonzero"/><path fill="#facca3" d="M 128.890625 192.570312 C 128.890625 192.800781 128.808594 193 128.648438 193.164062 C 128.484375 193.328125 128.285156 193.410156 128.054688 193.410156 C 127.824219 193.410156 127.628906 193.328125 127.464844 193.164062 C 127.300781 193 127.21875 192.800781 127.21875 192.570312 C 127.21875 192.339844 127.300781 192.144531 127.464844 191.980469 C 127.628906 191.816406 127.824219 191.734375 128.054688 191.734375 C 128.285156 191.734375 128.484375 191.816406 128.648438 191.980469 C 128.808594 192.144531 128.890625 192.339844 128.890625 192.570312 Z M 128.890625 192.570312 " fill-opacity="1" fill-rule="nonzero"/></svg>