<svg xmlns="http://www.w3.org/2000/svg" xmlns:xlink="http://www.w3.org/1999/xlink" width="450" zoomAndPan="magnify" viewBox="0 0 337.5 337.500003" height="450" preserveAspectRatio="xMidYMid meet" version="1.0"><defs><clipPath id="676be99664"><path d="M 20 202.199219 L 33 202.199219 L 33 218 L 20 218 Z M 20 202.199219 " clip-rule="nonzero"/></clipPath></defs><path fill="#facca3" d="M 53.515625 233.199219 C 53.34375 234.941406 52.824219 236.511719 52.300781 238.078125 C 52.300781 238.078125 52.300781 238.25 52.128906 238.25 C 52.128906 238.25 51.953125 238.25 51.953125 238.25 C 50.914062 238.078125 50.046875 237.207031 49.003906 237.03125 C 49.175781 237.03125 49.699219 235.289062 49.699219 235.117188 C 50.046875 234.421875 50.21875 233.722656 50.566406 233.027344 C 50.914062 232.332031 51.085938 232.503906 51.609375 232.679688 C 52.300781 233.027344 52.824219 233.199219 53.515625 233.199219 Z M 53.515625 233.199219 " fill-opacity="1" fill-rule="nonzero"/><path fill="#facca3" d="M 57.855469 230.589844 C 57.164062 230.414062 56.292969 230.066406 55.078125 229.890625 C 54.90625 230.414062 54.558594 230.9375 54.039062 231.460938 C 54.039062 231.632812 53.863281 231.632812 53.863281 231.808594 C 53.863281 231.980469 53.863281 231.980469 53.863281 232.15625 C 53.863281 232.851562 54.039062 233.550781 54.039062 234.421875 C 54.90625 234.59375 55.773438 234.941406 56.988281 234.941406 C 58.03125 235.117188 59.070312 234.941406 59.765625 234.941406 C 59.941406 234.59375 59.941406 234.070312 59.941406 233.375 C 59.941406 232.851562 59.941406 232.332031 59.765625 231.980469 C 59.417969 231.285156 59.070312 230.9375 57.855469 230.589844 Z M 57.855469 230.589844 " fill-opacity="1" fill-rule="nonzero"/><path fill="#3d3d3d" d="M 57.335938 230.242188 C 57.855469 230.589844 58.550781 230.589844 59.246094 230.761719 C 59.941406 230.9375 60.460938 230.9375 61.15625 231.109375 C 61.503906 231.109375 61.675781 231.285156 62.023438 231.285156 C 62.371094 231.285156 62.542969 231.285156 62.890625 231.285156 C 64.105469 231.285156 65.320312 231.285156 66.363281 231.285156 C 66.710938 231.285156 67.230469 231.285156 67.40625 231.632812 C 67.40625 231.808594 67.40625 231.808594 67.40625 231.980469 C 67.40625 232.503906 67.578125 233.027344 67.578125 233.550781 C 67.578125 233.722656 67.578125 233.898438 67.578125 234.246094 C 67.578125 234.421875 67.40625 234.59375 67.230469 234.59375 C 67.058594 235.8125 67.058594 236.683594 67.058594 237.207031 C 67.058594 237.730469 67.230469 238.601562 66.882812 239.472656 C 66.710938 239.992188 66.535156 240.339844 66.1875 240.515625 C 65.84375 240.863281 65.496094 241.039062 64.972656 240.863281 C 64.453125 240.691406 64.28125 240.167969 64.28125 239.644531 C 64.28125 239.121094 64.453125 238.601562 64.28125 238.25 C 64.28125 237.902344 64.105469 237.554688 63.933594 237.382812 C 63.238281 236.160156 61.675781 235.640625 60.980469 235.464844 C 60.113281 235.117188 58.726562 234.941406 56.816406 234.941406 C 57.164062 233.550781 57.335938 231.808594 57.335938 230.242188 Z M 57.335938 230.242188 " fill-opacity="1" fill-rule="nonzero"/><path fill="#3d3d3d" d="M 57.335938 234.246094 C 57.683594 234.421875 58.03125 234.59375 58.378906 234.59375 C 59.070312 234.769531 59.765625 234.769531 60.289062 234.769531 C 60.980469 234.769531 61.675781 234.941406 62.371094 235.117188 C 62.71875 235.289062 63.238281 235.464844 63.410156 235.988281 C 63.410156 236.160156 63.410156 236.511719 63.410156 236.683594 C 63.238281 237.03125 63.238281 237.382812 63.066406 237.902344 C 63.066406 238.078125 62.890625 238.25 62.890625 238.425781 C 62.890625 238.601562 62.542969 238.601562 62.371094 238.601562 C 62.195312 239.472656 62.023438 240.339844 61.847656 241.210938 C 61.675781 242.257812 61.503906 243.300781 60.980469 244.171875 C 60.808594 244.519531 60.632812 244.695312 60.289062 244.871094 C 59.941406 245.042969 59.59375 245.042969 59.246094 244.871094 C 58.898438 244.695312 58.726562 244 58.898438 243.476562 C 58.898438 242.953125 59.246094 242.605469 59.070312 242.082031 C 59.070312 241.5625 58.726562 241.039062 58.378906 240.691406 C 57.855469 239.992188 56.988281 239.296875 56.121094 239.121094 C 55.601562 238.949219 55.078125 238.949219 54.558594 238.949219 C 53.691406 238.949219 52.300781 238.601562 50.738281 238.078125 C 51.261719 236.683594 51.609375 235.117188 51.953125 233.722656 C 51.953125 233.375 52.128906 233.199219 52.128906 232.851562 C 53.167969 232.851562 54.039062 233.027344 54.558594 233.199219 C 55.253906 233.375 55.949219 233.722656 57.335938 234.246094 Z M 57.335938 234.246094 " fill-opacity="1" fill-rule="nonzero"/><path fill="#3d405b" d="M 44.316406 233.898438 C 44.316406 234.421875 44.316406 235.117188 44.488281 235.640625 C 44.664062 236.683594 45.359375 237.554688 46.226562 238.25 C 47.09375 238.949219 47.960938 239.296875 49.003906 239.644531 C 49.175781 239.644531 49.175781 239.644531 49.351562 239.644531 C 49.523438 239.644531 49.523438 239.472656 49.699219 239.296875 C 50.914062 237.207031 51.78125 234.941406 52.128906 232.503906 C 52.824219 232.679688 53.34375 232.679688 53.691406 232.679688 C 54.210938 232.503906 54.90625 231.980469 56.292969 230.761719 C 56.46875 230.589844 56.640625 230.414062 56.816406 230.066406 C 56.816406 229.71875 56.816406 229.542969 56.816406 229.371094 C 56.46875 227.976562 56.121094 226.757812 55.773438 225.363281 C 55.425781 224.144531 54.90625 223.101562 54.386719 222.054688 C 54.039062 221.53125 53.691406 221.183594 53.34375 220.835938 C 52.476562 220.140625 51.261719 220.3125 50.21875 220.3125 C 49.871094 220.3125 49.699219 220.3125 49.351562 220.488281 C 49.003906 220.660156 48.65625 221.011719 48.308594 221.359375 C 47.269531 222.75 46.226562 223.96875 45.359375 225.539062 C 45.011719 226.234375 44.488281 226.929688 44.488281 227.628906 C 44.488281 228.5 44.488281 229.371094 44.664062 230.242188 C 44.316406 231.632812 44.316406 232.851562 44.316406 233.898438 Z M 44.316406 233.898438 " fill-opacity="1" fill-rule="nonzero"/><path fill="#e07a5f" d="M 12.550781 332.296875 C 11.855469 332.296875 11.332031 332.125 10.640625 332.296875 C 10.292969 332.296875 10.117188 332.472656 9.945312 332.648438 C 9.769531 332.820312 9.769531 333.167969 9.945312 333.34375 C 9.945312 333.515625 10.117188 333.515625 10.292969 333.515625 C 10.8125 333.691406 11.332031 333.867188 11.855469 333.867188 C 13.417969 333.867188 14.980469 333.867188 16.542969 333.515625 C 16.714844 333.515625 17.0625 333.515625 17.234375 333.34375 C 17.410156 333.167969 17.582031 332.996094 17.582031 332.820312 C 17.582031 332.472656 17.410156 332.296875 17.0625 332.125 C 16.714844 331.949219 16.542969 332.125 16.195312 332.125 C 15.5 332.125 14.980469 332.125 14.285156 332.296875 C 13.589844 332.472656 13.070312 332.296875 12.550781 332.296875 Z M 12.550781 332.296875 " fill-opacity="1" fill-rule="nonzero"/><path fill="#e07a5f" d="M 15.152344 334.214844 C 15.152344 334.214844 14.980469 334.214844 15.152344 334.214844 C 14.980469 334.214844 14.804688 334.214844 14.804688 334.386719 C 14.457031 334.5625 14.457031 334.910156 14.804688 335.085938 C 14.980469 335.257812 15.152344 335.257812 15.328125 335.257812 C 15.671875 335.257812 16.019531 335.433594 16.542969 335.433594 C 18.625 335.78125 20.882812 335.609375 22.964844 335.957031 C 25.394531 336.304688 27.824219 337 30.253906 337 C 30.777344 337 31.125 336.828125 31.46875 336.476562 C 31.644531 336.128906 31.644531 335.957031 31.46875 335.609375 C 31.125 334.738281 30.429688 334.214844 29.5625 333.691406 C 28.691406 333.167969 27.652344 332.648438 26.609375 332.296875 C 25.222656 331.949219 23.660156 332.125 22.269531 332.472656 C 21.402344 332.648438 20.535156 332.820312 19.667969 333.167969 C 19.320312 333.34375 18.796875 333.515625 18.449219 333.691406 C 18.105469 333.867188 17.757812 334.039062 17.410156 334.214844 C 17.0625 334.386719 16.890625 334.386719 16.542969 334.214844 C 16.367188 334.214844 16.195312 334.039062 16.019531 334.039062 C 15.328125 334.214844 15.328125 334.214844 15.152344 334.214844 Z M 15.152344 334.214844 " fill-opacity="1" fill-rule="nonzero"/><path fill="#facca3" d="M 12.203125 324.113281 C 12.027344 325.855469 11.679688 327.421875 11.160156 329.164062 C 10.988281 329.6875 10.8125 330.035156 10.640625 330.558594 C 10.640625 331.078125 10.640625 331.601562 10.988281 331.949219 C 11.507812 332.472656 12.375 332.648438 13.070312 332.648438 C 14.285156 332.648438 15.5 332.820312 16.714844 332.820312 C 17.234375 332.820312 17.582031 332.648438 18.105469 332.648438 C 19.492188 332.472656 20.1875 332.296875 20.882812 331.777344 C 21.230469 331.601562 22.097656 330.90625 22.097656 330.382812 C 21.921875 329.6875 20.359375 329.164062 19.144531 328.988281 C 17.757812 328.816406 17.234375 329.335938 16.714844 328.816406 C 16.195312 328.292969 16.714844 327.769531 16.542969 325.332031 C 16.367188 323.066406 15.847656 321.5 16.019531 320.976562 C 16.019531 320.976562 16.019531 320.628906 16.019531 320.628906 C 16.019531 320.457031 15.847656 320.457031 15.671875 320.457031 C 14.980469 320.28125 13.242188 319.585938 12.550781 320.28125 C 12.203125 320.628906 12.203125 321.5 12.203125 322.023438 C 12.375 322.71875 12.375 323.417969 12.203125 324.113281 Z M 12.203125 324.113281 " fill-opacity="1" fill-rule="nonzero"/><path fill="#e07a5f" d="M 11.332031 326.898438 C 11.160156 327.421875 11.160156 328.117188 10.988281 328.640625 C 11.160156 328.816406 11.332031 328.988281 11.332031 328.988281 C 12.203125 330.207031 13.589844 332.472656 13.9375 332.996094 C 13.9375 332.996094 14.109375 333.167969 14.109375 333.167969 C 14.109375 333.167969 14.285156 333.167969 14.285156 333.167969 C 14.632812 333.167969 14.804688 333.167969 15.152344 332.996094 C 15.152344 332.472656 14.804688 331.949219 14.457031 331.425781 C 14.457031 331.253906 14.285156 331.078125 13.9375 330.558594 C 13.242188 329.511719 12.027344 328.292969 11.679688 327.769531 C 12.027344 327.769531 12.203125 327.597656 12.546875 327.597656 C 14.109375 327.246094 15.5 327.074219 16.890625 326.550781 C 17.0625 326.375 17.234375 325.855469 17.0625 325.679688 C 17.0625 325.507812 16.890625 325.507812 16.714844 325.507812 C 16.195312 325.855469 12.027344 326.726562 11.332031 326.898438 Z M 11.332031 326.898438 " fill-opacity="1" fill-rule="nonzero"/><path fill="#facca3" d="M 31.296875 335.78125 C 31.296875 335.957031 31.125 335.957031 30.949219 335.957031 C 29.039062 336.652344 24.351562 335.609375 24.351562 335.609375 C 22.445312 335.257812 20.882812 334.910156 19.839844 334.738281 C 18.972656 334.5625 18.277344 334.5625 17.929688 334.5625 C 17.582031 334.5625 17.0625 334.5625 16.714844 334.386719 C 16.367188 334.214844 15.847656 334.039062 15.847656 333.691406 C 15.847656 333.515625 15.671875 333.34375 15.671875 333.167969 C 15.671875 332.125 15.847656 330.90625 16.195312 329.859375 C 16.195312 329.6875 16.367188 329.335938 16.367188 329.164062 C 16.542969 328.640625 16.890625 328.117188 16.890625 327.597656 C 16.890625 327.246094 16.890625 326.898438 16.890625 326.375 C 16.890625 325.679688 16.890625 325.332031 16.890625 324.984375 C 16.890625 323.066406 16.542969 321.675781 17.0625 321.328125 C 17.0625 321.328125 17.234375 321.152344 17.410156 321.152344 C 17.410156 321.152344 17.410156 321.328125 17.410156 321.328125 C 17.929688 321.675781 18.449219 321.847656 18.972656 322.023438 C 20.011719 322.195312 21.054688 322.195312 22.097656 322.371094 C 22.269531 322.371094 22.269531 322.371094 22.445312 322.546875 C 22.617188 322.71875 22.617188 322.894531 22.617188 323.066406 C 22.445312 324.285156 22.269531 326.726562 22.617188 328.292969 C 22.617188 328.640625 22.789062 328.988281 22.789062 329.164062 C 23.3125 330.90625 25.222656 331.777344 26.785156 332.472656 C 26.785156 332.472656 29.734375 333.867188 31.125 335.085938 C 30.949219 335.085938 31.296875 335.433594 31.296875 335.78125 Z M 31.296875 335.78125 " fill-opacity="1" fill-rule="nonzero"/><path fill="#e07a5f" d="M 20.359375 329.6875 C 19.144531 330.035156 18.105469 330.207031 17.0625 330.382812 C 17.234375 330.558594 17.582031 330.90625 17.757812 331.253906 C 18.105469 331.601562 18.277344 331.949219 18.449219 332.296875 C 18.972656 332.996094 19.320312 333.867188 19.667969 334.5625 C 19.667969 334.5625 19.667969 334.738281 19.667969 334.738281 C 19.144531 334.738281 18.625 334.738281 18.105469 334.738281 C 18.105469 334.738281 17.929688 334.738281 17.929688 334.738281 C 17.757812 334.738281 17.757812 334.5625 17.757812 334.5625 C 17.757812 334.5625 17.757812 334.5625 17.757812 334.386719 C 17.582031 333.867188 16.890625 332.820312 15.847656 330.90625 C 15.847656 330.382812 15.847656 330.035156 15.847656 329.511719 C 15.847656 329.335938 15.847656 328.988281 15.847656 328.816406 C 15.847656 328.816406 16.019531 328.816406 16.019531 328.816406 C 16.890625 328.640625 17.757812 328.46875 18.625 328.292969 C 19.839844 328.117188 21.054688 327.945312 22.097656 327.769531 C 22.097656 328.117188 22.269531 328.46875 22.269531 328.640625 C 21.921875 329.335938 21.054688 329.511719 20.359375 329.6875 Z M 20.359375 329.6875 " fill-opacity="1" fill-rule="nonzero"/><path fill="#e07a5f" d="M 23.484375 334.214844 C 24.179688 332.820312 25.570312 332.125 26.089844 331.949219 C 26.4375 332.125 26.785156 332.296875 27.128906 332.296875 C 28.171875 332.820312 29.039062 333.34375 29.734375 333.867188 C 29.5625 334.039062 29.386719 334.214844 29.039062 334.386719 C 28.867188 334.5625 28.691406 334.738281 28.347656 335.085938 C 28 335.433594 27.652344 335.957031 27.476562 336.304688 C 26.785156 336.304688 26.261719 336.128906 25.742188 336.128906 C 24.699219 335.957031 24.179688 335.957031 23.832031 335.78125 C 23.484375 335.609375 23.136719 335.433594 22.964844 335.257812 C 23.136719 335.085938 23.3125 334.738281 23.484375 334.214844 Z M 23.484375 334.214844 " fill-opacity="1" fill-rule="nonzero"/><path fill="#3d405b" d="M 31.125 279.355469 C 31.296875 285.972656 30.082031 292.765625 27.824219 299.035156 C 26.609375 302.515625 25.914062 303.386719 25.046875 306.695312 C 24.351562 310.003906 24.351562 311.921875 23.484375 318.367188 C 23.136719 320.457031 22.964844 322.195312 22.789062 323.242188 C 22.269531 323.242188 21.921875 323.242188 21.402344 323.242188 C 19.667969 323.242188 17.929688 323.066406 16.542969 322.894531 C 16.542969 322.894531 16.367188 322.894531 16.367188 322.894531 C 16.367188 322.546875 16.367188 322.195312 16.195312 322.023438 C 14.804688 321.847656 13.589844 321.5 12.375 321.328125 C 12.375 320.804688 12.203125 319.933594 12.203125 318.886719 C 12.027344 316.972656 11.855469 313.316406 12.894531 308.960938 C 13.242188 307.742188 13.589844 306.871094 13.9375 305.476562 C 14.980469 302.34375 15.5 301.644531 16.019531 300.078125 C 17.234375 296.59375 15.847656 296.59375 16.714844 290.5 C 16.890625 289.453125 17.410156 286.667969 17.0625 283.882812 C 17.0625 282.835938 16.714844 281.964844 16.367188 281.09375 C 16.019531 280.398438 15.328125 279.875 14.804688 279.179688 C 12.722656 276.21875 13.589844 272.039062 15.847656 269.425781 C 17.757812 267.164062 20.535156 265.941406 23.136719 264.898438 C 24.179688 264.550781 25.046875 264.027344 26.089844 263.851562 C 26.4375 263.851562 30.777344 263.679688 30.601562 264.027344 C 30.253906 269.078125 31.125 274.128906 31.125 279.355469 Z M 31.125 279.355469 " fill-opacity="1" fill-rule="nonzero"/><path fill="#facca3" d="M 22.097656 218.222656 C 22.617188 218.570312 23.136719 218.746094 23.484375 219.269531 C 23.832031 219.789062 23.660156 220.835938 24.179688 221.359375 C 24.699219 222.054688 25.914062 221.707031 26.785156 222.054688 C 27.128906 222.230469 27.304688 222.402344 27.652344 222.578125 C 28 222.75 28.347656 222.75 28.519531 222.75 C 29.039062 222.578125 29.039062 221.878906 29.214844 221.359375 C 29.386719 220.660156 30.253906 220.140625 30.601562 219.617188 C 31.125 218.917969 31.46875 218.050781 31.46875 217.179688 C 31.46875 216.308594 31.296875 215.4375 31.125 214.566406 C 30.949219 213.871094 30.777344 213.347656 30.601562 212.648438 C 30.429688 212.128906 30.253906 211.777344 29.910156 211.429688 C 29.5625 211.082031 29.039062 210.910156 28.691406 210.910156 C 28 210.734375 27.128906 210.910156 26.4375 211.257812 C 25.742188 211.605469 25.046875 212.128906 24.351562 212.648438 C 23.484375 213.347656 22.445312 213.871094 21.921875 215.089844 C 21.402344 215.609375 21.054688 217.351562 22.097656 218.222656 Z M 22.097656 218.222656 " fill-opacity="1" fill-rule="nonzero"/><g clip-path="url(#676be99664)"><path fill="#3d405b" d="M 20.882812 217.699219 C 20.707031 217.003906 20.535156 216.132812 20.535156 215.089844 C 20.535156 214.390625 20.535156 213.171875 20.882812 211.777344 C 21.574219 209.6875 22.789062 208.296875 23.3125 207.597656 C 24.007812 206.902344 24.875 206.378906 25.394531 206.03125 C 25.222656 205.683594 25.222656 205.335938 25.046875 204.8125 C 25.046875 204.8125 25.046875 204.464844 25.046875 204.117188 C 25.222656 203.246094 26.261719 202.199219 27.652344 202.199219 C 29.039062 202.199219 30.253906 203.246094 30.429688 204.464844 C 30.601562 205.507812 29.910156 206.207031 29.734375 206.378906 C 30.601562 207.078125 31.125 208.121094 31.46875 209.339844 C 31.816406 210.558594 31.992188 211.605469 32.164062 212.648438 C 32.164062 213.695312 32.339844 215.261719 31.992188 217.179688 C 29.734375 217.351562 27.652344 217.351562 25.394531 217.527344 C 24.007812 217.527344 22.445312 217.527344 20.882812 217.699219 Z M 20.882812 217.699219 " fill-opacity="1" fill-rule="nonzero"/></g><path fill="#81b29a" d="M 50.566406 220.488281 C 49.523438 222.402344 47.960938 223.96875 46.574219 225.710938 C 45.53125 227.105469 44.664062 228.847656 43.96875 230.414062 C 42.753906 230.242188 42.058594 229.195312 41.191406 228.5 C 39.804688 227.105469 38.066406 226.058594 36.15625 225.539062 C 36.15625 226.582031 36.15625 227.628906 36.15625 228.847656 C 36.15625 229.890625 36.15625 231.109375 36.15625 231.808594 C 36.15625 232.851562 35.984375 234.421875 35.464844 236.335938 C 35.289062 237.03125 35.117188 237.730469 34.941406 238.425781 C 33.378906 238.425781 31.644531 238.601562 30.082031 238.601562 C 30.253906 237.730469 30.253906 236.859375 30.429688 236.160156 C 30.601562 234.769531 30.777344 233.550781 30.949219 232.851562 C 31.296875 230.589844 31.46875 228.847656 30.949219 226.929688 C 30.777344 226.234375 30.429688 225.710938 30.082031 225.191406 C 29.5625 224.492188 28.691406 223.96875 28 223.449219 C 28 223.449219 27.824219 223.273438 27.824219 223.273438 C 27.824219 223.101562 27.824219 222.75 27.824219 222.75 C 29.734375 218.570312 29.734375 218.570312 29.734375 218.570312 C 30.429688 217.351562 31.125 216.308594 32.164062 215.089844 C 32.511719 214.738281 33.207031 213.871094 33.726562 214.21875 C 33.902344 214.21875 34.25 214.566406 34.421875 214.566406 C 34.769531 214.738281 35.117188 214.738281 35.636719 214.738281 C 36.851562 214.914062 37.546875 216.132812 38.761719 216.480469 C 39.28125 216.65625 39.804688 216.65625 40.324219 216.65625 C 42.234375 216.65625 43.96875 216.828125 45.878906 217.351562 C 47.613281 217.699219 49.351562 218.917969 50.566406 220.488281 Z M 50.566406 220.488281 " fill-opacity="1" fill-rule="nonzero"/><path fill="#facca3" d="M 8.902344 225.363281 C 9.425781 225.015625 9.769531 224.492188 10.464844 224.492188 C 11.332031 224.320312 12.203125 224.839844 12.894531 225.363281 C 13.589844 225.886719 14.285156 226.582031 15.152344 226.582031 C 15.671875 226.582031 16.195312 226.410156 16.890625 226.582031 C 17.582031 226.757812 18.105469 227.105469 17.929688 227.628906 C 17.757812 228.148438 17.234375 228.5 17.410156 229.019531 C 17.582031 229.195312 17.757812 229.195312 17.757812 229.371094 C 17.929688 229.542969 17.757812 229.890625 17.757812 230.066406 C 17.757812 230.242188 17.929688 230.242188 17.929688 230.414062 C 18.277344 230.761719 18.796875 231.285156 19.144531 231.632812 C 19.492188 231.808594 19.667969 232.15625 19.667969 232.503906 C 19.667969 233.027344 19.144531 233.375 18.796875 233.898438 C 18.449219 234.246094 18.277344 234.769531 18.105469 235.289062 C 18.105469 235.988281 17.929688 236.683594 18.105469 237.382812 C 18.105469 237.554688 18.277344 237.730469 18.449219 238.078125 C 18.796875 238.773438 18.625 239.820312 18.277344 240.515625 C 18.105469 241.039062 17.757812 241.5625 17.234375 241.910156 C 16.367188 242.257812 15.5 241.910156 14.632812 241.386719 C 13.417969 240.691406 12.375 239.644531 11.507812 238.601562 C 10.988281 237.902344 10.640625 237.03125 10.117188 236.160156 C 9.25 234.246094 8.382812 232.332031 7.6875 230.414062 C 6.992188 228.324219 7.339844 226.757812 8.902344 225.363281 Z M 8.902344 225.363281 " fill-opacity="1" fill-rule="nonzero"/><path fill="#e07a5f" d="M 43.449219 233.550781 C 43.449219 233.898438 43.273438 234.070312 43.101562 234.59375 C 42.582031 236.511719 42.234375 237.554688 41.886719 238.773438 C 41.710938 240.167969 41.191406 241.386719 40.84375 242.78125 C 40.324219 244.171875 39.804688 245.742188 38.761719 246.960938 C 38.066406 247.832031 37.027344 248.351562 35.984375 248.703125 C 34.769531 249.050781 33.726562 248.703125 32.511719 248.875 C 32.511719 248.875 32.511719 249.050781 32.511719 249.050781 C 32.859375 250.09375 33.378906 251.3125 33.902344 252.359375 C 34.421875 253.578125 34.769531 254.796875 35.289062 256.015625 C 36.15625 258.453125 36.851562 261.066406 37.546875 263.679688 C 37.71875 264.027344 37.71875 264.550781 37.371094 264.898438 C 37.199219 265.074219 37.027344 265.074219 36.851562 265.074219 C 32.339844 265.59375 28 266.117188 23.484375 266.292969 C 22.617188 266.292969 21.75 266.464844 21.054688 266.988281 C 20.535156 267.511719 20.535156 268.03125 20.1875 268.730469 C 19.667969 269.949219 18.625 270.992188 17.410156 271.691406 C 16.890625 272.039062 16.019531 272.214844 15.5 271.863281 C 14.632812 271.515625 14.285156 270.644531 14.285156 269.773438 C 14.285156 268.902344 14.632812 268.03125 14.804688 267.164062 C 15.847656 263.679688 15.328125 260.023438 14.457031 256.363281 C 13.589844 252.882812 12.203125 249.398438 11.332031 245.914062 C 11.160156 244.519531 10.8125 242.953125 11.160156 241.386719 C 12.027344 237.207031 16.542969 237.554688 19.839844 236.335938 C 20.011719 236.335938 20.359375 236.160156 20.535156 236.160156 C 21.054688 236.335938 21.230469 237.03125 21.574219 237.554688 C 22.097656 238.25 23.136719 238.425781 24.007812 238.425781 C 26.957031 238.601562 29.910156 238.425781 32.859375 238.078125 C 33.378906 238.078125 33.726562 237.902344 34.25 237.730469 C 34.941406 237.382812 35.289062 236.683594 35.636719 236.160156 C 36.332031 234.769531 36.851562 233.199219 37.371094 231.808594 C 37.546875 231.109375 37.71875 230.414062 37.71875 229.71875 C 38.761719 230.066406 39.804688 230.414062 40.84375 230.9375 C 42.929688 231.808594 43.449219 232.15625 43.621094 232.679688 C 43.449219 232.679688 43.449219 233.027344 43.449219 233.550781 Z M 43.449219 233.550781 " fill-opacity="1" fill-rule="nonzero"/><path fill="#facca3" d="M 38.242188 229.195312 C 38.242188 229.019531 38.242188 229.019531 38.066406 228.847656 C 37.894531 228.671875 37.71875 228.671875 37.546875 228.5 C 36.679688 227.976562 35.636719 227.628906 34.941406 226.929688 C 34.59375 226.582031 34.421875 226.058594 34.769531 225.710938 C 34.941406 225.539062 35.289062 225.363281 35.636719 225.539062 C 35.984375 225.710938 36.15625 225.886719 36.332031 226.058594 C 36.332031 226.058594 36.503906 226.234375 36.503906 226.234375 C 36.679688 226.234375 36.679688 226.058594 36.679688 225.886719 C 36.851562 224.839844 36.679688 223.96875 36.679688 222.925781 C 36.679688 222.230469 36.503906 221.53125 36.503906 220.835938 C 36.503906 220.140625 36.851562 219.441406 37.546875 219.09375 C 37.546875 219.09375 37.71875 219.09375 37.71875 219.09375 C 37.894531 219.09375 38.066406 219.269531 38.242188 219.441406 C 38.414062 219.617188 38.761719 219.617188 39.109375 219.617188 C 39.28125 219.617188 39.457031 219.441406 39.628906 219.441406 C 39.804688 219.441406 39.976562 219.617188 40.148438 219.789062 C 40.324219 219.789062 40.496094 219.789062 40.671875 219.964844 C 40.84375 219.964844 40.84375 220.140625 41.019531 220.3125 C 41.367188 220.835938 41.539062 221.53125 41.539062 222.054688 C 41.539062 222.402344 41.539062 222.925781 41.539062 223.273438 C 41.539062 223.796875 41.710938 224.320312 41.886719 224.839844 C 42.058594 225.363281 42.058594 225.886719 42.234375 226.410156 C 42.40625 226.929688 42.234375 227.105469 42.40625 227.800781 C 42.582031 228.5 42.582031 229.019531 42.582031 229.195312 C 42.753906 229.890625 42.753906 230.9375 42.40625 232.679688 C 41.710938 232.503906 41.019531 232.332031 40.148438 231.980469 C 39.628906 231.808594 39.109375 231.632812 38.761719 231.285156 C 38.933594 230.761719 38.414062 229.542969 38.242188 229.195312 Z M 38.242188 229.195312 " fill-opacity="1" fill-rule="nonzero"/><path fill="#e07a5f" d="M 43.449219 233.550781 C 43.449219 233.550781 43.273438 233.550781 43.273438 233.550781 C 41.367188 233.550781 39.457031 233.199219 37.894531 232.15625 C 37.71875 231.980469 37.371094 231.808594 37.199219 231.632812 C 37.371094 230.9375 37.546875 230.242188 37.546875 229.542969 C 38.589844 229.890625 39.628906 230.242188 40.671875 230.761719 C 42.753906 231.632812 43.273438 231.980469 43.449219 232.503906 C 43.449219 232.679688 43.449219 233.027344 43.449219 233.550781 Z M 43.449219 233.550781 " fill-opacity="1" fill-rule="nonzero"/><path fill="#3d3d3d" d="M 1.785156 229.195312 C 1.613281 230.066406 1.089844 230.761719 1.265625 231.632812 C 1.4375 232.503906 1.960938 233.027344 2.308594 233.722656 C 2.652344 234.421875 2.652344 235.117188 2.652344 235.8125 C 2.828125 236.683594 3.347656 237.730469 3.867188 238.425781 C 4.214844 238.773438 4.5625 239.121094 4.910156 239.296875 C 5.257812 239.472656 5.605469 239.472656 5.953125 239.644531 C 6.300781 239.820312 6.648438 239.992188 6.992188 240.339844 C 7.6875 241.039062 8.554688 241.5625 9.25 242.257812 C 9.597656 242.605469 9.945312 242.78125 10.464844 243.128906 C 10.988281 243.300781 11.679688 243.476562 12.375 243.476562 C 12.894531 243.476562 13.589844 243.476562 14.109375 243.128906 C 14.457031 242.953125 14.632812 242.605469 14.980469 242.257812 C 15.328125 241.5625 15.847656 240.863281 16.195312 240.167969 C 16.367188 239.820312 16.542969 239.644531 16.542969 239.296875 C 16.542969 238.773438 16.019531 238.425781 15.847656 237.902344 C 15.328125 236.683594 16.367188 235.289062 15.847656 234.070312 C 15.5 233.375 14.980469 233.027344 14.457031 232.503906 C 13.765625 231.632812 13.417969 230.589844 12.894531 229.71875 C 12.203125 228.671875 11.507812 227.976562 11.332031 226.757812 C 11.332031 225.886719 11.160156 224.839844 10.464844 224.320312 C 9.945312 223.96875 9.078125 223.96875 8.382812 224.320312 C 7.6875 224.667969 7.167969 225.015625 6.648438 225.363281 C 5.777344 225.886719 4.738281 226.058594 3.867188 226.582031 C 3.347656 226.929688 2.828125 227.28125 2.480469 227.800781 C 0.570312 230.242188 0.746094 234.421875 2.480469 236.683594 C 3.695312 238.25 5.777344 239.296875 7.167969 240.863281 C 8.902344 242.605469 9.945312 245.042969 10.640625 247.480469 C 11.332031 249.921875 11.679688 252.359375 12.375 254.796875 C 12.546875 255.320312 12.722656 255.84375 13.070312 256.191406 C 13.417969 256.539062 13.9375 256.886719 14.457031 256.710938 C 14.804688 256.710938 14.980469 256.363281 15.328125 256.363281 C 15.847656 256.363281 16.367188 256.886719 16.890625 256.886719 C 17.410156 256.886719 17.582031 256.363281 17.757812 255.84375 C 18.449219 253.230469 17.0625 250.617188 16.714844 248.003906 C 16.367188 245.21875 17.410156 243.824219 16.714844 239.992188 C 16.714844 239.644531 16.542969 239.472656 16.542969 239.296875 " fill-opacity="1" fill-rule="nonzero"/><path fill="#3d3d3d" d="M 2.132812 231.980469 C 1.4375 233.722656 2.132812 235.640625 3 237.207031 C 3.867188 238.773438 5.085938 240.167969 5.953125 241.734375 C 7.6875 245.21875 6.472656 246.261719 7.863281 251.488281 C 9.078125 255.84375 11.679688 260.023438 13.765625 260.023438 C 13.9375 260.023438 15.328125 260.023438 15.847656 259.152344 C 16.019531 258.800781 16.195312 258.28125 16.195312 258.105469 C 16.367188 257.582031 16.367188 257.234375 16.367188 257.234375 C 16.367188 256.710938 16.714844 256.015625 17.757812 254.796875 " fill-opacity="1" fill-rule="nonzero"/><path fill="#facca3" d="M 31.46875 236.859375 C 30.777344 237.03125 31.296875 238.949219 30.253906 240.339844 C 30.082031 240.515625 29.910156 240.863281 29.910156 241.039062 C 29.910156 241.386719 30.253906 241.5625 30.429688 241.5625 C 30.601562 241.5625 30.777344 241.386719 30.949219 241.386719 C 31.125 241.386719 31.125 241.5625 31.125 241.734375 C 31.125 241.910156 31.296875 242.257812 31.46875 242.429688 C 31.644531 242.605469 31.992188 242.605469 31.992188 242.257812 C 32.164062 242.429688 32.6875 242.605469 32.859375 242.429688 C 33.03125 242.429688 33.03125 242.429688 33.207031 242.429688 C 33.378906 242.429688 33.378906 242.429688 33.554688 242.429688 C 33.726562 242.429688 33.726562 242.429688 33.902344 242.257812 C 34.25 242.082031 34.25 241.734375 34.25 241.5625 C 34.25 241.386719 34.25 241.210938 34.25 241.039062 C 34.25 240.691406 34.074219 240.515625 34.074219 240.339844 C 33.902344 239.644531 34.421875 238.773438 34.59375 238.078125 C 34.59375 237.902344 34.59375 237.902344 34.59375 237.730469 C 34.59375 237.730469 34.421875 237.554688 34.421875 237.554688 C 33.726562 237.03125 32.6875 237.207031 31.816406 236.683594 C 31.816406 236.683594 31.644531 236.683594 31.46875 236.859375 Z M 31.46875 236.859375 " fill-opacity="1" fill-rule="nonzero"/><path fill="#81b29a" d="M 35.984375 234.941406 C 35.808594 235.8125 35.636719 236.511719 35.464844 237.382812 C 35.289062 237.730469 35.289062 238.078125 35.117188 238.425781 C 33.554688 238.425781 31.816406 238.601562 30.253906 238.601562 C 30.429688 237.730469 30.429688 236.859375 30.601562 236.160156 C 31.125 236.335938 31.816406 236.335938 32.6875 236.335938 C 34.25 236.160156 35.464844 235.289062 35.984375 234.941406 Z M 35.984375 234.941406 " fill-opacity="1" fill-rule="nonzero"/><path fill="#3d3d3d" d="M 32.511719 249.050781 C 29.214844 248.875 25.914062 248.003906 22.617188 247.132812 C 22.445312 247.132812 22.617188 246.960938 22.617188 246.960938 C 25.914062 247.832031 29.214844 248.703125 32.511719 249.050781 C 32.511719 248.875 32.511719 249.050781 32.511719 249.050781 Z M 32.511719 249.050781 " fill-opacity="1" fill-rule="nonzero"/><path fill="#facca3" d="M 16.542969 310.355469 C 15.847656 314.535156 16.195312 318.714844 16.714844 323.066406 C 16.714844 323.066406 16.542969 323.066406 16.542969 323.066406 C 16.019531 319.0625 15.847656 315.054688 16.367188 311.050781 C 16.714844 308.4375 17.582031 306.347656 18.277344 303.910156 C 19.492188 300.078125 18.796875 296.421875 18.796875 292.589844 C 18.796875 288.585938 19.144531 285.273438 17.757812 281.445312 C 17.757812 281.269531 17.929688 281.269531 17.929688 281.445312 C 19.320312 285.101562 19.144531 288.234375 18.972656 291.894531 C 18.796875 295.375 19.492188 298.859375 18.796875 302.34375 C 18.105469 304.957031 16.890625 307.566406 16.542969 310.355469 Z M 16.542969 310.355469 " fill-opacity="1" fill-rule="nonzero"/></svg>