<svg xmlns="http://www.w3.org/2000/svg" xmlns:xlink="http://www.w3.org/1999/xlink" width="450" zoomAndPan="magnify" viewBox="0 0 337.5 337.500003" height="450" preserveAspectRatio="xMidYMid meet" version="1.0"><defs><clipPath id="cc761bc905"><path d="M 35 2 L 331.453125 2 L 331.453125 265 L 35 265 Z M 35 2 " clip-rule="nonzero"/></clipPath></defs><path fill="#fdefd3" d="M 127.320312 305.949219 C 128.472656 310.109375 130.667969 313.757812 132.957031 317.363281 C 133.398438 318.050781 134.167969 318.628906 134.003906 319.609375 C 130.722656 318.914062 127.40625 318.6875 124.058594 318.921875 C 122.902344 319.003906 121.617188 318.972656 120.714844 319.984375 C 120.460938 319.984375 120.273438 319.984375 120.355469 320.332031 C 120.058594 320.265625 119.929688 320.375 120.003906 320.683594 C 118.917969 321.597656 118.972656 322.4375 120.140625 323.015625 C 121.050781 323.464844 122.035156 323.292969 122.984375 323.367188 C 123.46875 323.6875 123.996094 323.804688 124.566406 323.71875 C 129.214844 323.757812 132.320312 326.601562 135.347656 329.574219 C 135.949219 330.195312 136.640625 330.703125 137.410156 331.09375 C 136.800781 331.644531 136.035156 331.28125 135.347656 331.492188 C 134.148438 331.863281 132.664062 331.492188 131.851562 332.867188 C 131.464844 332.695312 131.25 332.957031 131.023438 333.191406 C 130.796875 333.308594 130.613281 333.476562 130.480469 333.691406 C 130.34375 333.910156 130.277344 334.148438 130.273438 334.402344 C 123.640625 334.101562 117.195312 332.53125 110.808594 331.023438 C 97.96875 328.003906 85.550781 323.753906 73.550781 318.277344 C 73.667969 315.765625 73.667969 313.242188 73.917969 310.707031 C 74.605469 303.738281 76.3125 297.078125 80.167969 291.109375 C 80.476562 291.046875 80.777344 290.953125 81.066406 290.828125 C 81.359375 290.703125 81.632812 290.546875 81.890625 290.359375 C 82.144531 290.175781 82.378906 289.964844 82.589844 289.730469 C 82.800781 289.492188 82.984375 289.238281 83.140625 288.960938 C 83.296875 288.6875 83.417969 288.398438 83.511719 288.09375 C 83.605469 287.792969 83.664062 287.484375 83.6875 287.167969 C 83.714844 286.851562 83.707031 286.539062 83.664062 286.222656 C 83.621094 285.910156 83.546875 285.605469 83.4375 285.308594 C 84.683594 283.1875 85.957031 281.089844 87.144531 278.945312 C 87.324219 278.582031 87.589844 278.304688 87.945312 278.113281 C 88.300781 277.917969 88.679688 277.847656 89.078125 277.898438 C 93.636719 277.953125 98.152344 277.417969 102.679688 277.003906 C 103.078125 279.96875 103.699219 282.898438 103.945312 285.898438 C 104.160156 288.445312 105.59375 289.265625 108.078125 288.652344 C 110.878906 287.964844 113.402344 286.898438 114.644531 284.015625 C 118.75 285.976562 122.964844 287.660156 127.292969 289.070312 C 133.941406 291.136719 140.679688 292.703125 147.648438 293.117188 C 147.585938 294.046875 146.722656 294.628906 146.648438 295.59375 C 146.546875 296.96875 147.21875 297.980469 148.09375 298.917969 C 148.390625 300.003906 149.3125 300.566406 150.089844 301.242188 C 151.46875 302.394531 152.996094 303.289062 154.675781 303.925781 C 158.933594 305.644531 162.582031 308.308594 166.148438 311.113281 L 165.859375 311.707031 C 164.011719 311.679688 162.207031 311.386719 160.449219 310.824219 C 156.703125 309.636719 153.234375 307.8125 149.636719 306.269531 C 149.585938 306.117188 149.492188 306.007812 149.347656 305.9375 C 149.203125 305.863281 149.058594 305.855469 148.90625 305.90625 C 148.828125 305.671875 148.6875 305.488281 148.480469 305.351562 C 148.277344 305.214844 148.050781 305.15625 147.804688 305.175781 C 147.375 304.503906 146.761719 304.132812 145.96875 304.070312 C 145.765625 303.75 145.503906 303.492188 145.179688 303.300781 C 144.855469 303.105469 144.507812 302.996094 144.128906 302.96875 C 144.074219 302.820312 143.980469 302.710938 143.839844 302.640625 C 143.699219 302.566406 143.550781 302.554688 143.398438 302.597656 C 143.28125 302.226562 142.992188 302.183594 142.664062 302.226562 C 142.527344 301.953125 142.320312 301.75 142.050781 301.613281 C 141.777344 301.476562 141.492188 301.4375 141.191406 301.488281 C 139.902344 300.445312 138.335938 300.113281 136.777344 299.726562 C 133.097656 299.082031 129.476562 297.882812 125.667969 298.207031 C 124.292969 298.324219 122.828125 298.207031 121.890625 299.542969 C 121.230469 299.753906 120.714844 300.148438 120.335938 300.726562 C 119.765625 301.34375 119.019531 301.992188 119.441406 302.925781 C 119.859375 303.863281 120.816406 303.78125 121.65625 303.710938 C 123.507812 304.304688 125.578125 304.675781 127.320312 305.949219 Z M 108.132812 306.375 C 103.90625 306.949219 99.816406 308.03125 95.859375 309.613281 C 94.261719 310.246094 94.050781 311.3125 95.089844 312.65625 C 97.765625 316.144531 101.1875 318.847656 104.492188 321.695312 C 108.140625 324.839844 108.359375 324.832031 109.75 320.320312 C 110.808594 316.878906 112.269531 313.5 112.503906 309.863281 C 112.769531 306.648438 112.378906 306.332031 108.132812 306.375 Z M 120.128906 273.703125 C 109.117188 274.996094 98.136719 276.605469 87.089844 277.203125 C 82.101562 277.472656 77.296875 276.757812 73.105469 273.695312 C 71.21875 272.230469 69.816406 270.394531 68.898438 268.191406 C 67.550781 265.371094 66.441406 262.460938 65.574219 259.460938 C 67.046875 258.371094 68.492188 257.246094 69.992188 256.199219 C 76.023438 251.996094 81.820312 247.460938 88.210938 243.816406 C 88.335938 244.152344 88.355469 244.621094 88.597656 244.8125 C 91.550781 247.292969 94.691406 249.507812 98.019531 251.453125 C 99.058594 252.023438 99.660156 251.453125 100.011719 250.570312 C 101.332031 247.132812 102.605469 243.691406 103.933594 240.300781 C 104.277344 239.40625 103.871094 239.011719 103.164062 238.550781 C 102.296875 237.988281 101.1875 238.460938 100.410156 237.738281 C 107.789062 234.511719 115.414062 234.472656 123.121094 236.125 C 130.21875 237.644531 136.886719 240.554688 143.660156 243.003906 C 145.640625 244.109375 147.707031 245.027344 149.855469 245.753906 C 151.09375 246.238281 152.382812 246.726562 153.777344 246.320312 C 155.699219 245.582031 155.84375 244.941406 154.261719 243.339844 C 149.933594 238.832031 144.300781 236.300781 138.933594 233.390625 C 137.210938 232.464844 135.441406 231.617188 133.703125 230.722656 C 133.011719 230.359375 133.011719 230.074219 133.824219 229.929688 L 134.78125 230 C 135.007812 230.371094 135.402344 230.363281 135.761719 230.40625 C 143.8125 231.492188 151.378906 234.167969 158.777344 237.402344 C 160.113281 238.101562 161.535156 238.433594 163.042969 238.40625 C 164.613281 237.941406 165.96875 238.476562 167.386719 239.128906 C 169.671875 240.167969 172.027344 241.0625 174.378906 241.945312 C 175.269531 242.28125 176.339844 242.445312 176.445312 241.042969 C 176.859375 236.226562 177.269531 231.410156 177.546875 226.59375 C 177.667969 224.332031 176.636719 223.65625 174.371094 224.269531 C 171.042969 225.15625 167.84375 226.382812 164.769531 227.949219 C 162.871094 228.925781 161.007812 230.777344 159.128906 230.765625 C 157.25 230.75 155.390625 228.886719 153.488281 227.894531 C 149.285156 225.726562 144.976562 223.792969 140.5625 222.089844 C 140.152344 221.929688 139.144531 222.089844 139.40625 221.054688 C 142.566406 221.394531 145.734375 221.703125 148.890625 222.074219 C 154.605469 222.761719 160.140625 224.394531 165.796875 225.382812 C 167.089844 225.609375 168.460938 225.925781 169.617188 224.867188 C 170.835938 223.683594 170.800781 222.699219 169.328125 221.65625 C 167.210938 220.265625 164.976562 219.109375 162.625 218.179688 C 160 217.03125 157.34375 216.0625 155.210938 213.902344 C 153.496094 212.179688 151.171875 211.628906 148.574219 212.148438 C 145.382812 212.78125 142.4375 211.5 139.53125 210.359375 C 139.378906 210.304688 139.339844 209.953125 139.25 209.730469 C 143.902344 209.910156 148.5625 210.101562 153.1875 210.660156 C 156.59375 211.074219 159.972656 211.699219 163.386719 212.035156 C 165.453125 212.25 167.695312 212.664062 169.410156 210.824219 C 170.402344 209.394531 169.019531 209.125 168.273438 208.761719 C 163.976562 206.765625 159.507812 205.304688 154.859375 204.378906 C 150.402344 203.300781 145.898438 202.480469 141.347656 201.917969 C 143.847656 200.738281 146.59375 200.933594 149.222656 200.539062 C 153.9375 199.777344 158.6875 199.207031 163.414062 198.550781 C 161.234375 198.078125 159.105469 198.550781 156.992188 198.785156 C 149.582031 199.667969 142.179688 200.679688 134.78125 201.640625 C 130.5625 201.503906 126.335938 201.296875 122.117188 201.261719 C 119.664062 201.261719 117.242188 200.972656 114.855469 200.394531 C 114.429688 199.226562 115.25 198.585938 115.945312 197.90625 C 117.519531 196.382812 119.269531 195.023438 120.4375 193.125 C 122.25 190.199219 123.191406 187.164062 121.527344 183.828125 C 120.429688 182.066406 119.1875 181.957031 118.085938 183.644531 C 116.582031 186.105469 114.78125 188.320312 112.679688 190.296875 C 111.1875 191.609375 111.089844 191.601562 110.4375 189.757812 C 109.785156 187.914062 109.398438 186.125 107.863281 184.839844 L 108.378906 183.175781 C 110.539062 181.1875 113.335938 181.53125 115.890625 181.371094 C 123.570312 180.890625 130.933594 182.671875 137.988281 185.460938 C 150.320312 190.324219 162.890625 194.464844 175.703125 197.878906 C 175.378906 198.394531 174.804688 198.460938 174.324219 198.65625 C 172.074219 199.523438 171.730469 200.367188 172.777344 202.5625 C 173.820312 204.757812 175.527344 206.449219 177.125 208.199219 C 178.558594 209.765625 179.671875 211.636719 181.59375 212.773438 C 182.679688 213.40625 183.410156 213.273438 183.90625 212.085938 C 185.261719 209.078125 186.460938 206.011719 187.503906 202.886719 C 191.574219 204.722656 194.847656 207.625 197.996094 210.6875 C 199 211.65625 199.921875 212.71875 200.878906 213.734375 C 200.101562 213.734375 199.667969 214.300781 199.226562 214.796875 C 196.710938 217.695312 194.875 220.976562 193.71875 224.640625 C 193.226562 226.148438 193.78125 226.988281 195.242188 227.390625 C 198.835938 228.363281 202.421875 229.382812 206.035156 230.304688 C 208.332031 230.886719 210.597656 231.78125 213.046875 231.335938 C 213.097656 231.375 213.164062 231.410156 213.183594 231.457031 C 215.5 236.824219 220.335938 239.21875 225.132812 241.730469 C 235.03125 246.917969 241.933594 254.679688 245.09375 265.535156 C 245.1875 265.753906 245.304688 265.960938 245.445312 266.152344 C 246.230469 269.972656 247.269531 273.722656 247.40625 277.664062 C 243.871094 277.476562 240.429688 277.957031 237.082031 279.117188 C 235.175781 279.707031 234.742188 280.5625 235.402344 282.460938 C 235.984375 284.203125 236.671875 285.90625 237.46875 287.5625 C 238.21875 289.085938 238.886719 290.6875 240.089844 291.960938 C 240.929688 292.847656 241.703125 292.925781 242.597656 292.03125 C 244.371094 290.261719 246.183594 288.535156 247.972656 286.792969 C 248.019531 290.589844 248.0625 294.390625 248.109375 298.195312 C 245.761719 299.867188 243.140625 301.035156 240.59375 302.320312 C 239.640625 302.746094 238.800781 303.328125 238.066406 304.070312 C 237.652344 304.070312 237.207031 304.019531 236.960938 304.480469 C 236.730469 304.480469 236.558594 304.570312 236.585938 304.855469 C 236.238281 304.757812 235.949219 304.785156 235.859375 305.21875 C 233.601562 305.664062 231.78125 307.027344 229.855469 308.140625 C 221.363281 312.449219 212.875 316.757812 204.390625 321.0625 C 204.082031 321.265625 203.792969 321.496094 203.527344 321.75 C 203.402344 321.746094 203.28125 321.765625 203.164062 321.804688 C 199.425781 323.621094 197.058594 321.804688 194.472656 319.148438 C 187.140625 311.671875 178.476562 306.078125 168.914062 301.765625 C 166.042969 300.472656 163.09375 299.117188 160.839844 296.75 C 168.246094 298.648438 175.8125 299.261719 183.4375 299.320312 C 175.433594 298.050781 167.359375 297.210938 159.476562 295.234375 C 159.78125 293.796875 160.945312 292.636719 160.855469 291.066406 C 167.40625 292.839844 174.042969 294.230469 180.675781 295.613281 C 184.195312 296.351562 187.617188 297.554688 191.230469 297.878906 C 191.351562 298.0625 191.457031 298.339844 191.71875 298.007812 L 191.207031 297.898438 C 187.304688 296.09375 183.101562 295.257812 178.976562 294.164062 C 173.25 292.640625 167.515625 291.175781 161.769531 289.691406 C 162.3125 289.207031 163.148438 289.332031 163.664062 288.71875 C 165.828125 286.1875 167.578125 283.390625 168.90625 280.332031 C 169.195312 279.714844 169.246094 278.957031 168.40625 278.613281 C 167.597656 278.167969 166.738281 277.855469 165.832031 277.679688 C 162.175781 277.375 158.535156 276.75 154.851562 276.902344 C 153.621094 276.957031 151.769531 276.210938 151.308594 277.429688 C 150.910156 278.496094 152.394531 279.722656 153.242188 280.746094 C 155.574219 283.574219 157.929688 286.382812 160.277344 289.195312 C 154.34375 287.769531 148.691406 285.507812 142.992188 283.339844 C 147.207031 286.382812 152.015625 288.121094 156.835938 289.835938 C 156.804688 289.886719 156.773438 289.933594 156.730469 289.980469 C 155.050781 291.230469 150.859375 292.550781 147.785156 292.808594 C 147.191406 292.65625 146.605469 292.464844 146.007812 292.347656 C 134.898438 290.171875 123.984375 287.363281 113.734375 282.425781 C 111.539062 281.367188 109.453125 280.039062 107.058594 279.40625 C 106.417969 278.179688 104.339844 278.628906 104.148438 276.894531 L 113.265625 275.691406 C 113.261719 276.152344 113.355469 276.597656 113.546875 277.019531 C 113.738281 277.441406 114.011719 277.804688 114.367188 278.105469 C 118.007812 281.703125 122.394531 284.109375 127.046875 286.105469 C 128.820312 286.871094 129.667969 286.476562 129.855469 284.558594 C 130.148438 282.308594 130.148438 280.058594 129.855469 277.808594 C 129.324219 274.527344 128.726562 273.859375 125.421875 273.613281 C 123.652344 273.425781 121.890625 273.457031 120.128906 273.703125 Z M 137.679688 195.304688 C 137.605469 195.070312 137.605469 194.753906 137.445312 194.617188 C 134.988281 192.503906 132.519531 190.398438 130.019531 188.335938 C 129.871094 188.214844 129.707031 188.128906 129.523438 188.078125 C 129.34375 188.023438 129.15625 188.011719 128.96875 188.035156 C 128.78125 188.0625 128.605469 188.121094 128.441406 188.21875 C 128.277344 188.316406 128.140625 188.441406 128.03125 188.597656 C 125.277344 191.347656 123.210938 194.457031 123.378906 198.59375 C 123.613281 199.90625 124.492188 199 124.914062 198.910156 C 128.226562 198.257812 131.519531 197.53125 134.789062 196.730469 C 136.425781 196.324219 138.15625 196.234375 139.8125 195.429688 C 139.113281 195.1875 138.402344 195.148438 137.679688 195.304688 Z M 192.792969 234.058594 C 189.742188 233.996094 189.234375 234.382812 189.433594 236.613281 C 189.742188 241.460938 191.09375 246 193.480469 250.234375 C 194.472656 251.90625 195.792969 252.132812 197.335938 250.921875 C 201.332031 247.839844 204.21875 243.761719 206.96875 239.652344 C 207.769531 238.488281 207.320312 237.699219 206.027344 237.3125 C 205.085938 237.039062 204.148438 236.734375 203.199219 236.507812 C 199.46875 235.628906 195.714844 234.746094 192.792969 234.058594 Z M 224.570312 256.207031 C 220.984375 256.796875 217 256.933594 213.128906 258.015625 C 210.824219 258.65625 210.28125 259.605469 211.257812 261.777344 C 213.199219 265.941406 215.832031 269.613281 219.152344 272.785156 C 220.878906 274.484375 221.90625 274.363281 222.902344 272.175781 C 224.863281 267.988281 226.3125 263.628906 227.242188 259.101562 C 227.613281 257.046875 226.957031 256.210938 224.570312 256.207031 Z M 219.65625 292.269531 C 219.695312 290.300781 218.910156 289.730469 216.792969 290.460938 C 215.753906 290.820312 214.726562 291.238281 213.722656 291.691406 C 210.597656 293.148438 207.574219 294.785156 204.652344 296.613281 C 202.433594 297.988281 202.332031 299.199219 204.230469 300.671875 C 207.96875 303.554688 211.996094 306.007812 215.988281 308.527344 C 216.886719 309.097656 217.589844 309.023438 217.796875 307.738281 C 218.617188 302.664062 219.097656 297.566406 219.621094 292.269531 Z M 79.101562 273.097656 C 80.824219 272.847656 82.558594 272.734375 84.304688 272.75 C 85.960938 272.769531 87.613281 272.652344 89.253906 272.394531 C 90.628906 272.242188 91.027344 271.464844 90.730469 270.234375 C 90.570312 269.640625 90.359375 269.0625 90.097656 268.507812 C 88.332031 264.785156 86.378906 261.164062 84.242188 257.644531 C 83.105469 255.691406 82.175781 255.628906 80.863281 257.535156 C 78.539062 260.707031 76.476562 264.039062 74.667969 267.53125 C 72.535156 271.84375 73.367188 273.097656 79.101562 273.097656 Z M 182.0625 274.402344 C 182.28125 275.742188 182.417969 277.085938 182.46875 278.441406 C 182.636719 279.71875 182.902344 280.976562 183.265625 282.210938 C 183.796875 284.171875 184.574219 284.625 186.515625 283.933594 C 190.078125 282.636719 193.253906 280.707031 196.046875 278.144531 C 197.421875 276.929688 197.265625 276.011719 195.902344 275.089844 C 192.597656 272.855469 189.441406 270.40625 185.957031 268.445312 C 185.796875 268.34375 185.625 268.261719 185.441406 268.203125 C 185.261719 268.144531 185.074219 268.105469 184.886719 268.09375 C 184.695312 268.078125 184.503906 268.089844 184.316406 268.125 C 184.128906 268.15625 183.949219 268.214844 183.773438 268.292969 C 183.601562 268.371094 183.441406 268.472656 183.289062 268.589844 C 183.140625 268.710938 183.007812 268.84375 182.894531 268.996094 C 182.777344 269.148438 182.683594 269.3125 182.609375 269.488281 C 182.535156 269.664062 182.484375 269.847656 182.453125 270.035156 C 182.21875 271.355469 182.207031 272.71875 182.0625 274.402344 Z M 168.640625 256.878906 C 166.621094 257.011719 167.140625 258.257812 167.59375 259.09375 C 169.789062 263.269531 172.074219 267.390625 174.332031 271.535156 C 174.828125 272.449219 175.433594 272.675781 176.136719 271.746094 C 178.199219 269.035156 180.882812 266.980469 183.285156 264.625 C 184.664062 263.25 184.539062 262.609375 182.667969 261.875 C 178.886719 260.445312 175.09375 259.066406 171.289062 257.691406 C 170.375 257.394531 169.429688 257.128906 168.640625 256.878906 Z M 125.078125 252.800781 C 124.851562 251.742188 123.957031 251.726562 123.101562 251.78125 C 118.054688 252.214844 113.054688 252.957031 108.097656 254.011719 C 106.753906 254.265625 106.316406 255.628906 107.128906 256.929688 C 108.480469 259.042969 110.019531 261.019531 111.738281 262.851562 C 112.597656 263.792969 113.515625 263.746094 114.492188 262.949219 C 117.855469 260.296875 121.050781 257.457031 124.078125 254.429688 C 124.546875 253.96875 124.878906 253.425781 125.078125 252.800781 Z M 136.207031 246.324219 C 136.226562 246.941406 136.363281 247.527344 136.613281 248.085938 C 137.71875 250.746094 139.003906 253.316406 140.472656 255.792969 C 141.507812 257.546875 142.964844 257.824219 144.523438 256.441406 C 145.738281 255.40625 146.863281 254.277344 147.894531 253.0625 C 150.839844 249.402344 152.203125 249.523438 146.902344 246.945312 C 146.40625 246.703125 145.960938 246.375 145.472656 246.113281 C 143.632812 245.144531 141.859375 244.050781 139.839844 243.457031 C 137.984375 242.949219 136.289062 244.132812 136.207031 246.324219 Z M 142.402344 282.925781 L 142.292969 282.867188 L 142.292969 282.960938 Z M 82.355469 209.847656 C 79.980469 210.148438 77.601562 210.195312 75.21875 209.988281 L 74.308594 209.988281 C 73.285156 211.21875 71.851562 210.621094 70.59375 210.792969 C 65.726562 211.878906 61.4375 213.804688 59.105469 218.605469 C 59.121094 218.691406 59.121094 218.773438 59.105469 218.855469 C 62.359375 218.378906 65.628906 217.941406 68.878906 217.417969 C 75.335938 216.371094 81.507812 214.589844 86.773438 210.414062 C 85.378906 209.421875 83.871094 209.703125 82.355469 209.847656 Z M 82.355469 209.847656 " fill-opacity="1" fill-rule="nonzero"/><g clip-path="url(#cc761bc905)"><path fill="#4e2c2a" d="M 129.179688 132.234375 C 123.265625 128.328125 120.691406 122.734375 120.921875 115.722656 C 121.003906 113.082031 121.214844 110.449219 121.339844 107.804688 C 121.582031 103.332031 121.1875 98.914062 120.15625 94.550781 C 119.128906 90.1875 117.507812 86.058594 115.289062 82.164062 C 112.480469 77.195312 110.246094 71.996094 110.210938 66.195312 C 110.136719 52.636719 115.078125 41.476562 126.730469 33.992188 C 128.777344 32.6875 130.550781 31.082031 132.050781 29.175781 C 142.4375 16.1875 155.382812 7.109375 171.839844 3.617188 C 187.972656 0.175781 203.261719 3.039062 217.695312 10.597656 C 234.414062 19.355469 246.066406 32.511719 251.351562 50.847656 C 254.484375 61.71875 260.925781 70.109375 270.085938 76.507812 C 273.15625 78.664062 276.171875 80.890625 279.242188 83.042969 C 290.789062 91.148438 296.65625 102.253906 296.207031 116.34375 C 295.703125 132.113281 300.707031 146.167969 308.746094 159.378906 C 311.652344 164.144531 314.789062 168.78125 317.695312 173.558594 C 319.929688 177.164062 321.90625 180.90625 323.625 184.785156 C 325.339844 188.664062 326.78125 192.644531 327.945312 196.722656 C 329.109375 200.800781 329.984375 204.941406 330.574219 209.140625 C 331.164062 213.34375 331.457031 217.5625 331.460938 221.804688 C 331.488281 225.96875 330.871094 230.035156 329.617188 234.003906 C 329.101562 233.667969 329.257812 233.128906 329.265625 232.664062 C 329.261719 223.460938 328.035156 214.425781 325.578125 205.554688 C 323.636719 198.351562 321.117188 191.363281 317.109375 185.03125 C 313.511719 179.351562 309.03125 174.972656 301.542969 175.347656 C 295.207031 175.65625 291.175781 179.199219 290.453125 185.464844 C 289.957031 189.800781 291.246094 193.847656 292.730469 197.851562 C 294.664062 203.03125 297.21875 207.941406 299.105469 213.152344 C 302.058594 221.316406 302.628906 229.402344 298.96875 237.527344 C 295.765625 244.414062 291.332031 250.398438 285.675781 255.46875 C 284.300781 256.761719 282.957031 258.222656 280.804688 259.253906 C 282.292969 256.359375 283.441406 253.335938 284.246094 250.179688 C 285.550781 244.714844 284.824219 239.292969 283.832031 233.914062 C 282.496094 226.609375 279.742188 219.941406 274.761719 214.265625 C 270.003906 208.835938 264.113281 204.820312 258.332031 200.664062 C 247.566406 192.929688 235.941406 186.320312 226.828125 176.445312 C 226.542969 175.984375 226.238281 175.535156 225.90625 175.105469 C 219.710938 167.742188 217.03125 158.949219 215.582031 149.648438 C 214.375 142.128906 213.648438 134.554688 212.828125 126.988281 C 211.664062 116.300781 210.542969 105.617188 209.269531 94.953125 C 208.789062 90.957031 208.84375 86.863281 207.542969 82.96875 C 207.167969 81.863281 206.765625 81.371094 205.429688 81.820312 C 203.921875 82.324219 202.371094 82.171875 200.933594 80.445312 C 203.527344 80.554688 205.753906 80.953125 207.480469 78.992188 C 209.0625 77.175781 209.984375 75.175781 209.667969 72.800781 C 209.171875 69.105469 204.375 66.058594 200.335938 66.800781 C 203.777344 71.113281 203.550781 74.519531 199.730469 75.746094 C 199.804688 75.53125 199.902344 75.324219 200.027344 75.132812 C 202.007812 72.648438 202.027344 70.875 200.085938 68.363281 C 198.621094 66.484375 197.824219 66.394531 194.582031 67.8125 C 193.851562 68.136719 193.136719 68.5 192.40625 68.824219 C 189.941406 69.976562 187.355469 70.6875 184.648438 70.949219 C 176.976562 71.644531 169.300781 71.714844 161.617188 71.164062 C 153.53125 70.625 145.941406 68.261719 139.25 63.472656 C 135.699219 60.84375 132.613281 57.753906 129.992188 54.195312 C 128.976562 57.144531 128.332031 60.167969 128.046875 63.269531 C 127.765625 66.375 127.855469 69.464844 128.320312 72.546875 C 129.394531 79.632812 133.207031 85.292969 138.230469 90.226562 C 140.199219 92.167969 142.160156 94.121094 144.121094 96.070312 C 146.1875 98.132812 146.640625 100.644531 146.027344 103.382812 C 145.71875 104.757812 145.238281 106.09375 144.867188 107.453125 C 143.886719 111.058594 145.679688 113.082031 149.394531 112.609375 C 152.699219 112.1875 154.0625 113.296875 154.035156 116.679688 C 154.035156 118.195312 154.792969 118.835938 155.890625 118.777344 C 157.332031 118.703125 157.882812 119.46875 158.34375 120.484375 C 158.453125 120.808594 158.613281 121.097656 158.832031 121.359375 C 159.046875 121.621094 159.304688 121.835938 159.601562 122 C 159.898438 122.167969 160.210938 122.273438 160.550781 122.324219 C 160.886719 122.375 161.21875 122.363281 161.550781 122.289062 C 163.566406 122 165.128906 122.878906 166.367188 124.351562 C 167.242188 125.382812 168.074219 126.449219 169.019531 127.421875 C 171.40625 129.882812 174.285156 130.421875 177.476562 129.304688 C 178.527344 128.941406 179.535156 128.480469 180.5 127.929688 C 187.710938 123.800781 193.058594 117.761719 197.898438 111.191406 C 201.960938 105.6875 205.007812 99.589844 207.824219 93.378906 C 207.78125 93.863281 207.695312 94.335938 207.5625 94.800781 C 203.128906 106.128906 196.699219 116.082031 187.332031 123.988281 C 186.464844 124.714844 186.121094 125.183594 186.75 126.355469 C 187.070312 126.972656 187.285156 127.625 187.398438 128.3125 C 187.507812 129 187.511719 129.6875 187.40625 130.375 C 187.296875 131.0625 187.085938 131.714844 186.769531 132.335938 C 186.453125 132.957031 186.050781 133.511719 185.558594 134.003906 C 183.679688 136.011719 181.234375 136.96875 178.675781 137.65625 C 174.378906 138.8125 170.03125 138.496094 165.6875 138.007812 L 165.578125 137.890625 L 165.460938 137.996094 L 163.855469 138.078125 C 163.800781 137.945312 163.703125 137.84375 163.574219 137.78125 C 163.441406 137.71875 163.308594 137.707031 163.167969 137.746094 C 156.359375 136.902344 149.539062 136.21875 142.691406 135.855469 C 137.894531 135.621094 133.335938 134.699219 129.179688 132.234375 Z M 43.191406 217.3125 C 48.574219 216.804688 53.921875 216.625 59.105469 218.585938 C 61.4375 213.769531 65.726562 211.859375 70.59375 210.769531 C 70.59375 210.46875 70.539062 210.164062 70.515625 209.855469 C 70.214844 205.363281 72.800781 202.898438 77.269531 203.527344 C 79.1875 203.800781 80.953125 203.617188 82.402344 202.226562 C 83.855469 200.835938 83.910156 199.246094 82.535156 198.097656 C 77.976562 194.230469 76.746094 189.023438 76.441406 183.445312 C 76.070312 176.640625 78.191406 170.371094 80.972656 164.324219 C 80.050781 163.582031 78.761719 164.1875 77.828125 163.484375 C 77.136719 163.484375 76.449219 163.539062 75.804688 163.539062 C 67.804688 163.476562 60.0625 165.019531 53.089844 168.808594 C 41.386719 175.152344 34.898438 184.949219 35.0625 198.632812 C 35.0625 201.683594 36.136719 204.523438 36.625 207.476562 C 38.007812 211.023438 40.089844 214.105469 42.863281 216.714844 C 43.117188 216.835938 43.226562 217.035156 43.191406 217.3125 Z M 87.585938 210.019531 L 86.746094 210.390625 C 81.515625 214.570312 75.339844 216.351562 68.886719 217.394531 C 65.636719 217.917969 62.367188 218.359375 59.113281 218.832031 C 57.34375 219.324219 55.476562 219.472656 53.824219 220.359375 C 46.796875 224.144531 41.292969 229.351562 38.351562 236.933594 C 34.828125 246.058594 36.976562 255.457031 43.859375 261.015625 C 49.800781 265.777344 57.625 266.066406 64.175781 262.316406 C 64.175781 262.183594 64.175781 262.046875 64.175781 261.917969 C 63.8125 261.730469 63.097656 262.011719 63.078125 261.523438 C 63.019531 260.621094 63.957031 260.476562 64.550781 260.09375 C 64.769531 259.683594 65.109375 259.472656 65.574219 259.460938 C 67.046875 258.371094 68.492188 257.246094 69.992188 256.199219 C 76.023438 251.996094 81.820312 247.460938 88.210938 243.816406 C 92.003906 241.238281 96.066406 239.210938 100.410156 237.738281 C 107.789062 234.511719 115.414062 234.472656 123.121094 236.125 C 130.21875 237.644531 136.886719 240.554688 143.660156 243.003906 L 144.207031 242.925781 C 139.132812 240.570312 133.929688 238.5625 128.585938 236.90625 C 117.890625 233.40625 107.347656 233.550781 96.925781 238.132812 C 90.636719 240.882812 84.910156 244.566406 79.292969 248.453125 C 72.265625 253.308594 65.527344 258.566406 58.273438 263.113281 C 57.449219 263.703125 56.53125 264.015625 55.519531 264.054688 C 45.628906 264.152344 37.988281 256.921875 37.625 247.054688 C 37.246094 237.421875 41.808594 230.226562 49.050781 224.460938 C 51.492188 222.523438 53.996094 220.582031 57.238281 220.050781 C 61.90625 219.289062 66.585938 218.550781 71.238281 217.710938 C 77.378906 216.617188 83.121094 214.5625 87.882812 210.34375 Z M 62.472656 262.054688 C 62.292969 262.09375 62.167969 262.011719 62.222656 261.820312 C 62.222656 261.75 62.410156 261.695312 62.503906 261.703125 C 62.601562 261.710938 62.664062 261.820312 62.746094 261.882812 C 62.664062 261.953125 62.570312 262.007812 62.472656 262.054688 Z M 148.636719 78.105469 C 147.351562 78.84375 146.222656 79.777344 145.253906 80.898438 C 144.285156 82.023438 143.53125 83.273438 142.988281 84.65625 C 142.78125 85.171875 142.296875 85.949219 142.988281 86.304688 C 143.675781 86.664062 143.964844 85.789062 144.246094 85.328125 C 146.4375 81.753906 149.367188 78.957031 153.042969 76.933594 C 153.941406 76.585938 154.660156 76.011719 155.195312 75.207031 C 152.9375 76.007812 150.75 76.972656 148.636719 78.105469 Z M 159.871094 83.472656 C 156.785156 85.871094 154.253906 88.976562 150.109375 90.804688 C 155.011719 90.742188 158.734375 87.75 159.851562 83.445312 Z M 149.71875 110.632812 C 149.636719 110.9375 149.519531 111.253906 149.871094 111.417969 C 150.019531 111.472656 150.167969 111.476562 150.320312 111.433594 C 150.472656 111.390625 150.597656 111.308594 150.695312 111.183594 C 151.984375 109.964844 152.882812 108.292969 154.90625 107.949219 C 152.988281 107.414062 150.132812 109.039062 149.699219 110.632812 Z M 207.84375 93.433594 C 208.214844 93.378906 208.222656 93.074219 208.269531 92.800781 C 208.269531 92.800781 208.1875 92.738281 208.148438 92.703125 C 208.058594 92.957031 207.960938 93.207031 207.871094 93.460938 Z M 199.742188 75.765625 L 199.269531 75.847656 L 199.351562 75.992188 L 199.714844 75.738281 Z M 159.824219 83.476562 L 160.007812 83.339844 C 159.972656 83.339844 159.925781 83.339844 159.910156 83.339844 C 159.882812 83.386719 159.859375 83.433594 159.84375 83.484375 Z M 89.699219 174.574219 C 86.058594 177.535156 85.933594 181.828125 85.515625 185.96875 C 86.96875 182.164062 87.503906 178.070312 89.699219 174.574219 Z M 75.246094 207.957031 C 75.933594 207.441406 76.5 207.957031 77.089844 208.292969 C 77.875 208.734375 78.667969 208.679688 79.980469 208.101562 C 78.660156 207.886719 77.511719 207.320312 76.539062 206.402344 C 75.960938 205.84375 75.246094 206.125 74.6875 206.558594 C 73.421875 207.550781 73.496094 208.726562 74.300781 209.964844 L 75.210938 209.964844 C 75.074219 209.304688 74.523438 208.546875 75.257812 207.957031 Z M 75.246094 207.957031 " fill-opacity="1" fill-rule="nonzero"/></g><path fill="#6c7178" d="M 46.820312 278.332031 C 49.195312 277.644531 51.636719 277.195312 53.929688 276.164062 C 55.859375 275.363281 57.621094 274.289062 59.214844 272.945312 C 60.808594 271.597656 62.164062 270.039062 63.277344 268.273438 C 64.378906 266.457031 65.339844 264.503906 64.207031 262.292969 C 64.207031 262.164062 64.207031 262.027344 64.207031 261.894531 C 64.75 261.371094 64.527344 260.699219 64.578125 260.070312 C 64.796875 259.683594 65.128906 259.476562 65.574219 259.460938 C 66.4375 262.472656 67.542969 265.390625 68.890625 268.21875 C 69.808594 270.421875 71.210938 272.257812 73.097656 273.722656 C 77.289062 276.785156 82.09375 277.5 87.085938 277.230469 C 98.164062 276.632812 109.144531 275.023438 120.15625 273.730469 C 119.832031 274.484375 119.070312 274.417969 118.46875 274.554688 C 116.761719 274.980469 115.027344 275.324219 113.320312 275.695312 L 104.195312 276.902344 C 103.652344 276.769531 103.128906 276.832031 102.632812 277.085938 C 98.105469 277.5 93.589844 278.035156 89.03125 277.980469 C 88.632812 277.929688 88.253906 278 87.898438 278.195312 C 87.542969 278.386719 87.277344 278.664062 87.097656 279.027344 C 85.90625 281.171875 84.632812 283.269531 83.386719 285.390625 C 82.238281 287.289062 80.910156 289.085938 80.117188 291.191406 C 76.265625 297.160156 74.542969 303.820312 73.867188 310.792969 C 73.621094 313.296875 73.621094 315.820312 73.503906 318.359375 C 63.449219 313.714844 53.824219 308.300781 44.636719 302.117188 C 44.394531 301.980469 44.222656 301.78125 44.117188 301.523438 C 44.015625 301.265625 44.003906 301.003906 44.085938 300.738281 C 44.980469 294.367188 45.835938 287.996094 46.714844 281.621094 C 46.875 280.527344 46.910156 279.433594 46.820312 278.332031 Z M 163.140625 137.78125 C 161.996094 138.902344 161.042969 140.164062 160.277344 141.570312 C 159.515625 142.980469 158.976562 144.46875 158.667969 146.039062 C 157.738281 150.421875 157.371094 154.808594 159.113281 159.109375 C 159.042969 158.070312 158.988281 157.046875 158.914062 155.992188 C 158.410156 149.441406 159.257812 143.273438 163.84375 138.105469 C 163.785156 137.972656 163.6875 137.875 163.554688 137.8125 C 163.421875 137.75 163.285156 137.738281 163.148438 137.78125 Z M 165.5625 137.925781 L 165.445312 138.027344 L 165.554688 138.078125 L 165.671875 138.078125 Z M 248.007812 286.785156 C 248.050781 290.585938 248.097656 294.382812 248.144531 298.1875 C 248.714844 298.167969 249.21875 297.972656 249.65625 297.609375 C 254.550781 294.671875 259.425781 291.699219 264.347656 288.808594 C 265.507812 288.121094 266.480469 286.972656 268.078125 287.132812 C 270.945312 287.421875 273.816406 287.5625 276.667969 288.082031 C 281.429688 288.933594 285.800781 290.832031 290.164062 292.828125 C 290.085938 292.425781 289.859375 292.15625 289.476562 292.015625 C 285.28125 289.597656 280.796875 287.992188 276.019531 287.199219 C 273.355469 286.800781 270.65625 286.628906 267.980469 286.347656 C 270.308594 285.144531 272.847656 285.226562 275.269531 284.730469 C 272.007812 284.53125 268.746094 284.359375 265.675781 285.769531 C 264.71875 286.210938 264.378906 285.769531 264.386719 284.964844 C 264.386719 283.746094 264.640625 282.519531 264.621094 281.304688 C 264.386719 269.566406 265.40625 257.910156 266.191406 246.214844 C 266.34375 243.339844 266.660156 240.484375 267.140625 237.644531 C 268.261719 231.800781 268.277344 225.953125 267.183594 220.105469 C 266.753906 217.882812 265.929688 215.730469 265.117188 214.824219 C 266.367188 220.179688 266.992188 225.605469 266.980469 231.109375 C 267 232.355469 266.667969 233.503906 265.984375 234.546875 C 260.9375 242.398438 255.996094 250.316406 250.925781 258.144531 C 249.257812 260.929688 247.433594 263.605469 245.453125 266.175781 C 246.238281 269.992188 247.277344 273.742188 247.414062 277.683594 C 247.914062 280.699219 248.109375 283.734375 248.007812 286.785156 Z M 103.753906 179.027344 C 103.03125 178.378906 103.019531 179.082031 102.875 179.5 C 102.589844 180.347656 102.640625 181.34375 101.863281 181.964844 C 101.546875 182.210938 100.980469 182.246094 101.171875 182.839844 C 101.28125 183.066406 101.453125 183.214844 101.695312 183.285156 C 101.949219 183.324219 102.183594 183.273438 102.398438 183.132812 C 102.613281 182.992188 102.753906 182.796875 102.816406 182.550781 C 103.175781 181.648438 103.453125 180.710938 103.753906 179.796875 C 103.773438 179.542969 103.769531 179.28125 103.753906 179.027344 Z M 108.367188 183.15625 L 107.511719 183.222656 C 106.734375 184.582031 106.503906 186.03125 106.824219 187.566406 C 107.257812 186.386719 107.511719 185.605469 107.820312 184.8125 Z M 107.675781 280.203125 C 109.949219 281.523438 112.242188 282.808594 114.527344 284.109375 C 118.632812 286.070312 122.851562 287.757812 127.175781 289.167969 C 133.824219 291.230469 140.5625 292.800781 147.535156 293.210938 L 147.804688 292.8125 C 147.214844 292.664062 146.628906 292.46875 146.027344 292.351562 C 134.921875 290.179688 124.003906 287.371094 113.753906 282.433594 C 111.558594 281.371094 109.472656 280.042969 107.078125 279.410156 C 106.75 280.042969 107.417969 280.015625 107.683594 280.175781 Z M 133.914062 310.914062 C 137.292969 314.21875 140.558594 317.644531 144.351562 320.5 C 145.785156 321.722656 147.375 322.695312 149.121094 323.414062 C 148.941406 323.117188 148.730469 322.84375 148.484375 322.597656 C 142.539062 318.3125 137.640625 312.820312 132.015625 308.148438 C 128.980469 305.644531 125.523438 303.703125 121.4375 303.332031 C 121.4375 303.472656 121.472656 303.609375 121.492188 303.746094 C 123.5 304.289062 125.574219 304.660156 127.316406 305.933594 C 129.777344 307.238281 131.976562 308.890625 133.921875 310.886719 Z M 210.4375 318.890625 C 217.265625 315.585938 224.058594 312.214844 230.550781 308.273438 L 229.863281 308.175781 C 221.371094 312.484375 212.878906 316.789062 204.394531 321.097656 C 204.089844 321.300781 203.800781 321.53125 203.535156 321.785156 C 206.128906 321.449219 208.214844 319.941406 210.445312 318.859375 Z M 163.484375 308.273438 C 158.824219 304.335938 152.644531 302.949219 147.976562 299.011719 C 148.273438 300.101562 149.195312 300.664062 149.972656 301.339844 C 151.351562 302.488281 152.878906 303.382812 154.558594 304.019531 C 158.816406 305.742188 162.464844 308.402344 166.03125 311.210938 C 165.796875 309.683594 164.488281 309.085938 163.492188 308.246094 Z M 144.351562 330.324219 L 143.910156 329.277344 C 143.835938 329.210938 143.765625 329.140625 143.703125 329.0625 C 143.855469 328.859375 143.964844 328.976562 144.066406 329.121094 C 144.308594 329.121094 144.671875 329.121094 144.753906 328.996094 C 145.101562 328.445312 144.480469 328.445312 144.246094 328.308594 C 141.523438 326.515625 139.046875 324.4375 136.8125 322.066406 C 136.421875 321.675781 136.125 321 135.238281 321.304688 C 137.945312 324.636719 140.980469 327.644531 144.34375 330.324219 Z M 138.710938 332.058594 C 138.429688 331.285156 137.886719 331.222656 137.335938 331.136719 C 136.722656 331.683594 135.960938 331.320312 135.269531 331.535156 C 134.074219 331.90625 132.585938 331.535156 131.773438 332.910156 C 134.046875 332.46875 136.25 331.546875 138.710938 332.070312 Z M 139.539062 332.546875 C 139.765625 332.867188 139.980469 333.234375 140.839844 332.980469 L 139.546875 332.53125 Z M 141.390625 333.644531 C 141.5625 333.957031 141.777344 334.203125 142.179688 334.128906 C 142.234375 334.097656 142.257812 334.050781 142.257812 333.988281 C 142.09375 333.5625 141.707031 333.679688 141.390625 333.644531 Z M 145.074219 330.707031 C 145.035156 330.828125 145.058594 330.9375 145.132812 331.035156 C 145.210938 331.132812 145.3125 331.175781 145.4375 331.167969 C 145.472656 331.167969 145.554688 331.101562 145.554688 331.066406 C 145.554688 330.757812 145.320312 330.714844 145.078125 330.695312 Z M 144.34375 330.328125 C 144.5 330.625 144.742188 330.75 145.074219 330.707031 C 145.011719 330.566406 144.914062 330.460938 144.773438 330.390625 C 144.636719 330.320312 144.492188 330.304688 144.34375 330.335938 Z M 131.773438 332.882812 C 131.390625 332.710938 131.175781 332.972656 130.949219 333.210938 L 131.421875 333.308594 Z M 139.546875 332.53125 C 139.546875 332.375 139.496094 332.1875 139.277344 332.386719 L 139.539062 332.546875 Z M 141.390625 333.644531 C 141.34375 333.523438 141.355469 333.296875 141.128906 333.507812 Z M 41.589844 216.742188 C 37.671875 217.5625 33.910156 218.839844 30.300781 220.570312 C 26.695312 222.300781 23.34375 224.433594 20.25 226.972656 C 19.191406 227.839844 17.78125 228.417969 17.359375 229.929688 L 17.394531 229.929688 C 17.726562 229.796875 18.042969 229.628906 18.34375 229.429688 C 23.871094 224.648438 30.121094 221.15625 37.085938 218.945312 C 39.152344 218.324219 41.214844 217.824219 43.234375 217.265625 C 43.261719 216.980469 43.144531 216.78125 42.882812 216.667969 C 42.4375 216.652344 41.996094 216.683594 41.558594 216.757812 Z M 16.960938 230.316406 C 16.90625 230.378906 16.84375 230.433594 16.789062 230.488281 L 16.980469 230.335938 Z M 17.320312 229.945312 L 16.960938 230.316406 L 17.332031 229.957031 Z M 163.519531 115.539062 C 161.585938 116.34375 159.292969 116.472656 157.894531 118.351562 C 161.074219 117.25 164.363281 116.398438 167.042969 114.140625 L 165.148438 114.589844 C 164.859375 115.347656 164.105469 115.292969 163.519531 115.539062 Z M 153.179688 210.613281 C 156.585938 211.023438 159.96875 211.652344 163.382812 211.988281 C 165.445312 212.203125 167.691406 212.613281 169.402344 210.777344 C 167.667969 211.058594 165.960938 211.597656 164.152344 211.28125 C 156.851562 209.996094 149.496094 209.253906 142.085938 209.058594 C 140.777344 209.023438 139.433594 208.804688 138.140625 209.441406 L 139.242188 209.664062 C 143.894531 209.875 148.554688 210.070312 153.179688 210.613281 Z M 148.859375 222.054688 C 154.570312 222.742188 160.105469 224.371094 165.761719 225.363281 C 167.054688 225.589844 168.425781 225.90625 169.582031 224.847656 C 168.0625 224.65625 166.535156 224.929688 165.003906 224.570312 C 159.824219 223.367188 154.679688 222.03125 149.367188 221.359375 C 146.0625 220.9375 142.730469 220.195312 139.375 221.035156 C 142.527344 221.371094 145.691406 221.683594 148.859375 222.054688 Z M 135.703125 230.386719 C 143.757812 231.472656 151.320312 234.148438 158.722656 237.382812 C 160.058594 238.078125 161.480469 238.414062 162.988281 238.386719 C 159.265625 236.851562 155.574219 235.222656 151.816406 233.796875 C 146.3125 231.734375 140.703125 230.015625 134.726562 229.980469 C 134.949219 230.351562 135.339844 230.34375 135.699219 230.386719 Z M 115.945312 197.855469 C 117.519531 196.335938 119.269531 194.972656 120.4375 193.074219 C 122.25 190.152344 123.191406 187.117188 121.527344 183.78125 C 121.992188 187.855469 121.3125 191.589844 118.242188 194.582031 C 117.195312 195.605469 116.074219 196.558594 115 197.554688 C 114.40625 198.03125 114.019531 198.644531 113.835938 199.382812 C 113.734375 200.074219 113.644531 200.953125 114.855469 200.347656 C 114.445312 199.179688 115.242188 198.539062 115.9375 197.855469 Z M 149.828125 245.734375 C 151.066406 246.214844 152.355469 246.703125 153.75 246.296875 C 153.457031 246.25 153.152344 246.230469 152.855469 246.167969 C 149.808594 245.480469 147.214844 243.636719 144.191406 242.878906 L 143.648438 242.953125 C 145.621094 244.070312 147.679688 244.996094 149.820312 245.734375 Z M 134.753906 229.980469 C 134.453125 229.785156 134.148438 229.558594 133.796875 229.910156 Z M 93.996094 180.5625 C 93.085938 183.511719 91.929688 186.113281 89.109375 187.488281 C 89.511719 187.457031 89.90625 187.382812 90.292969 187.261719 C 90.679688 187.144531 91.050781 186.984375 91.402344 186.785156 C 91.753906 186.582031 92.078125 186.347656 92.378906 186.074219 C 92.675781 185.804688 92.941406 185.5 93.175781 185.171875 C 93.410156 184.839844 93.601562 184.488281 93.757812 184.113281 C 93.914062 183.742188 94.027344 183.355469 94.097656 182.957031 C 94.167969 182.558594 94.191406 182.15625 94.175781 181.753906 C 94.15625 181.347656 94.09375 180.953125 93.988281 180.5625 Z M 88.976562 209.015625 C 88.675781 209.050781 88.402344 209.160156 88.15625 209.339844 C 87.910156 209.515625 87.726562 209.746094 87.601562 210.019531 L 87.867188 210.289062 C 88.164062 210.203125 88.410156 210.046875 88.613281 209.816406 C 88.8125 209.585938 88.933594 209.320312 88.976562 209.015625 Z M 89.726562 208.589844 L 90.097656 208.203125 L 90.042969 208.15625 C 89.90625 208.257812 89.769531 208.375 89.628906 208.488281 Z M 90.414062 207.804688 L 90.023438 208.15625 L 90.078125 208.203125 L 90.441406 207.839844 Z M 90.414062 207.804688 L 90.414062 207.839844 C 90.527344 207.84375 90.640625 207.832031 90.753906 207.804688 C 90.753906 207.679688 90.753906 207.566406 90.753906 207.441406 Z M 89.617188 208.492188 C 89.480469 208.570312 89.222656 208.601562 89.492188 208.824219 L 89.707031 208.597656 Z M 89.617188 208.492188 " fill-opacity="1" fill-rule="nonzero"/><path fill="#fdb084" d="M 290.164062 292.828125 C 291.167969 293.515625 292.441406 293.933594 292.777344 295.324219 C 289.171875 298.214844 285.132812 300.421875 281.140625 302.699219 C 264.65625 312.152344 247.351562 319.734375 229.230469 325.445312 C 216.921875 329.335938 204.378906 332.21875 191.609375 334.085938 C 178.527344 336.089844 165.371094 336.902344 152.140625 336.515625 C 146.8125 336.316406 141.457031 336.210938 136.171875 335.378906 L 136.054688 335.261719 L 135.917969 335.34375 C 135.773438 335.410156 135.625 335.421875 135.46875 335.386719 C 135.316406 335.347656 135.191406 335.265625 135.09375 335.140625 C 134.382812 334.523438 133.5625 334.261719 132.628906 334.355469 C 131.871094 334.355469 131.3125 334.222656 131.410156 333.296875 L 131.761719 332.867188 C 134.03125 332.433594 136.234375 331.492188 138.699219 332.035156 C 138.417969 331.265625 137.871094 331.203125 137.320312 331.113281 C 136.550781 330.722656 135.859375 330.214844 135.257812 329.59375 C 132.230469 326.621094 129.125 323.78125 124.480469 323.738281 C 123.90625 323.824219 123.378906 323.707031 122.894531 323.386719 C 122.695312 322.894531 122.25 322.90625 121.828125 322.886719 C 120.453125 322.804688 119.703125 322.199219 119.914062 320.703125 L 120.265625 320.355469 C 120.492188 320.355469 120.625 320.242188 120.625 320.003906 C 124.878906 319.5 129.136719 319.5 133.390625 320.003906 C 133.605469 320.003906 134.082031 320.183594 133.914062 319.609375 C 134.082031 318.628906 133.308594 318.054688 132.867188 317.363281 C 130.578125 313.757812 128.382812 310.109375 127.230469 305.949219 C 129.691406 307.25 131.890625 308.898438 133.832031 310.886719 C 137.210938 314.191406 140.472656 317.617188 144.265625 320.472656 C 145.703125 321.695312 147.292969 322.667969 149.035156 323.386719 C 148.855469 323.089844 148.644531 322.816406 148.402344 322.570312 C 142.457031 318.285156 137.554688 312.792969 131.933594 308.121094 C 128.898438 305.617188 125.441406 303.675781 121.355469 303.304688 C 119.976562 302.886719 119.796875 302.320312 120.960938 301.316406 C 121.402344 300.9375 122.585938 300.566406 121.648438 299.542969 C 122.585938 298.207031 124.078125 298.332031 125.429688 298.214844 C 129.234375 297.890625 132.855469 299.089844 136.539062 299.734375 C 137.734375 301 139.289062 301.367188 140.949219 301.496094 C 141.199219 302.230469 141.769531 302.320312 142.421875 302.230469 C 142.539062 302.617188 142.835938 302.636719 143.160156 302.605469 C 143.269531 302.988281 143.566406 303.015625 143.886719 302.976562 C 144.074219 304.046875 144.886719 304.089844 145.726562 304.078125 C 145.910156 305.148438 146.71875 305.199219 147.5625 305.183594 C 147.5625 305.988281 148.085938 305.980469 148.664062 305.914062 C 148.769531 306.3125 149.066406 306.332031 149.394531 306.277344 C 149.367188 306.433594 149.386719 306.585938 149.460938 306.726562 C 149.535156 306.867188 149.648438 306.96875 149.792969 307.035156 C 153.847656 309.207031 158.019531 311.164062 162.535156 312.132812 C 163.539062 312.351562 164.832031 312.746094 165.75 311.554688 L 165.878906 310.984375 C 165.582031 309.609375 164.324219 308.996094 163.359375 308.183594 C 158.699219 304.25 152.519531 302.859375 147.851562 298.921875 C 146.980469 297.988281 146.304688 296.996094 146.40625 295.601562 C 146.476562 294.671875 147.289062 294.09375 147.398438 293.210938 L 147.679688 292.722656 C 150.152344 290.535156 150.8125 290.414062 154.054688 289.925781 C 154.101562 289.890625 156.691406 289.800781 156.726562 289.753906 C 157.460938 290.027344 158.289062 290 159.003906 290.332031 C 159.878906 290.632812 160.507812 291.203125 160.894531 292.042969 C 160.984375 292.257812 161.109375 292.378906 161.296875 292.730469 C 161.675781 293.402344 162.15625 293.984375 162.742188 294.484375 L 163.953125 295.488281 C 165.597656 296.527344 166.320312 297.617188 166.871094 297.960938 C 168.742188 299.390625 170.738281 300.613281 172.867188 301.625 C 182.433594 305.925781 187.039062 311.597656 194.367188 319.074219 C 196.957031 321.714844 199.324219 323.546875 203.0625 321.730469 C 203.179688 321.691406 203.300781 321.671875 203.425781 321.675781 C 206 321.394531 208.085938 319.886719 210.308594 318.804688 C 217.136719 315.503906 223.929688 312.132812 230.421875 308.191406 C 232.394531 307.535156 234.171875 306.527344 235.746094 305.171875 C 235.898438 305.210938 236.042969 305.199219 236.183594 305.128906 C 236.324219 305.058594 236.421875 304.953125 236.476562 304.804688 L 236.847656 304.433594 C 237.28125 304.46875 237.722656 304.53125 237.957031 304.019531 C 238.691406 303.28125 239.53125 302.699219 240.484375 302.273438 C 243.03125 300.972656 245.652344 299.804688 248 298.144531 C 248.570312 298.125 249.074219 297.933594 249.511719 297.566406 C 254.40625 294.628906 259.28125 291.65625 264.203125 288.769531 C 265.363281 288.082031 266.335938 286.929688 267.933594 287.089844 C 270.800781 287.378906 273.671875 287.523438 276.523438 288.039062 C 281.429688 288.933594 285.828125 290.851562 290.164062 292.828125 Z M 145.078125 330.707031 C 145.019531 330.566406 144.917969 330.460938 144.78125 330.390625 C 144.644531 330.320312 144.5 330.304688 144.351562 330.335938 L 143.910156 329.292969 C 143.964844 329.234375 144.019531 329.1875 144.066406 329.132812 C 144.308594 329.132812 144.671875 329.132812 144.753906 329.007812 C 145.101562 328.457031 144.480469 328.457031 144.246094 328.320312 C 141.523438 326.527344 139.046875 324.441406 136.8125 322.066406 C 136.421875 321.675781 136.125 321 135.238281 321.304688 C 137.945312 324.636719 140.980469 327.644531 144.34375 330.324219 C 144.5 330.617188 144.742188 330.742188 145.074219 330.703125 C 145.035156 330.820312 145.058594 330.929688 145.132812 331.027344 C 145.210938 331.125 145.3125 331.171875 145.4375 331.164062 C 145.472656 331.164062 145.554688 331.09375 145.554688 331.058594 C 145.546875 330.769531 145.320312 330.730469 145.078125 330.707031 Z M 141.390625 333.660156 C 141.34375 333.535156 141.355469 333.308594 141.128906 333.523438 L 141.390625 333.660156 C 141.5625 333.96875 141.777344 334.21875 142.179688 334.140625 C 142.234375 334.109375 142.257812 334.0625 142.257812 334.003906 C 142.09375 333.578125 141.707031 333.695312 141.390625 333.660156 Z M 139.546875 332.546875 C 139.546875 332.386719 139.496094 332.203125 139.277344 332.402344 L 139.539062 332.558594 C 139.765625 332.882812 139.980469 333.246094 140.839844 332.992188 Z M 226.847656 176.417969 C 224.316406 178.339844 221.804688 180.277344 219.179688 182.082031 C 211.078125 187.648438 202.117188 190.207031 192.390625 189.296875 C 182.816406 188.402344 174.054688 185.238281 167.40625 177.863281 C 163.964844 174.019531 162.140625 169.214844 160.578125 164.34375 C 160.023438 162.609375 159.933594 160.753906 159.121094 159.09375 C 159.050781 158.058594 158.996094 157.03125 158.921875 155.980469 C 158.417969 149.429688 159.265625 143.257812 163.847656 138.089844 L 165.453125 138.007812 L 165.5625 138.058594 L 165.679688 138.058594 C 170.023438 138.546875 174.371094 138.863281 178.667969 137.707031 C 181.234375 137.019531 183.679688 136.0625 185.550781 134.050781 C 186.042969 133.5625 186.449219 133.003906 186.765625 132.382812 C 187.078125 131.765625 187.292969 131.109375 187.398438 130.421875 C 187.503906 129.734375 187.503906 129.046875 187.390625 128.359375 C 187.277344 127.671875 187.0625 127.019531 186.742188 126.402344 C 186.113281 125.234375 186.460938 124.765625 187.328125 124.035156 C 196.695312 116.128906 203.15625 106.148438 207.554688 94.851562 C 207.6875 94.382812 207.777344 93.910156 207.816406 93.425781 C 208.1875 93.371094 208.195312 93.070312 208.242188 92.792969 C 208.242188 92.792969 208.160156 92.730469 208.121094 92.699219 C 208.03125 92.953125 207.933594 93.199219 207.84375 93.453125 C 205.03125 99.644531 201.980469 105.75 197.917969 111.265625 C 193.101562 117.835938 187.734375 123.898438 180.519531 128.003906 C 179.554688 128.558594 178.546875 129.015625 177.496094 129.382812 C 174.304688 130.496094 171.425781 129.960938 169.039062 127.496094 C 168.09375 126.527344 167.261719 125.433594 166.390625 124.425781 C 165.117188 122.929688 163.554688 122.046875 161.570312 122.363281 C 161.238281 122.4375 160.90625 122.449219 160.570312 122.398438 C 160.234375 122.351562 159.917969 122.242188 159.621094 122.078125 C 159.324219 121.910156 159.070312 121.695312 158.851562 121.433594 C 158.636719 121.175781 158.472656 120.882812 158.363281 120.5625 C 157.902344 119.527344 157.351562 118.777344 155.914062 118.855469 C 154.8125 118.910156 154.039062 118.269531 154.054688 116.757812 C 154.054688 113.351562 152.71875 112.265625 149.414062 112.683594 C 145.699219 113.160156 143.910156 111.136719 144.886719 107.53125 C 145.257812 106.15625 145.738281 104.832031 146.050781 103.457031 C 146.664062 100.707031 146.230469 98.207031 144.144531 96.144531 C 142.179688 94.195312 140.21875 92.242188 138.25 90.304688 C 133.226562 85.371094 129.414062 79.707031 128.339844 72.621094 C 127.875 69.539062 127.785156 66.449219 128.066406 63.347656 C 128.351562 60.242188 129 57.21875 130.011719 54.273438 C 132.621094 57.800781 135.691406 60.871094 139.222656 63.476562 C 145.910156 68.292969 153.503906 70.632812 161.589844 71.171875 C 169.285156 71.722656 176.96875 71.648438 184.648438 70.949219 C 187.363281 70.683594 189.953125 69.964844 192.417969 68.804688 C 193.148438 68.464844 193.867188 68.117188 194.59375 67.792969 C 197.84375 66.375 198.640625 66.464844 200.101562 68.34375 C 202.042969 70.855469 202.019531 72.628906 200.039062 75.113281 C 199.917969 75.304688 199.816406 75.507812 199.742188 75.722656 L 199.269531 75.808594 L 199.351562 75.953125 L 199.714844 75.695312 C 203.535156 74.457031 203.761719 71.054688 200.320312 66.753906 C 204.363281 66.011719 209.160156 69.058594 209.65625 72.753906 C 209.972656 75.160156 209.050781 77.164062 207.464844 78.945312 C 205.757812 80.90625 203.515625 80.507812 200.921875 80.394531 C 202.359375 82.152344 203.90625 82.300781 205.414062 81.773438 C 206.75 81.324219 207.15625 81.8125 207.527344 82.921875 C 208.828125 86.816406 208.773438 90.910156 209.253906 94.90625 C 210.527344 105.570312 211.652344 116.234375 212.8125 126.9375 C 213.640625 134.507812 214.371094 142.074219 215.566406 149.601562 C 217.046875 158.867188 219.695312 167.660156 225.890625 175.058594 C 226.234375 175.492188 226.554688 175.949219 226.847656 176.417969 Z M 163.527344 115.539062 C 161.589844 116.34375 159.300781 116.472656 157.902344 118.351562 C 161.082031 117.25 164.371094 116.398438 167.050781 114.140625 L 165.15625 114.589844 C 162.554688 115.1875 159.792969 114.3125 157.25 115.394531 C 158.164062 115.503906 159.082031 115.566406 160 115.578125 C 161.171875 115.667969 162.335938 114.652344 163.519531 115.539062 Z M 159.871094 83.472656 C 156.785156 85.871094 154.253906 88.976562 150.109375 90.804688 C 155.011719 90.742188 158.734375 87.75 159.851562 83.445312 L 160.035156 83.304688 C 160 83.304688 159.953125 83.304688 159.9375 83.304688 C 159.90625 83.359375 159.882812 83.414062 159.871094 83.472656 Z M 155.195312 75.214844 C 152.945312 76.015625 150.765625 76.980469 148.660156 78.113281 C 147.371094 78.851562 146.246094 79.78125 145.273438 80.90625 C 144.304688 82.027344 143.550781 83.28125 143.007812 84.660156 C 142.800781 85.175781 142.320312 85.953125 143.007812 86.3125 C 143.695312 86.671875 143.984375 85.796875 144.265625 85.335938 C 146.457031 81.761719 149.390625 78.964844 153.0625 76.941406 C 153.949219 76.585938 154.652344 76.007812 155.175781 75.207031 Z M 154.90625 107.957031 C 153.027344 107.398438 150.152344 109.042969 149.71875 110.640625 C 149.636719 110.941406 149.519531 111.257812 149.871094 111.425781 C 150.019531 111.476562 150.167969 111.484375 150.320312 111.441406 C 150.472656 111.398438 150.597656 111.3125 150.695312 111.191406 C 151.960938 109.964844 152.863281 108.292969 154.886719 107.949219 Z M 141.34375 201.902344 C 145.894531 202.464844 150.394531 203.285156 154.851562 204.367188 C 159.5 205.289062 163.972656 206.75 168.269531 208.746094 C 169.011719 209.113281 170.394531 209.382812 169.402344 210.8125 C 167.667969 211.09375 165.960938 211.628906 164.152344 211.3125 C 156.851562 210.027344 149.496094 209.289062 142.085938 209.09375 C 140.777344 209.058594 139.433594 208.835938 138.140625 209.476562 L 139.242188 209.699219 C 139.332031 209.917969 139.375 210.269531 139.523438 210.324219 C 142.429688 211.464844 145.375 212.746094 148.570312 212.113281 C 151.164062 211.597656 153.488281 212.148438 155.203125 213.867188 C 157.335938 216.027344 160.023438 216.996094 162.617188 218.144531 C 164.960938 219.082031 167.183594 220.242188 169.285156 221.632812 C 170.757812 222.679688 170.792969 223.699219 169.574219 224.847656 C 168.054688 224.65625 166.527344 224.929688 165 224.570312 C 159.816406 223.367188 154.675781 222.03125 149.359375 221.359375 C 146.058594 220.9375 142.726562 220.195312 139.367188 221.035156 C 139.105469 222.082031 140.109375 221.910156 140.523438 222.066406 C 144.9375 223.769531 149.246094 225.707031 153.449219 227.875 C 155.347656 228.863281 157.207031 230.730469 159.085938 230.742188 C 160.964844 230.757812 162.832031 228.90625 164.730469 227.929688 C 167.796875 226.363281 170.996094 225.136719 174.324219 224.25 C 176.589844 223.636719 177.621094 224.308594 177.496094 226.574219 C 177.222656 231.390625 176.808594 236.207031 176.394531 241.023438 C 176.273438 242.398438 175.199219 242.261719 174.332031 241.921875 C 171.976562 241.042969 169.625 240.148438 167.339844 239.109375 C 165.921875 238.457031 164.585938 237.917969 162.996094 238.386719 C 159.273438 236.851562 155.582031 235.222656 151.824219 233.796875 C 146.316406 231.734375 140.707031 230.015625 134.734375 229.980469 C 134.429688 229.785156 134.128906 229.558594 133.777344 229.910156 C 132.972656 230.054688 132.953125 230.335938 133.652344 230.703125 C 135.394531 231.597656 137.164062 232.441406 138.882812 233.371094 C 144.253906 236.28125 149.898438 238.8125 154.210938 243.320312 C 155.773438 244.941406 155.652344 245.5625 153.730469 246.296875 C 153.433594 246.25 153.132812 246.230469 152.835938 246.167969 C 149.789062 245.480469 147.191406 243.636719 144.175781 242.878906 C 139.105469 240.523438 133.894531 238.515625 128.554688 236.859375 C 117.859375 233.359375 107.3125 233.5 96.890625 238.082031 C 90.601562 240.835938 84.875 244.515625 79.257812 248.402344 C 72.230469 253.261719 65.492188 258.515625 58.238281 263.066406 C 57.414062 263.65625 56.496094 263.96875 55.484375 264.007812 C 45.59375 264.105469 37.953125 256.875 37.589844 247.007812 C 37.210938 237.375 41.773438 230.179688 49.015625 224.414062 C 51.457031 222.472656 53.964844 220.535156 57.207031 220.003906 C 61.871094 219.238281 66.550781 218.503906 71.207031 217.664062 C 77.34375 216.570312 83.085938 214.511719 87.847656 210.296875 C 88.144531 210.214844 88.394531 210.054688 88.59375 209.824219 C 88.796875 209.59375 88.917969 209.328125 88.964844 209.023438 C 88.660156 209.058594 88.386719 209.167969 88.144531 209.34375 C 87.898438 209.523438 87.710938 209.75 87.585938 210.027344 L 86.746094 210.398438 C 85.371094 209.429688 83.871094 209.710938 82.355469 209.855469 C 79.980469 210.15625 77.601562 210.203125 75.21875 209.992188 C 75.074219 209.304688 74.488281 208.5625 75.257812 207.964844 C 75.949219 207.449219 76.511719 207.964844 77.105469 208.300781 C 77.886719 208.742188 78.679688 208.6875 79.996094 208.109375 C 78.671875 207.894531 77.527344 207.328125 76.554688 206.410156 C 75.976562 205.851562 75.257812 206.132812 74.703125 206.566406 C 73.433594 207.558594 73.511719 208.734375 74.324219 209.972656 C 73.289062 211.203125 71.859375 210.605469 70.597656 210.777344 C 70.597656 210.476562 70.542969 210.171875 70.523438 209.863281 C 70.222656 205.371094 72.808594 202.90625 77.277344 203.53125 C 79.195312 203.808594 80.957031 203.621094 82.410156 202.234375 C 83.863281 200.84375 83.917969 199.253906 82.542969 198.105469 C 77.984375 194.238281 76.753906 189.03125 76.449219 183.449219 C 76.078125 176.644531 78.199219 170.378906 80.980469 164.332031 C 84.667969 164.855469 87.777344 166.675781 90.699219 168.832031 C 92.957031 170.503906 95.183594 172.207031 96.890625 174.539062 C 97.964844 176.019531 99.734375 175.722656 101.316406 175.746094 C 103.339844 175.746094 104.203125 176.929688 103.773438 179.054688 C 103.050781 178.40625 103.039062 179.109375 102.894531 179.527344 C 102.613281 180.375 102.660156 181.371094 101.882812 181.992188 C 101.566406 182.238281 101 182.273438 101.195312 182.867188 C 101.300781 183.09375 101.472656 183.242188 101.71875 183.3125 C 101.96875 183.351562 102.203125 183.300781 102.417969 183.160156 C 102.632812 183.019531 102.773438 182.824219 102.839844 182.578125 C 103.195312 181.675781 103.472656 180.738281 103.773438 179.824219 C 104.855469 181.140625 106.796875 181.503906 107.503906 183.222656 C 106.726562 184.582031 106.496094 186.03125 106.816406 187.566406 C 107.25 186.386719 107.503906 185.605469 107.816406 184.8125 C 109.351562 186.097656 109.769531 187.96875 110.390625 189.730469 C 111.007812 191.492188 111.140625 191.582031 112.632812 190.269531 C 114.734375 188.292969 116.535156 186.078125 118.035156 183.617188 C 119.144531 181.929688 120.390625 182.039062 121.476562 183.800781 C 121.945312 187.875 121.265625 191.609375 118.195312 194.601562 C 117.148438 195.628906 116.027344 196.578125 114.953125 197.574219 C 114.359375 198.054688 113.96875 198.664062 113.789062 199.40625 C 113.6875 200.09375 113.597656 200.972656 114.808594 200.367188 C 117.195312 200.945312 119.613281 201.234375 122.070312 201.234375 C 126.289062 201.269531 130.515625 201.476562 134.734375 201.613281 C 135.933594 202.300781 137.234375 201.945312 138.480469 201.886719 C 139.46875 201.820312 140.40625 201.269531 141.34375 201.902344 Z M 90.410156 207.804688 L 90.015625 208.148438 L 89.609375 208.488281 C 89.472656 208.5625 89.21875 208.597656 89.484375 208.816406 L 89.699219 208.589844 L 90.070312 208.210938 L 90.4375 207.832031 C 90.546875 207.851562 90.660156 207.851562 90.773438 207.832031 C 92.78125 206.394531 94.25 204.460938 95.703125 202.515625 C 93.988281 204.097656 91.832031 205.265625 90.78125 207.46875 Z M 85.535156 185.96875 C 86.988281 182.164062 87.523438 178.070312 89.71875 174.574219 C 86.058594 177.535156 85.933594 181.828125 85.535156 185.96875 Z M 97.4375 201.421875 C 100.71875 198.628906 104.648438 196.796875 108.007812 194.15625 C 105.246094 194.789062 98.097656 199.695312 97.414062 201.421875 Z M 89.121094 187.488281 C 89.523438 187.457031 89.921875 187.382812 90.308594 187.265625 C 90.695312 187.144531 91.066406 186.984375 91.417969 186.785156 C 91.769531 186.585938 92.09375 186.347656 92.394531 186.078125 C 92.695312 185.804688 92.960938 185.503906 93.195312 185.171875 C 93.425781 184.84375 93.621094 184.488281 93.777344 184.117188 C 93.933594 183.742188 94.046875 183.355469 94.117188 182.957031 C 94.1875 182.558594 94.210938 182.15625 94.195312 181.753906 C 94.175781 181.347656 94.113281 180.953125 94.007812 180.5625 C 93.105469 183.511719 91.941406 186.113281 89.101562 187.488281 Z M 209.007812 224.566406 C 206.542969 220.78125 204.023438 216.996094 200.886719 213.742188 C 200.109375 213.742188 199.675781 214.308594 199.234375 214.800781 C 196.71875 217.703125 194.882812 220.984375 193.726562 224.648438 C 193.230469 226.152344 193.789062 226.992188 195.25 227.398438 C 198.839844 228.371094 202.425781 229.386719 206.042969 230.308594 C 208.339844 230.894531 210.605469 231.789062 213.054688 231.339844 C 211.691406 229.070312 210.425781 226.765625 208.988281 224.566406 Z M 175.703125 197.878906 C 175.378906 198.394531 174.804688 198.460938 174.324219 198.65625 C 172.074219 199.523438 171.730469 200.367188 172.777344 202.5625 C 173.820312 204.757812 175.527344 206.449219 177.125 208.199219 C 178.558594 209.765625 179.671875 211.636719 181.59375 212.773438 C 182.679688 213.40625 183.410156 213.273438 183.90625 212.085938 C 185.261719 209.078125 186.460938 206.011719 187.503906 202.886719 C 183.960938 200.375 179.832031 199.128906 175.703125 197.878906 Z M 95.859375 309.613281 C 94.261719 310.246094 94.050781 311.3125 95.089844 312.65625 C 97.765625 316.144531 101.1875 318.847656 104.492188 321.695312 C 108.140625 324.839844 108.359375 324.832031 109.75 320.320312 C 110.808594 316.878906 112.269531 313.5 112.503906 309.863281 C 112.722656 306.640625 112.308594 306.324219 108.082031 306.367188 C 103.875 306.949219 99.800781 308.03125 95.859375 309.613281 Z M 104.121094 276.871094 C 103.574219 276.742188 103.054688 276.804688 102.558594 277.058594 C 102.957031 280.023438 103.574219 282.953125 103.824219 285.953125 C 104.035156 288.5 105.46875 289.320312 107.953125 288.707031 C 110.753906 288.019531 113.28125 286.953125 114.519531 284.070312 C 112.234375 282.769531 109.941406 281.484375 107.671875 280.160156 C 107.402344 280.003906 106.734375 280.03125 107.070312 279.371094 C 106.445312 278.160156 104.367188 278.605469 104.167969 276.871094 Z M 83.3125 285.363281 C 82.164062 287.261719 80.835938 289.058594 80.042969 291.164062 C 80.355469 291.105469 80.660156 291.015625 80.953125 290.890625 C 81.246094 290.765625 81.519531 290.613281 81.78125 290.429688 C 82.039062 290.246094 82.277344 290.035156 82.488281 289.800781 C 82.703125 289.5625 82.890625 289.308594 83.046875 289.03125 C 83.207031 288.753906 83.332031 288.464844 83.425781 288.164062 C 83.519531 287.859375 83.582031 287.546875 83.609375 287.230469 C 83.636719 286.914062 83.628906 286.597656 83.585938 286.285156 C 83.542969 285.96875 83.46875 285.660156 83.359375 285.363281 Z M 118.414062 274.527344 C 116.707031 274.953125 114.972656 275.296875 113.265625 275.667969 C 113.261719 276.132812 113.355469 276.578125 113.546875 277 C 113.738281 277.421875 114.011719 277.785156 114.367188 278.082031 C 118.007812 281.683594 122.394531 284.089844 127.046875 286.085938 C 128.820312 286.847656 129.667969 286.457031 129.855469 284.539062 C 130.148438 282.289062 130.148438 280.039062 129.855469 277.789062 C 129.324219 274.507812 128.726562 273.839844 125.421875 273.589844 C 123.640625 273.410156 121.867188 273.449219 120.09375 273.703125 C 119.804688 274.457031 119.042969 274.375 118.441406 274.527344 Z M 189.46875 236.613281 C 189.777344 241.460938 191.125 246 193.515625 250.234375 C 194.503906 251.90625 195.828125 252.132812 197.367188 250.921875 C 201.367188 247.839844 204.25 243.761719 207.003906 239.652344 C 207.804688 238.488281 207.355469 237.699219 206.0625 237.3125 C 205.117188 237.039062 204.183594 236.734375 203.234375 236.507812 C 199.480469 235.605469 195.730469 234.726562 192.804688 234.039062 C 189.742188 234.003906 189.234375 234.382812 189.46875 236.613281 Z M 213.128906 258.015625 C 210.824219 258.65625 210.28125 259.605469 211.257812 261.777344 C 213.199219 265.941406 215.832031 269.613281 219.152344 272.785156 C 220.878906 274.484375 221.90625 274.363281 222.902344 272.175781 C 224.863281 267.988281 226.3125 263.628906 227.242188 259.101562 C 227.644531 257.039062 226.992188 256.210938 224.570312 256.207031 C 220.949219 256.796875 216.949219 256.933594 213.097656 258.015625 Z M 216.792969 290.460938 C 215.753906 290.820312 214.726562 291.238281 213.722656 291.691406 C 210.597656 293.148438 207.574219 294.785156 204.652344 296.613281 C 202.433594 297.988281 202.332031 299.199219 204.230469 300.671875 C 207.96875 303.554688 211.996094 306.007812 215.988281 308.527344 C 216.886719 309.097656 217.589844 309.023438 217.796875 307.738281 C 218.617188 302.671875 219.097656 297.574219 219.621094 292.277344 C 219.664062 290.300781 218.878906 289.730469 216.757812 290.460938 Z M 84.304688 272.75 C 85.960938 272.769531 87.613281 272.652344 89.253906 272.394531 C 90.628906 272.242188 91.027344 271.464844 90.730469 270.234375 C 90.570312 269.640625 90.359375 269.0625 90.097656 268.507812 C 88.332031 264.785156 86.378906 261.164062 84.242188 257.644531 C 83.105469 255.691406 82.175781 255.628906 80.863281 257.535156 C 78.539062 260.707031 76.476562 264.039062 74.667969 267.53125 C 72.5625 271.871094 73.394531 273.097656 79.128906 273.097656 C 80.84375 272.847656 82.570312 272.734375 84.304688 272.75 Z M 182.46875 278.441406 C 182.636719 279.71875 182.902344 280.976562 183.265625 282.210938 C 183.796875 284.171875 184.574219 284.625 186.515625 283.933594 C 190.078125 282.636719 193.253906 280.707031 196.046875 278.144531 C 197.421875 276.929688 197.265625 276.011719 195.902344 275.089844 C 192.597656 272.855469 189.441406 270.40625 185.957031 268.445312 C 185.796875 268.34375 185.625 268.261719 185.441406 268.203125 C 185.261719 268.144531 185.074219 268.105469 184.886719 268.09375 C 184.695312 268.078125 184.503906 268.089844 184.316406 268.125 C 184.128906 268.15625 183.949219 268.214844 183.773438 268.292969 C 183.601562 268.371094 183.441406 268.472656 183.289062 268.589844 C 183.140625 268.710938 183.007812 268.84375 182.894531 268.996094 C 182.777344 269.148438 182.683594 269.3125 182.609375 269.488281 C 182.535156 269.664062 182.484375 269.847656 182.453125 270.035156 C 182.21875 271.355469 182.207031 272.71875 182.0625 274.402344 C 182.28125 275.742188 182.417969 277.085938 182.46875 278.441406 Z M 237.117188 279.128906 C 235.210938 279.722656 234.777344 280.574219 235.4375 282.472656 C 236.019531 284.21875 236.707031 285.917969 237.503906 287.578125 C 238.253906 289.097656 238.921875 290.703125 240.125 291.972656 C 240.964844 292.863281 241.734375 292.9375 242.628906 292.042969 C 244.40625 290.273438 246.214844 288.546875 248.007812 286.808594 C 248.113281 283.746094 247.917969 280.703125 247.421875 277.679688 C 243.894531 277.484375 240.457031 277.960938 237.117188 279.109375 Z M 163.683594 288.699219 C 165.851562 286.164062 167.597656 283.371094 168.929688 280.3125 C 169.21875 279.695312 169.265625 278.9375 168.425781 278.59375 C 167.617188 278.144531 166.757812 277.835938 165.851562 277.65625 C 162.195312 277.355469 158.554688 276.730469 154.875 276.878906 C 153.640625 276.933594 151.789062 276.191406 151.328125 277.410156 C 150.929688 278.476562 152.417969 279.699219 153.261719 280.726562 C 155.597656 283.554688 157.949219 286.359375 160.296875 289.167969 C 160.730469 289.53125 161.226562 289.699219 161.789062 289.667969 C 162.335938 289.1875 163.132812 289.3125 163.683594 288.699219 Z M 167.59375 259.117188 C 169.789062 263.292969 172.074219 267.414062 174.332031 271.554688 C 174.828125 272.46875 175.433594 272.695312 176.136719 271.769531 C 178.199219 269.058594 180.882812 267 183.285156 264.648438 C 184.664062 263.269531 184.539062 262.632812 182.667969 261.894531 C 178.886719 260.464844 175.09375 259.089844 171.289062 257.710938 C 170.375 257.382812 169.429688 257.121094 168.640625 256.875 C 166.621094 257.011719 167.140625 258.226562 167.59375 259.09375 Z M 123.101562 251.800781 C 118.054688 252.234375 113.054688 252.980469 108.097656 254.03125 C 106.753906 254.285156 106.316406 255.648438 107.128906 256.949219 C 108.480469 259.066406 110.019531 261.039062 111.738281 262.871094 C 112.597656 263.816406 113.515625 263.765625 114.492188 262.96875 C 117.855469 260.3125 121.050781 257.464844 124.078125 254.429688 C 124.546875 253.96875 124.882812 253.425781 125.085938 252.800781 C 124.851562 251.742188 123.957031 251.726562 123.101562 251.78125 Z M 88.570312 244.792969 C 91.523438 247.273438 94.664062 249.488281 97.992188 251.429688 C 99.03125 252.003906 99.632812 251.429688 99.984375 250.550781 C 101.304688 247.109375 102.578125 243.671875 103.90625 240.277344 C 104.25 239.382812 103.84375 238.992188 103.136719 238.53125 C 102.269531 237.96875 101.160156 238.441406 100.382812 237.71875 C 96.039062 239.191406 91.976562 241.214844 88.183594 243.792969 C 88.289062 244.109375 88.328125 244.578125 88.570312 244.769531 Z M 136.613281 248.109375 C 137.71875 250.769531 139.003906 253.335938 140.472656 255.8125 C 141.507812 257.566406 142.964844 257.84375 144.523438 256.460938 C 145.738281 255.425781 146.863281 254.300781 147.894531 253.082031 C 150.839844 249.421875 152.203125 249.546875 146.902344 246.964844 C 146.40625 246.726562 145.960938 246.394531 145.472656 246.132812 C 143.632812 245.164062 141.859375 244.070312 139.839844 243.476562 C 137.984375 242.953125 136.289062 244.164062 136.207031 246.347656 C 136.230469 246.953125 136.367188 247.53125 136.613281 248.085938 Z M 137.679688 195.324219 C 137.605469 195.089844 137.605469 194.773438 137.445312 194.636719 C 134.988281 192.523438 132.519531 190.417969 130.019531 188.355469 C 129.871094 188.234375 129.707031 188.148438 129.523438 188.097656 C 129.34375 188.046875 129.15625 188.03125 128.96875 188.054688 C 128.78125 188.082031 128.605469 188.140625 128.441406 188.238281 C 128.277344 188.335938 128.140625 188.464844 128.03125 188.617188 C 125.277344 191.371094 123.210938 194.480469 123.378906 198.613281 Z M 144.039062 329.132812 C 143.9375 328.988281 143.828125 328.871094 143.675781 329.078125 C 143.738281 329.152344 143.808594 329.222656 143.882812 329.292969 C 143.964844 329.234375 144.039062 329.1875 144.039062 329.132812 Z M 144.039062 329.132812 " fill-opacity="1" fill-rule="nonzero"/><path fill="#ce9782" d="M 129.179688 132.234375 C 133.308594 134.699219 137.894531 135.636719 142.671875 135.890625 C 149.554688 136.253906 156.339844 136.933594 163.148438 137.78125 C 162 138.902344 161.046875 140.164062 160.285156 141.570312 C 159.523438 142.980469 158.984375 144.46875 158.671875 146.039062 C 157.742188 150.421875 157.378906 154.808594 159.121094 159.109375 C 159.933594 160.765625 160.023438 162.625 160.578125 164.359375 C 162.140625 169.230469 163.929688 174.03125 167.40625 177.878906 C 174.054688 185.253906 182.816406 188.417969 192.390625 189.3125 C 202.117188 190.21875 211.078125 187.660156 219.179688 182.09375 C 221.804688 180.292969 224.316406 178.351562 226.847656 176.433594 C 235.960938 186.304688 247.585938 192.945312 258.351562 200.648438 C 264.132812 204.777344 270.050781 208.824219 274.78125 214.25 C 279.765625 219.929688 282.515625 226.59375 283.851562 233.902344 C 284.84375 239.28125 285.574219 244.703125 284.265625 250.164062 C 283.460938 253.320312 282.316406 256.34375 280.824219 259.238281 C 282.976562 258.195312 284.265625 256.75 285.695312 255.457031 C 291.355469 250.382812 295.785156 244.402344 298.988281 237.511719 C 302.648438 229.386719 302.078125 221.304688 299.125 213.136719 C 297.238281 207.929688 294.6875 203.015625 292.75 197.835938 C 291.265625 193.851562 290 189.808594 290.472656 185.453125 C 291.160156 179.183594 295.230469 175.640625 301.5625 175.332031 C 309.050781 174.960938 313.53125 179.335938 317.132812 185.019531 C 321.136719 191.347656 323.65625 198.339844 325.597656 205.542969 C 328.054688 214.410156 329.285156 223.445312 329.285156 232.648438 C 329.285156 233.117188 329.121094 233.652344 329.636719 233.992188 C 329.238281 235.347656 329.035156 236.738281 329.03125 238.152344 C 328.976562 244.785156 328.929688 251.410156 328.570312 258.035156 C 328.308594 262.90625 326.871094 267.117188 323.214844 270.703125 C 314.140625 279.546875 304.378906 287.554688 293.9375 294.734375 C 293.570312 294.953125 293.191406 295.144531 292.800781 295.316406 C 292.460938 293.941406 291.1875 293.515625 290.183594 292.820312 C 290.109375 292.421875 289.878906 292.148438 289.496094 292.007812 C 285.300781 289.589844 280.816406 287.984375 276.039062 287.191406 C 273.375 286.792969 270.679688 286.621094 268 286.339844 C 270.328125 285.136719 272.867188 285.21875 275.289062 284.722656 C 272.027344 284.523438 268.765625 284.351562 265.695312 285.761719 C 264.738281 286.203125 264.402344 285.761719 264.40625 284.957031 C 264.40625 283.738281 264.664062 282.515625 264.640625 281.296875 C 264.40625 269.558594 265.425781 257.90625 266.210938 246.210938 C 266.367188 243.332031 266.683594 240.476562 267.160156 237.636719 C 268.28125 231.792969 268.296875 225.949219 267.203125 220.101562 C 266.777344 217.878906 265.949219 215.722656 265.136719 214.816406 C 266.390625 220.171875 267.011719 225.601562 267.003906 231.101562 C 267.019531 232.347656 266.6875 233.496094 266.003906 234.539062 C 260.960938 242.390625 256.019531 250.308594 250.945312 258.140625 C 249.277344 260.921875 247.453125 263.597656 245.472656 266.167969 C 245.332031 265.976562 245.214844 265.769531 245.121094 265.546875 C 241.929688 254.691406 235.023438 246.929688 225.160156 241.742188 C 220.34375 239.234375 215.527344 236.839844 213.214844 231.472656 C 213.214844 231.425781 213.125 231.390625 213.074219 231.347656 C 211.738281 229.09375 210.472656 226.789062 209.035156 224.585938 C 206.570312 220.800781 204.050781 217.019531 200.914062 213.761719 C 199.957031 212.746094 199.035156 211.699219 198.03125 210.714844 C 194.882812 207.652344 191.609375 204.75 187.539062 202.914062 C 183.960938 200.375 179.832031 199.128906 175.703125 197.878906 C 162.882812 194.449219 150.300781 190.292969 137.960938 185.410156 C 130.90625 182.625 123.542969 180.84375 115.863281 181.324219 C 113.308594 181.484375 110.511719 181.140625 108.351562 183.128906 L 107.5 183.195312 C 106.808594 181.476562 104.847656 181.132812 103.769531 179.796875 L 103.769531 179.027344 C 104.195312 176.902344 103.335938 175.738281 101.3125 175.71875 C 99.726562 175.71875 97.957031 175.992188 96.886719 174.511719 C 95.191406 172.179688 92.960938 170.476562 90.691406 168.804688 C 87.773438 166.648438 84.660156 164.828125 80.972656 164.304688 C 80.050781 163.5625 78.761719 164.167969 77.828125 163.464844 C 79.15625 161.6875 80.894531 160.328125 82.492188 158.835938 C 88.820312 152.9375 95.210938 147.136719 102.453125 142.371094 C 110.3125 137.21875 118.773438 133.640625 128.210938 132.871094 C 128.675781 132.820312 129.125 132.871094 129.179688 132.234375 Z M 53.929688 276.164062 C 55.859375 275.363281 57.621094 274.289062 59.214844 272.945312 C 60.808594 271.597656 62.164062 270.039062 63.277344 268.273438 C 64.378906 266.457031 65.339844 264.503906 64.207031 262.289062 C 57.671875 266.042969 49.828125 265.726562 43.886719 260.992188 C 37.003906 255.457031 34.828125 246.058594 38.378906 236.914062 C 41.320312 229.347656 46.824219 224.125 53.851562 220.339844 C 55.503906 219.453125 57.371094 219.300781 59.140625 218.8125 L 59.140625 218.574219 C 53.957031 216.589844 48.59375 216.785156 43.210938 217.292969 C 41.148438 217.851562 39.082031 218.351562 37.066406 218.972656 C 30.097656 221.183594 23.851562 224.675781 18.324219 229.457031 C 18.023438 229.65625 17.707031 229.824219 17.375 229.957031 L 17.003906 230.316406 L 16.808594 230.46875 L 16.980469 230.296875 L 17.339844 229.925781 C 17.757812 228.410156 19.171875 227.859375 20.230469 226.964844 C 23.324219 224.425781 26.671875 222.292969 30.28125 220.5625 C 33.890625 218.832031 37.652344 217.558594 41.566406 216.734375 C 41.992188 216.679688 42.417969 216.667969 42.847656 216.695312 C 40.070312 214.078125 37.992188 210.988281 36.613281 207.433594 C 35.234375 208.660156 33.808594 209.8125 32.515625 211.113281 C 25.765625 217.898438 18.335938 224.019531 12.769531 231.953125 C 7.386719 239.625 5.695312 247.886719 7.8125 256.949219 C 8.804688 261.179688 9.226562 261.007812 11.820312 264.515625 C 11.949219 264.695312 12.101562 264.855469 12.445312 265.371094 C 13.480469 266.882812 14.816406 268.050781 16.453125 268.878906 C 21.777344 271.746094 27.464844 273.695312 33.085938 275.882812 C 37.507812 277.601562 42.144531 277.988281 46.804688 278.332031 C 49.195312 277.621094 51.636719 277.195312 53.929688 276.164062 Z M 135.09375 335.140625 C 134.382812 334.523438 133.5625 334.261719 132.628906 334.355469 C 131.871094 334.355469 131.3125 334.222656 131.410156 333.296875 L 130.933594 333.199219 C 130.707031 333.316406 130.527344 333.480469 130.394531 333.695312 C 130.257812 333.914062 130.1875 334.148438 130.183594 334.402344 C 131.734375 335.332031 133.445312 335.085938 135.09375 335.140625 Z M 136.019531 335.394531 L 136.160156 335.394531 L 136.042969 335.277344 L 135.90625 335.359375 Z M 191.203125 297.851562 C 187.300781 296.046875 183.09375 295.207031 178.96875 294.113281 C 173.242188 292.59375 167.511719 291.128906 161.761719 289.640625 C 161.199219 289.671875 160.703125 289.503906 160.269531 289.140625 C 154.335938 287.722656 148.6875 285.460938 142.988281 283.292969 C 147.199219 286.332031 152.011719 288.074219 156.828125 289.785156 C 158.164062 290.347656 159.441406 291.023438 160.65625 291.816406 C 167.199219 293.589844 174.023438 294.183594 180.65625 295.566406 C 184.175781 296.300781 187.59375 297.507812 191.207031 297.828125 Z M 159.214844 295.65625 C 159.738281 296.042969 160.285156 296.390625 160.855469 296.699219 C 168.261719 298.601562 175.824219 299.210938 183.453125 299.273438 C 175.445312 298 167.371094 297.160156 159.492188 295.1875 C 159.339844 295.332031 158.722656 295.234375 159.230469 295.683594 Z M 149.910156 307.070312 C 153.964844 309.242188 158.136719 311.195312 162.652344 312.167969 C 163.609375 312.378906 164.832031 312.746094 165.734375 311.746094 C 163.886719 311.722656 162.085938 311.429688 160.324219 310.867188 C 156.582031 309.675781 153.113281 307.851562 149.511719 306.3125 C 149.476562 306.476562 149.496094 306.632812 149.574219 306.78125 C 149.652344 306.929688 149.769531 307.035156 149.925781 307.097656 Z M 133.480469 320.003906 C 133.695312 320.003906 134.167969 320.183594 134.003906 319.609375 C 130.722656 318.914062 127.40625 318.6875 124.058594 318.921875 C 122.902344 319.003906 121.617188 318.972656 120.714844 319.984375 C 124.96875 319.484375 129.226562 319.492188 133.480469 320.003906 Z M 121.050781 301.359375 C 121.492188 300.980469 122.675781 300.609375 121.738281 299.589844 C 121.082031 299.800781 120.5625 300.195312 120.183594 300.773438 C 119.613281 301.394531 118.871094 302.039062 119.289062 302.976562 C 119.707031 303.910156 120.664062 303.828125 121.503906 303.761719 C 121.503906 303.621094 121.464844 303.484375 121.449219 303.347656 C 120.09375 302.925781 119.886719 302.363281 121.050781 301.359375 Z M 235.886719 305.226562 C 233.628906 305.671875 231.8125 307.035156 229.882812 308.148438 L 230.570312 308.246094 C 232.542969 307.589844 234.3125 306.582031 235.886719 305.226562 Z M 121.863281 322.921875 C 120.488281 322.835938 119.738281 322.230469 119.949219 320.738281 C 118.863281 321.65625 118.917969 322.492188 120.085938 323.070312 C 120.996094 323.519531 121.980469 323.347656 122.929688 323.421875 C 122.703125 322.925781 122.28125 322.941406 121.863281 322.921875 Z M 141.03125 301.539062 C 139.746094 300.492188 138.175781 300.160156 136.621094 299.777344 C 137.84375 301.042969 139.375 301.425781 141.03125 301.539062 Z M 145.851562 304.117188 C 145.648438 303.796875 145.386719 303.542969 145.0625 303.347656 C 144.738281 303.152344 144.390625 303.042969 144.011719 303.015625 C 144.175781 304.089844 144.988281 304.132812 145.828125 304.117188 Z M 147.695312 305.230469 C 147.265625 304.558594 146.652344 304.1875 145.855469 304.125 C 146.023438 305.199219 146.828125 305.246094 147.675781 305.230469 Z M 142.527344 302.273438 C 142.390625 302 142.183594 301.796875 141.910156 301.660156 C 141.640625 301.523438 141.351562 301.484375 141.054688 301.539062 C 141.285156 302.273438 141.851562 302.363281 142.503906 302.273438 Z M 148.804688 305.960938 C 148.726562 305.726562 148.585938 305.542969 148.378906 305.40625 C 148.171875 305.269531 147.949219 305.210938 147.703125 305.230469 C 147.675781 306.035156 148.203125 306.03125 148.78125 305.960938 Z M 238.121094 304.078125 C 237.710938 304.078125 237.261719 304.027344 237.015625 304.488281 C 237.425781 304.523438 237.867188 304.585938 238.101562 304.078125 Z M 144 303.015625 C 143.945312 302.867188 143.847656 302.757812 143.707031 302.6875 C 143.566406 302.617188 143.421875 302.601562 143.269531 302.644531 C 143.351562 303.03125 143.65625 303.058594 143.976562 303.015625 Z M 149.539062 306.332031 C 149.492188 306.179688 149.394531 306.070312 149.25 305.996094 C 149.109375 305.925781 148.960938 305.917969 148.808594 305.96875 C 148.890625 306.367188 149.1875 306.386719 149.546875 306.332031 Z M 143.261719 302.644531 C 143.144531 302.273438 142.855469 302.234375 142.527344 302.273438 C 142.621094 302.660156 142.917969 302.679688 143.242188 302.644531 Z M 236.621094 304.867188 C 236.269531 304.769531 235.980469 304.796875 235.890625 305.230469 C 236.042969 305.273438 236.1875 305.261719 236.328125 305.191406 C 236.46875 305.121094 236.566406 305.011719 236.621094 304.867188 Z M 120.691406 320.003906 C 120.4375 320.003906 120.253906 320.003906 120.335938 320.355469 C 120.5625 320.339844 120.691406 320.238281 120.691406 320.003906 Z M 120.316406 320.375 C 120.019531 320.304688 119.886719 320.417969 119.964844 320.726562 Z M 236.992188 304.496094 C 236.765625 304.496094 236.59375 304.585938 236.621094 304.867188 Z M 64.589844 260.070312 C 64 260.457031 63.0625 260.601562 63.117188 261.503906 C 63.117188 261.992188 63.855469 261.710938 64.21875 261.894531 C 64.761719 261.371094 64.542969 260.699219 64.589844 260.070312 Z M 157.242188 115.394531 C 158.15625 115.503906 159.074219 115.566406 159.996094 115.578125 C 161.179688 115.683594 162.339844 114.652344 163.527344 115.539062 C 164.109375 115.292969 164.867188 115.347656 165.15625 114.589844 C 162.546875 115.1875 159.789062 114.292969 157.242188 115.394531 Z M 149.214844 200.492188 C 153.929688 199.726562 158.679688 199.15625 163.410156 198.503906 C 161.226562 198.027344 159.101562 198.503906 156.988281 198.738281 C 149.574219 199.617188 142.175781 200.628906 134.777344 201.59375 C 135.972656 202.28125 137.273438 201.921875 138.519531 201.867188 C 139.46875 201.820312 140.40625 201.269531 141.34375 201.867188 C 143.839844 200.726562 146.585938 200.917969 149.214844 200.492188 Z M 124.914062 198.917969 C 128.226562 198.265625 131.519531 197.539062 134.789062 196.734375 C 136.425781 196.328125 138.15625 196.242188 139.8125 195.433594 C 139.113281 195.191406 138.402344 195.148438 137.679688 195.304688 L 123.390625 198.601562 C 123.613281 199.914062 124.492188 199.007812 124.914062 198.917969 Z M 191.234375 297.855469 C 191.359375 298.042969 191.464844 298.316406 191.726562 297.988281 L 191.214844 297.878906 Z M 142.292969 282.851562 L 142.292969 282.949219 L 142.414062 282.914062 Z M 107.988281 194.15625 C 105.234375 194.796875 98.097656 199.695312 97.414062 201.421875 C 100.675781 198.628906 104.628906 196.796875 107.988281 194.15625 Z M 90.78125 207.804688 C 92.789062 206.367188 94.257812 204.433594 95.707031 202.488281 C 93.996094 204.070312 91.839844 205.238281 90.785156 207.441406 C 90.800781 207.566406 90.800781 207.679688 90.792969 207.804688 Z M 62.492188 261.703125 C 62.394531 261.703125 62.230469 261.75 62.210938 261.820312 C 62.152344 262.011719 62.277344 262.09375 62.457031 262.054688 C 62.554688 262.007812 62.648438 261.953125 62.730469 261.882812 C 62.664062 261.820312 62.585938 261.714844 62.503906 261.703125 Z M 62.492188 261.703125 " fill-opacity="1" fill-rule="nonzero"/></svg>